<svg width="36" height="36" viewBox="0 0 36 36" fill="none" xmlns="http://www.w3.org/2000/svg">
<circle cx="18" cy="18" r="18" fill="#1dbf73"/>
<path d="M18 10C19.0609 10 20.0783 10.4214 20.8284 11.1716C21.5786 11.9217 22 12.9391 22 14C22 15.0609 21.5786 16.0783 20.8284 16.8284C20.0783 17.5786 19.0609 18 18 18C16.9391 18 15.9217 17.5786 15.1716 16.8284C14.4214 16.0783 14 15.0609 14 14C14 12.9391 14.4214 11.9217 15.1716 11.1716C15.9217 10.4214 16.9391 10 18 10ZM18 20C22.42 20 26 21.79 26 24V26H10V24C10 21.79 13.58 20 18 20Z" fill="white"/>
</svg>