<svg width="42" height="42" viewBox="0 0 42 42" fill="none" xmlns="http://www.w3.org/2000/svg">
<rect width="41.28" height="41.28" rx="20.64" fill="white"/>
<path d="M21.8411 27.5914L21.0457 28.4075C20.7089 28.753 20.1643 28.753 19.8311 28.4075L12.8659 21.2649C12.5291 20.9193 12.5291 20.3606 12.8659 20.0187L19.8311 12.8724C20.1679 12.5269 20.7125 12.5269 21.0457 12.8724L21.8411 13.6885C22.1815 14.0378 22.1743 14.6075 21.8268 14.9494L17.5094 19.1695H27.8067C28.2832 19.1695 28.6666 19.5629 28.6666 20.0518V21.2281C28.6666 21.717 28.2832 22.1104 27.8067 22.1104H17.5094L21.8268 26.3305C22.1779 26.6724 22.1851 27.2421 21.8411 27.5914Z" fill="black"/>
</svg>
