<svg width="50" height="50" viewBox="0 0 50 50" fill="none" xmlns="http://www.w3.org/2000/svg">
<g filter="url(#filter0_d_38_6142)">
<rect x="4" width="41.28" height="41.28" rx="20.64" fill="white" shape-rendering="crispEdges"/>
<path d="M25.8411 27.5914L25.0457 28.4075C24.7089 28.753 24.1643 28.753 23.8311 28.4075L16.8659 21.2649C16.5291 20.9193 16.5291 20.3606 16.8659 20.0187L23.8311 12.8724C24.1679 12.5269 24.7125 12.5269 25.0457 12.8724L25.8411 13.6885C26.1815 14.0378 26.1743 14.6075 25.8268 14.9494L21.5094 19.1695H31.8067C32.2832 19.1695 32.6666 19.5629 32.6666 20.0518V21.2281C32.6666 21.717 32.2832 22.1104 31.8067 22.1104H21.5094L25.8268 26.3305C26.1779 26.6724 26.1851 27.2421 25.8411 27.5914Z" fill="black"/>
</g>
<defs>
<filter id="filter0_d_38_6142" x="0" y="0" width="49.2793" height="49.2793" filterUnits="userSpaceOnUse" color-interpolation-filters="sRGB">
<feFlood flood-opacity="0" result="BackgroundImageFix"/>
<feColorMatrix in="SourceAlpha" type="matrix" values="0 0 0 0 0 0 0 0 0 0 0 0 0 0 0 0 0 0 127 0" result="hardAlpha"/>
<feOffset dy="4"/>
<feGaussianBlur stdDeviation="2"/>
<feComposite in2="hardAlpha" operator="out"/>
<feColorMatrix type="matrix" values="0 0 0 0 0 0 0 0 0 0 0 0 0 0 0 0 0 0 0.25 0"/>
<feBlend mode="normal" in2="BackgroundImageFix" result="effect1_dropShadow_38_6142"/>
<feBlend mode="normal" in="SourceGraphic" in2="effect1_dropShadow_38_6142" result="shape"/>
</filter>
</defs>
</svg>
