<svg width="17" height="17" viewBox="0 0 17 17" fill="none" xmlns="http://www.w3.org/2000/svg">
<path d="M7.51657 1.85028C7.71781 0.75868 9.28219 0.758677 9.48343 1.85028L10.0089 4.70067C10.2382 5.94451 11.223 6.91092 12.4709 7.11678L14.8749 7.51333C15.9912 7.69748 15.9912 9.30252 14.8749 9.48667L12.4709 9.88322C11.223 10.0891 10.2382 11.0555 10.0089 12.2993L9.48343 15.1497C9.28219 16.2413 7.71781 16.2413 7.51657 15.1497L6.9911 12.2993C6.76179 11.0555 5.77702 10.0891 4.5291 9.88322L2.12515 9.48667C1.00883 9.30252 1.00883 7.69748 2.12515 7.51333L4.5291 7.11678C5.77702 6.91092 6.76179 5.9445 6.9911 4.70067L7.51657 1.85028Z" stroke="#3A77EF" stroke-width="2"/>
</svg>
