<svg width="50" height="50" viewBox="0 0 50 50" fill="none" xmlns="http://www.w3.org/2000/svg">
<rect width="50" height="50" rx="8" fill="#23BDEE"/>
<g clip-path="url(#clip0_18_605)">
<path d="M18.125 11.25C17.5825 11.25 17.1428 11.6897 17.1428 12.2322V14.1964H19.1071V12.2322C19.1071 11.6897 18.6674 11.25 18.125 11.25Z" fill="white"/>
<path d="M31.875 11.25C31.3325 11.25 30.8928 11.6897 30.8928 12.2322V14.1964H32.8571V12.2322C32.8571 11.6897 32.4174 11.25 31.875 11.25Z" fill="white"/>
<path d="M35.8036 14.1965H32.8571V18.1251C32.8571 18.6676 32.4174 19.1073 31.875 19.1073C31.3325 19.1073 30.8928 18.6676 30.8928 18.1251V14.1965H19.1071V18.1251C19.1071 18.6676 18.6674 19.1073 18.125 19.1073C17.5825 19.1073 17.1428 18.6676 17.1428 18.1251V14.1965H14.1964C12.5692 14.1965 11.25 15.5157 11.25 17.143V35.8037C11.25 37.431 12.5692 38.7501 14.1964 38.7501H35.8036C37.4308 38.7501 38.75 37.431 38.75 35.8037V17.143C38.75 15.5157 37.4308 14.1965 35.8036 14.1965ZM36.7857 35.8037C36.7857 36.3461 36.346 36.7859 35.8035 36.7859H14.1964C13.654 36.7859 13.2143 36.3461 13.2143 35.8037V23.0358H36.7857V35.8037Z" fill="white"/>
<path d="M19.1071 25H17.1428C16.6004 25 16.1606 25.4397 16.1606 25.9822C16.1606 26.5246 16.6004 26.9643 17.1428 26.9643H19.1071C19.6495 26.9643 20.0892 26.5246 20.0892 25.9822C20.0892 25.4397 19.6495 25 19.1071 25Z" fill="white"/>
<path d="M25.9821 25H24.0178C23.4754 25 23.0356 25.4397 23.0356 25.9822C23.0356 26.5246 23.4754 26.9643 24.0178 26.9643H25.9821C26.5245 26.9643 26.9642 26.5246 26.9642 25.9822C26.9642 25.4397 26.5245 25 25.9821 25Z" fill="white"/>
<path d="M32.8571 25H30.8928C30.3504 25 29.9106 25.4397 29.9106 25.9822C29.9106 26.5246 30.3504 26.9643 30.8928 26.9643H32.8571C33.3995 26.9643 33.8392 26.5246 33.8392 25.9822C33.8392 25.4397 33.3995 25 32.8571 25Z" fill="white"/>
<path d="M19.1071 28.9285H17.1428C16.6004 28.9285 16.1606 29.3682 16.1606 29.9106C16.1606 30.4531 16.6004 30.8928 17.1428 30.8928H19.1071C19.6495 30.8928 20.0892 30.4531 20.0892 29.9106C20.0892 29.3682 19.6495 28.9285 19.1071 28.9285Z" fill="white"/>
<path d="M25.9821 28.9285H24.0178C23.4754 28.9285 23.0356 29.3682 23.0356 29.9106C23.0356 30.4531 23.4754 30.8928 24.0178 30.8928H25.9821C26.5245 30.8928 26.9642 30.4531 26.9642 29.9106C26.9642 29.3682 26.5245 28.9285 25.9821 28.9285Z" fill="white"/>
<path d="M32.8571 28.9285H30.8928C30.3504 28.9285 29.9106 29.3682 29.9106 29.9106C29.9106 30.4531 30.3504 30.8928 30.8928 30.8928H32.8571C33.3995 30.8928 33.8392 30.4531 33.8392 29.9106C33.8392 29.3682 33.3995 28.9285 32.8571 28.9285Z" fill="white"/>
<path d="M19.1071 32.8572H17.1428C16.6004 32.8572 16.1606 33.2969 16.1606 33.8393C16.1606 34.3818 16.6004 34.8214 17.1428 34.8214H19.1071C19.6495 34.8214 20.0892 34.3817 20.0892 33.8393C20.0892 33.2968 19.6495 32.8572 19.1071 32.8572Z" fill="white"/>
<path d="M25.9821 32.8572H24.0178C23.4754 32.8572 23.0356 33.2969 23.0356 33.8393C23.0356 34.3818 23.4754 34.8215 24.0178 34.8215H25.9821C26.5245 34.8215 26.9642 34.3818 26.9642 33.8393C26.9642 33.2969 26.5245 32.8572 25.9821 32.8572Z" fill="white"/>
<path d="M32.8571 32.8572H30.8928C30.3504 32.8572 29.9106 33.2969 29.9106 33.8393C29.9106 34.3818 30.3504 34.8215 30.8928 34.8215H32.8571C33.3995 34.8215 33.8392 34.3818 33.8392 33.8393C33.8392 33.2969 33.3995 32.8572 32.8571 32.8572Z" fill="white"/>
</g>
<defs>
<clipPath id="clip0_18_605">
<rect width="27.5" height="27.5" fill="white" transform="translate(11.25 11.25)"/>
</clipPath>
</defs>
</svg>
