<svg width="23" height="31" viewBox="0 0 23 31" fill="none" xmlns="http://www.w3.org/2000/svg">
<path d="M16.993 13.1017C16.993 13.6982 16.5435 14.1818 15.9891 14.1818H7.28902C6.7346 14.1818 6.28516 13.6982 6.28516 13.1017C6.28516 12.5051 6.7346 12.0215 7.28902 12.0215H15.9891C16.5435 12.0215 16.993 12.5051 16.993 13.1017Z" fill="#1DBF73"/>
<path d="M14.316 18.8634C14.316 19.4599 13.8666 19.9436 13.3122 19.9436H7.28902C6.7346 19.9436 6.28516 19.4599 6.28516 18.8634C6.28516 18.2668 6.7346 17.7832 7.28902 17.7832H13.3122C13.8666 17.7832 14.316 18.2668 14.316 18.8634Z" fill="#1DBF73"/>
<path fill-rule="evenodd" clip-rule="evenodd" d="M8.96056 0.138672C7.48212 0.138672 6.28361 1.4283 6.28361 3.01914H3.60665C2.1282 3.01914 0.929688 4.30877 0.929688 5.8996V27.5031C0.929688 29.094 2.1282 30.3836 3.60665 30.3836H19.6684C21.1469 30.3836 22.3454 29.094 22.3454 27.5031V5.8996C22.3454 4.30877 21.1469 3.01914 19.6684 3.01914H16.9914C16.9914 1.4283 15.793 0.138672 14.3145 0.138672H8.96056ZM14.9837 3.01914C14.9837 2.62143 14.684 2.29902 14.3145 2.29902H8.96056C8.59096 2.29902 8.29132 2.62143 8.29132 3.01914V5.17949C8.29132 5.57719 8.59096 5.8996 8.96056 5.8996H14.3145C14.684 5.8996 14.9837 5.57719 14.9837 5.17949V3.01914ZM16.9914 5.17949C16.9914 6.77033 15.793 8.05995 14.3145 8.05995H8.96056C7.48212 8.05995 6.28361 6.77033 6.28361 5.17949H3.60665C3.23704 5.17949 2.93741 5.5019 2.93741 5.8996V27.5031C2.93741 27.9008 3.23704 28.2232 3.60665 28.2232H19.6684C20.038 28.2232 20.3376 27.9008 20.3376 27.5031V5.8996C20.3376 5.5019 20.038 5.17949 19.6684 5.17949H16.9914Z" fill="#1DBF73"/>
</svg>
