<svg width="28" height="31" viewBox="0 0 28 31" fill="none" xmlns="http://www.w3.org/2000/svg">
<path d="M1.49219 15.3504L13.6159 22.0769C13.7809 22.1684 13.8633 22.2142 13.9499 22.2322C14.0265 22.2482 14.1051 22.2482 14.1817 22.2322C14.2682 22.2142 14.3507 22.1684 14.5156 22.0769L26.6394 15.3504M1.49219 22.3265L13.6159 29.0531C13.7809 29.1446 13.8633 29.1903 13.9499 29.2083C14.0265 29.2243 14.1051 29.2243 14.1817 29.2083C14.2682 29.1903 14.3507 29.1446 14.5156 29.0531L26.6394 22.3265M1.49219 8.37426L13.6159 1.64771C13.7809 1.5562 13.8633 1.51044 13.9499 1.49243C14.0265 1.47648 14.1051 1.47648 14.1817 1.49243C14.2682 1.51044 14.3507 1.5562 14.5156 1.64771L26.6394 8.37426L14.5156 15.1008C14.3507 15.1923 14.2682 15.2381 14.1817 15.2561C14.1051 15.272 14.0265 15.272 13.9499 15.2561C13.8633 15.2381 13.7809 15.1923 13.6159 15.1008L1.49219 8.37426Z" stroke="#1DBF73" stroke-width="2" stroke-linecap="round" stroke-linejoin="round"/>
</svg>
