<svg width="27" height="30" viewBox="0 0 27 30" fill="none" xmlns="http://www.w3.org/2000/svg">
<path d="M19.475 8.53964V21.5017V8.53964ZM13.6344 13.4004V21.5017V13.4004ZM7.79376 18.2612V21.5017V18.2612ZM4.87344 27.9828H22.3954C23.1699 27.9828 23.9127 27.6414 24.4603 27.0337C25.008 26.4259 25.3157 25.6017 25.3157 24.7423V5.29912C25.3157 4.43968 25.008 3.61544 24.4603 3.00772C23.9127 2.40001 23.1699 2.05859 22.3954 2.05859H4.87344C4.09893 2.05859 3.35613 2.40001 2.80847 3.00772C2.2608 3.61544 1.95313 4.43968 1.95312 5.29912V24.7423C1.95313 25.6017 2.2608 26.4259 2.80847 27.0337C3.35613 27.6414 4.09893 27.9828 4.87344 27.9828Z" stroke="#1DBF73" stroke-width="2.5" stroke-linecap="round" stroke-linejoin="round"/>
</svg>
