<svg width="17" height="30" viewBox="0 0 17 30" fill="none" xmlns="http://www.w3.org/2000/svg">
<path d="M11.1653 7.83375C11.1478 8.8593 11.1616 9.88392 11.1616 10.9455C11.3077 10.952 11.4289 10.9631 11.551 10.9631C12.7504 10.964 13.9507 10.9622 15.151 10.964C15.8779 10.9659 16.0573 11.1444 16.0582 11.8583C16.06 13.2315 16.061 14.6048 16.0582 15.978C16.0563 16.6142 15.8982 16.7751 15.2583 16.7779C14.0348 16.7835 12.8123 16.7798 11.5889 16.7798H11.1635V28.0451C11.1635 29.0632 11.0636 29.1612 10.0288 29.1612C8.7129 29.1612 7.39791 29.1622 6.08292 29.1603C5.35237 29.1594 5.18314 28.992 5.18221 28.267C5.18129 24.6096 5.18221 20.9513 5.18221 17.293V16.8436C5.04165 16.8353 4.92051 16.8223 4.79937 16.8223C3.79602 16.8205 2.79174 16.8232 1.78839 16.8205C1.09205 16.8177 0.923748 16.6559 0.921899 15.966C0.91635 14.6159 0.917275 13.2657 0.920974 11.9156C0.922824 11.198 1.08743 11.0371 1.79671 11.0362C2.78897 11.0352 3.78122 11.0362 4.77348 11.0362H5.18221C5.18221 10.8651 5.18036 10.7301 5.18221 10.5951C5.20626 9.28006 5.1591 7.95952 5.27007 6.65285C5.55119 3.36352 8.08038 0.982292 11.3854 0.858376C12.7679 0.80659 14.1532 0.836182 15.5385 0.839881C15.9962 0.84173 16.1923 1.03963 16.195 1.50015C16.2024 2.8734 16.2024 4.24665 16.195 5.6199C16.1923 6.0869 15.9999 6.27185 15.4987 6.28387C14.5647 6.30607 13.6298 6.30699 12.6958 6.32086C11.612 6.33751 11.1848 6.74717 11.1653 7.83375Z" fill="#555555"/>
</svg>
