<svg width="31" height="30" viewBox="0 0 31 30" fill="none" xmlns="http://www.w3.org/2000/svg">
<path d="M30.0788 8.72144C30.0588 5.6677 28.6571 3.35055 25.9451 1.80809C24.7518 1.12902 23.4329 0.835215 22.0498 0.834522C17.6836 0.831058 13.3174 0.820664 8.95126 0.837294C5.39755 0.85046 2.42876 2.95766 1.30458 6.24838C1.13909 6.73343 1.07846 7.25312 0.97004 7.75688C0.950781 7.84627 0.935088 7.93635 0.917969 8.02574V21.9689C0.996433 22.3929 1.03923 22.8267 1.15835 23.2397C2.06283 26.3759 4.16067 28.3022 7.4312 29.0201C7.72437 29.0845 8.0261 29.115 8.32355 29.1615H22.6796C23.1169 29.0852 23.5634 29.0437 23.9892 28.9279C27.2141 28.0507 29.2028 26.0163 29.9304 22.8426C30.0474 22.3347 30.0773 21.7998 30.0788 21.2773C30.0902 17.092 30.1059 12.9067 30.0788 8.72144ZM15.5144 22.7616C11.1233 22.7858 7.50538 19.2768 7.50752 14.9959C7.50966 10.7192 11.0684 7.25728 15.4887 7.23303C19.8799 7.20878 23.4978 10.7171 23.4956 14.998C23.4935 19.2747 19.9348 22.7366 15.5144 22.7616ZM23.9778 9.12403C22.6582 9.11987 21.5483 8.04029 21.549 6.76114C21.549 5.47784 22.6554 4.40796 23.9814 4.40934C25.3146 4.41004 26.4066 5.4723 26.4031 6.7653C26.4002 8.05415 25.296 9.12819 23.9778 9.12403Z" fill="#555555"/>
<path d="M0.917969 21.9766C0.996433 22.4006 1.03923 22.8344 1.15835 23.2474C2.06283 26.3836 4.16067 28.3099 7.4312 29.0278C7.72437 29.0923 8.0261 29.1227 8.32355 29.1692C5.85478 29.1692 3.38602 29.1692 0.917969 29.1692C0.917969 26.7716 0.917969 24.3741 0.917969 21.9766Z" fill="white"/>
<path d="M21.7733 15.0182C21.7619 18.3872 18.9315 21.1181 15.4748 21.0959C12.0124 21.0737 9.21909 18.3436 9.2305 14.9919C9.24192 11.6236 12.073 8.89134 15.5297 8.9142C18.9921 8.93638 21.7847 11.6665 21.7733 15.0182Z" fill="#555555"/>
<path d="M24.6761 6.76229C24.6775 7.13509 24.3529 7.45245 23.9735 7.45037C23.5975 7.44829 23.2659 7.11984 23.2716 6.75536C23.278 6.39712 23.5947 6.09085 23.9656 6.08599C24.3544 6.08114 24.6746 6.38603 24.6761 6.76229Z" fill="#555555"/>
</svg>
