<svg width="20" height="20" viewBox="0 0 20 20" fill="none" xmlns="http://www.w3.org/2000/svg">
<path fill-rule="evenodd" clip-rule="evenodd" d="M17.109 3.77569C17.2194 3.65721 17.2795 3.5005 17.2766 3.33858C17.2737 3.17667 17.2081 3.02218 17.0936 2.90767C16.9791 2.79316 16.8246 2.72756 16.6627 2.72471C16.5008 2.72185 16.3441 2.78195 16.2256 2.89235L2.89228 16.2257C2.83088 16.2829 2.78163 16.3519 2.74747 16.4286C2.71331 16.5052 2.69494 16.588 2.69346 16.6719C2.69198 16.7558 2.70741 16.8392 2.73885 16.917C2.77028 16.9948 2.81707 17.0655 2.87642 17.1249C2.93577 17.1842 3.00646 17.231 3.08429 17.2625C3.16211 17.2939 3.24547 17.3093 3.32939 17.3078C3.4133 17.3064 3.49607 17.288 3.57273 17.2538C3.6494 17.2197 3.7184 17.1704 3.77562 17.109L6.30478 14.5799C7.40312 15.0865 8.66062 15.4174 10.0006 15.4174C12.1823 15.4174 14.1439 14.5415 15.5573 13.4565C16.2656 12.9132 16.8464 12.3099 17.2531 11.7232C17.6531 11.1465 17.9173 10.5415 17.9173 10.0007C17.9173 9.45985 17.6531 8.85485 17.2531 8.27902C16.8464 7.69152 16.2656 7.08819 15.5573 6.54569C15.3323 6.37235 15.0923 6.20402 14.8406 6.04485L17.109 3.77569ZM12.6089 8.27735L11.6923 9.19235C11.8594 9.54224 11.9139 9.93532 11.8483 10.3175C11.7828 10.6996 11.6003 11.0521 11.3262 11.3262C11.052 11.6004 10.6996 11.7828 10.3174 11.8484C9.93525 11.914 9.54217 11.8595 9.19228 11.6924L8.27562 12.609C8.87656 13.0069 9.59656 13.1848 10.3137 13.1127C11.0308 13.0405 11.7009 12.7227 12.2105 12.2131C12.7202 11.7035 13.038 11.0333 13.1101 10.3162C13.1823 9.59913 13.0043 8.87913 12.6064 8.27819" fill="#9D9D9D"/>
<path d="M10.559 6.92565C10.5933 6.93207 10.6286 6.93012 10.662 6.91997C10.6953 6.90981 10.7258 6.89175 10.7507 6.86732L12.3757 5.24232C12.4009 5.21747 12.4192 5.18643 12.4287 5.1523C12.4382 5.11817 12.4386 5.08214 12.4299 5.04781C12.4211 5.01348 12.4035 4.98206 12.3787 4.95667C12.354 4.93129 12.3231 4.91283 12.289 4.90315C11.5443 4.69325 10.7744 4.58587 10.0007 4.58398C7.81898 4.58398 5.85732 5.45982 4.44398 6.54482C3.73565 7.08815 3.15482 7.69148 2.74732 8.27815C2.34732 8.85482 2.08398 9.45982 2.08398 10.0007C2.08398 10.5415 2.34815 11.1465 2.74732 11.7223C3.14387 12.2789 3.61239 12.7805 4.14065 13.214C4.18018 13.2467 4.23052 13.2633 4.28174 13.2607C4.33296 13.2581 4.38133 13.2364 4.41732 13.1998L6.86732 10.7498C6.89175 10.7249 6.90981 10.6945 6.91997 10.6611C6.93012 10.6278 6.93207 10.5924 6.92565 10.5582C6.83535 10.0612 6.86686 9.54968 7.0175 9.06753C7.16814 8.58539 7.43342 8.14695 7.7906 7.78976C8.14778 7.43258 8.58622 7.16731 9.06837 7.01667C9.55051 6.86603 10.062 6.83451 10.559 6.92482" fill="#9D9D9D"/>
</svg>
