<svg width="34" height="34" viewBox="0 0 34 34" fill="none" xmlns="http://www.w3.org/2000/svg">
<path d="M20.1653 9.83571C20.1478 10.8613 20.1616 11.8859 20.1616 12.9475C20.3077 12.954 20.4289 12.9651 20.551 12.9651C21.7504 12.966 22.9507 12.9641 24.151 12.966C24.8779 12.9678 25.0573 13.1463 25.0582 13.8602C25.06 15.2335 25.061 16.6067 25.0582 17.98C25.0563 18.6162 24.8982 18.7771 24.2583 18.7799C23.0348 18.7854 21.8123 18.7817 20.5889 18.7817H20.1635V30.047C20.1635 31.0652 20.0636 31.1632 19.0288 31.1632C17.7129 31.1632 16.3979 31.1641 15.0829 31.1623C14.3524 31.1613 14.1831 30.994 14.1822 30.2689C14.1813 26.6116 14.1822 22.9533 14.1822 19.295V18.8455C14.0417 18.8372 13.9205 18.8243 13.7994 18.8243C12.796 18.8224 11.7917 18.8252 10.7884 18.8224C10.0921 18.8196 9.92375 18.6578 9.9219 17.9679C9.91635 16.6178 9.91728 15.2677 9.92097 13.9175C9.92282 13.1999 10.0874 13.039 10.7967 13.0381C11.789 13.0372 12.7812 13.0381 13.7735 13.0381H14.1822C14.1822 12.867 14.1804 12.732 14.1822 12.597C14.2063 11.282 14.1591 9.96147 14.2701 8.6548C14.5512 5.36547 17.0804 2.98425 20.3854 2.86033C21.7679 2.80854 23.1532 2.83813 24.5385 2.84183C24.9962 2.84368 25.1923 3.04158 25.195 3.5021C25.2024 4.87536 25.2024 6.24861 25.195 7.62186C25.1923 8.08886 24.9999 8.27381 24.4987 8.28583C23.5647 8.30802 22.6298 8.30895 21.6958 8.32282C20.612 8.33946 20.1848 8.74913 20.1653 9.83571Z" fill="#555555"/>
</svg>
