<svg width="44" height="44" viewBox="0 0 44 44" fill="none" xmlns="http://www.w3.org/2000/svg">
<path d="M38.5 19.25H41.25V44H38.5V19.25ZM11 28.875L13.75 26.125V44H11V28.875ZM5.5 34.375L8.25 31.625V44H5.5V34.375ZM16.5 23.375L19.25 20.625V44H16.5V23.375ZM22 20.625L24.75 23.375V43.9785H22V20.625ZM28.875 27.5L30.25 26.125V44H27.5V26.125L28.875 27.5ZM33 23.375L35.75 20.625V44H33V23.375ZM0 39.875L2.75 37.125V44H0V39.875ZM44 5.5V16.5H41.25V10.2051L28.875 22.5586L20.625 14.3086L0 34.9551V31.0449L20.625 10.4414L28.875 18.6914L39.2949 8.25H33V5.5H44Z" fill="black"/>
</svg>
