<svg width="35" height="34" viewBox="0 0 35 34" fill="none" xmlns="http://www.w3.org/2000/svg">
<path d="M32.0788 10.7293C32.0588 7.67551 30.6571 5.35836 27.9451 3.8159C26.7518 3.13683 25.4329 2.84303 24.0498 2.84233C19.6836 2.83887 15.3174 2.82848 10.9513 2.84511C7.39755 2.85827 4.42876 4.96547 3.30458 8.25619C3.13909 8.74124 3.07846 9.26094 2.97004 9.76469C2.95078 9.85408 2.93509 9.94416 2.91797 10.0336V23.9767C2.99643 24.4007 3.03923 24.8345 3.15835 25.2475C4.06283 28.3837 6.16067 30.31 9.4312 31.0279C9.72437 31.0924 10.0261 31.1228 10.3235 31.1693H24.6796C25.1169 31.0931 25.5634 31.0515 25.9892 30.9358C29.2141 30.0585 31.2028 28.0241 31.9304 24.8505C32.0474 24.3425 32.0773 23.8076 32.0788 23.2851C32.0902 19.0998 32.1059 14.9145 32.0788 10.7293ZM17.5144 24.7694C13.1233 24.7936 9.50538 21.2846 9.50752 17.0037C9.50966 12.727 13.0684 9.26509 17.4887 9.24084C21.8799 9.21659 25.4978 12.7249 25.4956 17.0058C25.4935 21.2826 21.9348 24.7444 17.5144 24.7694ZM25.9778 11.1318C24.6582 11.1277 23.5483 10.0481 23.549 8.76896C23.549 7.48565 24.6554 6.41577 25.9814 6.41716C27.3146 6.41785 28.4066 7.48011 28.4031 8.77311C28.4002 10.062 27.296 11.136 25.9778 11.1318Z" fill="#555555"/>
<path d="M2.91797 23.9785C2.99643 24.4026 3.03923 24.8364 3.15835 25.2493C4.06283 28.3855 6.16067 30.3119 9.4312 31.0298C9.72437 31.0942 10.0261 31.1247 10.3235 31.1711C7.85478 31.1711 5.38602 31.1711 2.91797 31.1711C2.91797 28.7736 2.91797 26.376 2.91797 23.9785Z" fill="white"/>
<path d="M23.7733 17.0202C23.7619 20.3892 20.9315 23.12 17.4748 23.0978C14.0124 23.0757 11.2191 20.3455 11.2305 16.9938C11.2419 13.6255 14.073 10.8933 17.5297 10.9162C20.9921 10.9383 23.7847 13.6685 23.7733 17.0202Z" fill="#555555"/>
<path d="M26.6761 8.7662C26.6775 9.139 26.3529 9.45636 25.9735 9.45428C25.5975 9.4522 25.2659 9.12375 25.2716 8.75927C25.278 8.40103 25.5947 8.09475 25.9656 8.0899C26.3544 8.08505 26.6746 8.38994 26.6761 8.7662Z" fill="#555555"/>
</svg>
