<svg width="50" height="50" viewBox="0 0 50 50" fill="none" xmlns="http://www.w3.org/2000/svg">
<rect width="50" height="50" rx="8" fill="#F83D3D"/>
<path d="M39.2106 38.4237H36.842V17.1413C36.8662 16.7865 36.6445 16.4612 36.305 16.3532L28.9474 13.9412V10.7882C28.9474 10.5792 28.8643 10.3788 28.716 10.231C28.5683 10.083 28.3673 10 28.158 10H13.9474C13.5115 10 13.158 10.353 13.158 10.7882V38.4233H10.7894C10.3536 38.4233 10 38.7763 10 39.2118C10 39.647 10.3536 40 10.7894 40H39.2106C39.6464 40 40 39.647 40 39.2118C40 38.7763 39.6464 38.4237 39.2106 38.4237ZM35.2632 17.7087V38.4237H28.9472V15.5967L35.2632 17.7087ZM20.263 38.4237V35.2708H21.8419V38.4238L20.263 38.4237ZM22.6314 33.6943H19.4736C19.0376 33.6943 18.684 34.0473 18.684 34.4825V38.4237H14.7366V11.6238H27.3682L27.3686 38.4237H23.4212V34.4352C23.3958 34.0183 23.0496 33.6935 22.6314 33.6943ZM20.2315 28.2532C20.2316 28.6765 19.8971 29.0245 19.4736 29.0413H17.8946C17.4588 29.0413 17.1052 28.6887 17.1052 28.2532C17.1052 27.818 17.4588 27.465 17.8946 27.465H19.4736C19.8971 27.482 20.2316 27.8298 20.2315 28.2532ZM24.3052 29.0413H22.6314C22.1956 29.0413 21.842 28.6887 21.842 28.2532C21.842 27.818 22.1956 27.465 22.6314 27.465H24.2104C24.6463 27.465 24.9998 27.818 24.9998 28.2532C24.9998 28.6887 24.6463 29.0413 24.2104 29.0413H24.3052ZM20.2315 22.0238C20.2316 22.4472 19.8971 22.7952 19.4736 22.812H17.8946C17.4588 22.812 17.1052 22.4593 17.1052 22.0238C17.1052 21.5883 17.4588 21.2357 17.8946 21.2357H19.4736C19.8971 21.2525 20.2316 21.6005 20.2315 22.0238ZM21.8103 22.0238C21.81 21.8092 21.8978 21.6038 22.0525 21.455C22.2076 21.3063 22.4166 21.2272 22.6313 21.2357H24.2104C24.6463 21.2357 24.9998 21.5883 24.9998 22.0238C24.9998 22.4593 24.6463 22.812 24.2104 22.812H22.6313C22.2079 22.7952 21.8732 22.4472 21.8736 22.0238H21.8103ZM20.2315 15.5652C20.2316 15.9883 19.8971 16.3363 19.4736 16.3533H17.8946C17.4588 16.3533 17.1052 16.0003 17.1052 15.5652C17.1052 15.1297 17.4588 14.7768 17.8946 14.7768H19.4736C19.8971 14.7938 20.2316 15.1418 20.2315 15.5652ZM21.8103 15.5652C21.81 15.3505 21.8978 15.1452 22.0525 14.9963C22.2076 14.8473 22.4166 14.7682 22.6313 14.7768H24.2104C24.6463 14.7768 24.9998 15.1297 24.9998 15.5652C24.9998 16.0003 24.6463 16.3533 24.2104 16.3533H22.6313C22.2079 16.3363 21.8732 15.9883 21.8736 15.5652H21.8103Z" fill="white"/>
</svg>
