<svg width="35" height="34" viewBox="0 0 35 34" fill="none" xmlns="http://www.w3.org/2000/svg">
<path d="M28.765 12.3779C28.7733 14.5431 28.3717 16.6337 27.3878 18.5901C26.3188 20.7139 24.7349 22.3456 22.415 23.1706C20.648 23.8005 18.842 23.9554 17.075 23.1339C16.6096 22.9181 16.1879 22.6152 15.7249 22.3387C15.5749 22.8986 15.4107 23.4792 15.2654 24.0644C14.8709 25.6605 14.3961 27.2302 13.6637 28.7172C13.3023 29.4504 12.9137 30.1687 12.29 30.7321C12.1731 30.8376 12.0396 30.9294 11.9014 31.0098C11.3711 31.3161 10.8443 31.1738 10.5573 30.646C10.2655 30.109 10.2088 29.5216 10.1923 28.9295C10.138 26.9031 10.5171 24.9342 11.012 22.9767C11.5707 20.769 12.0975 18.5522 12.6279 16.3377C12.6633 16.1885 12.6456 16.0106 12.5972 15.8626C12.0207 14.0945 11.9759 12.3607 12.9692 10.7084C13.5161 9.79965 14.3028 9.18463 15.4072 9.01596C16.9651 8.77729 18.34 9.86849 18.4546 11.3969C18.5384 12.5018 18.2172 13.5311 17.9183 14.5683C17.6407 15.5253 17.3396 16.4754 17.0632 17.4323C16.9096 17.9636 16.9238 18.4937 17.2155 18.9859C17.7128 19.8212 18.5089 20.0932 19.4409 20.0117C20.5346 19.9176 21.3343 19.3095 21.978 18.4914C22.8013 17.4449 23.2572 16.2401 23.5312 14.9653C23.8076 13.6768 23.9529 12.3768 23.7569 11.0653C23.4415 8.94826 22.2249 7.51283 20.1437 6.85651C18.0435 6.19444 15.9446 6.28853 13.946 7.25352C11.8743 8.25292 10.6494 9.91898 10.145 12.0888C9.88991 13.1914 9.84266 14.3067 10.3104 15.3761C10.4746 15.7513 10.7155 16.1047 10.9719 16.4318C11.2778 16.8207 11.4018 17.2189 11.266 17.6951C11.1514 18.0944 11.0604 18.4994 10.9423 18.8976C10.7108 19.6847 10.132 19.9429 9.36665 19.6113C7.84766 18.9538 6.90273 17.7892 6.37947 16.3009C5.52666 13.8787 5.67549 11.4818 6.81414 9.17889C8.48786 5.79629 11.3238 3.85944 15.0646 3.11361C15.6469 2.99772 16.247 2.95871 16.8387 2.88183C16.9025 2.8738 16.9651 2.852 17.0277 2.83594H18.6235C18.9424 2.87266 19.2613 2.90593 19.5802 2.94724C22.2981 3.29146 24.6309 4.38152 26.4381 6.40787C27.9571 8.11179 28.7579 10.1106 28.765 12.3779Z" fill="#1DBF73"/>
</svg>
