<svg width="26" height="26" viewBox="0 0 26 26" fill="none" xmlns="http://www.w3.org/2000/svg">
<path d="M12.9869 0.803818C19.6928 0.803818 25.1261 6.23709 25.1261 12.943C25.1261 19.649 19.6928 25.0822 12.9869 25.0822C6.28092 25.0822 0.847642 19.649 0.847642 12.943C0.847642 6.23709 6.28092 0.803818 12.9869 0.803818ZM12.9869 22.7327C18.3712 22.7327 22.7765 18.3763 22.7765 12.943C22.7765 7.5587 18.3712 3.15334 12.9869 3.15334C7.55358 3.15334 3.19717 7.5587 3.19717 12.943C3.19717 18.3763 7.55358 22.7327 12.9869 22.7327ZM15.9727 17.6421L11.8121 14.6073C11.6652 14.5094 11.6163 14.3136 11.6163 14.1667V6.09025C11.6163 5.79656 11.861 5.50287 12.2037 5.50287H13.77C14.0637 5.50287 14.3574 5.79656 14.3574 6.09025V13.0409L17.588 15.4394C17.8817 15.6352 17.9306 15.9778 17.7348 16.2715L16.8048 17.4952C16.609 17.7889 16.2664 17.8379 15.9727 17.6421Z" fill="#D9D9D9"/>
</svg>
