<svg width="20" height="20" viewBox="0 0 20 20" fill="none" xmlns="http://www.w3.org/2000/svg">
<path fill-rule="evenodd" clip-rule="evenodd" d="M9.16797 3.33268C5.94631 3.33268 3.33464 5.94435 3.33464 9.16601C3.33464 12.3877 5.94631 14.9993 9.16797 14.9993C12.3896 14.9993 15.0013 12.3877 15.0013 9.16601C15.0013 5.94435 12.3896 3.33268 9.16797 3.33268ZM1.66797 9.16601C1.66797 5.02388 5.02583 1.66602 9.16797 1.66602C13.3101 1.66602 16.668 5.02388 16.668 9.16601C16.668 13.3082 13.3101 16.666 9.16797 16.666C5.02583 16.666 1.66797 13.3082 1.66797 9.16601Z" fill="black"/>
<path fill-rule="evenodd" clip-rule="evenodd" d="M13.287 13.2851C13.6125 12.9597 14.1401 12.9597 14.4656 13.2851L18.0906 16.9101C18.416 17.2355 18.416 17.7632 18.0906 18.0886C17.7651 18.414 17.2375 18.414 16.912 18.0886L13.287 14.4636C12.9616 14.1382 12.9616 13.6105 13.287 13.2851Z" fill="black"/>
</svg>
