<svg width="24" height="25" viewBox="0 0 24 25" fill="none" xmlns="http://www.w3.org/2000/svg">
<path d="M8.25 20.75C8.25 21.1642 7.91421 21.5 7.5 21.5C7.08579 21.5 6.75 21.1642 6.75 20.75C6.75 20.3358 7.08579 20 7.5 20C7.91421 20 8.25 20.3358 8.25 20.75Z" fill="white" stroke="white" stroke-width="1.5"/>
<path d="M17.25 22.25C18.0784 22.25 18.75 21.5784 18.75 20.75C18.75 19.9216 18.0784 19.25 17.25 19.25C16.4216 19.25 15.75 19.9216 15.75 20.75C15.75 21.5784 16.4216 22.25 17.25 22.25Z" fill="white"/>
<path d="M3.96429 7.25H20.7857L18.3108 15.9121C18.2213 16.2255 18.0321 16.5012 17.7718 16.6975C17.5116 16.8938 17.1945 17 16.8685 17H7.88145C7.55549 17 7.23839 16.8938 6.97816 16.6975C6.71792 16.5012 6.52872 16.2255 6.43917 15.9121L3.04827 4.04396C3.0035 3.88725 2.90889 3.74939 2.77878 3.65124C2.64866 3.55309 2.49011 3.5 2.32713 3.5H0.75" stroke="white" stroke-width="1.5" stroke-linecap="round" stroke-linejoin="round"/>
</svg>
