<svg width="37" height="37" viewBox="0 0 37 37" fill="none" xmlns="http://www.w3.org/2000/svg">
<path d="M18.0086 2.75764C18.043 2.57426 18.1158 2.49401 18.174 2.44953C18.2474 2.39346 18.3614 2.34981 18.5 2.34981C18.6386 2.34981 18.7526 2.39346 18.826 2.44953C18.8842 2.49401 18.957 2.57426 18.9914 2.75764L20.9988 13.4608C21.2707 14.9106 22.4225 16.0344 23.8786 16.2705L34.5847 18.0064C34.7769 18.0376 34.8581 18.1113 34.9021 18.1676C34.9589 18.2405 35.0046 18.3567 35.0046 18.5C35.0046 18.6433 34.9589 18.7595 34.9021 18.8324C34.8581 18.8887 34.7768 18.9624 34.5847 18.9936L23.8786 20.7295C22.4225 20.9657 21.2707 22.0894 20.9988 23.5392L18.9914 34.2424C18.957 34.4257 18.8842 34.506 18.826 34.5505C18.7526 34.6065 18.6386 34.6502 18.5 34.6502C18.3614 34.6502 18.2474 34.6065 18.174 34.5505C18.1158 34.506 18.043 34.4257 18.0086 34.2424L16.0012 23.5392C15.7293 22.0894 14.5775 20.9656 13.1214 20.7295L2.41532 18.9936C2.22315 18.9624 2.14189 18.8887 2.09791 18.8324C2.04107 18.7595 1.99536 18.6433 1.99536 18.5C1.99536 18.3567 2.04107 18.2405 2.09792 18.1676C2.1419 18.1113 2.22316 18.0376 2.41533 18.0064L13.1214 16.2705C14.5775 16.0343 15.7293 14.9106 16.0012 13.4608L18.0086 2.75764Z" stroke="#D7A002" stroke-width="3"/>
</svg>
