<svg width="23" height="23" viewBox="0 0 23 23" fill="none" xmlns="http://www.w3.org/2000/svg">
<path d="M11.7078 16.7918L15.9152 19.4574C16.453 19.7981 17.1207 19.2914 16.9611 18.6636L15.7455 13.8817C15.7113 13.7485 15.7153 13.6084 15.7572 13.4774C15.7991 13.3464 15.8771 13.2299 15.9822 13.1413L19.7551 10.001C20.2509 9.58841 19.995 8.76566 19.3581 8.72433L14.4309 8.40455C14.2982 8.39507 14.1709 8.34808 14.0639 8.26906C13.9568 8.19004 13.8744 8.08223 13.8263 7.9582L11.9887 3.3306C11.9387 3.19895 11.8499 3.08561 11.734 3.00563C11.6181 2.92565 11.4806 2.88281 11.3398 2.88281C11.199 2.88281 11.0615 2.92565 10.9457 3.00563C10.8298 3.08561 10.7409 3.19895 10.691 3.3306L8.85338 7.9582C8.80523 8.08223 8.72284 8.19004 8.61579 8.26906C8.50875 8.34808 8.38146 8.39507 8.24875 8.40455L3.32159 8.72433C2.68466 8.76566 2.42879 9.58841 2.92453 10.001L6.69743 13.1413C6.80258 13.2299 6.88057 13.3464 6.92245 13.4774C6.96432 13.6084 6.96838 13.7485 6.93414 13.8817L5.80681 18.3164C5.61531 19.0697 6.41658 19.6778 7.06195 19.2689L10.9719 16.7918C11.0818 16.7218 11.2095 16.6846 11.3398 16.6846C11.4702 16.6846 11.5978 16.7218 11.7078 16.7918Z" fill="#FD8E1F"/>
</svg>
