<svg width="13" height="13" viewBox="0 0 13 13" fill="none" xmlns="http://www.w3.org/2000/svg">
<path fill-rule="evenodd" clip-rule="evenodd" d="M12.5675 1.2347C12.6202 1.18201 12.662 1.11946 12.6905 1.05062C12.719 0.981786 12.7337 0.908005 12.7337 0.833496C12.7337 0.758986 12.719 0.685206 12.6905 0.616368C12.662 0.54753 12.6202 0.484982 12.5675 0.432296C12.5149 0.379609 12.4523 0.337816 12.3835 0.309303C12.3146 0.280789 12.2409 0.266113 12.1663 0.266113C12.0918 0.266113 12.0181 0.280789 11.9492 0.309303C11.8804 0.337816 11.8178 0.379609 11.7651 0.432296L6.49967 5.6989L1.23421 0.432296C1.18152 0.379609 1.11897 0.337816 1.05014 0.309303C0.981297 0.280789 0.907517 0.266113 0.833007 0.266113C0.758498 0.266113 0.684718 0.280789 0.61588 0.309303C0.547042 0.337816 0.484494 0.379609 0.431807 0.432296C0.379121 0.484982 0.337328 0.54753 0.308814 0.616368C0.280301 0.685206 0.265625 0.758986 0.265625 0.833496C0.265625 0.908005 0.280301 0.981786 0.308814 1.05062C0.337328 1.11946 0.379121 1.18201 0.431807 1.2347L5.69841 6.50016L0.431807 11.7656C0.325402 11.872 0.265625 12.0163 0.265625 12.1668C0.265625 12.3173 0.325402 12.4616 0.431807 12.568C0.538212 12.6744 0.682528 12.7342 0.833007 12.7342C0.983487 12.7342 1.1278 12.6744 1.23421 12.568L6.49967 7.30143L11.7651 12.568C11.8715 12.6744 12.0159 12.7342 12.1663 12.7342C12.3168 12.7342 12.4611 12.6744 12.5675 12.568C12.6739 12.4616 12.7337 12.3173 12.7337 12.1668C12.7337 12.0163 12.6739 11.872 12.5675 11.7656L7.30094 6.50016L12.5675 1.2347Z" fill="#5C5C5C"/>
</svg>
