<svg width="20" height="22" viewBox="0 0 20 22" fill="none" xmlns="http://www.w3.org/2000/svg">
<path d="M0 20V2H6.2C6.41667 1.4 6.77933 0.916667 7.288 0.55C7.796 0.183333 8.36667 0 9 0C9.63333 0 10.2043 0.183333 10.713 0.55C11.221 0.916667 11.5833 1.4 11.8 2H18V10.7C17.6833 10.55 17.3583 10.4207 17.025 10.312C16.6917 10.204 16.35 10.125 16 10.075V4H2V18H8.05C8.1 18.3667 8.17933 18.7167 8.288 19.05C8.396 19.3833 8.525 19.7 8.675 20H0ZM2 17V18V4V10.075V10V17ZM4 16H8.075C8.125 15.65 8.204 15.3083 8.312 14.975C8.42067 14.6417 8.54167 14.3167 8.675 14H4V16ZM4 12H10.1C10.6333 11.5 11.229 11.0833 11.887 10.75C12.5457 10.4167 13.25 10.1917 14 10.075V10H4V12ZM4 8H14V6H4V8ZM9 3.25C9.21667 3.25 9.396 3.179 9.538 3.037C9.67933 2.89567 9.75 2.71667 9.75 2.5C9.75 2.28333 9.67933 2.104 9.538 1.962C9.396 1.82067 9.21667 1.75 9 1.75C8.78333 1.75 8.60433 1.82067 8.463 1.962C8.321 2.104 8.25 2.28333 8.25 2.5C8.25 2.71667 8.321 2.89567 8.463 3.037C8.60433 3.179 8.78333 3.25 9 3.25ZM15 22C13.6167 22 12.4377 21.5127 11.463 20.538C10.4877 19.5627 10 18.3833 10 17C10 15.6167 10.4877 14.4373 11.463 13.462C12.4377 12.4873 13.6167 12 15 12C16.3833 12 17.5627 12.4873 18.538 13.462C19.5127 14.4373 20 15.6167 20 17C20 18.3833 19.5127 19.5627 18.538 20.538C17.5627 21.5127 16.3833 22 15 22ZM14.5 20H15.5V17.5H18V16.5H15.5V14H14.5V16.5H12V17.5H14.5V20Z" fill="#808080"/>
</svg>
