<svg width="18" height="19" viewBox="0 0 18 19" fill="none" xmlns="http://www.w3.org/2000/svg">
<path d="M2 19C1.45 19 0.979 18.8141 0.587 18.4424C0.195667 18.07 0 17.6225 0 17.1V3.8C0 3.2775 0.195667 2.83037 0.587 2.4586C0.979 2.0862 1.45 1.9 2 1.9H3V0H5V1.9H13V0H15V1.9H16C16.55 1.9 17.021 2.0862 17.413 2.4586C17.8043 2.83037 18 3.2775 18 3.8V17.1C18 17.6225 17.8043 18.07 17.413 18.4424C17.021 18.8141 16.55 19 16 19H2ZM2 17.1H16V7.6H2V17.1ZM2 5.7H16V3.8H2V5.7ZM9 11.4C8.71667 11.4 8.47933 11.3088 8.288 11.1264C8.096 10.9446 8 10.7192 8 10.45C8 10.1808 8.096 9.95505 8.288 9.77265C8.47933 9.59088 8.71667 9.5 9 9.5C9.28333 9.5 9.521 9.59088 9.713 9.77265C9.90433 9.95505 10 10.1808 10 10.45C10 10.7192 9.90433 10.9446 9.713 11.1264C9.521 11.3088 9.28333 11.4 9 11.4ZM5 11.4C4.71667 11.4 4.479 11.3088 4.287 11.1264C4.09567 10.9446 4 10.7192 4 10.45C4 10.1808 4.09567 9.95505 4.287 9.77265C4.479 9.59088 4.71667 9.5 5 9.5C5.28333 9.5 5.521 9.59088 5.713 9.77265C5.90433 9.95505 6 10.1808 6 10.45C6 10.7192 5.90433 10.9446 5.713 11.1264C5.521 11.3088 5.28333 11.4 5 11.4ZM13 11.4C12.7167 11.4 12.4793 11.3088 12.288 11.1264C12.096 10.9446 12 10.7192 12 10.45C12 10.1808 12.096 9.95505 12.288 9.77265C12.4793 9.59088 12.7167 9.5 13 9.5C13.2833 9.5 13.5207 9.59088 13.712 9.77265C13.904 9.95505 14 10.1808 14 10.45C14 10.7192 13.904 10.9446 13.712 11.1264C13.5207 11.3088 13.2833 11.4 13 11.4ZM9 15.2C8.71667 15.2 8.47933 15.1088 8.288 14.9264C8.096 14.7446 8 14.5192 8 14.25C8 13.9808 8.096 13.7554 8.288 13.5736C8.47933 13.3912 8.71667 13.3 9 13.3C9.28333 13.3 9.521 13.3912 9.713 13.5736C9.90433 13.7554 10 13.9808 10 14.25C10 14.5192 9.90433 14.7446 9.713 14.9264C9.521 15.1088 9.28333 15.2 9 15.2ZM5 15.2C4.71667 15.2 4.479 15.1088 4.287 14.9264C4.09567 14.7446 4 14.5192 4 14.25C4 13.9808 4.09567 13.7554 4.287 13.5736C4.479 13.3912 4.71667 13.3 5 13.3C5.28333 13.3 5.521 13.3912 5.713 13.5736C5.90433 13.7554 6 13.9808 6 14.25C6 14.5192 5.90433 14.7446 5.713 14.9264C5.521 15.1088 5.28333 15.2 5 15.2ZM13 15.2C12.7167 15.2 12.4793 15.1088 12.288 14.9264C12.096 14.7446 12 14.5192 12 14.25C12 13.9808 12.096 13.7554 12.288 13.5736C12.4793 13.3912 12.7167 13.3 13 13.3C13.2833 13.3 13.5207 13.3912 13.712 13.5736C13.904 13.7554 14 13.9808 14 14.25C14 14.5192 13.904 14.7446 13.712 14.9264C13.5207 15.1088 13.2833 15.2 13 15.2Z" fill="#989898"/>
</svg>
