<svg width="19" height="19" viewBox="0 0 19 19" fill="none" xmlns="http://www.w3.org/2000/svg">
<path d="M9.5 17.1C11.5156 17.1 13.4487 16.2993 14.874 14.874C16.2993 13.4487 17.1 11.5156 17.1 9.5C17.1 7.48435 16.2993 5.55126 14.874 4.12599C13.4487 2.70071 11.5156 1.9 9.5 1.9C7.48435 1.9 5.55126 2.70071 4.12599 4.12599C2.70071 5.55126 1.9 7.48435 1.9 9.5C1.9 11.5156 2.70071 13.4487 4.12599 14.874C5.55126 16.2993 7.48435 17.1 9.5 17.1ZM9.5 0C10.7476 0 11.9829 0.245725 13.1355 0.723144C14.2881 1.20056 15.3354 1.90033 16.2175 2.78249C17.0997 3.66464 17.7994 4.71191 18.2769 5.86451C18.7543 7.0171 19 8.25244 19 9.5C19 12.0196 17.9991 14.4359 16.2175 16.2175C14.4359 17.9991 12.0196 19 9.5 19C4.2465 19 0 14.725 0 9.5C0 6.98044 1.00089 4.56408 2.78249 2.78249C4.56408 1.00089 6.98044 0 9.5 0ZM9.975 4.75V9.7375L14.25 12.274L13.5375 13.4425L8.55 10.45V4.75H9.975Z" fill="#989898"/>
</svg>
