<svg width="17" height="14" viewBox="0 0 17 14" fill="none" xmlns="http://www.w3.org/2000/svg">
<path d="M8.5 0C12.7363 0 16.2607 3.01778 17 7C16.2615 10.9822 12.7363 14 8.5 14C4.26375 14 0.739301 10.9822 0 7C0.738516 3.01778 4.26375 0 8.5 0ZM8.5 12.4444C10.1023 12.4441 11.6571 11.9053 12.9098 10.9162C14.1625 9.92718 15.0389 8.54644 15.3957 7C15.0376 5.45479 14.1606 4.07556 12.908 3.0878C11.6554 2.10004 10.1014 1.56219 8.5 1.56219C6.8986 1.56219 5.34457 2.10004 4.09199 3.0878C2.83941 4.07556 1.96238 5.45479 1.60431 7C1.96107 8.54644 2.83753 9.92718 4.09023 10.9162C5.34294 11.9053 6.89768 12.4441 8.5 12.4444ZM8.5 10.5C7.56234 10.5 6.66309 10.1313 6.00006 9.47487C5.33704 8.8185 4.96455 7.92826 4.96455 7C4.96455 6.07174 5.33704 5.1815 6.00006 4.52513C6.66309 3.86875 7.56234 3.5 8.5 3.5C9.43766 3.5 10.3369 3.86875 10.9999 4.52513C11.663 5.1815 12.0354 6.07174 12.0354 7C12.0354 7.92826 11.663 8.8185 10.9999 9.47487C10.3369 10.1313 9.43766 10.5 8.5 10.5ZM8.5 8.94444C9.02092 8.94444 9.52051 8.73958 9.88885 8.37493C10.2572 8.01028 10.4641 7.5157 10.4641 7C10.4641 6.4843 10.2572 5.98972 9.88885 5.62507C9.52051 5.26042 9.02092 5.05556 8.5 5.05556C7.97908 5.05556 7.47949 5.26042 7.11115 5.62507C6.7428 5.98972 6.53586 6.4843 6.53586 7C6.53586 7.5157 6.7428 8.01028 7.11115 8.37493C7.47949 8.73958 7.97908 8.94444 8.5 8.94444Z" fill="#2C62EE"/>
</svg>
