<svg width="24" height="24" viewBox="0 0 24 24" fill="none" xmlns="http://www.w3.org/2000/svg">
<path d="M10.0449 2.50438H14.4803C15.0052 2.50438 15.4307 2.9299 15.4307 3.45481V5.67248H9.09449V3.45481C9.09449 2.9299 9.52002 2.50438 10.0449 2.50438ZM7.19363 3.45481V5.67248H4.97596C2.70135 5.67248 0.857422 7.51641 0.857422 9.79102V11.6919C0.857422 12.9167 1.85031 13.9095 3.07509 13.9095H9.72811V13.2759C9.72811 12.576 10.2955 12.0087 10.9954 12.0087H13.5298C14.2297 12.0087 14.7971 12.576 14.7971 13.2759V13.9095H21.4501C22.6749 13.9095 23.6678 12.9167 23.6678 11.6919V9.79102C23.6678 7.51641 21.8238 5.67248 19.5492 5.67248H17.3316V3.45481C17.3316 1.88008 16.0549 0.603516 14.4803 0.603516H10.0449C8.4702 0.603516 7.19363 1.88008 7.19363 3.45481ZM23.6678 15.163C23.0277 15.5728 22.2666 15.8104 21.4501 15.8104H14.7971C14.7971 16.5103 14.2297 17.0777 13.5298 17.0777H10.9954C10.2955 17.0777 9.72811 16.5103 9.72811 15.8104H3.07509C2.25859 15.8104 1.49757 15.5728 0.857422 15.163V19.2953C0.857422 21.5699 2.70135 23.4139 4.97596 23.4139H19.5492C21.8238 23.4139 23.6678 21.5699 23.6678 19.2953V15.163Z" fill="#384D6C"/>
</svg>
