<svg width="18" height="18" viewBox="0 0 18 18" fill="none" xmlns="http://www.w3.org/2000/svg">
<path d="M15.8851 11.433L17.8144 12.3982C18.0619 12.522 18.0619 12.8752 17.8144 12.9989L9.3006 17.257C9.20732 17.3035 9.10449 17.3277 9.00023 17.3277C8.89598 17.3277 8.79315 17.3035 8.69987 17.257L0.186088 12.9989C0.130471 12.9709 0.0837298 12.928 0.0510717 12.875C0.0184135 12.8219 0.00112113 12.7609 0.00112113 12.6986C0.00112113 12.6363 0.0184135 12.5752 0.0510717 12.5222C0.0837298 12.4692 0.130471 12.4262 0.186088 12.3982L2.11654 11.433L8.09801 14.4243C8.66612 14.7078 9.33548 14.7078 9.90246 14.4243L15.8839 11.4319L15.8851 11.433ZM8.69987 0.0707785C8.79315 0.0242303 8.89598 0 9.00023 0C9.10449 0 9.20732 0.0242303 9.3006 0.0707785L17.8144 4.32767C17.87 4.35588 17.9166 4.39893 17.9492 4.45205C17.9818 4.50517 17.9991 4.56627 17.9991 4.6286C17.9991 4.69092 17.9818 4.75203 17.9492 4.80515C17.9166 4.85826 17.87 4.90131 17.8144 4.92953L9.3006 9.18529C9.20732 9.23184 9.10449 9.25607 9.00023 9.25607C8.89598 9.25607 8.79315 9.23184 8.69987 9.18529L0.186088 4.92953C0.130176 4.90161 0.0831489 4.85866 0.0502799 4.80551C0.0174108 4.75235 0 4.69109 0 4.6286C0 4.5661 0.0174108 4.50484 0.0502799 4.45169C0.0831489 4.39853 0.130176 4.35559 0.186088 4.32767L8.69987 0.0707785Z" fill="#808080"/>
<path d="M15.885 7.39772L17.8144 8.36295C18.0619 8.48669 18.0619 8.83993 17.8144 8.96368L9.30058 13.2206C9.20729 13.2671 9.10447 13.2913 9.00021 13.2913C8.89596 13.2913 8.79313 13.2671 8.69984 13.2206L0.186065 8.96368C0.130449 8.93565 0.0837073 8.89272 0.0510492 8.83969C0.018391 8.78665 0.00109863 8.72559 0.00109863 8.66331C0.00109863 8.60103 0.018391 8.53997 0.0510492 8.48694C0.0837073 8.4339 0.130449 8.39098 0.186065 8.36295L2.11652 7.39772L8.09799 10.389C8.66609 10.6725 9.33545 10.6725 9.90244 10.389L15.885 7.39772Z" fill="#808080"/>
</svg>
