<svg width="22" height="19" viewBox="0 0 22 19" fill="none" xmlns="http://www.w3.org/2000/svg">
<path d="M3.20107 19C2.56408 19 2.01857 18.8141 1.56457 18.4424C1.11134 18.07 0.88472 17.6225 0.88472 17.1V3.8C0.88472 3.2775 1.11134 2.83037 1.56457 2.4586C2.01857 2.0862 2.56408 1.9 3.20107 1.9H4.35925V0H6.6756V1.9H15.941V0H18.2574V1.9H19.4156C20.0525 1.9 20.598 2.0862 21.0521 2.4586C21.5053 2.83037 21.7319 3.2775 21.7319 3.8V17.1C21.7319 17.6225 21.5053 18.07 21.0521 18.4424C20.598 18.8141 20.0525 19 19.4156 19H3.20107ZM3.20107 17.1H19.4156V7.6H3.20107V17.1ZM3.20107 5.7H19.4156V3.8H3.20107V5.7ZM11.3083 11.4C10.9802 11.4 10.7053 11.3088 10.4837 11.1264C10.2613 10.9446 10.1501 10.7192 10.1501 10.45C10.1501 10.1808 10.2613 9.95505 10.4837 9.77265C10.7053 9.59088 10.9802 9.5 11.3083 9.5C11.6365 9.5 11.9117 9.59088 12.1341 9.77265C12.3557 9.95505 12.4665 10.1808 12.4665 10.45C12.4665 10.7192 12.3557 10.9446 12.1341 11.1264C11.9117 11.3088 11.6365 11.4 11.3083 11.4ZM6.6756 11.4C6.34745 11.4 6.07219 11.3088 5.84982 11.1264C5.62823 10.9446 5.51743 10.7192 5.51743 10.45C5.51743 10.1808 5.62823 9.95505 5.84982 9.77265C6.07219 9.59088 6.34745 9.5 6.6756 9.5C7.00375 9.5 7.27902 9.59088 7.50138 9.77265C7.72298 9.95505 7.83378 10.1808 7.83378 10.45C7.83378 10.7192 7.72298 10.9446 7.50138 11.1264C7.27902 11.3088 7.00375 11.4 6.6756 11.4ZM15.941 11.4C15.6129 11.4 15.338 11.3088 15.1164 11.1264C14.894 10.9446 14.7828 10.7192 14.7828 10.45C14.7828 10.1808 14.894 9.95505 15.1164 9.77265C15.338 9.59088 15.6129 9.5 15.941 9.5C16.2692 9.5 16.544 9.59088 16.7656 9.77265C16.988 9.95505 17.0992 10.1808 17.0992 10.45C17.0992 10.7192 16.988 10.9446 16.7656 11.1264C16.544 11.3088 16.2692 11.4 15.941 11.4ZM11.3083 15.2C10.9802 15.2 10.7053 15.1088 10.4837 14.9264C10.2613 14.7446 10.1501 14.5192 10.1501 14.25C10.1501 13.9808 10.2613 13.7554 10.4837 13.5736C10.7053 13.3912 10.9802 13.3 11.3083 13.3C11.6365 13.3 11.9117 13.3912 12.1341 13.5736C12.3557 13.7554 12.4665 13.9808 12.4665 14.25C12.4665 14.5192 12.3557 14.7446 12.1341 14.9264C11.9117 15.1088 11.6365 15.2 11.3083 15.2ZM6.6756 15.2C6.34745 15.2 6.07219 15.1088 5.84982 14.9264C5.62823 14.7446 5.51743 14.5192 5.51743 14.25C5.51743 13.9808 5.62823 13.7554 5.84982 13.5736C6.07219 13.3912 6.34745 13.3 6.6756 13.3C7.00375 13.3 7.27902 13.3912 7.50138 13.5736C7.72298 13.7554 7.83378 13.9808 7.83378 14.25C7.83378 14.5192 7.72298 14.7446 7.50138 14.9264C7.27902 15.1088 7.00375 15.2 6.6756 15.2ZM15.941 15.2C15.6129 15.2 15.338 15.1088 15.1164 14.9264C14.894 14.7446 14.7828 14.5192 14.7828 14.25C14.7828 13.9808 14.894 13.7554 15.1164 13.5736C15.338 13.3912 15.6129 13.3 15.941 13.3C16.2692 13.3 16.544 13.3912 16.7656 13.5736C16.988 13.7554 17.0992 13.9808 17.0992 14.25C17.0992 14.5192 16.988 14.7446 16.7656 14.9264C16.544 15.1088 16.2692 15.2 15.941 15.2Z" fill="#808080"/>
</svg>
