<svg width="23" height="19" viewBox="0 0 23 19" fill="none" xmlns="http://www.w3.org/2000/svg">
<path d="M11.6408 17.1C13.9752 17.1 16.2141 16.2993 17.8648 14.874C19.5155 13.4487 20.4429 11.5156 20.4429 9.5C20.4429 7.48435 19.5155 5.55126 17.8648 4.12599C16.2141 2.70071 13.9752 1.9 11.6408 1.9C9.30628 1.9 7.06742 2.70071 5.41669 4.12599C3.76597 5.55126 2.83861 7.48435 2.83861 9.5C2.83861 11.5156 3.76597 13.4487 5.41669 14.874C7.06742 16.2993 9.30628 17.1 11.6408 17.1ZM11.6408 0C13.0856 0 14.5164 0.245725 15.8513 0.723144C17.1862 1.20056 18.3991 1.90033 19.4208 2.78249C20.4425 3.66464 21.253 4.71191 21.8059 5.86451C22.3588 7.0171 22.6434 8.25244 22.6434 9.5C22.6434 12.0196 21.4842 14.4359 19.4208 16.2175C17.3574 17.9991 14.5588 19 11.6408 19C5.55627 19 0.638069 14.725 0.638069 9.5C0.638069 6.98044 1.79728 4.56408 3.86068 2.78249C5.92408 1.00089 8.72266 0 11.6408 0ZM12.1909 4.75V9.7375L17.1421 12.274L16.3169 13.4425L10.5405 10.45V4.75H12.1909Z" fill="#808080"/>
</svg>
