<svg width="18" height="18" viewBox="0 0 18 18" fill="none" xmlns="http://www.w3.org/2000/svg">
<path fill-rule="evenodd" clip-rule="evenodd" d="M16.8527 2.18583C16.9209 2.11765 16.975 2.03671 17.0119 1.94762C17.0488 1.85854 17.0678 1.76306 17.0678 1.66663C17.0678 1.57021 17.0488 1.47473 17.0119 1.38564C16.975 1.29656 16.9209 1.21561 16.8527 1.14743C16.7846 1.07925 16.7036 1.02517 16.6145 0.988265C16.5254 0.951365 16.43 0.932373 16.3335 0.932373C16.2371 0.932373 16.1416 0.951365 16.0526 0.988265C15.9635 1.02517 15.8825 1.07925 15.8143 1.14743L9.00021 7.96303L2.18608 1.14743C2.11789 1.07925 2.03695 1.02517 1.94787 0.988265C1.85878 0.951365 1.7633 0.932373 1.66688 0.932373C1.57045 0.932373 1.47497 0.951365 1.38589 0.988265C1.2968 1.02517 1.21586 1.07925 1.14768 1.14743C1.07949 1.21561 1.02541 1.29656 0.988509 1.38564C0.951609 1.47473 0.932617 1.57021 0.932617 1.66663C0.932617 1.76306 0.951609 1.85854 0.988509 1.94762C1.02541 2.03671 1.07949 2.11765 1.14768 2.18583L7.96328 8.99997L1.14768 15.8141C1.00998 15.9518 0.932617 16.1386 0.932617 16.3333C0.932617 16.528 1.00998 16.7148 1.14768 16.8525C1.28538 16.9902 1.47214 17.0676 1.66688 17.0676C1.86161 17.0676 2.04838 16.9902 2.18608 16.8525L9.00021 10.0369L15.8143 16.8525C15.952 16.9902 16.1388 17.0676 16.3335 17.0676C16.5283 17.0676 16.715 16.9902 16.8527 16.8525C16.9904 16.7148 17.0678 16.528 17.0678 16.3333C17.0678 16.1386 16.9904 15.9518 16.8527 15.8141L10.0371 8.99997L16.8527 2.18583Z" fill="#6A6A6A"/>
</svg>
