<svg width="16" height="10" viewBox="0 0 16 10" fill="none" xmlns="http://www.w3.org/2000/svg">
<path d="M7.99935 3C8.52978 3 9.03849 3.21071 9.41356 3.58579C9.78864 3.96086 9.99935 4.46957 9.99935 5C9.99935 5.53043 9.78864 6.03914 9.41356 6.41421C9.03849 6.78929 8.52978 7 7.99935 7C7.46892 7 6.96021 6.78929 6.58514 6.41421C6.21006 6.03914 5.99935 5.53043 5.99935 5C5.99935 4.46957 6.21006 3.96086 6.58514 3.58579C6.96021 3.21071 7.46892 3 7.99935 3ZM7.99935 0C11.3327 0 14.1793 2.07333 15.3327 5C14.1793 7.92667 11.3327 10 7.99935 10C4.66602 10 1.81935 7.92667 0.666016 5C1.81935 2.07333 4.66602 0 7.99935 0ZM2.11935 5C2.65819 6.1002 3.49489 7.02717 4.53433 7.6755C5.57378 8.32384 6.77428 8.66755 7.99935 8.66755C9.22442 8.66755 10.4249 8.32384 11.4644 7.6755C12.5038 7.02717 13.3405 6.1002 13.8793 5C13.3405 3.8998 12.5038 2.97283 11.4644 2.3245C10.4249 1.67616 9.22442 1.33245 7.99935 1.33245C6.77428 1.33245 5.57378 1.67616 4.53433 2.3245C3.49489 2.97283 2.65819 3.8998 2.11935 5Z" fill="#2C62EE"/>
</svg>
