<svg width="13" height="13" viewBox="0 0 13 13" fill="none" xmlns="http://www.w3.org/2000/svg">
<path fill-rule="evenodd" clip-rule="evenodd" d="M12.3019 0.968583C12.3546 0.915896 12.3964 0.853348 12.4249 0.78451C12.4534 0.715672 12.4681 0.641892 12.4681 0.567382C12.4681 0.492873 12.4534 0.419093 12.4249 0.350255C12.3964 0.281417 12.3546 0.218869 12.3019 0.166182C12.2492 0.113496 12.1867 0.0717031 12.1178 0.0431895C12.049 0.0146758 11.9752 0 11.9007 0C11.8262 0 11.7524 0.0146758 11.6836 0.0431895C11.6147 0.0717031 11.5522 0.113496 11.4995 0.166182L6.23405 5.43278L0.968583 0.166182C0.915896 0.113496 0.853348 0.0717031 0.78451 0.0431895C0.715672 0.0146758 0.641892 5.55141e-10 0.567382 0C0.492873 -5.55141e-10 0.419093 0.0146758 0.350255 0.0431895C0.281417 0.0717031 0.218869 0.113496 0.166182 0.166182C0.113496 0.218869 0.0717031 0.281417 0.0431895 0.350255C0.0146758 0.419093 -5.55141e-10 0.492873 0 0.567382C5.55141e-10 0.641892 0.0146758 0.715672 0.0431895 0.78451C0.0717031 0.853348 0.113496 0.915896 0.166182 0.968583L5.43278 6.23405L0.166182 11.4995C0.0597775 11.6059 0 11.7502 0 11.9007C0 12.0512 0.0597775 12.1955 0.166182 12.3019C0.272587 12.4083 0.416903 12.4681 0.567382 12.4681C0.717862 12.4681 0.862178 12.4083 0.968583 12.3019L6.23405 7.03532L11.4995 12.3019C11.6059 12.4083 11.7502 12.4681 11.9007 12.4681C12.0512 12.4681 12.1955 12.4083 12.3019 12.3019C12.4083 12.1955 12.4681 12.0512 12.4681 11.9007C12.4681 11.7502 12.4083 11.6059 12.3019 11.4995L7.03532 6.23405L12.3019 0.968583Z" fill="#5C5C5C"/>
</svg>
