<svg width="26" height="14" viewBox="0 0 26 14" fill="none" xmlns="http://www.w3.org/2000/svg">
<path d="M14.5218 2.58478C17.1125 0.0646656 21.2639 0.12197 23.784 2.71263C26.2922 5.29103 26.3307 9.3732 23.7279 11.9051C21.1372 14.4252 16.9857 14.3679 14.4656 11.7773C14.0959 11.3971 13.7851 10.9687 13.5304 10.5235C13.0339 10.9726 12.2671 10.9513 11.7965 10.4675L10.5762 9.21309L9.32182 10.4333C8.82694 10.9147 8.03563 10.9038 7.55424 10.4089L6.334 9.15454L5.438 10.0261C4.74521 10.7001 3.63728 10.6848 2.96336 9.99197L1.22017 8.19997C0.546249 7.50718 0.561544 6.39925 1.25433 5.72533L2.81094 4.21112C3.3337 3.7026 4.03712 3.42253 4.76638 3.43261L13.5843 3.55435C13.6613 3.55541 13.7472 3.51728 13.8075 3.43377C14.0118 3.15093 14.2443 2.85477 14.5218 2.58478ZM22.1535 8.13544C22.6483 7.65407 22.6592 6.86265 22.1779 6.36785C21.6965 5.87297 20.9051 5.86207 20.4103 6.34344C19.9154 6.82481 19.9045 7.61616 20.3859 8.11104C20.8672 8.60585 21.6586 8.61681 22.1535 8.13544Z" fill="#ABB1BB"/>
</svg>
