<svg width="20" height="15" viewBox="0 0 20 15" fill="none" xmlns="http://www.w3.org/2000/svg">
<path d="M3.98975 0.238708C4.1302 0.379334 4.20909 0.569958 4.20909 0.768709C4.20909 0.967459 4.1302 1.15808 3.98975 1.29871C3.20042 2.08801 2.5743 3.02505 2.14711 4.05634C1.71993 5.08762 1.50007 6.19295 1.50007 7.30921C1.50007 8.42547 1.71993 9.53079 2.14711 10.5621C2.5743 11.5934 3.20042 12.5304 3.98975 13.3197C4.1263 13.4612 4.20181 13.6507 4.20001 13.8474C4.19821 14.044 4.11924 14.2321 3.98012 14.3711C3.841 14.5101 3.65285 14.5889 3.4562 14.5905C3.25955 14.5921 3.07014 14.5164 2.92875 14.3797C-0.97625 10.4747 -0.97625 4.14371 2.92875 0.238708C3.06938 0.0982579 3.26 0.0193685 3.45875 0.0193685C3.6575 0.0193685 3.84912 0.0982579 3.98975 0.238708ZM17.0707 0.238708C20.9757 4.14371 20.9757 10.4747 17.0707 14.3807C16.9286 14.5132 16.7405 14.5853 16.5462 14.5819C16.3519 14.5785 16.1665 14.4997 16.0291 14.3623C15.8917 14.2249 15.813 14.0395 15.8096 13.8452C15.8061 13.6509 15.8783 13.4629 16.0107 13.3207C16.8002 12.5314 17.4265 11.5943 17.8538 10.5629C18.281 9.53153 18.5009 8.42609 18.5009 7.30971C18.5009 6.19333 18.281 5.08789 17.8538 4.05651C17.4265 3.02514 16.8002 2.08803 16.0107 1.29871C15.9371 1.23005 15.878 1.14725 15.837 1.05525C15.796 0.963247 15.7739 0.863934 15.7722 0.763231C15.7704 0.662528 15.7889 0.562499 15.8266 0.469111C15.8643 0.375723 15.9205 0.290889 15.9917 0.21967C16.0629 0.148451 16.1478 0.0923068 16.2412 0.0545858C16.3345 0.0168648 16.4346 -0.00166006 16.5353 0.00011672C16.636 0.0018935 16.7353 0.0239355 16.8273 0.0649275C16.9193 0.105919 17.0021 0.165022 17.0707 0.238708ZM6.81775 3.06671C6.9582 3.20733 7.03709 3.39796 7.03709 3.59671C7.03709 3.79546 6.9582 3.98608 6.81775 4.12671C6.39973 4.54459 6.06813 5.04073 5.84189 5.58679C5.61566 6.13285 5.49921 6.71814 5.49921 7.30921C5.49921 7.90028 5.61566 8.48556 5.84189 9.03162C6.06813 9.57768 6.39973 10.0738 6.81775 10.4917C6.95023 10.6339 7.02235 10.8219 7.01892 11.0162C7.0155 11.2105 6.93678 11.3959 6.79937 11.5333C6.66196 11.6707 6.47657 11.7495 6.28227 11.7529C6.08797 11.7563 5.89993 11.6842 5.75775 11.5517C4.63262 10.4265 4.00053 8.90044 4.00053 7.30921C4.00053 5.71798 4.63262 4.19192 5.75775 3.06671C5.89838 2.92626 6.089 2.84737 6.28775 2.84737C6.4865 2.84737 6.67712 2.92626 6.81775 3.06671ZM14.2428 3.06671C15.3679 4.19192 16 5.71798 16 7.30921C16 8.90044 15.3679 10.4265 14.2428 11.5517C14.1736 11.6234 14.0909 11.6805 13.9994 11.7199C13.9079 11.7592 13.8095 11.78 13.7099 11.7809C13.6103 11.7818 13.5116 11.7629 13.4194 11.7252C13.3272 11.6875 13.2434 11.6319 13.173 11.5615C13.1025 11.4911 13.0468 11.4074 13.009 11.3153C12.9713 11.2231 12.9522 11.1243 12.9531 11.0248C12.9539 10.9252 12.9745 10.8268 13.0138 10.7352C13.0531 10.6437 13.1102 10.5609 13.1818 10.4917C13.5996 10.0738 13.9311 9.57777 14.1572 9.0318C14.3834 8.48583 14.4998 7.90066 14.4998 7.30971C14.4998 6.71876 14.3834 6.13359 14.1572 5.58762C13.9311 5.04165 13.5996 4.54557 13.1818 4.12771C13.0493 3.98553 12.9771 3.79749 12.9806 3.60319C12.984 3.40888 13.0627 3.2235 13.2001 3.08609C13.3375 2.94867 13.5229 2.86996 13.7172 2.86653C13.9115 2.86311 14.0996 2.93523 14.2418 3.06771L14.2428 3.06671ZM9.99975 5.80971C10.3976 5.80971 10.7791 5.96774 11.0604 6.24905C11.3417 6.53035 11.4998 6.91188 11.4998 7.30971C11.4998 7.70753 11.3417 8.08906 11.0604 8.37037C10.7791 8.65167 10.3976 8.80971 9.99975 8.80971C9.60193 8.80971 9.22039 8.65167 8.93909 8.37037C8.65779 8.08906 8.49975 7.70753 8.49975 7.30971C8.49975 6.91188 8.65779 6.53035 8.93909 6.24905C9.22039 5.96774 9.60193 5.80971 9.99975 5.80971Z" fill="#808080"/>
</svg>
