<svg width="18" height="20" viewBox="0 0 18 20" fill="none" xmlns="http://www.w3.org/2000/svg">
<path d="M15.421 14.8819L14.234 16.0558C13.3591 16.9144 12.224 18.0184 10.8281 19.3679C9.95586 20.2113 8.57206 20.2112 7.69996 19.3677L4.20882 15.9718C3.77006 15.541 3.40279 15.1777 3.10695 14.8819C-0.293462 11.4815 -0.293462 5.9683 3.10695 2.56789C6.50736 -0.832524 12.0206 -0.832524 15.421 2.56789C18.8214 5.9683 18.8214 11.4815 15.421 14.8819ZM11.7642 8.9996C11.7642 7.61875 10.6448 6.49936 9.26396 6.49936C7.88316 6.49936 6.76374 7.61875 6.76374 8.9996C6.76374 10.3804 7.88316 11.4998 9.26396 11.4998C10.6448 11.4998 11.7642 10.3804 11.7642 8.9996Z" fill="#ABB1BB"/>
</svg>
