<svg width="15" height="24" viewBox="0 0 15 24" fill="none" xmlns="http://www.w3.org/2000/svg">
<path d="M11.6387 0.333313C13.0884 0.333313 14.2637 1.50857 14.2637 2.95831V21.0416C14.2637 22.4913 13.0884 23.6666 11.6387 23.6666H2.88867C1.43893 23.6666 0.263672 22.4913 0.263672 21.0416V2.95831C0.263672 1.50857 1.43893 0.333313 2.88867 0.333313H11.6387ZM8.722 19H5.80534C5.3221 19 4.93034 19.3917 4.93034 19.875C4.93034 20.3582 5.3221 20.75 5.80534 20.75H8.722C9.20524 20.75 9.597 20.3582 9.597 19.875C9.597 19.3917 9.20524 19 8.722 19Z" fill="#ABB1BB"/>
</svg>
