<svg width="32" height="32" viewBox="0 0 32 32" fill="none" xmlns="http://www.w3.org/2000/svg">
<path d="M27.8426 25.7988C29.4583 23.8549 30.582 21.5505 31.1186 19.0805C31.6553 16.6105 31.5892 14.0476 30.9259 11.6085C30.2626 9.16946 29.0216 6.92605 27.3079 5.06805C25.5942 3.21005 23.4581 1.79214 21.0806 0.934247C18.703 0.0763552 16.1537 -0.196272 13.6485 0.139428C11.1432 0.475128 8.75567 1.40928 6.68781 2.86286C4.61994 4.31644 2.93259 6.24668 1.76849 8.49029C0.604392 10.7339 -0.00220792 13.2249 6.0386e-06 15.7525C0.000855609 19.427 1.29572 22.9838 3.65738 25.7988L3.63488 25.8179C3.71363 25.9124 3.80363 25.9934 3.88463 26.0868C3.98588 26.2027 4.09501 26.3118 4.19963 26.4243C4.51463 26.7663 4.83863 27.0948 5.17838 27.403C5.28188 27.4975 5.38876 27.5853 5.49338 27.6753C5.85338 27.9858 6.22351 28.2805 6.60713 28.555C6.65663 28.5888 6.70163 28.6327 6.75113 28.6675V28.654C9.386 30.5082 12.5292 31.5033 15.7511 31.5033C18.973 31.5033 22.1163 30.5082 24.7511 28.654V28.6675C24.8006 28.6327 24.8445 28.5888 24.8951 28.555C25.2776 28.2794 25.6489 27.9858 26.0089 27.6753C26.1135 27.5853 26.2204 27.4964 26.3239 27.403C26.6636 27.0937 26.9876 26.7663 27.3026 26.4243C27.4073 26.3118 27.5153 26.2027 27.6176 26.0868C27.6975 25.9934 27.7886 25.9124 27.8674 25.8168L27.8426 25.7988ZM15.75 6.75254C16.7513 6.75254 17.7301 7.04945 18.5626 7.60572C19.3951 8.162 20.044 8.95265 20.4271 9.8777C20.8103 10.8028 20.9106 11.8207 20.7152 12.8027C20.5199 13.7847 20.0377 14.6868 19.3297 15.3948C18.6217 16.1028 17.7197 16.5849 16.7377 16.7803C15.7556 16.9756 14.7377 16.8753 13.8127 16.4922C12.8876 16.109 12.097 15.4601 11.5407 14.6276C10.9844 13.7951 10.6875 12.8163 10.6875 11.815C10.6875 10.4724 11.2209 9.18471 12.1703 8.23531C13.1197 7.28591 14.4073 6.75254 15.75 6.75254ZM6.75788 25.7988C6.7774 24.3216 7.3777 22.9115 8.42891 21.8736C9.48012 20.8356 10.8977 20.2533 12.375 20.2525H19.125C20.6023 20.2533 22.0199 20.8356 23.0711 21.8736C24.1223 22.9115 24.7226 24.3216 24.7421 25.7988C22.2748 28.0222 19.0713 29.2526 15.75 29.2526C12.4287 29.2526 9.22518 28.0222 6.75788 25.7988Z" fill="white"/>
</svg>
