<svg width="9" height="16" viewBox="0 0 9 16" fill="none" xmlns="http://www.w3.org/2000/svg">
<path d="M3.34404 10.9474C3.34404 9.81053 3.44394 8.99284 3.64376 8.49432C3.84303 7.99635 4.26605 7.45263 4.91284 6.86316C5.47706 6.35789 5.90697 5.91916 6.20257 5.54695C6.49871 5.1753 6.64679 4.75088 6.64679 4.27368C6.64679 3.69825 6.45771 3.22105 6.07954 2.84211C5.70083 2.46316 5.17431 2.27368 4.5 2.27368C3.79816 2.27368 3.26477 2.49123 2.89982 2.92632C2.53541 3.3614 2.27752 3.80351 2.12615 4.25263L0 3.32632C0.288991 2.42807 0.818807 1.64912 1.58945 0.989474C2.36009 0.329825 3.33027 0 4.5 0C5.94495 0 7.05633 0.410667 7.83413 1.232C8.61138 2.05277 9 3.0386 9 4.18947C9 4.89123 8.8522 5.49137 8.5566 5.98989C8.26046 6.48786 7.79587 7.05263 7.16284 7.68421C6.48853 8.34386 6.07927 8.84547 5.93505 9.18905C5.79027 9.53319 5.71789 10.1193 5.71789 10.9474H3.34404ZM4.5 16C4.04587 16 3.65725 15.8352 3.33413 15.5057C3.01046 15.1756 2.84862 14.7789 2.84862 14.3158C2.84862 13.8526 3.01046 13.456 3.33413 13.1259C3.65725 12.7964 4.04587 12.6316 4.5 12.6316C4.95413 12.6316 5.34303 12.7964 5.6667 13.1259C5.98982 13.456 6.15138 13.8526 6.15138 14.3158C6.15138 14.7789 5.98982 15.1756 5.6667 15.5057C5.34303 15.8352 4.95413 16 4.5 16Z" fill="#808080"/>
</svg>
