<svg width="33" height="34" viewBox="0 0 33 34" fill="none" xmlns="http://www.w3.org/2000/svg">
<path d="M28.0309 28.8371C24.9693 24.2344 21.9051 19.6333 18.8421 15.0316C18.8021 14.9717 18.7654 14.9093 18.7156 14.8296C19.2521 14.1853 19.7859 13.5436 20.3204 12.9023C23.0978 9.56941 25.8756 6.23618 28.653 2.90296C28.6703 2.88205 28.6841 2.85838 28.6996 2.83594H26.3408C23.458 6.2946 20.5749 9.75356 17.6462 13.2673C17.6109 13.2018 17.5859 13.1455 17.5525 13.0954C15.3035 9.71544 13.0539 6.3361 10.8049 2.95615C10.7801 2.91864 10.7625 2.87621 10.7413 2.83594H2.75391C2.82313 2.95276 2.88699 3.07328 2.96189 3.1858C6.33762 8.25912 9.71425 13.3318 13.0909 18.4048C13.1261 18.4577 13.1598 18.5118 13.209 18.5884C12.9348 18.9198 12.6591 19.2546 12.3813 19.5878C9.24219 23.3542 6.10278 27.1203 2.96398 30.887C2.88938 30.9768 2.82373 31.0749 2.75391 31.1693H5.11271C6.18096 29.8814 7.24712 28.5917 8.31746 27.3057C10.2203 25.0193 12.1259 22.7348 14.0302 20.4499C14.0997 20.3663 14.1714 20.2848 14.2543 20.1873C14.308 20.2544 14.3558 20.306 14.3946 20.3641C16.7555 23.9104 19.1157 27.457 21.4757 31.0042C21.5107 31.0568 21.5387 31.1142 21.57 31.1693H29.5572C29.0487 30.3918 28.5453 29.6106 28.0309 28.8371ZM26.0206 29.408C25.0025 29.4089 23.9843 29.4034 22.9662 29.4132C22.7767 29.4147 22.6601 29.3591 22.5494 29.1958C17.081 21.1127 11.6082 13.0324 6.1362 4.95171C6.08578 4.87732 6.03982 4.79953 5.95926 4.67225C6.95798 4.67225 7.90449 4.71099 8.84622 4.6575C9.40332 4.62583 9.71037 4.82782 10.0258 5.29574C15.3691 13.2218 20.7336 21.1327 26.0934 29.047C26.1629 29.1497 26.2301 29.2539 26.3214 29.3917C26.1904 29.3991 26.1056 29.4077 26.0206 29.408Z" fill="#555555"/>
</svg>
