<svg width="34" height="34" viewBox="0 0 34 34" fill="none" xmlns="http://www.w3.org/2000/svg">
<path d="M32.0795 9.74098C31.7388 7.85828 30.5882 6.64972 28.7892 6.32068C28.0469 6.1844 27.291 6.0851 26.5371 6.05103C23.3397 5.90647 20.1409 5.79306 16.9425 5.66797C16.9415 5.70107 16.9406 5.73416 16.9396 5.76726C16.2041 5.76726 15.4682 5.75655 14.7332 5.76921C11.6838 5.82032 8.63393 5.8539 5.60059 6.23258C3.714 6.46768 2.40711 7.5896 2.01432 9.45478C1.7948 10.4964 1.67506 11.5643 1.58842 12.6268C1.40297 14.8994 1.35722 17.1793 1.51882 19.4553C1.61909 20.8629 1.74758 22.2749 1.9817 23.6655C2.28884 25.4869 3.54413 26.6911 5.31147 26.9534C6.35795 27.1087 7.41465 27.2411 8.47087 27.2757C11.713 27.3808 14.9571 27.4781 18.2007 27.4942C21.4341 27.5107 24.669 27.4338 27.8897 27.0956C28.7201 27.0079 29.5383 26.8756 30.264 26.4107C31.4643 25.6422 32.0104 24.4871 32.1413 23.1306C32.318 21.2951 32.4972 19.4553 32.5575 17.6139C32.6446 14.9792 32.5502 12.3455 32.0795 9.74098ZM13.9213 21.2825V11.9785C16.6218 13.5307 19.2939 15.0668 22.0133 16.6302C19.2978 18.1917 16.6261 19.7273 13.9213 21.2825Z" fill="#555555"/>
</svg>
