<svg width="60" height="60" viewBox="0 0 60 60" fill="none" xmlns="http://www.w3.org/2000/svg">
<path d="M60 0H0V60H60V0Z" fill="#1DBF73"/>
<path d="M13.1726 24.3749C13.1695 22.1511 13.6066 19.9488 14.4586 17.8947C15.3106 15.8407 16.5607 13.9756 18.1369 12.407C19.7131 10.8384 21.5842 9.59722 23.6423 8.7551C25.7004 7.91297 27.9049 7.48652 30.1285 7.50032C39.4074 7.56931 46.8293 15.2819 46.8293 24.5867V26.2499C46.8293 34.6441 48.5855 39.5152 50.1323 42.1775C50.299 42.462 50.3876 42.7854 50.3894 43.1151C50.3912 43.4447 50.306 43.7691 50.1424 44.0553C49.9788 44.3415 49.7426 44.5796 49.4577 44.7454C49.1728 44.9112 48.8491 44.999 48.5195 44.9999H11.4806C11.1508 44.999 10.8272 44.9112 10.5422 44.7453C10.2573 44.5795 10.0211 44.3414 9.85753 44.0551C9.69397 43.7688 9.6088 43.4444 9.61062 43.1147C9.61245 42.785 9.70119 42.4616 9.8679 42.1771C11.4155 39.5147 13.1726 34.6437 13.1726 26.2499L13.1726 24.3749Z" fill="#1DBF73" stroke="white" stroke-width="1.5" stroke-linecap="round" stroke-linejoin="round"/>
<path d="M22.5 45V46.875C22.5 48.8641 23.2902 50.7718 24.6967 52.1783C26.1032 53.5848 28.0109 54.375 30 54.375C31.9891 54.375 33.8968 53.5848 35.3033 52.1783C36.7098 50.7718 37.5 48.8641 37.5 46.875V45" fill="#1DBF73"/>
<path d="M22.5 45V46.875C22.5 48.8641 23.2902 50.7718 24.6967 52.1783C26.1032 53.5848 28.0109 54.375 30 54.375C31.9891 54.375 33.8968 53.5848 35.3033 52.1783C36.7098 50.7718 37.5 48.8641 37.5 46.875V45" stroke="white" stroke-width="1.5" stroke-linecap="round" stroke-linejoin="round"/>
</svg>
