<svg width="109" height="94" viewBox="0 0 109 94" fill="none" xmlns="http://www.w3.org/2000/svg">
<path d="M95.8594 36.8724C95.8549 36.8402 95.8216 36.8577 95.8015 36.8833C95.6587 37.0647 95.469 37.2045 95.2523 37.287L94.0477 37.7375C93.8715 37.8027 93.6829 37.8274 93.4958 37.8098C93.3088 37.7922 93.1281 37.7326 92.9673 37.6356L85.2908 33.1562C85.0272 33.0023 84.7163 33.2644 84.8234 33.5502C85.1534 34.4578 85.5239 35.3499 85.9338 36.2241C86.1528 36.6913 86.6624 36.9656 87.1495 36.7954C87.4544 36.7058 87.782 36.7338 88.0672 36.874C88.3525 37.0142 88.5745 37.2563 88.6894 37.5523L88.9196 38.1667C89.0226 38.475 89.003 38.811 88.8649 39.1054C88.7268 39.3997 88.4807 39.6297 88.1775 39.7478L83.248 41.5912C82.761 41.7709 82.1866 41.9131 81.7815 42.2378C81.5376 42.4334 81.262 42.5893 80.9646 42.698C80.8651 42.7352 80.8056 42.8373 80.8212 42.9424C81.7471 49.1667 80.5113 55.5227 77.3163 60.9513C74.0904 66.4323 69.066 70.6304 63.0952 72.8333C57.1245 75.0363 50.5751 75.1085 44.5581 73.0378C38.7426 71.0364 33.7706 67.1523 30.4251 62.0113C30.2226 61.7003 29.8326 61.5658 29.485 61.6958C29.327 61.7567 29.1584 61.7854 28.9892 61.7802C28.6871 61.7709 28.3606 61.8148 28.1547 62.036L28.1107 62.0833C27.7895 62.4309 27.3981 62.7066 26.9624 62.8921C26.4677 63.1244 25.9279 63.2454 25.3813 63.2464C25.0886 63.247 24.7978 63.2131 24.5147 63.1462C24.108 63.0499 23.6586 63.2431 23.2936 63.4468C22.3484 63.9657 21.2451 64.6604 20.1416 65.4329C19.9731 65.5563 19.7756 65.6342 19.5681 65.6589C19.3607 65.6836 19.1504 65.6544 18.9575 65.5742L18.7526 65.4951C18.6397 65.4561 18.5096 65.4773 18.4289 65.5654C17.9795 66.0556 17.4213 66.4354 16.798 66.6736C16.2682 66.8784 15.703 66.9726 15.1372 66.9515C15.0181 66.947 14.9242 67.0639 14.9777 67.1704C15.0212 67.2572 15.0013 67.3711 14.9177 67.4204L13.8029 68.0774C13.1842 68.442 12.9792 69.2397 13.3453 69.8574L14.0479 71.0428C14.4489 71.7194 15.3211 71.9451 16 71.5479C16.6559 71.1642 17.4949 71.3622 17.9272 71.9871C18.0917 72.2249 18.2583 72.4613 18.4273 72.6957C18.8649 73.3026 18.7765 74.1505 18.2023 74.6304C17.6097 75.1257 17.5358 76.0096 18.0379 76.5964L18.8789 77.5791C19.3858 78.1715 20.2748 78.2463 20.8735 77.747C21.4542 77.2628 22.3105 77.3182 22.8484 77.8495C23.0537 78.0523 23.2612 78.2526 23.4706 78.451C24.0213 78.9728 24.0867 79.832 23.604 80.4173C23.1018 81.0262 23.1932 81.9279 23.8073 82.4237L24.7906 83.2177C25.4074 83.7157 26.31 83.625 26.8154 83.0142C27.3046 82.423 28.1688 82.3182 28.7999 82.7548C29.0212 82.9078 29.2435 83.0588 29.467 83.2077C30.1095 83.636 30.3293 84.4852 29.9522 85.1591C29.5632 85.8543 29.8091 86.7331 30.5025 87.1254L31.569 87.7287C32.2601 88.1197 33.1374 87.8761 33.528 87.1848C33.9104 86.508 34.7607 86.2605 35.4674 86.5843C35.7029 86.6922 35.9386 86.7965 36.1751 86.8984C36.8897 87.2063 37.2562 88.0096 36.9973 88.7434C36.7309 89.4988 37.1255 90.3274 37.88 90.5967L38.9758 90.9877C39.7321 91.2576 40.5634 90.8585 40.8259 90.0995C41.0812 89.3612 41.8775 88.961 42.6351 89.1514C42.8691 89.2102 43.1046 89.2666 43.341 89.3212C44.1151 89.5002 44.6254 90.2442 44.4929 91.0276C44.3563 91.8357 44.9018 92.6011 45.7102 92.7356L46.8081 92.9182C47.6302 93.055 48.4077 92.4997 48.545 91.6777C48.6769 90.8881 49.402 90.3417 50.2001 90.4049C50.4162 90.422 50.6326 90.4375 50.8492 90.4515C51.6599 90.5037 52.3084 91.162 52.3166 91.9743C52.3249 92.8093 53.0082 93.4796 53.8431 93.472L54.9095 93.4623C55.7548 93.4546 56.4349 92.7653 56.4313 91.9201C56.4278 91.1087 57.0563 90.4361 57.8641 90.3598C58.069 90.3405 58.274 90.3201 58.4794 90.2988C59.3016 90.2135 60.0571 90.7671 60.2077 91.5799C60.3653 92.4303 61.1817 92.9924 62.0323 92.8363L62.9603 92.6659C63.8268 92.5068 64.3997 91.6747 64.239 90.8085C64.0858 89.9823 64.6015 89.1819 65.4099 88.9524C65.5628 88.909 65.7157 88.8648 65.8685 88.8197C66.6896 88.5779 67.5686 88.9966 67.8689 89.7981C68.1776 90.6221 69.0956 91.0401 69.9197 90.7319L70.7186 90.4332C71.5812 90.1106 72.0187 89.1496 71.6957 88.2872C71.3867 87.4625 71.774 86.5425 72.5653 86.1561C72.6684 86.1058 72.7712 86.0551 72.8738 86.0042C73.6612 85.6127 74.6248 85.8782 75.0735 86.6345C75.5355 87.4135 76.5413 87.6709 77.3208 87.2098L78.0069 86.8039C78.7997 86.335 79.0625 85.3124 78.5942 84.5193C78.1434 83.7559 78.3699 82.7754 79.0908 82.2593C79.168 82.204 79.245 82.1485 79.3217 82.0929C80.0498 81.5653 81.0651 81.667 81.6508 82.3493C82.2578 83.0565 83.3227 83.139 84.0314 82.5338L84.5654 82.0778C85.2862 81.4624 85.3713 80.3791 84.7555 79.6587C84.1648 78.9675 84.2223 77.9418 84.8603 77.2939C84.8974 77.2562 84.9345 77.2184 84.9714 77.1805C85.6207 76.5143 86.681 76.4122 87.3997 77.0029C88.1205 77.5953 89.1849 77.4923 89.7787 76.7727L90.1958 76.2673C90.8145 75.5177 90.707 74.4081 89.9558 73.7911C89.2354 73.1993 89.1057 72.1498 89.6264 71.3764C89.6411 71.3545 89.6558 71.3326 89.6705 71.3107C90.2 70.5211 91.2462 70.2484 92.0739 70.7162C92.9214 71.195 93.9964 70.8991 94.4795 70.0541L94.7265 69.622C95.2295 68.7422 94.921 67.6182 94.0432 67.1117C93.2138 66.6332 92.8942 65.5948 93.2892 64.7226C93.6907 63.8363 94.6961 63.3756 95.6159 63.6929C96.5646 64.0202 97.5997 63.5209 97.9341 62.5746L98.0861 62.1442C98.4229 61.1908 97.9222 60.145 96.9683 59.8095L96.9182 59.7919C96.0285 59.4791 95.5427 58.5352 95.7729 57.6206C96.0081 56.6861 96.913 56.0506 97.8627 56.2143L97.9101 56.2225C98.9057 56.3942 99.8509 55.7232 100.017 54.7268L100.084 54.3273C100.254 53.3102 99.5685 52.3474 98.5518 52.1748L98.4796 52.1626C97.5437 52.0036 96.8974 51.147 96.9665 50.2002C97.0364 49.242 97.8168 48.4739 98.7776 48.4663L98.8301 48.4658C99.8594 48.4576 100.684 47.61 100.663 46.5808L100.656 46.2259C100.635 45.1899 99.7851 44.3631 98.7489 44.3707L98.6474 44.3714C97.6988 44.3784 96.914 43.6476 96.8154 42.7042C96.716 41.7537 97.3455 40.8648 98.2849 40.6892L98.3863 40.6702C99.4139 40.4782 100.092 39.4898 99.9003 38.462L99.7454 37.6295C99.608 36.8912 98.8987 36.4035 98.1602 36.5397L95.9209 36.9527C95.8904 36.9583 95.8636 36.9031 95.8594 36.8724ZM34.1535 81.9651C33.969 82.2339 33.6031 82.3053 33.3311 82.1256C33.0526 81.9416 32.9787 81.5651 33.1671 81.2895L33.4894 80.8179C34.2276 79.7378 32.8919 78.4523 31.8408 79.2313L30.9624 79.8824C30.6958 80.08 30.3342 80.0902 30.0569 79.9079C29.7698 79.7192 29.6374 79.3668 29.7291 79.0358L30.0086 78.0264C30.3606 76.7557 28.6639 75.969 27.9214 77.0586L27.6125 77.5119C27.4201 77.7943 27.035 77.867 26.7528 77.6742C26.4711 77.4816 26.3987 77.0971 26.5911 76.8153L31.0509 70.2827C31.4 69.7713 32.0974 69.6393 32.6093 69.9879C33.0087 70.2599 33.1891 70.757 33.0571 71.2219L31.3128 77.3655C31.1825 77.8014 31.7132 78.1653 32.0781 77.8935C32.1099 77.8698 32.1423 77.8457 32.1751 77.8213L37.3162 73.9937C37.6491 73.7458 38.1022 73.7351 38.4466 73.9669C38.8976 74.2705 39.0145 74.8837 38.7068 75.3319L34.1535 81.9651ZM45.1917 81.278C45.0934 81.5701 44.7788 81.729 44.4854 81.6349L41.4935 80.6746C40.6312 80.3978 39.7077 80.8718 39.4299 81.7337C39.1507 82.5997 39.6293 83.5274 40.4967 83.802L44.0166 84.9161C44.3171 85.0112 44.4846 85.3309 44.392 85.6321C44.298 85.9376 43.9725 86.1075 43.6681 86.0099L40.7721 85.0814C38.8875 84.4772 37.8508 82.4582 38.4581 80.5745L39.2462 78.13C39.8384 76.293 41.8063 75.2824 43.6444 75.8713L46.412 76.758C46.7146 76.855 46.882 77.1781 46.7867 77.4813C46.6906 77.7869 46.364 77.9559 46.0589 77.8578L42.5965 76.7441C41.8183 76.4938 40.9848 76.9236 40.7375 77.7028C40.4914 78.4781 40.9188 79.3064 41.6934 79.555L44.8298 80.5617C45.1291 80.6577 45.292 80.9801 45.1917 81.278ZM55.5819 80.1392C55.5781 80.4577 55.5112 80.7723 55.3851 81.0649C55.259 81.3574 55.0762 81.6222 54.8472 81.844C54.4934 82.1387 54.0859 82.3563 53.6507 82.487C53.4294 82.5535 53.3333 82.9876 53.5032 83.1443C53.8915 83.5434 54.2286 83.9892 54.5068 84.4714L55.4502 86.0959C55.7185 86.5579 55.3697 87.1338 54.836 87.1101C54.6058 87.0999 54.3966 86.973 54.2812 86.7734L53.2776 85.0381C53.0109 84.5677 52.7197 84.1116 52.4053 83.6716C52.2371 83.4161 52.0301 83.1882 51.7919 82.9962C51.6177 82.8713 51.4241 82.7761 51.2188 82.7144C50.9845 82.6706 50.7471 82.6455 50.5089 82.6394C49.6891 82.6071 48.9977 83.244 48.9626 84.0637L48.8706 86.2176C48.8556 86.5684 48.5599 86.8411 48.209 86.8277C47.8559 86.8142 47.581 86.5162 47.5961 86.1631L47.7978 81.4433C47.8987 79.0812 49.8974 77.2493 52.2594 77.3541C52.9336 77.3379 53.605 77.4464 54.2396 77.674C54.6828 77.8656 55.0467 78.2035 55.2702 78.6311C55.5167 79.0935 55.6249 79.617 55.5819 80.1392ZM59.6543 83.782C59.6455 83.7853 59.6421 83.7958 59.6472 83.8036C59.9756 84.2973 60.4559 84.671 61.0158 84.8683C61.5657 85.0397 62.1519 85.0591 62.7122 84.9247C63.3592 84.787 63.9344 84.4198 64.3314 83.8911C64.6427 83.4855 64.8491 83.0137 64.9376 82.517C65.0028 82.1507 65.2945 81.8385 65.6666 81.8396C66.0199 81.8406 66.3139 82.1234 66.272 82.4742C66.1841 83.2105 65.9069 83.9157 65.4626 84.5187C64.8844 85.2362 64.0752 85.7314 63.1726 85.9199C62.3212 86.1715 61.4152 86.1725 60.5634 85.9228C59.8068 85.6443 59.1533 85.1421 58.6897 84.4832C58.1593 83.7689 57.7809 82.9535 57.578 82.0875C57.3517 81.2059 57.34 80.283 57.5437 79.3958C57.7214 78.6118 58.1346 77.9006 58.7281 77.3575C59.3349 76.8078 60.0719 76.4217 60.8695 76.2357C61.7077 76.0037 62.5989 76.0533 63.4061 76.3767C63.9823 76.6332 64.4842 77.0245 64.8715 77.5135C65.0969 77.7981 64.9696 78.2018 64.646 78.3664C64.3334 78.5255 63.9558 78.3992 63.7285 78.1321C63.466 77.8238 63.1414 77.571 62.7733 77.3916C62.2391 77.178 61.6489 77.1488 61.0961 77.3086C60.4495 77.4391 59.8612 77.7715 59.4161 78.2579C58.9974 78.7122 58.7387 79.2906 58.6792 79.9051C58.6257 80.5394 58.6742 81.1781 58.823 81.797C58.9839 82.4959 59.2678 83.1607 59.6613 83.7604C59.6664 83.7682 59.663 83.7787 59.6543 83.782ZM76.0608 80.1569C75.7457 80.3338 75.3468 80.2221 75.1693 79.9074L74.3781 78.5043C73.7599 77.4082 72.3678 77.0244 71.2752 77.6489L70.8879 77.8702C69.8025 78.4906 69.4231 79.8719 70.0394 80.9596L70.8489 82.3885C71.0242 82.6978 70.9138 83.0907 70.6032 83.2635C70.2953 83.4348 69.907 83.3251 69.7341 83.0182L65.6159 75.705C65.4436 75.399 65.5514 75.0111 65.8569 74.8379C66.1637 74.664 66.5534 74.7722 66.7265 75.0794L67.3869 76.2514C67.9239 77.2045 69.1324 77.541 70.0848 77.0027L71.0153 76.4767C71.9632 75.9408 72.2966 74.7375 71.7596 73.7902L71.0984 72.6241C70.923 72.3148 71.0334 71.9218 71.3441 71.7489C71.6519 71.5777 72.0402 71.6872 72.2131 71.994L76.311 79.2636C76.4889 79.5793 76.3769 79.9795 76.0608 80.1569ZM84.5508 72.6085C84.3518 72.798 84.058 72.8485 83.8071 72.7363L82.8141 72.2922C81.9428 71.9024 80.9213 72.0915 80.2472 72.7673L79.629 73.3871C78.9715 74.0462 78.7952 75.0455 79.1874 75.8898L79.6583 76.9037C79.7694 77.143 79.7188 77.4263 79.5316 77.6122C79.2198 77.9218 78.6945 77.8226 78.517 77.4207L74.994 69.4426C74.8238 69.0572 74.9093 68.6068 75.2088 68.3106C75.5013 68.0214 75.9394 67.9372 76.3182 68.0975L84.3476 71.4941C84.7968 71.6841 84.904 72.2722 84.5508 72.6085ZM90.1638 63.8664C90.0185 64.1179 89.7577 64.2808 89.468 64.3009L86.6543 64.4962C84.9069 64.6174 84.3771 66.9308 85.8976 67.8004L86.8965 68.3717C87.1813 68.5346 87.2829 68.8958 87.1247 69.1833C86.9629 69.4775 86.5914 69.5821 86.2998 69.4155L79.1912 65.3541C78.7832 65.121 78.6409 64.6017 78.873 64.1932C79.014 63.9451 79.2698 63.784 79.5546 63.7641L82.3613 63.5682C84.1061 63.4464 84.6338 61.1359 83.1149 60.2687L82.1185 59.6999C81.8327 59.5367 81.7307 59.1744 81.8893 58.8861C82.0509 58.5923 82.4213 58.4869 82.7133 58.6516L89.8365 62.669C90.2596 62.9077 90.4067 63.4457 90.1638 63.8664ZM92.7641 56.7128C92.6525 57.0481 92.2982 57.2377 91.9572 57.1446L85.8955 55.4883C85.0572 55.2593 84.1933 55.7587 83.9735 56.5993L83.7165 57.5818C83.6371 57.8856 83.3241 58.0654 83.0216 57.981C82.7242 57.8981 82.5494 57.5907 82.63 57.2927L84.3326 51.0014C84.4149 50.6973 84.7293 50.5184 85.0328 50.6031C85.3308 50.6862 85.5073 50.9928 85.4295 51.2923L85.1724 52.2821C84.9506 53.1359 85.458 54.0091 86.3096 54.2393L92.3063 55.8601C92.6756 55.9599 92.8849 56.3498 92.7641 56.7128Z" fill="white"/>
<path d="M52.3003 78.3992L50.8369 78.3407C49.9572 78.3056 49.2152 78.9894 49.1785 79.869C49.1419 80.7479 49.8234 81.4908 50.7023 81.5299L51.8559 81.5811C52.3181 81.6176 52.7831 81.5753 53.2311 81.456C53.543 81.3668 53.8144 81.1725 53.9991 80.9061C54.1842 80.6607 54.2875 80.3635 54.2944 80.0564C54.3135 79.8443 54.2846 79.6307 54.2099 79.4313C54.1352 79.2319 54.0166 79.0519 53.8629 78.9044C53.4221 78.5495 52.8657 78.3696 52.3003 78.3992Z" fill="white"/>
<path d="M97.7404 30.6698C97.7251 30.6781 97.7232 30.6993 97.7366 30.7102C97.7559 30.726 97.7837 30.7061 97.7749 30.6827C97.7697 30.6688 97.7534 30.6627 97.7404 30.6698Z" fill="white"/>
<path d="M66.3053 18.1778C66.7539 18.3964 67.2334 18.5452 67.7271 18.619C68.0624 18.6665 68.4042 18.6352 68.7253 18.5278C69.1695 18.3495 69.565 18.0682 69.879 17.7073C70.2981 17.2382 70.6375 16.7038 70.8837 16.1252C71.2589 15.427 71.4454 14.643 71.4246 13.8509C71.3782 13.297 71.1513 12.7735 70.7787 12.3608C70.3581 11.9938 69.8791 11.6995 69.3616 11.4898C68.3514 11.011 67.1447 11.45 66.6783 12.4659L65.3055 15.4564C64.8336 16.4841 65.2803 17.7 66.3053 18.1778Z" fill="white"/>
<path d="M92.8562 22.0244L93.0863 22.6388C93.2017 22.946 93.1931 23.286 93.0624 23.5871C92.9317 23.8882 92.6892 24.1269 92.3858 24.2529C92.1212 24.3515 92.0116 24.6493 92.0832 24.9225C92.1405 25.1406 92.2012 25.3578 92.2655 25.574C92.4063 26.0471 92.9564 26.2464 93.38 25.9931C93.4685 25.9401 93.5452 25.8697 93.6086 25.7883C93.6507 25.7341 93.6938 25.6807 93.7377 25.6281C94.3478 24.897 94.6129 23.8565 94.1292 23.0363L93.2819 21.5995C93.2074 21.4731 93.0446 21.4309 92.9181 21.5052C92.7752 21.589 92.7453 21.7822 92.8166 21.9317C92.8311 21.962 92.8443 21.9929 92.8562 22.0244Z" fill="white"/>
<path d="M15.2264 58.0433C15.0311 58.0686 14.8479 58.2698 14.917 58.4543L16.2506 62.0141C16.2865 62.1342 16.3441 62.2464 16.4201 62.3454C16.4537 62.3892 16.5125 62.4026 16.5642 62.3833C16.8854 62.2418 16.9247 61.8375 16.8015 61.5088L15.5463 58.1581C15.5047 58.0471 15.3811 57.9907 15.27 58.0323C15.256 58.0375 15.2413 58.0414 15.2264 58.0433Z" fill="white"/>
<path d="M21.8935 60.5411C21.9032 60.5671 21.9321 60.5802 21.958 60.5705C21.984 60.5608 21.9972 60.5319 21.9874 60.506L20.4404 56.3761C20.4307 56.3502 20.4018 56.337 20.3758 56.3467C20.3499 56.3564 20.3367 56.3853 20.3464 56.4113L21.8935 60.5411Z" fill="white"/>
<path d="M9.84858 61.7645C10.1591 62.141 10.7268 61.803 10.5556 61.3459C10.4701 61.1178 10.2159 61.0021 9.98777 61.0874L9.77382 61.1674C9.64831 61.2143 9.58465 61.3542 9.63165 61.4796C9.6409 61.5043 9.65409 61.5273 9.67076 61.5478C9.72965 61.6199 9.78891 61.6921 9.84858 61.7645Z" fill="white"/>
<path d="M76.8195 70.7381L77.389 71.9962C77.715 72.7163 78.6596 72.8898 79.2202 72.3324C79.7821 71.7736 79.6116 70.8254 78.8902 70.4974L77.7884 69.9964C77.7271 69.9691 77.6667 69.942 77.6073 69.9151C77.1608 69.7131 76.6145 70.293 76.8195 70.7381Z" fill="white"/>
<path d="M26.3103 54.0011C26.1841 54.129 26.0323 54.2288 25.8649 54.2941C25.5158 54.4246 25.3387 54.8135 25.4695 55.1626L26.5752 58.1143C26.6066 58.2075 26.645 58.298 26.6899 58.3851C26.7726 58.5456 26.9859 58.5584 27.112 58.4292C27.2249 58.2955 27.3644 58.1867 27.5216 58.1095C27.6787 58.0323 27.8502 57.9884 28.0251 57.9807C28.1379 57.9826 28.2278 57.8718 28.1882 57.7662C28.0593 57.4221 27.9274 57.0699 27.7976 56.7233C27.5003 55.9297 27.249 55.1287 27.0264 54.3267L26.9398 54.0956C26.8525 53.8623 26.4963 53.8355 26.3103 54.0011Z" fill="white"/>
<path d="M33.9255 16.8417C34.1131 16.5762 34.2089 16.2569 34.1985 15.9322C34.1817 15.6218 34.0701 15.324 33.8788 15.0789C33.759 14.9029 33.6017 14.7556 33.4181 14.6476C33.2345 14.5397 33.0292 14.4737 32.817 14.4545C32.255 14.4551 31.712 14.6582 31.2877 15.0264L30.1131 15.8611C29.392 16.3737 29.2279 17.3764 29.7482 18.092C30.2601 18.796 31.2429 18.9575 31.9531 18.4544L32.9117 17.7754C33.2977 17.5207 33.6401 17.2054 33.9255 16.8417Z" fill="white"/>
<path d="M8.93687 57.0248C9.77202 56.6542 11.2512 55.8967 12.2968 55.3598C12.4543 55.276 12.6283 55.2277 12.8064 55.2182C12.9846 55.2087 13.1627 55.2383 13.3282 55.3049C13.5504 55.3854 13.8312 55.3432 14.0148 55.1945C14.1019 55.1239 14.1984 55.0646 14.3021 55.0185C15.2568 54.6031 16.9037 53.7732 17.7133 53.3343C17.8732 53.2511 18.0487 53.202 18.2286 53.19C18.4085 53.178 18.5889 53.2033 18.7585 53.2645C18.8674 53.3102 18.9991 53.2756 19.071 53.1819C19.0978 53.1468 19.1265 53.1132 19.1569 53.081C19.1984 53.037 19.2145 52.9737 19.1933 52.9171C19.1247 52.7423 19.0964 52.5543 19.1106 52.3671C19.1248 52.1799 19.1811 51.9983 19.2753 51.8358L20.7226 49.4851C20.8505 49.2827 21.0324 49.12 21.2479 49.0154C21.4634 48.9107 21.7039 48.8683 21.9422 48.8928L22.3479 48.9357C22.5835 48.9562 22.8085 49.0431 22.9966 49.1863C23.1847 49.3295 23.3283 49.5231 23.4106 49.7446L23.6533 50.3923C23.8123 50.8169 24.2854 51.0323 24.7101 50.8735C24.9932 50.7675 25.3053 50.7685 25.5877 50.8761C25.6201 50.8899 25.6586 50.8574 25.6463 50.8244L24.9849 49.0588C24.9477 48.9597 24.8374 48.9095 24.7383 48.9465C24.4274 49.0501 24.0884 49.0285 23.7932 48.8864C23.4981 48.7443 23.2701 48.4928 23.1577 48.1853L22.9435 47.6136C22.838 47.3276 22.8393 47.0132 22.9472 46.728C23.0551 46.4429 23.2623 46.2061 23.5308 46.0612C25.1783 45.129 26.1723 43.4075 26.5535 41.5533C27.5933 36.4961 30.0409 31.8107 33.6428 28.0515C37.9406 23.5658 43.6296 20.6623 49.7865 19.8121C55.9433 18.9619 62.2067 20.2148 67.5601 23.3677C72.3873 26.2106 76.2191 30.4477 78.5643 35.4999C79.0038 36.4469 80.1054 36.9167 81.0669 37.3235C81.6145 37.5552 82.0751 37.9522 82.3847 38.4582C82.4021 38.4867 82.4372 38.4992 82.4684 38.4875C82.5009 38.4754 82.5192 38.4408 82.511 38.4071C82.2126 37.1939 81.8349 36.0016 81.3804 34.8377L79.9101 30.9125C79.5329 29.9057 79.405 29.5643 79.2396 29.4608C79.0742 29.3573 79.0539 29.3551 78.3086 29.5755C78.0013 29.6634 77.6722 29.6322 77.387 29.4881C77.1019 29.344 76.8818 29.0977 76.7707 28.7983L76.5406 28.184C76.4227 27.8694 76.4348 27.5209 76.5742 27.2152C76.7136 26.9095 76.9688 26.6716 77.2838 26.5538L80.7011 25.2759C80.8665 25.2226 81.041 25.2031 81.2142 25.2186C81.3873 25.2341 81.5555 25.2842 81.7089 25.366L89.4158 29.6017C89.5366 29.6681 89.6748 29.5484 89.6265 29.4193C89.3073 28.5272 88.9456 27.6511 88.5427 26.7938C88.3083 26.295 87.7639 25.9962 87.2492 26.1933C86.9397 26.2891 86.6052 26.263 86.3145 26.1202C86.0237 25.9775 85.7987 25.729 85.6857 25.4257L85.4555 24.8113C85.3962 24.6564 85.3682 24.4912 85.373 24.3254C85.3779 24.1596 85.4155 23.9964 85.4838 23.8451C85.5521 23.6939 85.6497 23.5577 85.7709 23.4443C85.8921 23.3308 86.0347 23.2425 86.1902 23.1844L87.9403 22.5299C88.4724 22.3309 88.6746 21.6805 88.3406 21.221C88.0689 20.8472 88.1226 20.3248 88.4736 20.0243L89.2242 19.3817C90.0236 18.6973 90.1169 17.4945 89.4327 16.695L89.2 16.4231C88.5429 15.6551 87.3836 15.5755 86.6276 16.2464L86.5882 16.2814C85.8786 16.9112 84.8013 16.8601 84.1238 16.196C83.4479 15.5335 83.3672 14.4576 83.9761 13.7331L84.0511 13.644C84.7214 12.8464 84.6121 11.6552 83.8078 10.9929L83.5593 10.7883C82.751 10.1229 81.5575 10.2331 80.8848 11.0354L80.8134 11.1206C80.202 11.8497 79.129 11.9683 78.3489 11.4235C77.5659 10.8766 77.3005 9.82547 77.7712 8.99441L77.817 8.91337C78.3311 8.00568 78.0117 6.85312 77.1038 6.33949L76.8096 6.17308C75.9073 5.66263 74.762 5.97982 74.2508 6.88175L74.2078 6.95766C73.7361 7.79004 72.6936 8.09986 71.8237 7.70153C70.9599 7.30598 70.5182 6.32329 70.8347 5.42747L70.8636 5.34565C71.2094 4.3668 70.6957 3.29305 69.7165 2.94809L69.3705 2.8262C68.4025 2.48515 67.341 2.99232 66.9982 3.95975L66.9836 4.00108C66.6604 4.91307 65.6657 5.40447 64.7332 5.14646C63.8295 4.89642 63.2563 4.01876 63.3996 3.09212L63.4107 3.01997C63.5689 1.99691 62.8768 1.03623 61.8563 0.862428L61.437 0.791021C60.4418 0.621532 59.4934 1.30425 59.3175 2.29832C59.1491 3.24936 58.263 3.91113 57.301 3.82534C56.3489 3.74043 55.591 2.95612 55.5845 2.00024C55.5777 1.00073 54.7623 0.191002 53.7627 0.197023L53.2808 0.199926C52.298 0.205846 51.5067 1.00843 51.5147 1.99117C51.5225 2.94249 50.7791 3.72761 49.8316 3.81319C49.811 3.81505 49.7903 3.81693 49.7697 3.81882C48.8304 3.90496 47.9646 3.27712 47.7924 2.34966C47.613 1.38336 46.6841 0.745508 45.7178 0.925087L45.1444 1.03166C44.1988 1.20739 43.5738 2.11527 43.7472 3.0613C43.9159 3.98197 43.327 4.86869 42.4224 5.10894C42.379 5.12045 42.3357 5.13203 42.2924 5.14367C41.4034 5.38249 40.4672 4.92353 40.1443 4.06154C39.8065 3.15971 38.8018 2.70226 37.8997 3.03957L37.2766 3.27259C36.3948 3.60234 35.9475 4.58472 36.2778 5.46633C36.5989 6.32355 36.1838 7.27809 35.3512 7.65864C35.2809 7.6908 35.2106 7.72312 35.1404 7.7556C34.326 8.1326 33.3491 7.84994 32.8926 7.07733C32.415 6.26909 31.3731 6.00023 30.564 6.47644L29.913 6.85962C29.129 7.32106 28.8682 8.33107 29.3307 9.11438C29.7838 9.88158 29.5419 10.8675 28.8087 11.3737C28.7186 11.4359 28.6288 11.4984 28.5394 11.5612C27.8244 12.0633 26.8405 11.9608 26.271 11.2984C25.6763 10.6068 24.6343 10.5264 23.9407 11.1187L23.2972 11.6682C22.6219 12.2448 22.5429 13.26 23.1208 13.9341C23.6848 14.592 23.6221 15.576 23.0042 16.1836C22.9062 16.2799 22.8087 16.3768 22.7118 16.4741C22.1077 17.0804 21.1387 17.1493 20.4795 16.6036C19.7903 16.033 18.7679 16.1351 18.2051 16.8305L17.6174 17.5566C17.071 18.2318 17.1703 19.2212 17.84 19.7744C18.4959 20.3161 18.6038 21.2773 18.1087 21.9691C18.0104 22.1064 17.9129 22.2444 17.8161 22.3829C17.3417 23.0622 16.4271 23.2858 15.7099 22.871C14.9637 22.4395 14.0088 22.699 13.5836 23.4487L13.0848 24.3282C12.6673 25.0643 12.9191 25.9993 13.6497 26.4263C14.3735 26.8494 14.6259 27.7716 14.2714 28.5314C14.1928 28.6998 14.1161 28.8685 14.0408 29.0376C13.7079 29.7848 12.8641 30.1655 12.0924 29.8941C11.2944 29.6135 10.4193 30.0279 10.1307 30.8229L9.78587 31.7726C9.49984 32.5604 9.91188 33.4302 10.7027 33.708C11.4663 33.9761 11.8791 34.7993 11.664 35.5795C11.6045 35.7953 11.5465 36.0116 11.49 36.2284C11.2907 36.9927 10.5464 37.4914 9.76776 37.3589C8.95459 37.2206 8.18372 37.7691 8.04789 38.5827L7.86036 39.7059C7.72672 40.5063 8.2669 41.2637 9.06724 41.398C9.84365 41.5282 10.3765 42.2467 10.2988 43.0301C10.2742 43.2777 10.2516 43.5255 10.2311 43.7737C10.1672 44.5512 9.53076 45.1677 8.7506 45.174C7.94589 45.1805 7.29681 45.8344 7.29621 46.6391L7.2953 47.8625C7.2947 48.6599 7.94596 49.3039 8.74325 49.2944C9.5104 49.2852 10.1449 49.8831 10.2112 50.6474C10.2346 50.9176 10.261 51.1877 10.2905 51.4578C10.3732 52.2153 9.87043 52.9228 9.12067 53.0592L9.05088 53.0719C8.32245 53.2045 7.83997 53.9032 7.97409 54.6313L8.3719 56.791C8.41376 57.0183 8.72263 57.1115 8.93687 57.0248ZM65.4826 12.0996C66.2584 10.4335 68.2331 9.70558 69.9047 10.4696C70.4339 10.7006 70.9384 10.9846 71.4104 11.3171C71.8193 11.6385 72.1427 12.0554 72.3522 12.5311C72.6389 13.1453 72.762 13.8231 72.7095 14.4989C72.6414 15.2788 72.4313 16.0398 72.0897 16.7444C71.8241 17.3462 71.4731 17.9067 71.0475 18.4085C70.7114 18.8051 70.3109 19.1423 69.8628 19.406C69.5042 19.6182 69.1108 19.7653 68.7009 19.8405C68.2845 19.8963 67.8618 19.8835 67.4497 19.8026C66.9396 19.6899 66.443 19.5234 65.9682 19.3059C64.2233 18.5047 63.4631 16.4369 64.2736 14.6962L65.4826 12.0996ZM55.4532 10.3739C55.7337 8.46569 57.5081 7.14631 59.4162 7.4272L62.3064 7.85264C62.6165 7.89829 62.831 8.18658 62.7856 8.49673C62.7403 8.80645 62.4529 9.02109 62.143 8.97664L58.5237 8.45745C57.7165 8.34165 56.9679 8.90127 56.8505 9.70828C56.7331 10.5157 57.2918 11.2656 58.099 11.3841L61.3666 11.8636C61.6748 11.9088 61.8876 12.1959 61.8413 12.5039C61.7952 12.8106 61.5096 13.0222 61.2028 12.977L58.0767 12.5161C57.1831 12.3843 56.3517 13.0017 56.2196 13.8953C56.087 14.7921 56.7089 15.6258 57.6063 15.7542L61.3012 16.2831C61.6212 16.3289 61.8395 16.6309 61.7825 16.9491C61.7282 17.2523 61.4433 17.4579 61.1385 17.4137L58.1851 16.9862C56.1835 16.6964 54.7973 14.8367 55.0914 12.8357L55.4532 10.3739ZM51.0247 7.71538C51.0074 7.36117 51.2807 7.06009 51.6349 7.04319C51.9888 7.0263 52.2893 7.29941 52.3063 7.65326L52.7075 16.0071C52.7244 16.3596 52.4519 16.6588 52.0994 16.6748C51.7484 16.6908 51.4505 16.4198 51.4334 16.0688L51.0247 7.71538ZM42.1816 11.9466C41.7611 10.1913 42.8453 8.42807 44.6015 8.01112L47.2107 7.39163C47.5153 7.31931 47.8211 7.50674 47.8949 7.811C47.9692 8.1175 47.78 8.42596 47.4731 8.49857L44.3874 9.22866C43.5826 9.41907 43.0849 10.2261 43.276 11.0307C43.4669 11.8347 44.2733 12.3317 45.0773 12.141L47.4765 11.572C47.7829 11.4993 48.09 11.6893 48.1618 11.9959C48.2334 12.3017 48.0436 12.6076 47.7378 12.6794L46.0244 13.0818C44.8454 13.3586 44.1162 14.5413 44.3985 15.7191L44.7587 17.222C44.8408 17.5648 44.6298 17.9093 44.2871 17.9918C43.9439 18.0744 43.5988 17.8629 43.5165 17.5196L42.1816 11.9466ZM37.4531 10.3764C37.7723 10.2355 38.1452 10.3804 38.2856 10.6997L41.6604 18.3754C41.8011 18.6953 41.6589 19.0688 41.3412 19.2141C41.0162 19.3628 40.6325 19.2163 40.4894 18.8889L37.1298 11.2065C36.9905 10.888 37.1351 10.5168 37.4531 10.3764ZM30.6531 14.1644C31.1797 13.7604 31.7703 13.4475 32.4005 13.2386C32.8713 13.1222 33.3676 13.166 33.8107 13.363C34.2793 13.5692 34.6826 13.8995 34.9769 14.3181C35.3575 14.8259 35.5227 15.4631 35.4368 16.0918C35.3461 16.5386 35.1649 16.9584 34.908 17.3272C34.7693 17.5263 34.9645 17.937 35.2069 17.9483C35.7583 18.0293 36.2978 18.1771 36.8133 18.3885L38.5666 19.0999C39.062 19.3009 39.1413 19.9691 38.7068 20.2805C38.5174 20.4163 38.2716 20.4454 38.0557 20.3576L36.1964 19.6017C35.555 19.3454 35.0576 19.1618 34.6755 19.0517C34.3834 18.9582 34.0791 18.9081 33.7724 18.903C33.5592 18.9155 33.3489 18.9582 33.1477 19.0296C32.9334 19.1369 32.7302 19.265 32.5411 19.4121C31.8737 19.8816 31.7157 20.8044 32.1888 21.4691L33.452 23.2439C33.6548 23.5288 33.5885 23.924 33.304 24.1272C33.0195 24.3303 32.6243 24.2648 32.4206 23.9808L29.6583 20.1291C28.2809 18.2084 28.7269 15.534 30.6531 14.1644ZM23.849 19.9468C24.0407 19.6989 24.3974 19.6539 24.6447 19.8466C24.891 20.0386 24.9353 20.3939 24.7435 20.6405L22.4907 23.5368C21.9874 24.184 22.1024 25.1164 22.7479 25.6218C23.391 26.1253 24.3197 26.0163 24.8287 25.3775L26.8718 22.8136C27.0655 22.5705 27.4193 22.5298 27.6632 22.7226C27.9084 22.9164 27.9494 23.2727 27.7546 23.5171L25.8253 25.9383C25.2577 26.6505 25.3797 27.6889 26.0969 28.2501C26.8089 28.8074 27.8378 28.6827 28.3961 27.9714L30.6859 25.0537C30.8804 24.8058 31.2392 24.7627 31.487 24.9575C31.7347 25.1522 31.7776 25.5109 31.5827 25.7585L29.7076 28.1413C28.4806 29.7005 26.2234 29.9733 24.6603 28.7512L22.6587 27.1864C21.1395 25.9987 20.865 23.807 22.0444 22.2813L23.849 19.9468ZM15.1399 34.9882C15.2425 34.7387 15.4916 34.5812 15.761 34.5955L22.764 34.9659C23.2262 34.9893 23.4817 34.3474 23.1512 34.0234L18.0009 29.2352C17.8101 29.0577 17.7542 28.7781 17.8623 28.5409C18.0352 28.1618 18.5306 28.0667 18.8316 28.355L25.1459 34.4039C25.4356 34.6813 25.5181 35.1116 25.3517 35.4765C25.1958 35.8186 24.8516 36.0354 24.4757 36.0284L15.7156 35.8652C15.2686 35.8569 14.9697 35.4017 15.1399 34.9882Z" fill="white"/>
<path d="M2.84176 59.6866C2.84128 59.6675 2.85299 59.6501 2.87093 59.6434C2.8888 59.6367 2.90894 59.642 2.92116 59.6567L4.85914 61.9789C5.34428 62.5603 5.10968 63.4466 4.40047 63.7118C3.69333 63.9763 2.93634 63.4651 2.91745 62.7103L2.84176 59.6866ZM7.95509 68.0478C8.0152 68.2401 8.22451 68.3425 8.41328 68.272L13.1816 66.4888C13.3618 66.4215 13.4531 66.2208 13.3857 66.0407C13.324 65.8761 13.1495 65.785 12.9775 65.8214C12.108 66.0056 11.696 65.8936 10.4506 64.4457C8.95076 62.7301 7.19392 60.6924 5.49258 58.6728L3.26916 56.0247C3.01553 55.7227 2.57196 55.6671 2.25166 55.8973C2.05846 56.0361 1.94212 56.258 1.93781 56.4959L1.73423 67.7246C1.7172 69.5837 1.52322 69.9023 0.639612 70.4253C0.489798 70.514 0.422261 70.6966 0.483333 70.8596C0.551891 71.0426 0.755785 71.1355 0.938838 71.067L4.74379 69.6441C4.92229 69.5774 5.01284 69.3785 4.94598 69.2001C4.884 69.0346 4.707 68.9427 4.53601 68.9873L4.32221 69.043C3.36972 69.2824 3.25564 69.0819 3.17212 67.9749C3.15635 67.7387 3.14112 67.5022 3.12741 67.2699C3.06062 66.1378 3.76756 65.1353 4.82977 64.7381C5.88618 64.3431 7.07217 64.6282 7.81547 65.4765C8.0327 65.7244 8.2375 65.9579 8.4112 66.152C9.06404 66.8807 9.04143 67.1323 8.35361 67.5063L8.11988 67.636C7.97425 67.7168 7.90541 67.8888 7.95509 68.0478Z" fill="white"/>
<path d="M16.5861 57.3456C16.3144 56.6203 16.1725 56.5274 15.6279 56.6338L15.2642 56.7099C15.0993 56.7444 14.934 56.6535 14.8749 56.4958C14.8108 56.3247 14.8929 56.1336 15.0597 56.059C15.4501 55.8844 15.9091 55.6649 16.3702 55.4369C17.3789 54.9381 18.6142 55.4014 19.009 56.4551L20.7779 61.1772C21.0975 62.0305 21.2501 62.1778 21.8738 61.9446L22.1587 61.838C22.3411 61.7698 22.5442 61.8623 22.6125 62.0446C22.6738 62.208 22.6062 62.3915 22.4544 62.4776C21.4452 63.05 20.4634 63.6691 19.5119 64.333C19.4506 64.3758 19.3724 64.3865 19.302 64.3615C19.2378 64.3387 19.187 64.2887 19.1632 64.225L19.1111 64.086C18.9527 63.663 18.3862 63.6057 18.1218 63.9719C18.0489 64.0729 17.9719 64.1756 17.8888 64.2811C17.5173 64.8204 17.0002 65.2433 16.3975 65.5003C16.0583 65.6525 15.6902 65.7296 15.3184 65.7266C14.9466 65.7235 14.5799 65.6402 14.2433 65.4825C13.9068 65.3248 13.6083 65.0963 13.3684 64.8126C13.1285 64.529 12.9527 64.1969 12.8531 63.8391L11.1782 59.3678C10.9065 58.6425 10.7646 58.5497 10.22 58.656L9.88183 58.7246C9.71678 58.758 9.55188 58.6666 9.4928 58.5089C9.42855 58.3374 9.51018 58.1459 9.67695 58.0702C10.0519 57.8999 10.4996 57.6824 10.9562 57.4541C11.9419 56.9611 13.1452 57.4165 13.5318 58.4485L15.0406 62.4763C15.4754 63.6368 16.2428 63.8654 16.9861 63.5875C18.1902 63.0741 18.1527 61.5017 17.6935 60.2759L16.5946 57.3424" fill="white"/>
<path d="M25.362 58.568C25.931 60.0869 26.7883 60.0873 27.1471 59.9531C27.3899 59.8508 27.6118 59.7071 27.8033 59.5292C27.9484 59.3943 28.1785 59.3766 28.3196 59.5156C28.4468 59.6409 28.4512 59.8446 28.3295 59.9753L27.159 61.2328C26.9726 61.4389 26.7471 61.6058 26.4956 61.7241C24.9664 62.296 23.8627 61.9499 23.2043 60.1921L21.4367 55.4735C21.2777 55.0492 20.805 54.834 20.3806 54.9927L20.0582 55.1132C19.9774 55.1435 19.8865 55.1274 19.8209 55.0713C19.7467 55.0077 19.719 54.9052 19.7513 54.8129L19.9592 54.2174C20.0139 54.0607 20.1355 53.9364 20.2909 53.8783C20.58 53.7702 20.7266 53.4481 20.6184 53.1591L20.5138 52.8799C20.4193 52.6277 20.4489 52.3458 20.5937 52.1188L21.7486 50.3081C21.8139 50.2057 21.9306 50.148 22.0516 50.1583C22.1772 50.169 22.2854 50.2511 22.3297 50.3691L22.7281 51.4327C23.0066 52.176 23.8347 52.5531 24.5782 52.2751L24.9007 52.1545C25.0837 52.086 25.3023 52.0894 25.4206 52.2449C25.4829 52.3267 25.5269 52.4209 25.5497 52.5211C25.5725 52.6214 25.5735 52.7253 25.5527 52.826C25.5122 53.0223 25.329 53.1422 25.1413 53.2124L25.002 53.2645C24.2141 53.5592 23.8145 54.4368 24.1096 55.2245L25.362 58.568Z" fill="white"/>
<path d="M28.8413 48.3811C29.2534 49.4812 31.1387 49.6397 32.2103 49.1584C34.013 48.4843 35.4259 49.24 36.1228 51.1002L37.6219 55.1022C37.9977 56.1054 38.1341 56.2354 39.0011 56.0433C39.173 56.0052 39.3482 56.0964 39.41 56.2613C39.4773 56.4409 39.3862 56.641 39.2065 56.7082L35.1976 58.2073C35.0293 58.2703 34.8417 58.1849 34.7787 58.0166C34.7214 57.8637 34.7873 57.6933 34.9289 57.6122C35.5926 57.2321 35.5936 57.0458 35.2202 56.049L33.7945 52.2433C33.3374 51.0231 32.4718 50.7923 31.6431 51.1021C31.3515 51.2106 31.0848 51.3764 30.8585 51.5897C30.4249 51.9984 30.4428 52.6562 30.6518 53.2142L32.151 57.2161C32.5142 58.1857 32.6537 58.3397 33.2685 58.2416C33.4405 58.2141 33.611 58.3055 33.6721 58.4686C33.7405 58.6514 33.6478 58.855 33.465 58.9233L29.3597 60.4585C29.177 60.5269 28.9734 60.4342 28.905 60.2515C28.8411 60.0809 28.9183 59.8901 29.0807 59.8078C30.0774 59.3022 30.1085 59.1221 29.7268 58.1032L26.1372 48.5207C25.7362 47.4504 25.6943 47.3386 24.6781 47.6386C24.5055 47.6895 24.3216 47.6002 24.2585 47.4318C24.1998 47.2752 24.2635 47.0994 24.4084 47.0159C24.7693 46.8078 25.2154 46.5448 25.6936 46.2568C26.6834 45.6606 27.9848 46.0946 28.3901 47.1766L28.8413 48.3811Z" fill="white"/>
<path d="M40.7492 50.5279C39.9469 48.3861 40.408 47.017 41.2026 46.7199C42.467 46.2471 43.7995 47.4902 44.7872 50.1269C45.858 52.9854 45.1859 53.7913 44.4341 54.0724C43.1611 54.5484 41.6794 53.0109 40.7492 50.5279ZM41.1979 45.7975C40.5743 46.0303 40.0039 46.3861 39.5208 46.8436C39.0376 47.3011 38.6515 47.851 38.3855 48.4606C38.1195 49.0702 37.9789 49.727 37.9723 50.3919C37.9656 51.0569 38.093 51.7163 38.3468 52.331C38.5626 52.9244 38.8982 53.4672 39.3327 53.9257C39.7673 54.3841 40.2915 54.7486 40.8729 54.9963C41.4542 55.2441 42.0804 55.3699 42.7125 55.366C43.3447 55.3621 43.9693 55.2285 44.5476 54.9736C45.1742 54.756 45.7484 54.41 46.2333 53.9579C46.7183 53.5057 47.1034 52.9574 47.3639 52.348C47.6243 51.7386 47.7545 51.0816 47.746 50.4191C47.7375 49.7566 47.5904 49.1032 47.3144 48.5008C47.1104 47.9077 46.786 47.363 46.3614 46.9009C45.9369 46.4388 45.4213 46.0693 44.8471 45.8156C44.2729 45.5618 43.6524 45.4292 43.0245 45.4261C42.3965 45.423 41.7747 45.5494 41.1979 45.7975Z" fill="white"/>
<path d="M52.5044 49.5369C52.8884 50.5621 53.024 50.676 54.3079 50.3309C54.4794 50.2848 54.6592 50.375 54.7215 50.5413C54.7877 50.7181 54.698 50.9152 54.5211 50.9813L49.7597 52.7619C49.5937 52.8239 49.4088 52.7398 49.3466 52.5738C49.2889 52.4197 49.3581 52.2472 49.5043 52.1716C50.4439 51.686 50.4741 51.5015 50.094 50.4869L48.4383 46.0668C48.0183 44.9457 47.9842 44.8546 46.903 45.1195C46.742 45.159 46.5757 45.073 46.5176 44.9178C46.4607 44.7658 46.5244 44.5954 46.6662 44.5164C47.5488 44.0251 48.4807 43.4455 49.4346 42.8373C49.6673 42.689 49.9778 42.7922 50.0746 43.0506C50.2286 43.4618 50.8828 43.4211 51.0347 43.0092C51.0535 42.958 51.0728 42.907 51.0926 42.8562C51.1786 42.5968 51.3162 42.3575 51.4973 42.1526C51.6784 41.9478 51.8991 41.7818 52.1462 41.6645C52.3093 41.5943 52.4846 41.557 52.6621 41.5546C52.8396 41.5523 53.0159 41.5849 53.1807 41.6507C53.3456 41.7164 53.4959 41.814 53.6229 41.9379C53.7499 42.0617 53.8513 42.2094 53.9211 42.3724C54.0348 42.6734 54.0563 43.0014 53.9829 43.3147C53.9095 43.628 53.7444 43.9124 53.5087 44.1318C53.4261 44.2125 53.3225 44.2684 53.2096 44.2934C53.0968 44.3184 52.9793 44.3115 52.8702 44.2733C52.5039 44.1326 52.1009 44.1188 51.7258 44.2343C50.7109 44.6138 51.2261 46.1247 51.6062 47.1393L52.4916 49.5028" fill="white"/>
<path d="M56.0162 43.2331C55.5964 42.1125 55.5621 42.0209 54.4892 42.2829C54.3283 42.3221 54.1622 42.2361 54.1041 42.081C54.0472 41.929 54.1111 41.7584 54.253 41.6797C54.6418 41.4641 55.042 41.2309 55.4467 40.9868C56.4944 40.3551 57.8719 40.8027 58.3011 41.9484L60.0727 46.6776C60.4597 47.7107 60.5977 47.8384 61.6306 47.5864C61.8023 47.5445 61.9801 47.6352 62.0421 47.8008C62.1089 47.9791 62.0185 48.1777 61.8401 48.2444L57.3373 49.9282C57.1715 49.9902 56.9868 49.9062 56.9247 49.7404C56.8669 49.5862 56.9364 49.4135 57.0829 49.3383C58.0461 48.8436 58.069 48.6611 57.6795 47.6211L56.0493 43.2693M56.3621 36.5904C56.3731 36.6025 56.3819 36.6165 56.3875 36.6319C56.4543 36.8125 56.486 37.0042 56.4807 37.1968C56.4753 37.3977 56.4298 37.5955 56.347 37.7786C56.2641 37.9617 56.1456 38.1265 55.9983 38.2634C55.851 38.4003 55.6779 38.5065 55.489 38.5758C55.1084 38.7181 54.6867 38.7036 54.3169 38.5354C53.947 38.3672 53.6592 38.0592 53.5168 37.679C53.3743 37.2988 53.389 36.8776 53.5574 36.5081C53.7259 36.1386 54.0344 35.8511 54.415 35.7087C54.7861 35.5724 55.1958 35.5865 55.5565 35.7479C55.9099 35.9059 56.1888 36.1931 56.3366 36.5499C56.3427 36.5647 56.3513 36.5785 56.3621 36.5904Z" fill="white"/>
<path d="M66.612 36.5566C66.7097 36.52 66.8193 36.5359 66.9027 36.5987C66.9953 36.6684 67.0404 36.7844 67.0193 36.8984L65.6291 44.3995C65.4999 45.0965 66.1808 45.6678 66.8448 45.4195C66.8922 45.4018 66.941 45.3884 66.9904 45.3773C67.5128 45.2597 67.9853 44.9797 68.3393 44.5766C68.7101 44.1544 68.93 43.6212 68.9644 43.0607L69.0063 42.8301C69.0447 42.619 69.2285 42.4656 69.4431 42.4654C69.6859 42.4652 69.8839 42.6601 69.8876 42.9029C69.8944 43.3473 69.8997 43.7461 69.8994 44.1237C69.899 44.7998 69.4662 45.3926 68.8329 45.6294L62.8846 47.8538C62.786 47.8907 62.6755 47.8763 62.5897 47.8154C62.4875 47.7429 62.4376 47.617 62.4622 47.4942L63.9946 39.8455C64.1228 39.2059 63.4984 38.6743 62.8874 38.9028C61.5803 39.3916 61.3419 39.8212 61.2535 40.9633L61.2293 41.2754C61.2119 41.5007 61.0241 41.6747 60.7981 41.6749C60.5691 41.6751 60.3796 41.497 60.3612 41.2686C60.3008 40.5218 60.1898 39.5465 60.0792 38.7826C60.0584 38.6391 60.1398 38.5002 60.2756 38.4494C60.397 38.404 60.528 38.4503 60.6401 38.5152C60.8384 38.6299 61.1266 38.6078 61.7027 38.3924L66.612 36.5566Z" fill="white"/>
<path d="M70.9483 38.3983C70.5575 37.0171 70.9172 35.7152 71.6433 35.4437C72.3695 35.1721 73.4088 35.9703 73.7061 36.7639C73.8531 37.1564 73.805 37.2619 73.5145 37.3706L70.9739 38.3887M77.3837 40.0905C77.2341 40.004 77.0439 40.0536 76.9422 40.1933C76.5182 40.7755 75.9384 41.2297 75.2666 41.5017C72.5448 42.5195 73.5081 38.765 75.9499 37.1895C76.2009 37.0275 76.3579 36.9007 76.083 36.1669C75.7518 35.383 75.1309 34.7569 74.3493 34.4187C73.5678 34.0804 72.6857 34.0561 71.8865 34.3507C70.6425 34.8741 69.6574 35.8696 69.1479 37.1182C68.6384 38.3669 68.6463 39.7664 69.1698 41.009C69.3601 41.5778 69.6672 42.1007 70.0715 42.5441C70.4757 42.9876 70.9682 43.3418 71.5174 43.5842C72.0666 43.8266 72.6604 43.9518 73.2609 43.9518C73.8613 43.9518 74.4552 43.8266 75.0045 43.5843C75.6758 43.2711 76.2606 42.7994 76.7084 42.2099C77.1116 41.679 77.3928 41.067 77.5333 40.4174C77.5613 40.2878 77.4986 40.1568 77.3837 40.0905Z" fill="white"/>
<path d="M78.4467 40.5265C78.3462 40.2278 78.3362 39.906 78.4178 39.6015C78.4993 39.2971 78.6689 39.0233 78.9054 38.8145C79.1418 38.6057 79.4345 38.4711 79.747 38.4276C80.0596 38.384 80.378 38.4334 80.6625 38.5696C80.9471 38.7057 81.1851 38.9227 81.3469 39.1932C81.5087 39.4638 81.5871 39.776 81.5723 40.0908C81.5574 40.4057 81.45 40.7092 81.2635 40.9634C81.077 41.2177 80.8196 41.4114 80.5235 41.5204C80.3222 41.5973 80.1074 41.6324 79.8921 41.6236C79.6767 41.6148 79.4655 41.5623 79.2712 41.4693C79.0769 41.3763 78.9035 41.2448 78.7618 41.0827C78.62 40.9206 78.5128 40.7314 78.4467 40.5265Z" fill="white"/>
<path d="M94.7674 36.0967C94.0051 36.3817 93.155 36.3091 92.4521 35.8988L85.8636 32.0529C84.6013 31.3161 83.1125 32.5712 83.6252 33.9399C84.0851 35.2107 84.6218 36.4525 85.2324 37.6582C85.5619 38.2508 86.0913 38.3654 87.2127 38.037C87.3851 37.9866 87.5699 38.0739 87.6329 38.242C87.6977 38.415 87.6099 38.6078 87.4369 38.6725L83.0894 40.2982C82.9316 40.3573 82.7558 40.2772 82.6967 40.1194C82.6375 39.9615 82.7187 39.787 82.872 39.7166C83.6483 39.3601 83.9243 38.8953 83.779 38.2504C83.4662 36.9349 83.0605 35.6432 82.5648 34.3851L81.0816 30.4258C80.6085 29.1629 80.4423 28.7192 79.8917 28.3414C79.5882 28.1895 79.2545 28.1075 78.9151 28.1015C78.6892 28.0974 78.4646 28.1271 78.2486 28.1889C78.0722 28.2394 77.8758 28.1603 77.8115 27.9885C77.7501 27.8247 77.8332 27.6422 77.997 27.581L80.046 26.8147C80.7266 26.5602 81.4842 26.6141 82.1219 26.9622L88.8903 30.6573C90.01 31.2686 91.2871 30.1603 90.8396 28.9657C90.3826 27.6934 89.8429 26.4524 89.2239 25.2505C88.8912 24.6497 88.3665 24.5492 87.2394 24.8673C87.0672 24.9159 86.8838 24.8278 86.821 24.6602C86.7558 24.4861 86.8441 24.2921 87.0183 24.2269L91.3082 22.6227C91.4778 22.5593 91.6667 22.6453 91.7303 22.8149C91.7938 22.9846 91.7064 23.172 91.5422 23.2487C90.7834 23.6035 90.5199 24.0643 90.6592 24.7138C90.9821 26.0264 91.3906 27.3165 91.8819 28.5759L94.714 36.1361" fill="white"/>
<path d="M95.6555 29.1591C95.2733 27.7747 95.6244 26.476 96.3506 26.2044C97.0768 25.9329 98.1246 26.7279 98.4218 27.5214C98.5689 27.914 98.5208 28.0195 98.2217 28.1313L95.6811 29.1495M102.099 30.8479C101.95 30.7614 101.76 30.8107 101.658 30.9502C101.231 31.5341 100.648 31.9895 99.9738 32.2625C97.2591 33.2776 98.2217 29.5217 100.657 27.9502C101.033 27.7318 101.065 27.6615 100.79 26.9276C100.461 26.1423 99.8401 25.5147 99.058 25.1762C98.2758 24.8377 97.3928 24.8145 96.5937 25.1115C95.3683 25.6478 94.4035 26.6444 93.9079 27.8856C93.4122 29.1269 93.4257 30.513 93.9454 31.7442C94.1341 32.3068 94.4371 32.8243 94.8354 33.2644C95.2337 33.7045 95.7187 34.0577 96.26 34.3018C96.8014 34.546 97.3874 34.6758 97.9813 34.6832C98.5753 34.6907 99.1644 34.5755 99.7118 34.345C100.385 34.0327 100.972 33.5609 101.421 32.9707C101.826 32.4393 102.108 31.8262 102.249 31.1753C102.277 31.0455 102.214 30.9143 102.099 30.8479Z" fill="white"/>
<path d="M105.772 28.4989C106.341 30.0178 107.198 30.0182 107.557 29.8841C107.799 29.7818 108.021 29.638 108.213 29.4601C108.358 29.3253 108.588 29.3075 108.729 29.4465C108.856 29.5718 108.861 29.7755 108.739 29.9062L107.569 31.1638C107.38 31.372 107.152 31.5402 106.897 31.6582C105.376 32.2269 104.264 31.884 103.605 30.1262L101.846 25.4291C101.682 24.993 101.196 24.7717 100.76 24.9348L100.425 25.0601C100.344 25.0904 100.253 25.0743 100.188 25.0182C100.114 24.9546 100.086 24.8521 100.118 24.7598L100.327 24.1615C100.381 24.0066 100.501 23.8837 100.655 23.8262C100.941 23.7193 101.086 23.4008 100.979 23.115L100.873 22.832C100.778 22.5788 100.809 22.2956 100.955 22.0685L102.132 20.2474C102.198 20.1456 102.314 20.0885 102.435 20.0988C102.561 20.1095 102.67 20.1918 102.714 20.3103L103.115 21.3811C103.392 22.1201 104.215 22.4949 104.954 22.2186L105.286 22.0945C105.468 22.0265 105.685 22.0317 105.802 22.1871C105.863 22.269 105.906 22.3629 105.929 22.4627C105.952 22.5625 105.953 22.6659 105.933 22.7663C105.894 22.9619 105.713 23.0827 105.526 23.1525L105.385 23.2052C104.617 23.4927 104.227 24.3491 104.515 25.1176L105.78 28.4957" fill="white"/>
<path d="M105.685 21.1183C105.516 21.1864 105.33 21.2052 105.15 21.1724C104.967 21.1444 104.793 21.0681 104.649 20.9514C104.5 20.834 104.387 20.6773 104.324 20.499C104.256 20.3253 104.239 20.136 104.275 19.953C104.303 19.7668 104.383 19.5922 104.505 19.4487C104.621 19.3084 104.773 19.2014 104.944 19.1386C105.119 19.0714 105.31 19.0506 105.496 19.0781C105.679 19.1104 105.85 19.1907 105.992 19.3109C106.139 19.4253 106.251 19.5792 106.314 19.7547C106.383 19.931 106.401 20.1231 106.366 20.3092C106.334 20.4922 106.253 20.6633 106.133 20.805C106.017 20.9498 105.861 21.0585 105.685 21.1183ZM105.631 20.9732C105.778 20.9201 105.909 20.8301 106.012 20.7117C106.114 20.5933 106.184 20.4507 106.215 20.2974C106.241 20.1398 106.224 19.9783 106.167 19.8292C106.112 19.6794 106.018 19.5466 105.896 19.4441C105.777 19.3403 105.63 19.2735 105.473 19.2519C105.315 19.2236 105.152 19.2375 105.001 19.2922C104.857 19.3477 104.73 19.4421 104.636 19.565C104.527 19.6829 104.457 19.8314 104.435 19.9904C104.41 20.145 104.426 20.3033 104.48 20.4501C104.535 20.5999 104.629 20.7327 104.751 20.8352C104.876 20.9348 105.025 20.9999 105.183 21.0242C105.334 21.0489 105.489 21.0312 105.631 20.9732ZM105.32 20.6944C105.341 20.7485 105.314 20.8095 105.26 20.8299C105.206 20.85 105.146 20.8227 105.126 20.7689L104.837 19.9979C104.768 19.8131 104.862 19.6071 105.046 19.538C105.079 19.5257 105.11 19.5075 105.14 19.4901C105.175 19.4706 105.212 19.4563 105.25 19.4479C105.289 19.4393 105.33 19.44 105.368 19.4519C105.442 19.4748 105.497 19.5376 105.52 19.6111C105.521 19.6146 105.522 19.6181 105.523 19.6216C105.533 19.6575 105.541 19.6941 105.549 19.7308C105.56 19.7876 105.561 19.8461 105.552 19.9035C105.551 19.908 105.549 19.9125 105.548 19.9169C105.517 20.0196 105.549 20.1619 105.627 20.2352L105.824 20.4115C105.881 20.4624 105.864 20.5554 105.792 20.5821C105.758 20.5951 105.718 20.5881 105.69 20.5637L105.524 20.419C105.483 20.3837 105.452 20.3389 105.433 20.2885C105.404 20.2117 105.311 20.1978 105.286 20.2073C105.211 20.2354 105.173 20.3196 105.202 20.3943L105.32 20.6944ZM105.077 20.0228C105.1 20.0937 105.177 20.1311 105.247 20.1049C105.283 20.0961 105.315 20.0782 105.342 20.053C105.368 20.0278 105.388 19.9961 105.398 19.9611C105.413 19.9134 105.414 19.8625 105.401 19.8147C105.396 19.7968 105.39 19.7791 105.384 19.7614C105.382 19.7536 105.379 19.746 105.376 19.7384C105.365 19.7086 105.345 19.6826 105.317 19.6675C105.288 19.652 105.254 19.6491 105.223 19.6576C105.194 19.6654 105.166 19.6775 105.14 19.6934C105.131 19.6994 105.121 19.7048 105.11 19.7088C105.042 19.7341 105.007 19.808 105.029 19.8765L105.077 20.0228Z" fill="white"/>
<path fill-rule="evenodd" clip-rule="evenodd" d="M72.9931 53.8604C72.6254 53.9979 72.2128 53.8125 72.0751 53.4449C71.9374 53.0772 71.525 52.8918 71.1573 53.0293C70.7872 53.1677 70.3715 52.9792 70.2329 52.6092C70.095 52.2412 69.684 52.0529 69.3159 52.1905C68.9482 52.328 68.5383 52.1417 68.4006 51.774C68.2628 51.4064 67.851 51.2207 67.4833 51.3583C67.1127 51.4968 66.9225 51.9105 67.0613 52.2809L70.0623 60.292C70.2009 60.6622 70.6138 60.8498 70.9841 60.7113C71.354 60.573 71.5415 60.1588 71.403 59.7889C71.2652 59.421 71.4515 59.0092 71.8194 58.8716C72.187 58.7341 72.3738 58.3245 72.2362 57.957C72.0985 57.5894 72.2877 57.1789 72.6553 57.0414C73.0253 56.903 73.2158 56.4898 73.0772 56.12C72.9387 55.7501 73.1268 55.3378 73.4967 55.1994C73.8669 55.061 74.0552 54.6484 73.9165 54.2783C73.778 53.9085 73.363 53.7221 72.9931 53.8604Z" fill="white"/>
<path d="M47.3768 60.7838C47.0996 60.0438 46.2751 59.6684 45.535 59.9452L44.8744 60.1922C44.1345 60.4689 43.7592 61.2932 44.0363 62.0329L47.3768 60.7838Z" fill="white"/>
<path d="M59.6237 58.8696C59.3473 58.1316 58.5238 57.7536 57.7856 58.0296C57.0469 58.3058 56.673 59.131 56.9497 59.8696L59.6237 58.8696Z" fill="white"/>
<path d="M61.2142 59.0332C61.0766 58.6658 60.6672 58.4794 60.2997 58.6168L59.6237 58.8696L59.8714 59.5306C60.01 59.9008 60.4249 60.0876 60.7951 59.9492C61.163 59.8116 61.352 59.4009 61.2142 59.0332Z" fill="white"/>
<path d="M62.0869 61.3627C61.9492 60.9953 61.5349 60.8107 61.1674 60.9482C60.7996 61.0857 60.6081 61.4973 60.7459 61.865C60.8835 62.2325 61.2978 62.417 61.6653 62.2796C62.0331 62.142 62.2246 61.7304 62.0869 61.3627Z" fill="white"/>
<path d="M61.249 63.2082C61.1105 62.8384 60.6985 62.6508 60.3286 62.7892L58.3242 63.5387C58.6006 64.2767 59.4242 64.6547 60.1623 64.3787L60.8297 64.1291C61.1999 63.9907 61.3876 63.5783 61.249 63.2082Z" fill="white"/>
<path d="M56.9497 59.8696C56.209 60.1465 55.8333 60.9716 56.1107 61.7121L56.4805 62.6993C56.758 63.44 57.5833 63.8158 58.3242 63.5387L56.9497 59.8696Z" fill="white"/>
<path d="M48.9672 60.9474C48.8296 60.58 48.4202 60.3936 48.0527 60.531L47.3768 60.7838L47.6244 61.4448C47.7631 61.815 48.1779 62.0018 48.5482 61.8634C48.916 61.7258 49.105 61.3151 48.9672 60.9474Z" fill="white"/>
<path d="M67.1863 55.6569C67.0478 55.2871 66.6355 55.0996 66.2656 55.2379C65.8951 55.3765 65.7068 55.7894 65.8456 56.1599L66.0961 56.8287L66.767 56.5778C67.1372 56.4394 67.325 56.027 67.1863 55.6569Z" fill="white"/>
<path d="M68.938 60.3329C68.7995 59.9631 68.3875 59.7756 68.0176 59.9139L67.3459 60.1651L67.5967 60.8346C67.7354 61.2048 68.1481 61.3924 68.5184 61.254C68.8885 61.1155 69.0766 60.703 68.938 60.3329Z" fill="white"/>
<path fill-rule="evenodd" clip-rule="evenodd" d="M64.9503 57.8262C65.0536 58.1019 64.9137 58.409 64.638 58.5121L64.4663 58.5763C64.096 58.7148 63.6836 58.527 63.545 58.1569L62.1691 54.484C62.0313 54.1162 61.6216 53.9296 61.2537 54.0672C60.8855 54.2049 60.6988 54.615 60.8366 54.9831L63.5915 62.3372C63.7293 62.705 64.1391 62.8916 64.5069 62.754C64.8751 62.6163 65.0619 62.2062 64.924 61.8381L64.5492 60.8376C64.4104 60.4671 64.5984 60.0543 64.9689 59.9157L65.1399 59.8518C65.4157 59.7487 65.7229 59.8885 65.8262 60.1643C65.9295 60.44 66.2366 60.5799 66.5124 60.4767L67.3459 60.1651L66.0961 56.8287L65.2626 57.1403C64.9869 57.2434 64.8471 57.5506 64.9503 57.8262Z" fill="white"/>
<path d="M50.7157 65.6149C50.5781 65.2475 50.1638 65.063 49.7963 65.2004C49.4285 65.3379 49.237 65.7495 49.3747 66.1173C49.5124 66.4847 49.9266 66.6692 50.2942 66.5318C50.662 66.3943 50.8535 65.9827 50.7157 65.6149Z" fill="white"/>
<path d="M49.8779 67.4604C49.7393 67.0907 49.3274 66.9031 48.9575 67.0414L46.2867 68.0401C46.5639 68.7801 47.3883 69.1555 48.1285 68.8787L49.4586 68.3813C49.8287 68.2429 50.0165 67.8305 49.8779 67.4604Z" fill="white"/>
<path d="M44.0363 62.0329C43.2957 62.3099 42.92 63.135 43.1974 63.8755L44.443 67.2007C44.7205 67.9414 45.5458 68.3172 46.2867 68.0401L44.0363 62.0329Z" fill="white"/>
<path d="M51.1413 58.6127C51.0026 58.2425 50.5902 58.0548 50.22 58.1932C49.8495 58.3318 49.6615 58.7446 49.8003 59.115L52.5488 66.452C52.6874 66.8222 53.0998 67.01 53.4701 66.8715C53.8406 66.733 54.0286 66.3202 53.8898 65.9497L51.1413 58.6127Z" fill="white"/>
<path d="M54.358 60.0754C54.2193 59.7052 53.807 59.5174 53.4367 59.6559C53.0662 59.7944 52.8782 60.2072 53.017 60.5777L54.8928 65.5852C55.0315 65.9554 55.4439 66.1431 55.8141 66.0047C56.1847 65.8661 56.3726 65.4533 56.2338 65.0829L54.358 60.0754Z" fill="white"/>
<path d="M53.4819 57.7367C53.3434 57.3669 52.9307 57.1795 52.5609 57.3179C52.1907 57.4563 52.0023 57.8689 52.1409 58.239C52.2794 58.6088 52.6921 58.7961 53.062 58.6578C53.4321 58.5194 53.6206 58.1068 53.4819 57.7367Z" fill="white"/>
</svg>
