<svg width="16" height="13" viewBox="0 0 16 13" fill="none" xmlns="http://www.w3.org/2000/svg">
<mask id="path-1-outside-1_175_5271" maskUnits="userSpaceOnUse" x="-1" y="-1" width="18" height="15" fill="black">
<rect fill="white" x="-1" y="-1" width="18" height="15"/>
<path d="M14.8203 0.652344C15.3125 0.625 15.75 1.00781 15.7227 1.47266V10.7148C15.7227 11.1523 15.3672 11.5352 14.9023 11.5625C13.5625 11.6172 10.8281 11.8906 8.94141 12.8477C8.64062 12.9844 8.28516 12.793 8.28516 12.4648V2.51172C8.28516 2.375 8.36719 2.23828 8.50391 2.15625C10.3359 1.03516 13.3164 0.734375 14.8203 0.652344ZM7.21875 2.15625C7.35547 2.23828 7.4375 2.375 7.4375 2.51172V12.4648C7.4375 12.793 7.08203 12.9844 6.78125 12.8477C4.89453 11.8906 2.16016 11.6172 0.820312 11.5625C0.355469 11.5352 0 11.1523 0 10.7148V1.47266C0 1.00781 0.410156 0.625 0.902344 0.652344C2.40625 0.734375 5.38672 1.03516 7.21875 2.15625Z"/>
</mask>
<path d="M14.8203 0.652344C15.3125 0.625 15.75 1.00781 15.7227 1.47266V10.7148C15.7227 11.1523 15.3672 11.5352 14.9023 11.5625C13.5625 11.6172 10.8281 11.8906 8.94141 12.8477C8.64062 12.9844 8.28516 12.793 8.28516 12.4648V2.51172C8.28516 2.375 8.36719 2.23828 8.50391 2.15625C10.3359 1.03516 13.3164 0.734375 14.8203 0.652344ZM7.21875 2.15625C7.35547 2.23828 7.4375 2.375 7.4375 2.51172V12.4648C7.4375 12.793 7.08203 12.9844 6.78125 12.8477C4.89453 11.8906 2.16016 11.6172 0.820312 11.5625C0.355469 11.5352 0 11.1523 0 10.7148V1.47266C0 1.00781 0.410156 0.625 0.902344 0.652344C2.40625 0.734375 5.38672 1.03516 7.21875 2.15625Z" fill="white" fill-opacity="0.8"/>
<path d="M14.8203 0.652344L14.8748 1.65086L14.8758 1.6508L14.8203 0.652344ZM15.7227 1.47266L14.7244 1.41393L14.7227 1.44327V1.47266H15.7227ZM14.9023 11.5625L14.9431 12.5617L14.9521 12.5613L14.9611 12.5608L14.9023 11.5625ZM8.94141 12.8477L9.35521 13.758L9.37469 13.7492L9.39378 13.7395L8.94141 12.8477ZM8.50391 2.15625L9.01842 3.01378L9.02587 3.00922L8.50391 2.15625ZM7.21875 2.15625L6.69677 3.00925L6.70425 3.01374L7.21875 2.15625ZM6.78125 12.8477L6.32887 13.7395L6.34796 13.7492L6.36745 13.758L6.78125 12.8477ZM0.820312 11.5625L0.76159 12.5608L0.770556 12.5613L0.77953 12.5617L0.820312 11.5625ZM0.902344 0.652344L0.846874 1.6508L0.847879 1.65086L0.902344 0.652344ZM14.8758 1.6508C14.8483 1.65233 14.8224 1.64369 14.7982 1.62198C14.7714 1.59793 14.7178 1.52618 14.7244 1.41393L16.7209 1.53138C16.7897 0.362232 15.7402 -0.400303 14.7648 -0.346117L14.8758 1.6508ZM14.7227 1.47266V10.7148H16.7227V1.47266H14.7227ZM14.7227 10.7148C14.7227 10.6594 14.745 10.6213 14.7638 10.6016C14.784 10.5805 14.8132 10.566 14.8436 10.5642L14.9611 12.5608C15.9423 12.5031 16.7227 11.694 16.7227 10.7148H14.7227ZM14.8616 10.5633C13.5032 10.6188 10.5813 10.8945 8.48903 11.9558L9.39378 13.7395C11.075 12.8867 13.6218 12.6156 14.9431 12.5617L14.8616 10.5633ZM8.5276 11.9373C8.67688 11.8694 8.84991 11.879 8.99409 11.9609C9.14886 12.0487 9.28516 12.2339 9.28516 12.4648H7.28516C7.28516 13.6553 8.51974 14.1378 9.35521 13.758L8.5276 11.9373ZM9.28516 12.4648V2.51172H7.28516V12.4648H9.28516ZM9.28516 2.51172C9.28516 2.77586 9.13777 2.94212 9.0184 3.01374L7.98941 1.29876C7.5966 1.53444 7.28516 1.97414 7.28516 2.51172H9.28516ZM9.02587 3.00922C9.79171 2.54057 10.8582 2.21326 11.9757 1.99632C13.0771 1.78253 14.149 1.69045 14.8748 1.65086L14.7658 -0.346172C13.9878 -0.30373 12.8175 -0.204405 11.5946 0.0329728C10.3879 0.267211 9.04813 0.650837 7.98194 1.30328L9.02587 3.00922ZM6.70425 3.01374C6.58488 2.94212 6.4375 2.77586 6.4375 2.51172H8.4375C8.4375 1.97414 8.12605 1.53444 7.73325 1.29876L6.70425 3.01374ZM6.4375 2.51172V12.4648H8.4375V2.51172H6.4375ZM6.4375 12.4648C6.4375 12.2339 6.5738 12.0487 6.72856 11.9609C6.87275 11.879 7.04578 11.8694 7.19505 11.9373L6.36745 13.758C7.20291 14.1378 8.4375 13.6553 8.4375 12.4648H6.4375ZM7.23363 11.9558C5.14136 10.8945 2.21943 10.6188 0.861095 10.5633L0.77953 12.5617C2.10089 12.6156 4.6477 12.8867 6.32887 13.7395L7.23363 11.9558ZM0.879035 10.5642C0.909477 10.566 0.938627 10.5805 0.958831 10.6016C0.977664 10.6213 1 10.6594 1 10.7148H-1C-1 11.694 -0.219599 12.5031 0.76159 12.5608L0.879035 10.5642ZM1 10.7148V1.47266H-1V10.7148H1ZM1 1.47266C1 1.54167 0.968785 1.59083 0.942326 1.61508C0.915137 1.64001 0.879532 1.65262 0.846874 1.6508L0.957814 -0.346117C-0.0769328 -0.403603 -1 0.403491 -1 1.47266H1ZM0.847879 1.65086C1.57369 1.69045 2.64558 1.78253 3.74694 1.99632C4.86448 2.21326 5.93095 2.54057 6.69678 3.00922L7.74072 1.30328C6.67452 0.650837 5.33474 0.267211 4.12806 0.0329728C2.9052 -0.204405 1.7349 -0.30373 0.956808 -0.346172L0.847879 1.65086Z" fill="#252641" fill-opacity="0.8" mask="url(#path-1-outside-1_175_5271)"/>
</svg>
