<svg width="22" height="26" viewBox="0 0 22 26" fill="none" xmlns="http://www.w3.org/2000/svg">
<path d="M6.05469 16.1406C5.71289 16.1406 5.46875 15.8965 5.46875 15.5547V14.3828C5.46875 14.0898 5.71289 13.7969 6.05469 13.7969H15.8203C16.1133 13.7969 16.4062 14.0898 16.4062 14.3828V15.5547C16.4062 15.8965 16.1133 16.1406 15.8203 16.1406H6.05469ZM21.875 5.59375V22.7812C21.875 24.0996 20.8008 25.125 19.5312 25.125H2.34375C1.02539 25.125 0 24.0996 0 22.7812V5.59375C0 4.32422 1.02539 3.25 2.34375 3.25H4.6875V0.710938C4.6875 0.417969 4.93164 0.125 5.27344 0.125H7.22656C7.51953 0.125 7.8125 0.417969 7.8125 0.710938V3.25H14.0625V0.710938C14.0625 0.417969 14.3066 0.125 14.6484 0.125H16.6016C16.8945 0.125 17.1875 0.417969 17.1875 0.710938V3.25H19.5312C20.8008 3.25 21.875 4.32422 21.875 5.59375ZM19.5312 22.4883V7.9375H2.34375V22.4883C2.34375 22.6836 2.44141 22.7812 2.63672 22.7812H19.2383C19.3848 22.7812 19.5312 22.6836 19.5312 22.4883Z" fill="black"/>
</svg>
