<svg width="27" height="29" viewBox="0 0 27 29" fill="none" xmlns="http://www.w3.org/2000/svg">
<mask id="mask0_2343_6732" style="mask-type:alpha" maskUnits="userSpaceOnUse" x="0" y="2" width="25" height="25">
<path d="M12.7964 2.46269C19.5024 2.46269 24.9356 7.89597 24.9356 14.6019C24.9356 21.3078 19.5024 26.7411 12.7964 26.7411C6.09049 26.7411 0.657212 21.3078 0.657212 14.6019C0.657212 7.89597 6.09049 2.46269 12.7964 2.46269ZM12.7964 24.3916C18.1807 24.3916 22.5861 20.0352 22.5861 14.6019C22.5861 9.21758 18.1807 4.81222 12.7964 4.81222C7.36315 4.81222 3.00674 9.21758 3.00674 14.6019C3.00674 20.0352 7.36315 24.3916 12.7964 24.3916ZM15.7823 19.301L11.6217 16.2661C11.4748 16.1683 11.4259 15.9725 11.4259 15.8256V7.74912C11.4259 7.45543 11.6706 7.16174 12.0132 7.16174H13.5796C13.8733 7.16174 14.167 7.45543 14.167 7.74912V14.6998L17.3976 17.0983C17.6913 17.2941 17.7402 17.6367 17.5444 17.9304L16.6144 19.1541C16.4186 19.4478 16.076 19.4967 15.7823 19.301Z" fill="#D9D9D9"/>
</mask>
<g mask="url(#mask0_2343_6732)">
<rect y="-24" width="79" height="63" fill="#696984"/>
</g>
</svg>
