<svg width="14" height="15" viewBox="0 0 14 15" fill="none" xmlns="http://www.w3.org/2000/svg">
<path d="M7 0.96875C10.7461 0.96875 13.7812 4.00391 13.7812 7.75C13.7812 11.4961 10.7461 14.5312 7 14.5312C3.25391 14.5312 0.21875 11.4961 0.21875 7.75C0.21875 4.00391 3.25391 0.96875 7 0.96875ZM7 13.2188C10.0078 13.2188 12.4688 10.7852 12.4688 7.75C12.4688 4.74219 10.0078 2.28125 7 2.28125C3.96484 2.28125 1.53125 4.74219 1.53125 7.75C1.53125 10.7852 3.96484 13.2188 7 13.2188ZM8.66797 10.375L6.34375 8.67969C6.26172 8.625 6.23438 8.51562 6.23438 8.43359V3.92188C6.23438 3.75781 6.37109 3.59375 6.5625 3.59375H7.4375C7.60156 3.59375 7.76562 3.75781 7.76562 3.92188V7.80469L9.57031 9.14453C9.73438 9.25391 9.76172 9.44531 9.65234 9.60938L9.13281 10.293C9.02344 10.457 8.83203 10.4844 8.66797 10.375Z" fill="#252641" fill-opacity="0.8"/>
</svg>
