<svg width="119" height="81" viewBox="0 0 119 81" fill="none" xmlns="http://www.w3.org/2000/svg">
<path d="M24.8721 14.8478L24.9545 14.7322L24.4822 15.4009L24.8721 14.8478Z" fill="white"/>
<path d="M31.7693 14.8317C32.0614 15.9217 32.3534 17.0118 32.5965 17.9188L31.7693 14.8317Z" fill="white"/>
<path d="M32.7468 21.4396C32.5843 21.3616 32.4106 21.2773 32.2194 21.1977L32.7468 21.4396Z" fill="white"/>
<path d="M4.68481 15.0508L0.668061 16.1271L5.81477 35.3349C5.86034 35.5049 5.93239 35.6668 6.02826 35.8145C6.2554 36.15 6.54411 36.4397 6.87914 36.6687C6.94028 36.7104 7.00731 36.7427 7.07692 36.7679C7.12556 36.7856 7.17255 36.8074 7.21891 36.8303C7.37557 36.908 7.54221 36.9646 7.71444 36.9984C8.36879 37.1502 8.25194 37.1722 11.9428 36.1832C13.6844 35.7165 14.718 33.9264 14.2513 32.1847L12.7993 26.7658C11.5352 22.048 10.2289 17.1731 9.91583 16.0045C9.59191 14.7957 8.34932 14.0782 7.14044 14.4022L4.69587 15.0572C4.69106 15.0585 4.68611 15.0556 4.68481 15.0508Z" fill="white"/>
<path d="M24.4734 15.4033L24.9457 14.7346L28.025 10.4418L29.3183 8.60916C29.6916 8.08286 29.811 7.41761 29.644 6.79436L29.1412 4.91792C28.4823 2.45869 28.3514 1.97034 28.2536 1.78156C28.1586 1.569 28.0297 1.37317 27.8716 1.2016C27.8655 1.19448 27.8611 1.18609 27.8587 1.17704C27.854 1.15974 27.8519 1.14096 27.8412 1.1266C27.7725 1.03439 27.6888 0.954183 27.5934 0.889254C27.5829 0.882108 27.5735 0.873021 27.5689 0.861189C27.5588 0.83516 27.5472 0.807967 27.524 0.792428C27.3532 0.678087 27.1744 0.576022 26.9889 0.487013C26.9634 0.474775 26.9337 0.478428 26.9057 0.482779C26.8931 0.484745 26.8804 0.48125 26.8688 0.475845C26.7723 0.430796 26.67 0.398852 26.5648 0.38085C26.5397 0.376554 26.514 0.37835 26.4894 0.384943C26.4506 0.395327 26.4097 0.392991 26.3718 0.379757C26.2037 0.32102 26.0292 0.282587 25.852 0.265138C25.696 0.249775 25.5415 0.274404 25.3901 0.314967C24.6217 0.520858 21.8879 1.25337 16.2263 2.77041L11.3294 4.08252C8.95978 4.71746 7.55354 7.15313 8.18848 9.52274C8.82341 11.8923 11.2591 13.2986 13.6287 12.6636L18.3291 11.4042C20.1111 10.9267 21.9428 11.9842 22.4203 13.7662C22.7016 14.8159 22.9349 15.6865 23.0879 16.2577C23.1671 16.5533 23.5534 16.6246 23.7336 16.3773L24.4734 15.4033Z" fill="white"/>
<path d="M45.5261 37.9147L45.4443 38.0674L45.5373 37.921C45.5422 37.9138 45.547 37.9069 45.5515 37.9003C45.6192 37.8011 45.5733 37.8042 45.5261 37.9147Z" fill="white"/>
<path d="M28.6768 19.5344C28.7383 19.5522 28.7982 19.5749 28.8561 19.6021L32.237 21.193C32.4283 21.2726 32.6019 21.3569 32.7644 21.4349C33.1134 21.6021 33.4979 21.283 33.3977 20.9091L32.5988 17.9275C32.3651 17.0554 32.0637 15.9305 31.7716 14.8404C30.2657 16.0827 28.9676 17.5537 27.9261 19.1982L28.4983 19.467C28.5559 19.4941 28.6156 19.5167 28.6768 19.5344Z" fill="white"/>
<path d="M30.1758 12.6008C30.6589 12.2053 30.8855 11.5687 30.7239 10.9656L30.0907 8.60247C30.0102 8.30207 29.6164 8.23093 29.4359 8.48419L27.3681 11.3376L27.2858 11.4531L27.1752 11.6042L25.7991 13.5152L24.9457 14.7346L24.8633 14.8501L24.4734 15.4033L23.7888 16.3718C23.5138 16.7529 23.6117 17.0959 24.0368 17.2963L24.6308 17.5763C25.1165 17.8029 25.6926 17.6274 25.9928 17.1834C27.1559 15.4633 28.5651 13.9195 30.1758 12.6008Z" fill="white"/>
<path d="M24.4734 15.4033L23.7865 16.3631L24.4659 15.4019C24.4679 15.399 24.4725 15.3998 24.4734 15.4033Z" fill="white"/>
<path d="M24.4734 15.4033L23.7865 16.3631L24.4659 15.4019C24.4679 15.399 24.4725 15.3998 24.4734 15.4033Z" fill="white"/>
<path d="M25.8343 13.5057L27.2105 11.5948L27.321 11.4436L24.9457 14.7346L25.8343 13.5057Z" fill="white"/>
<path d="M25.8343 13.5057L27.2105 11.5948L27.321 11.4436L24.9457 14.7346L25.8343 13.5057Z" fill="white"/>
<path d="M32.59 17.9299L33.3889 20.9115C33.4891 21.2853 33.1046 21.6045 32.7556 21.4372L32.237 21.193L29.0009 19.686L28.6025 19.503L27.9261 19.1982C27.0225 20.6253 26.3271 22.1545 25.8483 23.741C24.4517 28.3685 30.4111 33.3891 33.9934 30.1439C34.0245 30.1105 34.0626 30.0844 34.105 30.0673C34.1217 30.0594 34.1375 30.05 34.1523 30.0393C34.2046 30.0016 34.2471 29.9512 34.2989 29.9128C34.3255 29.893 34.3507 29.8712 34.3734 29.8471C34.7827 29.4139 35.0562 28.8724 35.1606 28.2891C35.1674 28.2512 35.1552 28.2127 35.1504 28.1745C35.1486 28.1595 35.1523 28.1445 35.1563 28.1299C35.1587 28.1208 35.1608 28.1115 35.1625 28.1022C35.1695 28.064 35.1613 28.0253 35.1502 27.9882C35.136 27.9405 35.124 27.8922 35.1141 27.8434C35.0884 27.7475 34.8501 26.858 34.3608 24.8206L33.617 22.0447C33.6073 22.0083 33.6449 21.9772 33.6789 21.9937L33.8836 22.0884L34.0415 22.1489L34.5466 22.3781C35.2008 22.6701 35.4589 22.7879 35.4835 22.8093C35.5102 22.8326 35.5452 22.8055 35.5774 22.8201L35.8391 22.9384L36.1148 23.0652C36.1535 23.083 36.1896 23.1061 36.2285 23.1235C36.2684 23.1414 36.3111 23.1533 36.3512 23.1709L36.569 23.2662L37.2677 23.5837C37.4244 23.6453 37.5772 23.7158 37.7255 23.7949C37.7662 23.8166 37.8082 23.8357 37.8516 23.851C37.8983 23.8675 37.9435 23.8881 37.9882 23.9096C38.0884 23.9576 38.261 24.0332 38.427 24.1049L38.6801 24.2177C39.4538 24.5623 40.2329 25.1253 41.0634 24.9594C41.2523 24.8954 41.43 24.8025 41.59 24.6844C41.6238 24.6595 41.6512 24.6271 41.6814 24.5979C41.7021 24.578 41.7243 24.5594 41.7429 24.5375C41.9252 24.3226 42.0358 24.0567 42.0589 23.7767C42.0715 23.6373 42.0594 23.4968 42.0232 23.3616L40.0091 15.8452C39.3164 13.2598 36.6101 11.674 34.2865 13.0026C34.2619 13.0166 34.2373 13.0308 34.2127 13.045C32.535 14.0144 31.983 16.0898 32.59 17.9299Z" fill="white"/>
<path d="M18.9167 25.108L17.1116 25.5916C14.742 26.2266 13.3358 28.6623 13.9707 31.0319L14.064 31.3802C14.6474 33.5574 16.8854 34.8495 19.0626 34.2661L19.5694 34.1303C21.3777 33.6458 22.4589 31.8297 22.3742 29.9596C22.347 29.3597 22.3459 28.7589 22.3709 28.1589C22.4493 26.2788 20.7332 24.6171 18.9167 25.108Z" fill="white"/>
<path d="M25.4755 18.0509L24.6207 17.6444L24.2423 17.4654C23.874 17.2963 23.4751 17.6324 23.58 18.0239C23.7361 18.6063 23.9485 19.399 24.1811 20.2671L24.2255 20.4328C24.5908 19.6136 25.0084 18.818 25.4755 18.0509Z" fill="white"/>
<path d="M36.5708 2.13239C36.537 2.00613 36.4765 1.88858 36.3935 1.78764C36.2042 1.56135 35.9479 1.3999 35.6605 1.32601C35.3732 1.25212 35.0692 1.2695 34.7914 1.3757C34.5138 1.52041 34.2814 1.73791 34.1196 2.00436L33.6838 2.59781L33.051 3.47773L32.6152 4.07118L32.2924 4.52221L32.0712 4.82448L30.9956 6.27168L30.6987 6.6784C30.5599 6.86513 30.417 7.07167 30.3781 7.13816C30.3561 7.17564 30.3291 7.20998 30.2979 7.24027C30.2852 7.25262 30.2739 7.26644 30.2653 7.28196C30.1948 7.40953 30.0677 8.02333 30.1054 8.16415C30.2291 8.62579 30.4449 9.43101 30.7643 10.623C30.9273 11.2315 31.6524 11.4871 32.1822 11.1463C33.1443 10.5273 34.1543 9.98709 35.2018 9.5306C36.8453 8.81443 37.8905 7.05732 37.4265 5.32565L36.5708 2.13239Z" fill="white"/>
<path d="M28.8033 19.5514C28.7864 19.5465 28.7775 19.5706 28.7934 19.5779L29.0185 19.6813L32.2546 21.1883L28.8054 19.5522C28.8047 19.5519 28.804 19.5516 28.8033 19.5514Z" fill="white"/>
<path d="M28.8033 19.5514C28.7864 19.5465 28.7775 19.5706 28.7934 19.5779L29.0185 19.6813L32.2546 21.1883L28.8054 19.5522C28.8047 19.5519 28.804 19.5516 28.8033 19.5514Z" fill="white"/>
<path d="M25.4755 18.0509L24.6231 17.6531L25.4697 18.0558C25.4729 18.0573 25.4764 18.0544 25.4755 18.0509Z" fill="white"/>
<path d="M25.4755 18.0509L24.6231 17.6531L25.4697 18.0558C25.4729 18.0573 25.4764 18.0544 25.4755 18.0509Z" fill="white"/>
<path d="M7.44361 6.77809C7.29018 6.20549 6.52217 6.10202 6.22267 6.6136L3.84347 10.6776L0.668061 16.1271L6.61513 14.5336C8.12744 14.1284 9.02491 12.5739 8.61969 11.0616C8.21598 9.59014 7.67908 7.62163 7.44361 6.77809Z" fill="white"/>
<path d="M4.68481 15.0508L5.01307 14.9722L9.35575 13.8086L5.02188 14.9698L4.68481 15.0508Z" fill="white"/>
<path d="M4.68481 15.0508L5.01307 14.9722L9.35575 13.8086L5.02188 14.9698L4.68481 15.0508Z" fill="white"/>
<path d="M27.5917 19.0074L26.8279 18.6232L27.3019 18.8421L27.9942 19.1706L27.5917 19.0074Z" fill="white"/>
<path d="M63.8457 62.981C57.1105 64.6247 50.0072 63.5962 44.0524 60.1152C38.0976 56.6341 33.7632 50.9763 31.9747 44.3498C31.7338 43.4507 30.7994 42.8608 29.9002 43.1017L29.455 43.221C28.5251 43.4702 27.929 44.4371 28.1781 45.3671C30.2303 52.9942 35.2216 59.5046 42.0803 63.5002C48.3744 67.1669 55.7807 68.4474 62.9417 67.149C64.0029 66.9566 64.6326 65.8822 64.3534 64.8404L63.8569 62.9875C63.8556 62.9826 63.8506 62.9797 63.8457 62.981Z" fill="white"/>
<path d="M87.0905 29.5815C86.0681 25.7474 84.2925 22.1543 81.8651 19.0078C79.4378 15.8613 76.4063 13.2229 72.9439 11.2436C69.4815 9.26429 65.6562 7.9828 61.6865 7.47237C58.3615 7.04483 54.9899 7.16528 51.7072 7.82461C50.6514 8.03667 50.0348 9.11225 50.3135 10.1524C50.5922 11.1927 51.6608 11.8024 52.7185 11.5996C57.2391 10.7328 61.9156 11.0427 66.2854 12.5152C71.2708 14.1951 75.6309 17.312 78.8092 21.4681C81.9874 25.6242 83.8397 30.631 84.1297 35.8496C84.3378 39.5943 83.7347 43.3262 82.381 46.8004C81.7966 48.3003 83.1551 50.0399 84.71 49.6233C85.2334 49.4831 85.6682 49.1146 85.8734 48.6131C88.3479 42.5652 88.78 35.8852 87.0905 29.5815Z" fill="white"/>
<path d="M89.9259 54.6095L76.4553 58.219C74.6516 58.7023 73.5812 60.5562 74.0645 62.3599L74.8004 65.1061C74.8773 65.3931 75.1723 65.5635 75.4593 65.4866C81.5285 63.8834 86.7269 59.9749 89.9259 54.6095Z" fill="white"/>
<path d="M102.939 54.7961C101.87 53.3812 99.7103 52.614 97.21 52.7606C96.8589 52.7863 96.511 52.8451 96.171 52.9362L94.524 53.3775C92.8755 57.1459 90.3894 60.4997 87.2524 63.1873C84.1154 65.8749 80.4087 67.8264 76.4105 68.8956C76.1284 68.9712 75.9609 69.2613 76.0365 69.5434L77.8289 76.2326C77.9133 76.5476 78.0329 76.8522 78.1855 77.1406C78.6029 78.0861 79.2928 78.8872 80.1691 79.4438C81.0453 80.0003 82.0689 80.2876 83.1119 80.2696C84.1732 80.2843 83.5367 80.4455 96.503 76.9712L99.3253 76.215C104.334 74.8728 107.307 69.7243 105.965 64.7153C103.235 54.6326 103.52 55.5563 102.939 54.7961Z" fill="white"/>
<path d="M115.383 54.2527C114.331 50.3185 112.31 49.8597 109.632 52.9278L108.661 54.0435C106.713 56.2801 106.006 59.3386 106.774 62.203C107.55 65.1019 109.734 67.4153 112.583 68.3581L113.871 68.7843C116.412 69.6183 118.865 67.3001 118.172 64.7168C117.766 63.1989 117.294 61.4372 116.77 59.4833C116.273 57.5977 115.801 55.8173 115.383 54.2527Z" fill="white"/>
<path d="M94.524 53.3775L89.9259 54.6095C86.7356 59.9669 81.5521 63.8741 75.4969 65.4858C75.2099 65.5627 75.0395 65.8578 75.1165 66.1448L75.7539 68.524C75.8296 68.8061 76.1196 68.9736 76.4017 68.898C80.4018 67.8297 84.1103 65.8783 87.2489 63.1903C90.3876 60.5022 92.8749 57.1473 94.524 53.3775Z" fill="white"/>
<path d="M94.524 53.3775L89.9259 54.6095C86.7356 59.9669 81.5521 63.8741 75.4969 65.4858C75.2099 65.5627 75.0395 65.8578 75.1165 66.1448L75.7539 68.524C75.8296 68.8061 76.1196 68.9736 76.4017 68.898C80.4018 67.8297 84.1103 65.8783 87.2489 63.1903C90.3876 60.5022 92.8749 57.1473 94.524 53.3775Z" fill="white"/>
<path d="M31.7716 14.8404C31.4772 13.7416 31.2248 12.7997 31.0052 11.98C31.2295 12.8172 31.4982 13.8201 31.7716 14.8404Z" fill="white"/>
<path d="M26.8279 18.6232L27.6246 18.9893L27.9942 19.1706C28.8658 17.7862 29.919 16.5239 31.1249 15.4164C31.5303 15.0442 31.7007 14.4347 31.5582 13.9031C31.3004 12.941 30.1675 12.593 29.4289 13.2613C27.8864 14.6571 26.5537 16.27 25.4755 18.0509L26.8279 18.6232Z" fill="white"/>
<path d="M25.4371 32.5809C25.4431 32.5706 25.4452 32.5584 25.4429 32.5468C24.5317 27.9548 25.4193 23.1822 27.9261 19.1982L27.2338 18.8697L26.8279 18.6232C26.7767 18.637 26.7223 18.6322 26.6742 18.6098L25.4755 18.0509C25.0084 18.818 24.5908 19.6136 24.2255 20.4328L24.6938 22.1804C24.8881 22.9058 24.4577 23.6513 23.7324 23.8457C23.2546 23.9737 22.8805 24.3504 22.7798 24.8347C22.3326 26.9852 22.2298 29.1881 22.4729 31.3623C22.5917 32.4253 23.6536 33.0733 24.6868 32.7965L25.4077 32.6033C25.4201 32.6 25.4307 32.5919 25.4371 32.5809Z" fill="white"/>
<path d="M31.7693 14.8317C33.5203 13.3695 35.5238 12.2416 37.6774 11.5008C38.3854 11.2572 38.818 10.5188 38.6242 9.79558C38.4309 9.07432 37.6881 8.64182 36.9803 8.87958C35.1505 9.49419 33.4123 10.3541 31.8144 11.4357C31.3469 11.7522 31.1475 12.335 31.2936 12.8804C31.4475 13.4548 31.6161 14.0838 31.8053 14.7898C31.8113 14.8125 31.7926 14.8344 31.7693 14.8317Z" fill="white"/>
<path d="M25.4755 18.0509L26.6742 18.6098C26.7223 18.6322 26.7767 18.637 26.8279 18.6232L25.4755 18.0509Z" fill="white"/>
<path d="M25.4755 18.0509L26.6742 18.6098C26.7223 18.6322 26.7767 18.637 26.8279 18.6232L25.4755 18.0509Z" fill="white"/>
<path d="M25.4755 18.0509L26.6742 18.6098C26.7223 18.6322 26.7767 18.637 26.8279 18.6232L25.4755 18.0509Z" fill="white"/>
<path d="M29.053 48.6516C29.1212 48.8762 28.9899 49.1126 28.7631 49.1733L27.2706 49.5733C26.2514 49.8464 25.2038 49.2415 24.9308 48.2224L23.6505 43.4444C23.5853 43.2012 23.7297 42.9512 23.9729 42.886C24.2162 42.8208 24.4662 42.9652 24.5314 43.2084L25.7037 47.5834C25.9176 48.382 26.7385 48.8559 27.5371 48.6419L28.5482 48.371C28.7646 48.3131 28.988 48.4372 29.053 48.6516Z" fill="white"/>
<path d="M31.1562 48.0601C31.2213 48.3033 31.077 48.5534 30.8337 48.6185C30.5905 48.6837 30.3405 48.5394 30.2753 48.2961L28.6186 42.1132C28.5534 41.87 28.6978 41.62 28.941 41.5548C29.1843 41.4896 29.4343 41.634 29.4995 41.8772L31.1562 48.0601Z" fill="white"/>
<path d="M36.0333 39.6544C36.3567 39.5678 36.6672 39.8307 36.635 40.164L36.0008 46.7367C35.9712 47.0437 35.7541 47.3001 35.4562 47.3799C35.156 47.4604 34.8375 47.3445 34.6592 47.0899L30.8898 41.7083C30.6962 41.4318 30.8362 41.047 31.1623 40.9596C31.3619 40.9061 31.5735 40.9846 31.6899 41.1554L34.7376 45.6253C34.8565 45.7996 34.9731 45.9797 35.076 46.1639C35.1324 46.2691 35.1834 46.3771 35.2288 46.4875C35.1696 46.2667 35.1936 46.0316 35.2223 45.8048C35.2226 45.8023 35.2229 45.7998 35.2232 45.7973L35.6792 40.0798C35.6953 39.8773 35.8371 39.707 36.0333 39.6544Z" fill="white"/>
<path d="M43.4195 44.8162C43.4789 45.0378 43.3474 45.2655 43.1259 45.3249L41.6156 45.7296C40.5599 46.0124 39.4748 45.3859 39.1919 44.3303L38.307 41.0278C38.0333 40.0062 38.6395 38.9561 39.6612 38.6823L41.1142 38.293C41.3333 38.2343 41.5586 38.3643 41.6173 38.5835C41.676 38.8026 41.546 39.0279 41.3268 39.0866L40.0693 39.4235C39.4408 39.5919 39.0678 40.238 39.2362 40.8665C39.4046 41.495 40.0507 41.868 40.6792 41.6996L41.6945 41.4276C41.9161 41.3682 42.1438 41.4997 42.2032 41.7212C42.2625 41.9428 42.1311 42.1705 41.9095 42.2299L40.9509 42.4867C40.291 42.6635 39.8995 43.3418 40.0763 44.0016C40.2531 44.6614 40.9313 45.053 41.5911 44.8762L42.9109 44.5226C43.1325 44.4632 43.3602 44.5947 43.4195 44.8162Z" fill="white"/>
<path d="M86.2397 32.2404C86.3786 32.4121 86.3595 32.6643 86.1834 32.7978C85.9883 32.9456 85.7821 33.0787 85.5665 33.1958C85.2272 33.3666 84.8714 33.5027 84.5046 33.6019C84.0404 33.7557 83.5488 33.8093 83.063 33.7589C82.5772 33.7084 82.1084 33.5553 81.6884 33.3096C80.8667 32.7531 80.2989 31.8988 80.1065 30.9295C79.9453 30.4293 79.8859 29.9019 79.9318 29.3778C79.9778 28.8537 80.1281 28.3433 80.3741 27.8762C80.6251 27.4389 80.965 27.0578 81.3721 26.7573C81.7792 26.4567 82.2446 26.2432 82.7387 26.1303C83.0668 26.0414 83.403 25.9857 83.7421 25.9643C83.926 25.9577 84.1099 25.9624 84.2928 25.9783C84.5227 25.9983 84.6749 26.2161 84.6376 26.4438C84.5996 26.6756 84.3798 26.8293 84.1452 26.8185C84.0122 26.8123 83.8788 26.8139 83.7457 26.8232C83.4676 26.8401 83.1919 26.8858 82.9231 26.9595C82.5535 27.0409 82.2056 27.2001 81.9029 27.4264C81.6002 27.6526 81.3499 27.9406 81.169 28.2707C80.8112 29.0214 80.7633 29.8797 81.0356 30.6618C81.1982 31.4144 81.6421 32.0767 82.2783 32.516C82.5847 32.7057 82.9294 32.8268 83.2884 32.871C83.6475 32.9152 84.0124 32.8814 84.3578 32.772C84.6547 32.6946 84.9417 32.5832 85.2129 32.44C85.3561 32.3597 85.4943 32.2713 85.6268 32.1752C85.8187 32.0361 86.0906 32.0562 86.2397 32.2404Z" fill="white"/>
<path d="M90.6619 31.952C90.2038 32.0992 89.7192 32.1455 89.2422 32.0877C88.7652 32.0298 88.3072 31.8692 87.9003 31.6171C87.0821 31.0572 86.5154 30.2044 86.3184 29.237C86.0002 28.2494 86.0741 27.1768 86.5249 26.2374C86.7626 25.8046 87.0924 25.428 87.4914 25.1338C87.8903 24.8397 88.3488 24.635 88.8348 24.5342C89.2824 24.3952 89.7547 24.3541 90.2189 24.4137C90.6831 24.4733 91.1283 24.6322 91.5236 24.8793C92.3384 25.4426 92.9041 26.2938 93.1054 27.2595C93.4286 28.2492 93.3555 29.326 92.9013 30.2678C92.6715 30.6911 92.3524 31.0608 91.9659 31.3514C91.5794 31.6421 91.1346 31.847 90.6619 31.952ZM90.4446 31.141C90.7902 31.0665 91.1152 30.9168 91.3958 30.7025C91.6765 30.4883 91.9058 30.215 92.067 29.9025C92.3799 29.179 92.4146 28.3681 92.1645 27.6238C92.0097 26.842 91.5778 26.1422 90.9467 25.6508C90.662 25.4619 90.3379 25.3388 89.9983 25.2907C89.6586 25.2426 89.312 25.2707 88.984 25.3729C88.6475 25.4565 88.3338 25.6135 88.0657 25.8325C87.7977 26.0515 87.5822 26.3269 87.4349 26.6385C87.1127 27.3547 87.067 28.1621 87.3063 28.9068C87.469 29.6693 87.9052 30.346 88.5342 30.8117C88.8073 31.0039 89.1204 31.1332 89.4508 31.1902C89.7813 31.2471 90.1208 31.2303 90.4446 31.141Z" fill="white"/>
<path d="M100.12 26.1652C100.401 26.965 100.374 27.8414 100.042 28.6254C99.8438 28.9657 99.5733 29.2596 99.2494 29.4868C99.2352 29.4968 99.2209 29.5066 99.2064 29.5163C98.582 29.9369 97.8027 30.1441 97.0527 30.0787C96.6761 30.0459 96.3112 29.9341 95.9822 29.7507C95.3281 29.2539 94.8832 28.5344 94.7327 27.7301L93.6823 23.8102C93.6172 23.567 93.7615 23.317 94.0048 23.2518C94.248 23.1866 94.498 23.3309 94.5632 23.5742L95.5949 27.4243C95.713 28.0192 96.0432 28.5511 96.5251 28.9229C96.7465 29.0636 96.9974 29.1524 97.259 29.1827C97.7797 29.2429 98.3344 29.1024 98.7552 28.7899C98.9674 28.6323 99.139 28.4271 99.2558 28.1912C99.4642 27.6509 99.472 27.0557 99.2779 26.5122L98.2275 22.5919C98.1624 22.3489 98.3066 22.0991 98.5496 22.034C98.7929 21.9688 99.043 22.1135 99.1077 22.357L100.12 26.1652Z" fill="white"/>
<path d="M107.343 26.5973C107.612 26.8566 107.495 27.3107 107.134 27.4075C106.972 27.451 106.798 27.4064 106.677 27.2899L105.13 25.8039C104.91 25.5688 104.647 25.3762 104.355 25.2359C104.15 25.1684 103.928 25.1658 103.721 25.2283C103.278 25.347 103.015 25.802 103.134 26.2447L103.574 27.8892C103.64 28.1325 103.495 28.3825 103.252 28.4477C103.009 28.5129 102.759 28.3685 102.694 28.1253L101.486 23.6167C101.162 22.4103 101.878 21.1701 103.085 20.8469C103.654 20.6709 104.265 20.6917 104.819 20.9056C105.082 21.0246 105.312 21.2041 105.491 21.4293C105.669 21.6546 105.791 21.919 105.846 22.2008C105.983 22.6489 105.958 23.1312 105.777 23.5651C105.665 23.8309 105.503 24.0715 105.302 24.2752C105.16 24.4182 105.204 24.7064 105.381 24.8021C105.566 24.9075 105.735 25.0385 105.882 25.1913L107.343 26.5973ZM103.123 21.6964C102.501 21.8632 102.131 22.5033 102.298 23.126L102.4 23.5048C102.564 24.1178 103.194 24.4815 103.807 24.3173C103.998 24.2726 104.179 24.1904 104.337 24.0756C104.496 23.9608 104.631 23.8156 104.732 23.6487C104.833 23.4797 104.896 23.2919 104.919 23.0975C104.942 22.9031 104.923 22.7063 104.864 22.5198C104.824 22.3567 104.751 22.2036 104.649 22.0702C104.546 21.9368 104.417 21.8259 104.269 21.7445C103.908 21.5837 103.498 21.5664 103.123 21.6964Z" fill="white"/>
<path d="M108.739 26.601C108.516 26.5473 108.399 26.311 108.468 26.0924C108.54 25.8655 108.785 25.7449 109.017 25.7964C109.208 25.8386 109.402 25.866 109.597 25.8783C109.951 25.8813 110.304 25.8339 110.645 25.7376C111.025 25.6523 111.367 25.4492 111.623 25.1579C111.732 25.021 111.806 24.8597 111.837 24.6882C111.869 24.5167 111.857 24.3404 111.803 24.1749C111.768 24.0219 111.699 23.8784 111.602 23.7543C111.505 23.6303 111.383 23.5285 111.242 23.4559C110.826 23.2906 110.383 23.2004 109.934 23.1896C109.329 23.1764 108.735 23.0362 108.191 22.7782C107.984 22.6648 107.804 22.5092 107.662 22.3215C107.521 22.1339 107.421 21.9184 107.37 21.6894C107.289 21.4207 107.271 21.1372 107.316 20.8597C107.361 20.5823 107.468 20.3182 107.63 20.0869C108.006 19.5744 108.559 19.2165 109.183 19.082C109.509 18.9929 109.844 18.9438 110.182 18.9358C110.39 18.9336 110.597 18.9438 110.804 18.9661C111.037 18.9915 111.187 19.2186 111.137 19.4484C111.089 19.6725 110.87 19.8146 110.642 19.7907C110.491 19.7748 110.34 19.7667 110.188 19.7662C109.89 19.7726 109.593 19.8143 109.305 19.8905C108.944 19.9678 108.62 20.1668 108.389 20.4537C108.292 20.5826 108.228 20.7325 108.201 20.8909C108.175 21.0493 108.187 21.2115 108.236 21.3638C108.268 21.502 108.333 21.6306 108.424 21.7392C108.515 21.8479 108.631 21.9335 108.763 21.9892C109.174 22.1404 109.607 22.2231 110.046 22.2342C110.674 22.2517 111.289 22.406 111.848 22.6861C112.058 22.8182 112.239 22.9907 112.381 23.1934C112.523 23.3961 112.623 23.625 112.674 23.8667C112.755 24.1407 112.774 24.4291 112.731 24.7119C112.687 24.9946 112.583 25.265 112.424 25.5041C112.041 26.0435 111.468 26.4207 110.818 26.5605C110.414 26.6741 109.995 26.7264 109.576 26.7158C109.293 26.7055 109.013 26.6669 108.739 26.601Z" fill="white"/>
<path d="M118.472 23.9396C118.531 24.1612 118.399 24.3889 118.178 24.4483L116.646 24.8589C115.578 25.145 114.48 24.5113 114.194 23.4435L113.298 20.0977C113.023 19.0736 113.631 18.021 114.655 17.7466L116.108 17.3573C116.33 17.2979 116.557 17.4294 116.617 17.6509C116.676 17.8725 116.544 18.1002 116.323 18.1596L115.083 18.4919C114.447 18.6622 114.07 19.3157 114.24 19.9514C114.411 20.5872 115.064 20.9645 115.7 20.7941L116.728 20.5185C116.95 20.4591 117.178 20.5906 117.237 20.8121C117.296 21.0337 117.165 21.2614 116.943 21.3208L115.976 21.5801C115.306 21.7594 114.909 22.4476 115.088 23.117C115.268 23.7865 115.956 24.1838 116.625 24.0044L117.963 23.646C118.185 23.5866 118.412 23.7181 118.472 23.9396Z" fill="white"/>
<path d="M60.1082 33.2421C57.4643 32.7005 55.1749 35.131 55.8734 37.7379C56.6002 40.4503 59.9995 41.3458 61.9683 39.3434C63.9859 37.2913 62.9275 33.8195 60.1082 33.2421Z" fill="white"/>
</svg>
