<svg width="17" height="30" viewBox="0 0 17 30" fill="none" xmlns="http://www.w3.org/2000/svg">
<path d="M11.1644 7.83839C11.1468 8.86394 11.1607 9.88856 11.1607 10.9502C11.3068 10.9566 11.4279 10.9677 11.55 10.9677C12.7494 10.9687 13.9497 10.9668 15.15 10.9687C15.8769 10.9705 16.0563 11.149 16.0572 11.8629C16.0591 13.2361 16.06 14.6094 16.0572 15.9827C16.0554 16.6189 15.8972 16.7798 15.2573 16.7826C14.0339 16.7881 12.8113 16.7844 11.5879 16.7844H11.1625V28.0497C11.1625 29.0678 11.0626 29.1659 10.0278 29.1659C8.71193 29.1659 7.39694 29.1668 6.08194 29.1649C5.35139 29.164 5.18216 28.9966 5.18124 28.2716C5.18031 24.6143 5.18124 20.9559 5.18124 17.2976V16.8482C5.04068 16.8399 4.91953 16.8269 4.79839 16.8269C3.79504 16.8251 2.79076 16.8279 1.78741 16.8251C1.09108 16.8223 0.922772 16.6605 0.920922 15.9706C0.915374 14.6205 0.916299 13.2704 0.919998 11.9202C0.921847 11.2026 1.08645 11.0417 1.79573 11.0408C2.78799 11.0399 3.78024 11.0408 4.7725 11.0408H5.18124C5.18124 10.8697 5.17939 10.7347 5.18124 10.5997C5.20528 9.2847 5.15812 7.96416 5.26909 6.65749C5.55021 3.36816 8.0794 0.986931 11.3845 0.863014C12.7669 0.811228 14.1522 0.84082 15.5375 0.844519C15.9952 0.846369 16.1913 1.04426 16.1941 1.50479C16.2015 2.87804 16.2015 4.25129 16.1941 5.62454C16.1913 6.09154 15.9989 6.27649 15.4977 6.28851C14.5637 6.31071 13.6288 6.31163 12.6948 6.3255C11.611 6.34215 11.1838 6.75181 11.1644 7.83839Z" fill="#555555"/>
</svg>
