<svg width="16" height="14" viewBox="0 0 16 14" fill="none" xmlns="http://www.w3.org/2000/svg">
<path d="M14.5 0.699998L15.85 2C14.2833 3.86667 13.5 5.63333 13.5 7.3C13.5 7.9 13.7667 8.53333 14.3 9.2C14.8333 9.83333 15.1 10.4667 15.1 11.1C15.1 11.7 14.8333 12.2167 14.3 12.65C13.8 13.0833 13.1667 13.3 12.4 13.3C11.6333 13.3 10.9833 12.9833 10.45 12.35C9.91667 11.6833 9.65 10.6833 9.65 9.35C9.65 7.98333 10.05 6.51667 10.85 4.95C11.6833 3.35 12.9 1.93333 14.5 0.699998ZM4.95 0.699998L6.3 2C4.73333 3.86667 3.95 5.63333 3.95 7.3C3.95 7.9 4.21667 8.53333 4.75 9.2C5.28333 9.83333 5.55 10.4667 5.55 11.1C5.55 11.7 5.28333 12.2167 4.75 12.65C4.25 13.0833 3.61667 13.3 2.85 13.3C2.08333 13.3 1.43333 12.9833 0.9 12.35C0.366667 11.6833 0.1 10.6833 0.1 9.35C0.1 7.98333 0.5 6.51667 1.3 4.95C2.13333 3.35 3.35 1.93333 4.95 0.699998Z" fill="white"/>
</svg>
