<svg width="31" height="30" viewBox="0 0 31 30" fill="none" xmlns="http://www.w3.org/2000/svg">
<path d="M30.0768 8.72632C30.0568 5.67258 28.6552 3.35543 25.9432 1.81297C24.7498 1.1339 23.4309 0.840098 22.0478 0.839405C17.6816 0.83594 13.3155 0.825546 8.9493 0.842177C5.3956 0.855342 2.4268 2.96254 1.30263 6.25326C1.13714 6.73831 1.07651 7.25801 0.968087 7.76176C0.948828 7.85115 0.933135 7.94123 0.916016 8.03062V21.9737C0.99448 22.3978 1.03728 22.8316 1.1564 23.2446C2.06088 26.3808 4.15872 28.3071 7.42924 29.025C7.72241 29.0894 8.02414 29.1199 8.32159 29.1663H22.6777C23.1149 29.0901 23.5614 29.0485 23.9873 28.9328C27.2122 28.0556 29.2009 26.0211 29.9284 22.8475C30.0454 22.3396 30.0754 21.8047 30.0768 21.2822C30.0882 17.0969 30.1039 12.9116 30.0768 8.72632ZM15.5125 22.7664C11.1213 22.7907 7.50343 19.2817 7.50557 15.0008C7.50771 10.724 11.0664 7.26216 15.4868 7.23791C19.8779 7.21366 23.4958 10.722 23.4937 15.0029C23.4915 19.2796 19.9328 22.7415 15.5125 22.7664ZM23.9759 9.12891C22.6563 9.12476 21.5463 8.04517 21.5471 6.76603C21.5471 5.48272 22.6534 4.41284 23.9794 4.41423C25.3126 4.41492 26.4047 5.47718 26.4011 6.77018C26.3983 8.05903 25.2941 9.13307 23.9759 9.12891Z" fill="#555555"/>
<path d="M0.916016 21.9745C0.99448 22.3986 1.03728 22.8323 1.1564 23.2453C2.06088 26.3815 4.15872 28.3079 7.42924 29.0257C7.72241 29.0902 8.02414 29.1207 8.32159 29.1671C5.85283 29.1671 3.38407 29.1671 0.916016 29.1671C0.916016 26.7696 0.916016 24.372 0.916016 21.9745Z" fill="white"/>
<path d="M21.7714 15.0155C21.76 18.3846 18.9296 21.1154 15.4729 21.0932C12.0105 21.071 9.21714 18.3409 9.22855 14.9892C9.23996 11.6209 12.0711 8.88865 15.5278 8.91152C18.9902 8.93369 21.7828 11.6638 21.7714 15.0155Z" fill="#555555"/>
<path d="M24.677 6.76412C24.6785 7.13692 24.3539 7.45428 23.9744 7.4522C23.5985 7.45012 23.2668 7.12168 23.2725 6.75719C23.279 6.39895 23.5957 6.09268 23.9666 6.08783C24.3553 6.08298 24.6756 6.38786 24.677 6.76412Z" fill="#555555"/>
</svg>
