<svg width="17" height="17" viewBox="0 0 17 17" fill="none" xmlns="http://www.w3.org/2000/svg">
<path d="M9.84113 15.5914L9.04572 16.4075C8.70892 16.753 8.16431 16.753 7.8311 16.4075L0.865878 9.26488C0.529082 8.91933 0.529082 8.36057 0.865878 8.0187L7.8311 0.872443C8.1679 0.526894 8.7125 0.526894 9.04572 0.872443L9.84113 1.68853C10.1815 2.03775 10.1743 2.60754 9.82679 2.94941L5.50936 7.16953H15.8067C16.2832 7.16953 16.6666 7.56286 16.6666 8.05178V9.22812C16.6666 9.71703 16.2832 10.1104 15.8067 10.1104H5.50936L9.82679 14.3305C10.1779 14.6724 10.1851 15.2421 9.84113 15.5914Z" fill="black"/>
</svg>
