<svg width="73" height="80" viewBox="0 0 73 80" fill="none" xmlns="http://www.w3.org/2000/svg">
<path d="M26.9974 0.75772C26.7368 0.812432 26.6704 1.12574 26.6985 1.39053C26.754 1.9125 26.863 2.42776 27.0239 2.92815C27.6164 5.13908 27.5682 5.2516 25.5611 5.96731C22.9566 6.99096 20.457 8.26366 18.097 9.76769C15.3131 11.7147 12.7272 13.9306 10.3768 16.3835C4.1118 23.4242 0.57448 32.4752 0.405174 41.8981C0.336674 45.2585 0.774139 48.6101 1.70288 51.8403C3.56197 58.7785 6.24573 63.6954 11.0686 68.708C13.4966 71.191 16.2574 73.3251 19.2719 75.0493C21.2632 76.2427 23.3817 77.2098 25.5879 77.9326C28.1492 78.7703 30.7882 79.3482 33.4651 79.6575C38.3918 80.1895 43.3753 79.6928 48.1002 78.199C52.825 76.7051 57.1882 74.2466 60.9136 70.9791C62.2498 69.7509 63.5109 68.4439 64.6902 67.0652C65.1657 66.5092 65.6032 65.9151 66.0474 65.3338C67.6496 63.346 69.8308 59.0043 71.1555 55.1838C72.7741 50.6014 73.1175 43.4644 72.024 38.7192L71.8566 37.996C71.8232 37.8519 71.6096 37.8831 71.6189 38.0308C71.6756 38.8268 71.7895 40.0487 71.8546 40.7429C72.115 43.7331 71.3445 49.2766 70.2317 52.5066C68.3635 58.2733 64.903 63.3943 60.2494 67.2787C54.8933 71.7709 48.1941 74.3521 41.2085 74.6152C33.6116 74.8879 26.1823 72.3417 20.3498 67.4664C18.507 65.7781 16.8201 63.927 15.3098 61.9356C12.4963 57.8422 10.7156 53.1285 10.12 48.1973C9.58295 43.0686 10.4479 37.8903 12.6226 33.2146C14.7973 28.5389 18.2002 24.541 22.4685 21.6473C24.473 20.3684 26.614 19.3174 28.8518 18.5137C28.8606 18.5107 28.8693 18.5077 28.8781 18.5048C30.2625 18.0343 31.3775 18.9134 31.7501 20.3274C32.4565 22.6714 32.4897 22.6625 34.9713 19.2294C35.0884 19.0557 36.7563 16.8084 38.6753 14.2234C40.5942 11.6385 42.2328 9.33499 42.2946 9.14054C42.3682 8.78035 42.3585 8.40811 42.2663 8.05224C42.2286 7.8149 42.1333 7.59041 41.9889 7.39838C41.8444 7.20636 41.655 7.05267 41.4374 6.95074C39.9297 6.13076 27.2165 0.699012 26.9974 0.75772Z" fill="white"/>
<path d="M14.029 38.7244C12.5527 39.7747 12.5205 40.2388 13.5434 44.0564C14.4774 47.5421 14.8071 48.1085 16.065 48.4475C17.2219 48.612 18.3982 48.3299 19.3547 47.6585C20.2361 46.8317 20.3613 46.3427 20.0208 44.8328L19.9931 44.7021C19.8487 44.0192 19.1609 43.5973 18.4867 43.7779L18.2202 43.8494C17.7178 43.984 17.4197 44.5003 17.5543 45.0027C17.8603 46.1447 17.8218 46.5321 17.3836 46.6496C17.0516 46.7385 16.9819 46.5579 16.1422 43.4241C15.3719 40.5493 15.2859 40.0955 15.511 39.9C15.9114 39.6148 16.2479 39.9943 16.5895 41.2691C16.7614 41.9108 17.421 42.2916 18.0627 42.1196L18.0992 42.1099C18.7611 41.9325 19.1539 41.2522 18.9765 40.5903L18.9703 40.5671C18.5842 39.1263 18.0299 38.3854 17.1339 38.1487C16.0633 37.9402 14.9536 38.146 14.029 38.7244Z" fill="white"/>
<path d="M21.0551 36.7422C19.4553 37.7828 19.4032 38.2522 20.4813 42.2757C21.3263 45.4294 21.3512 45.5224 21.9873 46.0636C22.7385 46.7162 23.5538 46.8109 24.8817 46.4551C25.3795 46.3605 25.8392 46.1235 26.205 45.7729C26.5708 45.4222 26.827 44.973 26.9426 44.4796C27.0792 43.8737 26.9633 43.2288 26.257 40.5929C25.4546 37.5985 25.4013 37.3993 24.8247 36.9205C24.4772 36.6243 24.0672 36.4106 23.6253 36.2954C22.7431 36.1793 21.8464 36.3351 21.0551 36.7422ZM23.6215 41.2208C24.6139 44.7122 24.6551 45.0783 24.1359 44.8403C23.867 44.7131 23.6435 44.1183 22.9906 41.6816C22.1652 38.6009 22.0799 37.9904 22.4873 38.0236C22.6223 38.023 23.0017 39.067 23.6215 41.2208Z" fill="white"/>
<path d="M47.0339 29.8025C46.7331 29.9974 46.4752 30.2517 46.276 30.5498C46.0769 30.8478 45.9408 31.1835 45.8759 31.536C45.7209 32.2322 47.1907 37.9298 47.7197 38.6562C48.7017 40.0369 50.7058 40.1333 51.4946 38.8545C51.7465 38.4668 51.8142 38.4273 51.973 38.648C52.1318 38.8688 52.4164 38.8423 52.9742 38.6929C53.4215 38.573 53.687 38.1132 53.5671 37.6658L52.7968 34.791C52.5777 33.9732 51.7372 33.488 50.9195 33.7071L50.1759 33.9063C49.7688 34.0154 49.5273 34.4338 49.6364 34.8408C49.784 35.3919 49.9135 35.5564 50.1326 35.4977C50.3517 35.439 50.4692 35.5854 50.6292 36.4747C50.8202 37.6088 49.9565 37.2896 49.6287 36.1873C49.4582 35.6143 49.3073 35.0354 49.1763 34.4517C48.4889 31.6471 48.3797 31.1071 48.6188 31.043C48.8578 30.979 48.9869 31.2219 49.2336 32.0097C49.4278 32.6005 50.0497 32.9368 50.6504 32.7758L51.2662 32.6108C51.7502 32.4811 52.0375 31.9836 51.9078 31.4996C51.8021 31.007 51.5717 30.5498 51.2387 30.1717C50.5774 29.4212 49.4978 29.1813 48.5086 29.3295C47.9979 29.406 47.4997 29.5647 47.0339 29.8025Z" fill="white"/>
<path d="M54.1288 29.7232C54.4829 30.7526 55.817 34.8285 57.1088 38.7734L58.6938 43.646C59.1208 44.9588 60.4875 45.7206 61.8287 45.3934C63.9773 44.8603 64.1724 44.7654 64.0977 44.4865C64.0479 44.3006 63.408 41.2485 62.6745 37.6877C61.941 34.1269 61.0674 30.07 60.7651 28.6495C60.4649 27.2549 59.0586 26.3955 57.6806 26.7647L55.3837 27.3802C54.3675 27.6525 53.7923 28.7263 54.1288 29.7232Z" fill="white"/>
<path d="M27.3711 40.3157L28.3832 44.0928C28.5474 44.7056 29.1772 45.0692 29.79 44.905C30.3944 44.7431 30.758 44.1273 30.6079 43.5199L30.2036 41.8837L30.1307 41.5856C30.0721 41.346 30.414 41.2329 30.51 41.4601C31.8398 44.5906 31.7223 44.4442 32.6039 44.1226C33.0482 43.983 33.3285 43.5448 33.269 43.0829L32.9901 40.9165L32.6302 37.953L33.8897 42.6537C34.0538 43.2661 34.6832 43.6295 35.2956 43.4654C35.908 43.3013 36.2714 42.6719 36.1073 42.0595L34.2005 34.9432C33.9652 34.065 33.0477 33.5578 32.1789 33.8256C31.2462 34.1085 30.6508 35.0198 30.7665 35.9876L30.8187 36.4245C30.9282 37.5765 31.0205 38.5053 30.9845 38.4509C30.9486 38.3965 30.5425 37.5446 30.0989 36.5533L29.9528 36.2184C29.5672 35.3344 28.6056 34.8516 27.6664 35.0703C26.7713 35.2752 26.2282 36.1856 26.4731 37.0706L27.3711 40.3157Z" fill="white"/>
<path d="M37.1915 41.5378C37.3826 42.251 38.1156 42.6742 38.8288 42.4831C39.542 42.292 39.9653 41.5589 39.7742 40.8457L37.8457 33.6486C37.6546 32.9354 36.9215 32.5121 36.2083 32.7032C35.4951 32.8943 35.0719 33.6274 35.263 34.3406L37.1915 41.5378Z" fill="white"/>
<path d="M39.9196 36.9534L40.9568 40.8242C41.1071 41.3852 41.6838 41.7181 42.2448 41.5678L42.6981 41.4463C43.0088 41.3631 43.1932 41.0437 43.1099 40.7331L42.7299 39.3149C42.626 38.927 43.1483 38.6954 43.366 39.0329L44.0841 40.1529C44.3845 40.6216 44.9537 40.842 45.4914 40.6979C46.1735 40.5151 46.5783 39.814 46.3955 39.1319L44.3728 31.583C44.2254 31.033 43.66 30.7065 43.11 30.8539L42.6896 30.9666C42.3718 31.0517 42.1831 31.3785 42.2683 31.6963L42.6811 33.2367C42.7853 33.6257 42.2601 33.8562 42.0444 33.5162L41.3574 32.4716C41.004 31.9341 40.357 31.6686 39.7279 31.8028C39.1442 31.9244 38.78 32.5087 38.9281 33.0863L39.9196 36.9534Z" fill="white"/>
<path d="M17.7052 49.7087C17.2758 49.934 16.8983 50.2466 16.5969 50.6264C15.9977 51.3813 15.8671 52.4113 16.0605 53.3555C16.1116 53.6048 16.1795 53.8503 16.2638 54.0903C16.6265 55.1233 17.3696 56.0376 18.3855 56.4462C18.6241 56.5422 18.8725 56.6154 19.1277 56.6643L21.4611 57.4053C22.3461 57.6806 22.601 57.9681 22.8874 59.037C23.0956 59.8138 22.8389 60.3167 22.2513 60.2749C21.9144 60.2655 21.788 60.0859 21.4706 59.0608C21.2632 58.3763 20.5594 57.9709 19.8632 58.1349L19.3479 58.2562L19.2205 58.2856C18.3542 58.4857 17.8385 59.3775 18.0972 60.228L18.2613 60.7354C18.4756 61.3979 18.9351 61.9533 19.5458 62.2879C20.7402 62.8272 22.0963 62.8868 23.3334 62.4542C24.4223 62.1625 26.1593 61.0495 26.4653 60.4124C26.9158 59.4378 26.6766 57.5093 25.8683 56.1391C25.3345 55.236 23.9446 54.4841 21.8719 53.972C20.2814 53.587 19.7771 53.2453 19.5548 52.4154C19.4018 51.8444 19.7327 51.3003 20.2047 51.309C20.6768 51.3177 20.6845 51.4793 20.8926 52.2562C21.0262 52.7548 21.5388 53.0508 22.0375 52.9172L23.3688 52.5605C24.0884 52.3676 24.4938 51.6052 24.2512 50.9008C24.0873 50.4365 23.9403 50.0888 23.7701 49.8214C23.0496 48.6897 21.38 48.7645 20.0564 48.9838C19.2466 49.118 18.4555 49.361 17.7052 49.7087Z" fill="white"/>
<path d="M27.817 46.9993C27.042 47.4817 26.4322 48.1887 26.0687 49.0261C25.7686 49.8182 26.2345 52.5398 27.2874 55.8584C28.275 58.9597 28.6866 59.5397 30.2678 59.97C31.1222 60.2107 31.417 60.1957 32.9839 59.7759C35.0289 59.2279 35.7601 58.6904 36.3624 57.3264C36.6067 56.7585 36.6525 56.125 36.4925 55.5279L34.567 48.3418C34.4208 47.7961 34.0965 47.3149 33.6456 46.9746C32.5984 46.1735 31.4447 45.9845 29.7839 46.3726C29.1077 46.5104 28.4483 46.7205 27.817 46.9993ZM31.7103 52.9512C32.7297 56.7556 32.8881 57.3465 32.6739 57.5035C32.5877 57.5605 32.488 57.5938 32.3848 57.6002C32.2817 57.6067 32.1786 57.5859 32.086 57.5401C31.8171 57.4129 31.5598 56.6919 30.6508 53.2992C29.5229 49.0898 29.4851 48.6302 30.1882 48.5984C30.4414 48.5874 30.6472 49.2226 31.7103 52.9512Z" fill="white"/>
<path d="M38.2077 44.2151C37.4487 44.6223 36.8305 45.2493 36.4339 46.014C36.0013 47.055 36.1188 47.9984 37.2931 52.0886L38.1588 55.1528C38.3126 55.6971 38.6402 56.1761 39.0916 56.5168C39.5834 56.8757 40.1465 57.1248 40.7428 57.2474C41.3391 57.3699 41.9548 57.3631 42.5483 57.2273C44.8051 56.8859 46.3896 55.6288 46.7883 53.9564C47.0254 52.982 44.9774 45.4184 44.2977 44.6612C42.9539 43.1782 40.4166 43.0041 38.2077 44.2151ZM40.6933 45.9757C40.9038 46.0972 41.2749 47.2431 42.047 50.1246C43.1695 54.3141 43.2257 54.975 42.4525 54.9047C42.1633 54.8612 42.0021 54.392 40.9684 50.5345C39.8316 46.2919 39.7765 46.0861 40.3279 45.8601C40.3956 45.8206 40.5533 45.878 40.6933 45.9757Z" fill="white"/>
<path d="M45.8297 42.4645C45.8201 42.5881 46.5812 45.5081 47.5262 48.9553L48.8892 53.855C49.1008 54.6157 49.8723 55.0764 50.6424 54.902C51.6077 54.7649 52.0964 53.7502 51.8913 52.7971C51.7982 52.3643 51.6862 51.9355 51.5558 51.5119C50.7357 48.4511 50.7357 48.4511 52.9686 51.8449L53.5011 52.6675C53.9654 53.3845 54.8389 53.7206 55.6641 53.4995C56.7147 53.218 57.3382 52.1381 57.0567 51.0874L54.4978 41.5377C54.2784 40.7186 53.4495 40.2206 52.6233 40.4113C51.7553 40.6117 51.2264 41.4919 51.457 42.3525L51.7467 43.4338C52.2387 44.949 51.5417 45.2728 50.6563 43.9484C50.4164 43.5897 50.1422 43.1767 49.8286 42.7024L49.5294 42.2507C49.2227 41.7876 48.6785 41.5404 48.128 41.6139C46.8004 41.8913 45.8586 42.2006 45.8297 42.4645Z" fill="white"/>
<path d="M59.9459 49.6801C60.3011 51.0056 61.6636 51.7923 62.9892 51.4371L63.9054 51.1916C65.231 50.8364 66.0176 49.4739 65.6624 48.1483C65.3072 46.8228 63.9447 46.0361 62.6192 46.3913L61.7029 46.6368C60.3774 46.992 59.5907 48.3545 59.9459 49.6801Z" fill="white"/>
</svg>
