<svg width="103" height="74" viewBox="0 0 103 74" fill="none" xmlns="http://www.w3.org/2000/svg">
<path d="M86.3934 41.1073C85.1596 40.3741 83.5951 40.653 81.7558 42.0285C80.3566 43.0202 79.1712 44.2833 78.2703 45.7426C77.7736 46.5638 77.3639 47.4346 77.0478 48.3408C76.6519 49.4975 76.4701 50.7168 76.5113 51.9387C76.548 53.5778 77.0021 54.6237 77.8244 55.1231C78.3628 55.3752 78.9532 55.4968 79.5474 55.4779C80.1417 55.459 80.7231 55.3002 81.2445 55.0144C83.2719 54.0793 84.9433 52.5147 86.0101 50.5534C86.5018 49.6997 86.9016 48.7963 87.2027 47.8584C87.6036 46.7028 87.7855 45.4827 87.7393 44.2604C87.6732 42.6431 87.2191 41.5972 86.3934 41.1073Z" fill="white"/>
<path d="M64.5478 35.9651C64.5268 34.3423 64.0631 33.2931 63.247 32.8066C62.0036 32.0699 60.4487 32.3522 58.6094 33.7278C57.1875 34.7011 55.9771 35.9519 55.0509 37.4049C54.5543 38.2262 54.1446 39.0969 53.8284 40.0031C53.4276 41.1587 53.2456 42.3788 53.2919 43.601C53.3286 45.2402 53.7827 46.286 54.605 46.7855C55.1421 47.0371 55.731 47.1581 56.3238 47.1386C56.9165 47.1191 57.4963 46.9597 58.0156 46.6734C60.0455 45.7419 61.7179 44.1763 62.7812 42.2123C63.3109 41.3819 63.7329 40.4875 64.0372 39.5508C64.4228 38.3963 64.5958 37.1814 64.5478 35.9651Z" fill="white"/>
<path d="M96.9438 27.662L23.0202 1.15165C21.9102 0.753573 20.7325 0.578519 19.5547 0.636526C18.3769 0.694534 17.2222 0.984462 16.1566 1.48969C15.0911 1.99491 14.1358 2.70549 13.3455 3.58069C12.5551 4.45588 11.9453 5.47847 11.551 6.58983L1.43002 34.8121C1.02992 35.9238 0.852877 37.1034 0.909004 38.2836C0.965129 39.4638 1.25333 40.6213 1.75712 41.6901C2.26091 42.7588 2.97041 43.7177 3.84506 44.5121C4.71971 45.3064 5.74235 45.9206 6.85451 46.3194L40.3491 58.3312C41.3527 58.6911 42.2478 59.3013 42.9494 60.1041L50.2642 68.4727C51.7306 70.1504 54.4911 69.0458 54.3953 66.8196C54.3234 65.1461 55.9704 63.9333 57.5471 64.4987L80.7494 72.8195C81.8619 73.2199 83.0425 73.3969 84.2235 73.3404C85.4045 73.2839 86.5628 72.995 87.632 72.4903C88.7012 71.9855 89.6604 71.2748 90.4546 70.3988C91.2487 69.5229 91.8623 68.4989 92.2602 67.3855L102.381 39.1632C102.78 38.0511 102.956 36.8712 102.898 35.6911C102.841 34.511 102.551 33.3538 102.046 32.2856C101.541 31.2175 100.831 30.2593 99.9552 29.466C99.0797 28.6726 98.0564 28.0596 96.9438 27.662ZM38.9331 48.6598C38.7274 49.5277 38.2792 50.3193 37.6408 50.9422C37.3316 51.2444 36.9501 51.4621 36.5327 51.5745C36.1153 51.6869 35.676 51.6902 35.257 51.5841C34.6963 51.3913 34.1865 51.0743 33.7657 50.6567C33.3448 50.2391 33.0238 49.7318 32.8267 49.1727C32.0054 47.3756 31.3718 45.3655 30.9296 43.1427C30.0416 38.6789 24.3581 36.0486 21.1022 39.2287C17.4305 42.6212 14.8056 44.0955 13.2276 43.6516C12.1984 43.3687 11.6537 42.215 11.5555 40.1769C11.3832 34.6521 12.7007 24.5827 15.508 9.96864C15.5844 9.5103 15.7553 9.07284 16.0096 8.68398C16.264 8.29512 16.5964 7.96334 16.9857 7.70967C17.3892 7.45467 17.8452 7.29431 18.3195 7.24061C18.7937 7.18691 19.274 7.24127 19.7243 7.39961C21.6873 7.93127 22.4186 9.19496 21.9884 11.2051C21.8066 12.1156 21.6313 13.0116 21.4625 13.8932C20.2457 20.2482 27.5203 24.0327 32.2878 19.6581C33.5255 18.519 34.7178 18.1067 35.8519 18.4273C37.5115 18.904 38.1336 20.3223 37.7705 22.6257C37.1807 26.0782 41.567 27.2423 43.5317 24.3428C45.3787 21.617 47.1665 19.4922 48.895 17.9685C49.2785 17.5773 49.7606 17.2969 50.2903 17.1571C50.82 17.0172 51.3776 17.0231 51.9043 17.174C52.7778 17.3962 53.5294 17.9519 53.9982 18.7217C54.2406 19.087 54.4011 19.5005 54.4688 19.9336C54.5365 20.3668 54.5097 20.8095 54.3903 21.2313C54.2196 21.8643 53.8694 22.4343 53.3818 22.8725C50.996 25.0212 48.2117 29.0621 45.0137 34.9468C42.5212 39.2968 40.4835 43.8921 38.9331 48.6598ZM63.6828 50.9885C60.1451 53.8871 56.6034 54.6952 53.0159 53.4087C52.3427 53.1656 51.6973 52.8512 51.091 52.4707C49.9341 51.7937 48.942 50.8683 48.1863 49.7611C47.4307 48.654 46.9303 47.3929 46.7215 46.0688C46.3085 43.3938 46.6171 40.657 47.6155 38.1411C48.8901 34.4568 51.1756 31.2053 54.2107 28.7584C57.7865 25.8735 61.3317 25.0559 64.8809 26.3287C65.549 26.5754 66.1907 26.8885 66.7963 27.2633C67.95 27.9441 68.9396 28.8706 69.6948 29.977C70.45 31.0835 70.9523 32.3427 71.1659 33.6651C71.6129 36.3308 71.3238 39.0678 70.3298 41.5813C69.0318 45.274 66.7299 48.5317 63.6828 50.9885ZM93.4361 49.8138C92.1584 53.5286 89.8624 56.8095 86.8101 59.2824C83.2725 62.181 79.7307 62.9891 76.1528 61.706C75.4826 61.4644 74.8404 61.1511 74.2375 60.7714C73.0787 60.0967 72.0851 59.1719 71.3292 58.0643C70.5732 56.9568 70.074 55.6945 69.8679 54.3696C69.4367 51.6932 69.7289 48.9502 70.7142 46.4248C71.9893 42.7407 74.2747 39.4893 77.3094 37.042C80.8853 34.1572 84.4304 33.3395 87.9701 34.6089C88.6384 34.8552 89.2801 35.1683 89.8855 35.5435C91.0392 36.2243 92.0288 37.1508 92.784 38.2573C93.5392 39.3637 94.0415 40.6229 94.2551 41.9453C94.7223 44.6103 94.4326 47.3529 93.419 49.8615L93.4361 49.8138Z" fill="white"/>
</svg>
