<svg width="63" height="51" viewBox="0 0 63 51" fill="none" xmlns="http://www.w3.org/2000/svg">
<path d="M49.8761 2.73195C51.1788 3.46766 52.2923 4.49661 53.1284 5.73731C53.8277 6.79976 54.2337 8.02825 54.3051 9.29821C54.3634 11.1135 53.7399 12.8849 52.5574 14.2634C51.6899 15.2714 50.8192 16.2697 49.9512 17.276C49.8176 17.4309 49.8565 17.6699 50.0294 17.7792C50.167 17.8661 50.3034 17.9539 50.4387 18.0366C50.4533 18.0455 50.4538 18.067 50.4422 18.0796C50.4335 18.0892 50.4367 18.1039 50.4477 18.1109L52.2372 19.2518C52.682 19.4907 53.0922 19.7892 53.4563 20.1391C53.7357 20.4206 53.9403 20.7674 54.0515 21.1481C54.1626 21.5288 54.1769 21.9312 54.0929 22.3188C54.0181 22.6312 53.867 22.9202 53.6531 23.1599C53.2685 23.64 52.8784 24.1255 52.4891 24.6103C52.1764 24.9997 51.6418 25.1309 51.1846 24.9302C50.8774 24.7954 50.5692 24.6607 50.2615 24.5289C49.9368 24.3898 49.8609 23.943 50.0093 23.6224C50.1168 23.3901 50.1752 23.1381 50.1809 22.8821C50.1791 22.3533 49.9748 21.8452 49.6099 21.4624C49.2214 21.0637 48.7125 20.804 48.1617 20.7231C47.611 20.6422 47.0489 20.7447 46.5621 21.0148C46.2859 21.1751 46.0532 21.4006 45.8844 21.6717C45.6358 22.0708 45.1461 22.3883 44.7099 22.2128C43.7282 21.8176 42.745 21.4263 41.7551 21.0423C41.2923 20.8628 41.1843 20.2169 41.3974 19.7686C41.5583 19.43 41.641 19.0595 41.6394 18.6846C41.626 18.3061 41.5233 17.9361 41.3396 17.6048C41.1558 17.2736 40.8963 16.9906 40.5823 16.7788C40.0243 16.4112 39.3657 16.2263 38.698 16.2498C38.0302 16.2733 37.3862 16.504 36.8555 16.91C36.5614 17.1342 36.3189 17.4191 36.1445 17.7453C35.883 18.2344 35.3251 18.6181 34.801 18.4366C33.8653 18.1125 32.9261 17.7923 31.9816 17.4711C30.981 17.1308 30.796 15.4625 31.2383 14.5026C31.3976 14.1498 31.48 13.7671 31.48 13.3799C31.48 12.9928 31.3976 12.6101 31.2383 12.2573C31.0483 11.8858 30.7804 11.5597 30.4528 11.3014C30.1252 11.043 29.7457 10.8585 29.3402 10.7604C28.4669 10.5416 27.5479 10.5914 26.7034 10.9032C25.8589 11.2149 25.128 11.7743 24.6065 12.508C24.3596 12.849 24.189 13.2391 24.1065 13.6518C24.0722 13.8233 24.0534 13.997 24.0501 14.1709C24.0439 14.4983 23.7371 14.7843 23.4231 14.6914C23.3891 14.6813 23.3565 14.6669 23.3259 14.6492C22.9219 14.4153 22.4854 14.2469 22.0326 14.1487C21.4554 14.0234 20.8709 13.9091 20.2971 13.7696C19.0699 13.4034 18.7226 11.8519 19.6957 11.0193C21.8946 9.1377 24.0924 7.25297 26.2924 5.37466C26.698 5.02079 27.1956 4.78911 27.7275 4.7065C28.2594 4.62387 28.8039 4.69369 29.2977 4.90784C29.9406 5.28314 30.5655 5.69065 31.2036 6.07177C31.2522 6.10082 31.3046 6.12327 31.3579 6.14229C31.6827 6.25806 32.0639 6.25632 32.3197 6.02521C33.0728 5.34491 33.8285 4.66554 34.587 3.97808C35.7557 2.94237 37.1218 2.15369 38.6031 1.65944C40.5461 1.02619 42.6013 0.811864 44.6331 1.03059C46.4752 1.24945 48.2565 1.82748 49.8761 2.73195ZM47.3684 5.04673C45.957 4.17465 44.3153 3.74844 42.6579 3.82376C41.0917 3.86082 39.568 4.34105 38.2636 5.20877C37.8129 5.54786 37.3862 5.91783 36.9867 6.316C35.8744 7.34629 36.056 9.16374 37.3419 9.96687C38.9956 10.9997 40.6493 12.0305 42.3031 13.0592C44.309 14.3069 46.9137 13.9414 48.522 12.211C49.0448 11.6542 49.4305 10.9831 49.6485 10.2511C49.916 9.34535 49.8684 8.37562 49.5135 7.5004C49.0691 6.48058 48.3197 5.62343 47.3684 5.04673Z" fill="white"/>
<path d="M51.5119 29.8997C55.4123 31.4005 59.2548 33.0131 62.9816 34.8572C55.5963 31.4096 47.7281 29.1095 39.6487 28.0363C35.6435 27.4693 31.6064 27.1561 27.5616 27.0989C18.452 26.9573 9.37191 28.1692 0.618296 30.6948C0.610748 30.697 0.602609 30.6949 0.597054 30.6893C0.590838 30.6831 0.589014 30.6737 0.592443 30.6657C1.05291 29.5787 1.49009 28.4818 1.95408 27.3999C2.01085 27.2676 2.14512 27.1892 2.28813 27.1722C10.3521 25.2873 18.648 24.5893 26.9135 25.1004C32.7257 25.4528 38.5024 26.2485 44.1933 27.4808C44.3475 27.5143 44.5354 27.476 44.6863 27.5223C46.9817 28.2272 49.2558 29.0509 51.5119 29.8997Z" fill="white"/>
<path d="M48.8155 24.6889C49.3002 24.5156 49.8446 24.3949 50.3164 24.6006C51.1291 24.9551 51.4013 25.9944 50.8439 26.6841C50.8156 26.7192 50.7872 26.7543 50.7588 26.7893C50.4567 27.1621 49.9534 27.3039 49.4998 27.1476C49.1078 27.0126 48.8357 26.6686 48.6688 26.2891C48.4876 25.8768 48.2112 25.5098 47.8584 25.22C47.7425 25.1224 47.8598 24.8373 48.0112 24.8333C48.21 24.828 48.4084 24.8013 48.603 24.7532C48.675 24.7352 48.7459 24.7137 48.8155 24.6889Z" fill="white"/>
<path d="M45.4794 22.5412C45.551 22.5701 45.5974 22.6398 45.6024 22.7168C45.6161 22.9317 45.1759 23.2732 44.9808 23.1818C44.8833 23.1362 44.7841 23.0941 44.6833 23.0557C44.1207 22.8544 43.5138 22.8109 42.9283 22.9299C42.3427 23.0489 41.8009 23.3259 41.3616 23.7309C41.2361 23.8563 41.1147 23.9871 40.9961 24.12C40.6949 24.4576 40.2349 24.6077 39.7969 24.494L39.7191 24.4738C39.7133 24.4723 39.7074 24.4713 39.7014 24.4704C39.6421 24.4614 39.6006 24.4258 39.5636 24.3844C39.5323 24.3494 39.5615 24.2908 39.6077 24.2988C39.6419 24.3047 39.6745 24.2786 39.6726 24.2439C39.6366 23.5691 39.4076 22.9182 39.0121 22.369C38.9927 22.3449 38.9731 22.321 38.9534 22.2973C38.7655 22.0721 39.052 21.361 39.339 21.3006C40.2801 21.1024 41.2833 20.8625 42.1772 21.2172C43.279 21.6544 44.3818 22.0985 45.4794 22.5412Z" fill="white"/>
<path d="M35.7171 18.8024C35.803 18.8336 35.8593 18.9158 35.8646 19.007C35.8785 19.2477 35.4294 19.5774 35.2169 19.4637C35.1229 19.4134 35.0273 19.3659 34.9304 19.3212C34.3012 19.0678 33.621 18.9665 32.9453 19.0255C32.2696 19.0845 31.6173 19.3021 31.0415 19.6607C30.6371 19.9042 30.2738 20.2102 29.9652 20.5673C29.542 20.9905 29.1251 21.4074 28.7031 21.8294C28.6209 21.9116 28.5071 21.9502 28.392 21.9338C28.1584 21.9004 28.0064 21.662 28.0595 21.432C28.2397 20.6507 28.1998 19.8314 27.9397 19.0666C27.6722 18.3117 27.1816 17.6562 26.533 17.1866C26.5269 17.1822 26.5212 17.1774 26.5158 17.1721C26.5091 17.1655 26.5023 17.1589 26.4954 17.1525C26.3986 17.0619 26.454 16.9325 26.5856 16.9486C26.6065 16.9517 26.6273 16.9547 26.6482 16.9575C28.2925 17.1801 30.0483 16.8449 31.6207 17.3748C33.0008 17.8399 34.3642 18.3118 35.7171 18.8024Z" fill="white"/>
<path d="M24.093 14.9218C24.1278 14.9303 24.1544 14.9552 24.1668 14.9888C24.1775 15.0179 24.1885 15.0467 24.1997 15.0754C24.2412 15.1811 24.1285 15.271 24.0382 15.2021C24.017 15.186 23.9959 15.1697 23.9748 15.1534C23.8792 15.0797 23.9756 14.8932 24.093 14.9218Z" fill="white"/>
<path d="M20.301 13.7889C20.4808 13.8341 20.4419 14.0915 20.2579 14.1139C18.9266 14.276 17.6692 14.8444 16.6629 15.7526C15.4589 16.8222 14.2624 17.9031 13.0616 18.9808C12.4836 19.4996 11.5677 19.0577 11.6166 18.2824C11.6312 18.0517 11.7375 17.8351 11.9118 17.6831C13.5017 16.2971 15.1104 14.9484 16.7053 13.5651C17.1633 13.1958 17.7534 13.0746 18.3182 13.239C18.9898 13.4344 19.6537 13.607 20.301 13.7889Z" fill="white"/>
<path d="M31.682 24.1591C35.9125 24.9932 40.092 26.0672 44.2004 27.3759C44.3118 27.4113 44.3173 27.5001 44.2011 27.4885C38.5133 26.2623 32.7406 25.4705 26.9328 25.1197C18.6618 24.6015 10.3595 25.2929 2.28813 27.1722C2.17644 27.1925 2.09173 27.0714 2.13618 26.967C2.75497 25.5132 3.3724 24.0628 4.02807 22.6159C4.98267 20.4948 5.98377 18.4037 7.01762 16.3317C7.57904 15.2065 9.5343 15.8324 9.45623 17.0874C9.31455 20.1453 12.0141 22.6998 15.0744 22.6267C16.6978 22.5879 18.323 22.6126 19.946 22.7008C23.8878 22.9066 27.8097 23.394 31.682 24.1591Z" fill="white"/>
<path d="M45.7597 31.4854C45.9487 31.6339 46.1399 31.7801 46.331 31.9265C46.5693 32.1088 46.4366 32.4547 46.1416 32.3997C41.2009 31.7975 36.227 31.5088 31.2499 31.5355C30.7445 31.5471 30.2429 31.5239 29.7298 31.5587C28.3312 31.5909 26.9756 31.6131 25.6078 31.6807C25.3998 31.691 25.1848 31.635 25.0578 31.4699C24.672 31.0841 24.2207 30.7022 23.8233 30.3048C23.382 29.8635 23.6443 29.1492 24.2683 29.1418C25.7599 29.1242 27.2597 29.1568 28.7615 29.2246C34.433 29.4303 40.0732 30.1626 45.6092 31.4121C45.6626 31.4292 45.7133 31.4539 45.7597 31.4854Z" fill="white"/>
<path d="M20.152 29.3184C20.3632 29.3043 20.5792 29.3743 20.7347 29.5179C21.1362 29.8888 21.5303 30.2697 21.9231 30.6517C22.4052 31.1207 22.1288 31.8898 21.4602 31.963C21.2038 31.9911 20.9451 31.9096 20.7627 31.7272C20.3963 31.3607 20.0282 30.9927 19.6603 30.6247C19.1907 30.1552 19.4894 29.3625 20.152 29.3184Z" fill="white"/>
<path d="M16.0029 29.6344C16.2416 29.6116 16.4794 29.6969 16.6489 29.8665C16.959 30.1765 17.2686 30.4862 17.578 30.7955C18.166 31.3835 17.8328 32.3904 17.0101 32.5116C16.5055 32.0069 16.0172 31.4885 15.5266 30.9719C15.07 30.4913 15.343 29.6975 16.0029 29.6344Z" fill="white"/>
<path d="M47.0884 32.5231C47.0899 32.5231 47.0912 32.5226 47.0923 32.5216C47.0965 32.5173 47.1032 32.5223 47.1002 32.5276C47.0331 32.646 46.9536 32.7571 46.863 32.8588C45.1316 35.0531 43.4058 37.2419 41.6722 39.4235C39.7995 41.78 36.3175 42.0249 34.1202 39.9678C32.257 38.2236 30.3948 36.4793 28.5336 34.735C27.3122 33.5904 28.0598 31.5678 29.7337 31.5548C30.2352 31.5162 30.7445 31.5471 31.2576 31.5355C36.2378 31.508 41.2146 31.8018 46.157 32.4151C46.4639 32.4775 46.7755 32.5136 47.0884 32.5231Z" fill="white"/>
<path d="M46.4535 36.7908C46.6541 36.5326 47.0267 36.4884 47.2807 36.6943C47.5335 36.8993 47.5791 37.2688 47.3812 37.5273C46.0575 39.2568 44.7338 40.9872 43.41 42.7186C40.7885 46.1476 35.7536 46.5017 32.6775 43.4738C29.1979 40.0486 25.7169 36.6266 22.2346 33.2079C21.7469 32.7291 22.0257 31.9519 22.7052 31.8799C22.9593 31.853 23.2175 31.9326 23.4015 32.1098C26.816 35.3966 30.2368 38.6769 33.6553 41.9596C36.3459 44.5433 40.6842 44.226 42.9702 41.2782C44.1313 39.7809 45.2924 38.2851 46.4535 36.7908Z" fill="white"/>
<path d="M46.8879 41.3064C47.046 41.0978 47.3472 41.0653 47.5462 41.2354C47.7284 41.3912 47.7586 41.6615 47.6152 41.8536C46.2764 43.6482 44.9391 45.4447 43.6033 47.2433C40.7867 51.0359 35.2378 51.4021 31.9576 48.0026L17.0101 32.5116C18.2603 32.3248 19.5127 32.7522 20.4011 33.6515C24.7828 38.0869 29.168 42.5199 33.5565 46.9507C36.2811 49.7015 40.8112 49.3839 43.1347 46.2869C44.382 44.6245 45.6317 42.9643 46.8879 41.3064Z" fill="white"/>
</svg>
