<svg width="70" height="57" viewBox="0 0 70 57" fill="none" xmlns="http://www.w3.org/2000/svg">
<path d="M67.4501 33.8509C66.0296 32.8646 63.4612 32.367 59.9761 32.2548C57.1263 32.1658 54.3562 32.0757 53.8728 31.9557C52.3438 31.6076 49.8156 33.5395 49.098 35.4797C48.7085 36.5316 48.3819 40.2969 48.3593 44.0007C48.4008 50.4337 48.4198 50.6701 50.3169 51.6922C53.0464 53.203 64.9389 53.7363 66.8137 52.4861C68.5424 51.4062 69.3614 47.8078 69.4777 40.4209C69.6354 35.4792 69.5312 35.1755 67.4501 33.8509ZM61.7554 43.5675L60.9266 44.5176C59.6311 46.0028 57.3833 46.1733 55.8787 44.9003C53.7664 43.1868 53.3144 42.4614 54.017 41.596C54.6698 40.8403 55.2337 40.9696 56.4876 41.8687C58.092 43.1576 58.2444 43.066 60.6006 40.9152C63.1707 38.5092 63.8557 38.2216 64.5664 39.1854C64.8303 39.5556 63.5603 41.4449 61.7554 43.5675Z" fill="white"/>
<path d="M24.4049 29.9216C23.1308 28.7703 21.9328 28.6335 16.5223 29.141C6.41735 30.1885 1.9985 31.2459 0.801129 33.0448C-0.0406125 34.3656 0.0425436 36.4004 1.11414 43.597C2.27825 52.2141 3.21183 54.9635 5.10771 55.9698C6.18455 56.5869 16.0757 55.7945 21.9809 54.6181C25.2294 54.0352 26.4377 53.3038 27.4148 51.7447C28.6094 49.8455 28.6075 48.825 27.3096 40.5306C26.1966 33.5489 25.5196 31.0117 24.4049 29.9216ZM11.8938 36.4188C11.7566 34.7057 12.1042 34.1278 13.2996 34.032C14.7119 33.9189 14.9285 34.4304 15.2548 38.503C15.461 41.0779 15.9053 43.6337 16.1941 44.314C16.5801 45.1451 16.2938 45.5594 15.1989 45.6471C14.0194 45.7416 13.4927 45.0804 12.8701 42.2268C12.4326 40.2204 11.9877 37.5906 11.8938 36.4188ZM15.5195 51.111C13.9327 51.2381 13.2004 49.8054 14.2089 48.5717C15.0083 47.7197 16.4029 48.3166 16.7481 49.701C16.9804 50.6079 16.6197 51.0229 15.5195 51.111Z" fill="white"/>
<path d="M54.8909 29.9121C57.4827 29.7045 59.4996 29.2309 59.4621 28.7632C59.2811 26.5036 47.5107 4.76881 45.6371 3.11019C44.4447 2.04345 42.9979 1.29658 41.4335 0.940135C38.5589 0.541077 15.6996 11.9607 13.5563 14.7767C11.6956 17.1999 11.7252 20.4923 13.4561 24.3572C14.5119 26.7053 14.8362 26.8327 18.3695 26.5497C22.9237 26.1848 25.6834 27.1431 27.0638 29.5552C27.6158 30.5317 28.6083 35.0798 29.2818 39.5C29.8766 44.0006 30.7327 47.7768 31.0637 47.9883C31.479 48.1877 34.9072 46.6597 38.7874 44.7252L42.2709 42.9673C44.5267 41.829 46.0976 39.6755 46.4926 37.1798C47.3919 31.9249 49.1625 30.371 54.8909 29.9121ZM41.2201 37.6815C38.0801 38.9538 35.4559 34.7692 38.2284 32.897C38.6529 32.6311 39.1404 32.481 39.6416 32.4618C40.1429 32.4426 40.6402 32.5549 41.0836 32.7875C41.527 33.0201 41.9008 33.3647 42.1673 33.7866C42.696 34.6238 42.8412 35.7575 42.3809 36.6342C42.3729 36.6495 42.3647 36.6647 42.3563 36.6799C42.1047 37.1335 41.7034 37.4873 41.2201 37.6815ZM40.9716 24.7443C39.2306 25.6718 38.8036 26.256 39.2028 27.3188C39.6818 28.3804 39.2612 29.0435 37.7975 29.7108C34.8284 31.1227 34.5041 30.9953 33.7464 28.4487C32.7817 25.3105 33.3591 23.6142 35.8788 21.8416C37.5335 20.7677 37.942 19.9522 37.5307 18.8058C36.4 15.5222 34.9692 15.4041 29.6482 18.0252L26.5667 19.5464C25.5473 20.0496 24.3133 19.6197 23.8273 18.592C23.767 18.467 23.7087 18.3411 23.6525 18.2143C23.0408 16.8355 23.4229 15.5104 24.716 14.7339C25.7716 14.1 27.208 13.3196 28.794 12.5458C31.9828 10.9524 35.0376 9.61289 35.429 9.58153C37.2994 9.27304 39.86 11.7334 41.8406 15.6575C44.3643 20.7123 44.1612 23.1613 40.9716 24.7443Z" fill="white"/>
</svg>
