<svg width="81" height="102" viewBox="0 0 81 102" fill="none" xmlns="http://www.w3.org/2000/svg">
<path d="M41.7787 87.7272C41.9814 88.9248 41.8137 90.1615 41.6256 91.3614C41.2806 93.5623 40.5126 95.9597 40.9899 97.8441C41.0282 97.9955 41.11 98.1293 41.2036 98.2542C41.3069 98.392 41.4565 98.4956 41.6206 98.5476C50.4999 101.362 54.923 91.6738 52.521 85.3559C51.3189 82.7201 48.8393 80.839 44.9451 80.9411C24.3656 81.334 9.62127 69.7194 3.73975 55.2105C0.363017 47.5638 -0.301016 38.9932 1.85758 30.9176C8.88022 5.218 35.2684 -2.05639 49.7235 1.88246C55.8123 3.44295 61.4546 6.39832 66.2045 10.515C70.9544 14.6316 74.6816 19.7967 77.0915 25.6019C82.174 37.4722 81.4756 52.0103 72.8633 65.4468C68.8645 71.6626 61.519 78.3699 52.6198 74.75C50.8116 74.009 49.1744 72.9053 47.8093 71.507C46.4442 70.1087 45.3801 68.4455 44.6828 66.62C43.1561 63.3829 42.9538 59.6776 44.1189 56.2936C48.6255 42.8045 67.0947 46.0332 71.3258 32.3537C72.0906 29.9517 71.9559 27.3535 70.9467 25.0434C67.799 18.0086 58.2515 11.9096 48.0408 9.97169C35.4042 7.63524 19.9081 13.6543 12.7937 25.5532C9.88394 30.6575 8.15255 36.348 7.72633 42.2079C7.30011 48.0679 8.18984 53.9489 10.3304 59.4206C14.4232 68.9278 22.7319 76.6502 35.9665 78.8182C40.2506 79.4923 44.6729 77.0072 50.6783 80.6558C52.6735 81.7818 54.197 83.5881 54.9706 85.7445C58.1687 92.5351 53.2726 102.258 45.6768 101.845C41.779 101.65 36.0302 98.2036 34.4539 94.081C34.4293 94.0167 34.3797 93.9848 34.3506 93.9225C34.3415 93.9029 34.3241 93.8683 34.3108 93.8511C34.0552 93.5204 33.8515 93.1526 33.7067 92.7604C33.3408 91.9325 33.1657 91.033 33.1943 90.1283C33.2229 89.2237 33.4545 88.337 33.872 87.534C35.2263 84.8793 37.8163 83.4526 39.6993 84.4146C40.0936 84.6021 40.444 84.8703 40.728 85.202C41.293 85.862 41.5823 86.7252 41.7512 87.5774C41.761 87.6272 41.7702 87.6772 41.7787 87.7272Z" fill="white"/>
</svg>
