<svg width="123" height="131" viewBox="0 0 123 131" fill="none" xmlns="http://www.w3.org/2000/svg">
<path d="M60.5306 57.18C60.404 58.3732 59.8043 59.4658 58.8656 60.2133L42.6906 73.0928C40.7538 74.635 37.9335 74.3146 36.392 72.3773C34.8513 70.441 35.1715 67.6224 37.1073 66.0809L53.2823 53.2014C56.3935 50.7241 60.95 53.2252 60.5306 57.18Z" fill="white"/>
<path d="M82.8665 85.251C82.74 86.4442 82.1402 87.5368 81.2016 88.2842L65.0266 101.164C63.0898 102.706 60.2695 102.386 58.728 100.448C57.1873 98.512 57.5075 95.6933 59.4433 94.1519L75.6183 81.2724C78.7295 78.795 83.286 81.2962 82.8665 85.251Z" fill="white"/>
<path d="M65.0967 76.4723C64.9702 77.6655 64.3704 78.7581 63.4318 79.5055L53.8586 87.1283C51.9218 88.6705 49.1015 88.3501 47.56 86.4128C46.0193 84.4765 46.3395 81.6578 48.2753 80.1164L57.8485 72.4936C60.9597 70.0163 65.5162 72.5175 65.0967 76.4723Z" fill="white"/>
<path d="M56.5258 126.294C56.3601 130.443 51.1279 132.155 48.5424 128.905L1.67373 70.0026C0.1333 68.0666 0.453424 65.2486 2.38883 63.7075C4.3252 62.1656 7.14495 62.4859 8.68613 64.4228L55.5548 123.326C56.2241 124.167 56.5687 125.22 56.5258 126.294Z" fill="white"/>
<path d="M34.4469 38.1808C37.6748 35.6105 42.4342 37.9852 42.3217 42.1098C42.2827 43.5413 41.6136 44.8824 40.4934 45.7744L15.6351 65.5681C13.5377 67.2382 10.4834 66.8913 8.81399 64.7933C7.14544 62.6963 7.49219 59.6438 9.58859 57.9746L34.4469 38.1808Z" fill="white"/>
<path d="M79.1645 39.9338C79.3283 35.7836 84.5618 34.0706 87.1479 37.3206L121.498 80.4905C123.038 82.4264 122.718 85.2445 120.783 86.7856C118.847 88.3275 116.027 88.0071 114.486 86.0702L80.1355 42.9004C79.4667 42.0599 79.1221 41.0071 79.1645 39.9338Z" fill="white"/>
<path d="M73.0077 124.827C69.7809 127.397 65.0229 125.025 65.1328 120.901C65.1709 119.469 65.8402 118.126 66.9612 117.234L107.545 84.9187C109.642 83.2486 112.696 83.5955 114.366 85.6935C116.034 87.7905 115.687 90.843 113.591 92.5122L73.0077 124.827Z" fill="white"/>
<path d="M58.5241 39.959C58.5791 39.9152 58.6027 39.8965 58.587 39.909C58.5712 39.9215 58.587 39.909 58.5241 39.959C58.4723 39.9746 58.4612 40.0091 58.5241 39.959Z" fill="white"/>
<path d="M58.9994 39.7407C59.0603 39.7108 58.9849 39.7079 58.9466 39.7639C58.9664 39.756 58.9842 39.7481 58.9994 39.7407Z" fill="white"/>
<path d="M86.0896 15.9159C86.0682 15.9641 86.1039 16.0169 86.1367 16.0582C86.143 16.0661 86.1367 16.0582 86.1401 15.9656C86.1424 15.9013 86.1052 15.8808 86.0896 15.9159Z" fill="white"/>
<path d="M78.6276 24.144L65.6756 34.4573C69.2499 31.624 75.0815 26.9805 78.6276 24.144Z" fill="white"/>
<path d="M85.2673 18.8057C85.2443 18.8184 85.2467 18.8221 85.2673 18.8057C85.3223 18.7619 85.393 18.7056 85.2673 18.8057Z" fill="white"/>
<path d="M56.0969 23.6777C55.7217 23.7709 55.6526 23.8131 54.6875 24.5687L54.5303 24.6939L55.2612 24.1119C54.4407 24.7652 54.3053 25.9601 54.9583 26.7807C55.3066 27.2186 55.5977 27.5844 55.6027 27.5907L56.3886 26.9649C56.1121 27.1544 55.8494 27.3636 55.6027 27.5907L53.7695 25.2868L54.6392 26.3798C55.1272 26.9931 55.5276 27.4963 55.5339 27.5042C55.5401 27.512 55.9111 27.2038 56.3198 26.8784C56.6427 26.65 56.9523 26.4034 57.2472 26.1399C57.2653 26.1304 57.2824 26.1193 57.2985 26.1069C57.3354 26.0782 57.3678 26.0439 57.4044 26.0148L57.3572 26.0523L57.4709 25.9618C57.4737 25.9596 57.4762 25.957 57.4784 25.9541C57.5587 25.8484 57.6197 25.7295 57.6588 25.6031C57.6619 25.5931 57.7189 25.5717 57.7271 25.5651C57.7742 25.5276 57.7271 25.5651 57.7619 25.4475C57.7808 25.3834 57.773 25.287 57.7762 25.2202C57.7795 25.1529 57.7794 25.0745 57.766 25.0332L57.722 24.9042C57.7192 24.896 57.715 24.8883 57.7095 24.8815L57.6869 24.8531C57.6729 24.8355 57.6585 24.8173 57.6444 24.7997C57.6407 24.7949 57.6296 24.7786 57.6276 24.7728C57.6246 24.7643 57.6202 24.7563 57.6146 24.7492C57.5997 24.7305 57.5795 24.7161 57.5661 24.6964C57.526 24.6373 57.4831 24.5801 57.4378 24.5251C57.3655 24.4373 57.3052 24.3402 57.2475 24.2423C57.1471 24.072 57.0046 23.9291 56.8324 23.8283C56.6106 23.6983 56.3519 23.6453 56.0969 23.6777Z" fill="white"/>
<path d="M58.0951 40.0495C58.0724 40.0539 58.0732 40.0609 58.0957 40.0558C58.0974 40.0554 58.0989 40.055 58.1002 40.0546C58.1071 40.0525 58.1021 40.0482 58.0951 40.0495Z" fill="white"/>
<path d="M62.3854 21.4963C62.4729 21.6063 62.5042 21.6457 62.4667 21.5985L62.3165 21.4098C62.2727 21.3547 62.304 21.394 62.3854 21.4963Z" fill="white"/>
<path d="M64.0695 20.5149C64.3367 20.3021 64.0695 20.5149 63.5587 20.9217C63.0478 21.3284 62.7727 21.5475 63.0714 21.3097L64.0695 20.5149Z" fill="white"/>
<path d="M70.3654 21.7957C70.4092 21.8507 70.4467 21.8979 70.4485 21.8195C70.4502 21.741 70.4047 21.7644 70.3984 21.7566C70.3922 21.7487 70.3529 21.78 70.3654 21.7957Z" fill="white"/>
<path d="M75.2826 1.6698C75.2784 1.66497 75.2775 1.66614 75.2802 1.67196C75.324 1.727 75.324 1.727 75.2802 1.67196C75.2552 1.62806 75.2235 1.58827 75.1864 1.55401C75.1426 1.49897 75.1488 1.50683 75.1864 1.55401L75.0737 1.41248C75.0737 1.41248 75.0737 1.41246 75.0737 1.41246C75.0532 1.38662 75.0342 1.36277 75.0237 1.34957C74.9924 1.31026 75.0237 1.34957 75.0612 1.39675C75.0174 1.34171 74.9987 1.31812 75.0112 1.33385C74.9716 1.27188 74.9104 1.22822 74.8474 1.19042L74.7951 1.15909C74.3052 0.832144 73.737 0.641655 73.1491 0.607211C72.8085 0.569026 72.4642 0.580454 72.1271 0.641065C72.1147 0.64328 72.1075 0.62742 72.1173 0.619622C72.1276 0.611424 72.1193 0.595994 72.1069 0.600458C72.0408 0.624284 71.9772 0.654487 71.9169 0.690666C71.9124 0.693347 71.9056 0.698256 71.9097 0.69501C71.9202 0.686613 71.9192 0.664802 71.906 0.667627C71.8032 0.689645 71.7026 0.721119 71.6055 0.761667C71.5979 0.76486 71.5907 0.769137 71.5842 0.774297L71.5311 0.816586C71.5311 0.816586 71.5311 0.816586 71.5311 0.816587C71.5311 0.816589 71.4604 0.872909 71.4683 0.866652L71.3739 0.94175C71.4211 0.904202 71.429 0.897944 71.3739 0.94175C71.3231 0.982199 71.2245 0.983675 71.1737 1.02412L70.9827 1.17618L60.373 9.49585C66.4168 4.68341 71.0066 1.02871 70.983 1.04749C70.9595 1.06626 44.9217 21.7992 44.8746 21.8367L45.0003 21.7366L44.9374 21.7867L44.7567 21.9306L44.906 21.8117L44.6545 22.012C44.7017 21.9744 44.6545 22.012 44.5759 22.0745C44.5432 22.1006 44.5312 22.1449 44.5463 22.1839L44.5597 22.2185C44.5735 22.2544 44.5716 22.2983 44.538 22.317C44.5259 22.3237 44.5133 22.3299 44.5025 22.3385L44.4844 22.3529C44.4657 22.3678 44.4522 22.3889 44.4335 22.4038C44.4148 22.4187 44.3912 22.4271 44.3725 22.442L44.3629 22.4497C44.3362 22.4709 44.3151 22.4982 44.3013 22.5293L44.2167 22.7202C44.0153 23.1752 43.8964 23.6623 43.8654 24.1587C43.8646 24.1718 43.848 24.1771 43.8399 24.1668C43.8313 24.1561 43.8141 24.1624 43.8144 24.1761L43.8176 24.284C43.8219 24.4347 43.8314 24.4143 43.8176 24.284C43.8153 24.3452 43.8244 24.4065 43.8461 24.4637C43.9285 24.6814 43.9732 24.7378 43.9734 24.7379C43.9734 24.738 43.9734 24.738 43.9734 24.738C44.0062 24.7792 44.0278 24.8281 44.038 24.8799C44.0656 25.02 44.1017 25.1582 44.1462 25.294C44.1641 25.3415 44.179 25.3902 44.1906 25.4397C44.1921 25.4461 44.1951 25.4521 44.1989 25.4575C44.2258 25.4949 44.2358 25.5358 44.2446 25.577C44.2493 25.5986 44.2184 25.6154 44.2067 25.5965C44.2056 25.5948 44.2048 25.5929 44.2043 25.5909C44.2 25.5752 44.1925 25.5605 44.1824 25.5477C44.18 25.5447 44.1723 25.5527 44.1747 25.5558C44.1798 25.5622 44.1857 25.5696 44.1926 25.5782C44.2216 25.6233 44.2552 25.6655 44.2927 25.704C44.2984 25.7093 44.3037 25.715 44.3086 25.721C44.32 25.735 44.326 25.7524 44.3351 25.768C44.3566 25.8051 44.3914 25.8332 44.4142 25.8695C44.7587 26.4176 45.8299 27.745 49.8047 32.6313C54.4346 38.4499 54.5785 38.6308 51.9257 35.2969C53.5586 37.3491 54.6473 38.7173 54.8913 39.0239C54.8104 38.9223 54.81 38.9217 54.9206 39.0607C54.9219 39.0623 54.9231 39.0642 54.9241 39.066C54.9367 39.0889 54.9507 39.111 54.9659 39.1323C54.9817 39.1544 54.9896 39.1474 54.9726 39.1261C55.0352 39.189 55.1003 39.2495 55.1676 39.3072C55.2182 39.3506 55.2604 39.4032 55.3076 39.4503L55.3611 39.5175C55.3754 39.5356 55.3876 39.5553 55.4016 39.5737C55.4055 39.5789 55.4097 39.584 55.4141 39.5889C55.4258 39.602 55.4377 39.6149 55.4484 39.6288C55.4662 39.6517 55.48 39.6782 55.4986 39.7005C55.5146 39.7196 55.5338 39.7362 55.5528 39.7522C55.5838 39.7783 55.624 39.7973 55.6675 39.8148C55.7758 39.8583 55.8895 39.8903 56.005 39.9072L56.0485 39.9136C56.0581 39.9189 56.0678 39.9239 56.0778 39.9285C56.1183 39.9473 56.1513 39.9805 56.1843 40.0108C56.1883 40.0144 56.1924 40.0179 56.1968 40.0211C56.1992 40.023 56.2014 40.025 56.2033 40.0274C56.2171 40.0447 56.2464 40.0815 56.2601 40.0988C56.2661 40.1063 56.2732 40.1152 56.2818 40.126C56.3103 40.1619 56.3608 40.1677 56.3767 40.153C56.3863 40.144 56.4031 40.1083 56.4159 40.1113C56.4347 40.1157 56.4536 40.1197 56.4726 40.1234C56.4783 40.1245 56.4778 40.1334 56.4719 40.1337C56.4661 40.134 56.4656 40.1421 56.4713 40.1431C56.5793 40.1614 56.6884 40.1729 56.7978 40.1776C57.0835 40.2199 57.374 40.2173 57.6588 40.1696C57.6621 40.169 57.6686 40.165 57.6712 40.1629C57.6872 40.1501 57.6726 40.127 57.6524 40.1302L57.5666 40.1434C57.4192 40.1656 57.2699 40.1726 57.121 40.1642C57.4576 40.1675 57.7929 40.1213 58.116 40.0271C58.1359 40.0185 58.1564 40.0116 58.1774 40.0066C58.2136 39.9979 58.2493 39.9851 58.2785 39.9619L58.2839 39.9576C58.3026 39.9427 58.3161 39.9216 58.3348 39.9067C58.3355 39.9062 58.3361 39.9057 58.3368 39.9052C58.3549 39.8917 58.3785 39.8879 58.3971 39.8752C58.4107 39.866 58.4228 39.8547 58.4329 39.8418C58.4365 39.8373 58.4348 39.8374 58.4393 39.8339C58.4813 39.8005 58.6362 39.702 58.6802 39.6714C59.1528 39.3428 61.3549 37.5894 71.9071 29.187C83.1019 20.273 84.8987 18.8423 85.1471 18.5875C85.1736 18.5603 85.2072 18.5319 85.2353 18.5064C85.2545 18.489 85.273 18.4672 85.2932 18.4511C85.3014 18.4446 85.3117 18.4364 85.3246 18.4261C85.3247 18.4261 85.3247 18.4261 85.3247 18.426C85.3247 18.426 85.3515 18.4047 85.3703 18.3897C85.3817 18.3806 85.3906 18.3688 85.4008 18.3585C85.4191 18.3403 85.4428 18.327 85.4569 18.3054C85.5137 18.2182 85.5612 18.1253 85.5986 18.0281C85.6711 17.8657 85.7307 17.698 85.7771 17.5263C85.7412 17.6729 85.6915 17.8157 85.6286 17.9528C85.5769 18.0754 85.6042 18.0826 85.6577 17.9608C85.725 17.808 85.7806 17.6502 85.8242 17.4888C85.898 17.1712 85.9349 16.8464 85.9344 16.5209C85.9342 16.386 85.9281 16.328 85.9193 16.4626C85.9202 16.5837 85.9136 16.7048 85.8996 16.8251C85.9302 16.4594 85.9032 16.0914 85.8198 15.7345C85.8063 15.6767 85.759 15.5835 85.722 15.5371C85.7185 15.5326 85.7162 15.5289 85.7133 15.524C85.6978 15.4973 85.6781 15.4733 85.655 15.4528C85.6352 15.4392 85.62 15.42 85.6112 15.3977C85.6016 15.3789 85.5897 15.3614 85.5758 15.3456C85.5608 15.3286 85.5492 15.3198 85.535 15.302C85.53 15.2958 85.5167 15.2756 85.5138 15.2681C85.5109 15.2606 85.5068 15.2535 85.5018 15.2472C85.4985 15.2431 85.4949 15.2394 85.4909 15.236C85.4805 15.2272 85.4691 15.2192 85.4606 15.2085L85.4549 15.2014C85.4225 15.1606 85.3725 15.0978 85.3401 15.057C85.336 15.0519 85.322 15.033 85.3191 15.0272C85.3158 15.0208 85.3123 15.0145 85.3086 15.0083C85.2803 14.9611 85.2704 14.9694 85.3046 15.0124C85.0794 14.7294 84.2598 13.6993 82.314 11.2539L85.1044 14.7608L81.0501 9.66558C77.5329 4.46087 75.7853 2.24275 75.2826 1.6698ZM67.2549 14.1507C67.2498 14.1547 67.2422 14.1514 67.2418 14.1449C67.2324 13.9955 67.2384 13.8455 67.2597 13.6973L67.2481 13.9249C67.2447 13.9978 67.248 14.0709 67.2579 14.1432C67.2583 14.146 67.2572 14.1489 67.2549 14.1507ZM63.988 26.9637C63.9968 26.9567 63.9983 26.944 63.9913 26.9352C63.8073 26.7039 63.4772 26.2892 62.8902 25.5514C63.325 26.1771 63.7192 26.6739 63.9598 26.961C63.9669 26.9695 63.9793 26.9706 63.988 26.9637ZM58.7681 31.5033C58.7742 31.492 58.7731 31.4782 58.765 31.4681C58.7082 31.3967 58.4735 31.1018 58.1963 30.7534C58.4741 31.1844 58.6378 31.4027 58.7109 31.5063C58.7251 31.5265 58.7564 31.5251 58.7681 31.5033ZM57.9579 32.2216C57.962 32.2139 57.9527 32.2061 57.9459 32.2115L57.3243 32.7065C57.2504 32.7654 57.1433 32.7538 57.0844 32.6798C56.8444 32.3782 56.1548 31.5116 54.6002 29.5578C55.0465 30.1187 55.4788 30.662 55.8575 31.1379C56.5932 32.0625 57.933 32.2677 58.808 31.4737C58.547 31.746 58.2669 31.9993 57.9698 32.2316C57.963 32.2369 57.9538 32.2292 57.9579 32.2216ZM55.2708 30.5781C55.8365 31.3852 56.4508 32.1573 57.1102 32.8898L55.2708 30.5781ZM59.6771 25.6034C59.6942 25.6008 59.7037 25.6225 59.6902 25.6333C59.6829 25.6391 59.6817 25.6497 59.6875 25.657L59.701 25.674C59.7094 25.6846 59.7117 25.6987 59.707 25.7113C59.6655 25.8218 59.6148 25.9286 59.5554 26.0305C59.5418 26.0539 59.4852 26.1176 59.464 26.1345L59.409 26.1783C59.4038 26.1825 59.3994 26.1875 59.396 26.1932L59.3594 26.2543C59.3443 26.2796 59.2652 26.3699 59.2422 26.3882C59.1715 26.4445 59.1793 26.4383 59.2422 26.3882C59.2237 26.3939 59.1302 26.4774 59.115 26.4895C59.1063 26.4964 59.0963 26.5044 59.085 26.5134L59.0064 26.5759L59.14 26.4696C59.0813 26.5297 59.0153 26.5823 58.9436 26.626L56.6486 28.4534C56.965 28.1685 57.2983 27.9031 57.6468 27.6586C56.9869 28.184 56.8778 29.1447 57.403 29.8047L58.0352 30.5993C58.36 31.0075 58.2925 31.6016 57.8844 31.9265C58.321 31.6666 58.3405 31.0798 58.0242 30.6822C57.8863 30.509 57.7144 30.2929 57.4999 30.0234C57.2078 29.6562 56.9428 29.3233 56.7489 29.0796C56.7489 29.0796 56.7491 29.0798 56.7491 29.0798C56.6656 28.9513 56.6538 28.96 56.7492 29.08C56.9445 29.3253 57.2767 29.7429 57.6438 30.2042L58.0602 30.7276C58.4212 31.1812 58.3461 31.8415 57.8927 32.2025L57.0711 32.8567C57.0711 32.8567 57.0711 32.8567 57.0711 32.8567L52.0721 26.5742C52.0721 26.5742 52.0721 26.5742 52.0721 26.5742C51.4881 25.8402 51.6094 24.7718 52.3432 24.1875L52.7673 23.8498C53.734 23.0801 54.3392 22.5982 54.6929 22.3166L54.6221 22.3729C54.697 22.3278 54.7657 22.2731 54.8265 22.2102C54.9286 22.1288 54.9837 22.085 54.9522 22.1101L54.9994 22.0725C55.0544 22.0287 55.0623 22.0224 55.0387 22.0412L55.2587 21.866C55.3059 21.8284 55.3137 21.8222 55.2587 21.866C55.2532 21.8704 55.2592 21.8797 55.2656 21.8768C55.3313 21.8458 55.3992 21.8198 55.4688 21.799C55.4721 21.798 55.4752 21.7964 55.4779 21.7942L55.5351 21.7487C55.5777 21.7148 55.6265 21.6895 55.6793 21.6766C56.0881 21.5769 56.5143 21.5694 56.9269 21.6552C56.8159 21.6458 56.7044 21.645 56.5932 21.6526C56.5919 21.6527 56.5905 21.6526 56.5892 21.6523L56.5727 21.6489C56.5571 21.6457 56.5596 21.6226 56.5756 21.6228C56.5786 21.6229 56.5815 21.6218 56.5841 21.6203C56.6388 21.5877 56.8622 21.6335 57.0274 21.6523C57.079 21.6612 57.131 21.668 57.1832 21.6724C57.2203 21.6756 57.2574 21.6805 57.2937 21.6888L57.3168 21.6941C57.3485 21.7013 57.3792 21.7123 57.4092 21.725C57.4524 21.7433 57.4966 21.7591 57.5416 21.7721C57.5859 21.785 57.6217 21.8169 57.6548 21.8489C57.6635 21.8574 57.674 21.8637 57.685 21.869C57.8354 21.9413 57.9807 22.0239 58.1199 22.116C58.1495 22.1355 58.1694 22.1667 58.1942 22.192C58.2069 22.2048 58.2209 22.2165 58.2321 22.2306L58.2778 22.2879C58.2936 22.3137 58.3125 22.3375 58.3341 22.3587L58.4301 22.4793C58.4328 22.4828 58.4353 22.4864 58.4376 22.4902C58.4641 22.5341 58.5235 22.5967 58.5554 22.6368C58.5586 22.6408 58.562 22.6451 58.5656 22.6496C58.6344 22.7361 58.5656 22.6496 58.6156 22.7125C58.6657 22.7754 58.6845 22.799 58.6594 22.7676L58.7282 22.8541C58.7658 22.9012 58.7971 22.9406 58.8158 22.9641C58.855 23.0056 58.8906 23.0503 58.9222 23.0978L58.9722 23.1607C59.0227 23.2146 59.0687 23.2725 59.1099 23.3337C59.1537 23.3887 59.1599 23.3966 59.1099 23.3337C59.1664 23.3999 59.213 23.4737 59.2485 23.5529C59.26 23.5784 59.3038 23.6581 59.3212 23.68C59.3226 23.6817 59.3276 23.6884 59.3286 23.6903C59.5014 24.0395 59.6087 24.4172 59.6452 24.8047C59.6492 24.847 59.6462 24.8897 59.6461 24.9322C59.6459 25.0196 59.6572 25.1078 59.6436 25.1941L59.6388 25.2247L59.6302 25.3471C59.6284 25.3742 59.6229 25.4008 59.6141 25.4264L59.6048 25.4536C59.5917 25.4915 59.563 25.5271 59.5638 25.5673C59.5641 25.5853 59.5685 25.6023 59.5729 25.6115C59.5759 25.6179 59.5834 25.6179 59.5903 25.6168L59.6771 25.6034ZM59.5603 23.6353C59.572 23.6135 59.6036 23.615 59.613 23.6379C59.7104 23.8772 59.7823 24.1262 59.8275 24.3808C59.7621 24.1331 59.6724 23.8924 59.5598 23.6624C59.5556 23.6538 59.5558 23.6437 59.5603 23.6353ZM64.2051 27.204C64.2044 27.2031 64.2038 27.2023 64.2031 27.2014C64.1924 27.1879 64.095 27.0655 63.9476 26.8803C64.0218 27.0045 64.1122 27.1182 64.2166 27.2184L64.2051 27.204ZM65.2576 24.9512C65.6357 25.4316 65.5547 26.1272 65.0765 26.508C64.6864 26.8187 64.4712 26.99 64.3612 27.0776C64.354 27.0833 64.24 27.0703 64.2342 27.0631C63.9777 26.7407 62.7389 25.1838 61.2561 23.3203C61.2561 23.3203 61.2749 23.3439 61.2749 23.3439L63.6838 26.3713C64.0292 26.8054 64.6612 26.8772 65.0953 26.5316C65.6058 26.1251 65.7024 25.5239 65.3024 25.0082C65.1646 24.8305 64.9965 24.6165 64.7914 24.3587L65.2576 24.9512ZM66.1685 21.1301C66.1696 21.1067 66.187 21.087 66.2104 21.0846C66.231 21.0826 66.2517 21.0814 66.2723 21.0812C66.3501 21.0803 66.3352 21.1643 66.2585 21.1772C66.2491 21.1788 66.2397 21.1805 66.2304 21.1823C66.1978 21.1886 66.167 21.1633 66.1685 21.1301ZM69.1419 23.2295C69.1446 23.2208 69.1502 23.2133 69.1577 23.2082C69.5772 22.921 69.9752 22.6036 70.3486 22.2587C69.9883 22.6199 69.6065 22.9589 69.2053 23.2738C69.1737 23.2986 69.1296 23.2676 69.1419 23.2295ZM70.7393 22.0059C70.7518 21.9832 70.724 21.9597 70.7037 21.9759L70.0106 22.5277C70.5966 22.166 70.7285 22.0707 70.7351 22.028C70.7362 22.0206 70.7357 22.0125 70.7393 22.0059ZM66.7781 17.6184C66.8045 17.5945 66.8455 17.5979 66.8676 17.6257C66.8696 17.6282 66.8713 17.6308 66.8729 17.6335C66.887 17.6572 66.9039 17.6791 66.9234 17.6987C66.9297 17.705 66.9372 17.7103 66.9438 17.7164C66.9619 17.7333 66.9627 17.7601 66.9622 17.7849C66.9619 17.7994 66.9622 17.8139 66.9632 17.8284C66.9665 17.8752 66.9743 17.9375 66.9733 17.9844C66.9732 17.9877 66.9732 17.9908 66.9733 17.9937C66.9743 18.0291 67.0161 18.0825 67.0153 18.1179L66.9818 18.3501C66.9721 18.4775 66.9553 18.6048 66.9181 18.7271C66.8888 18.8234 66.854 18.918 66.8139 19.0104C66.7271 19.2079 66.7034 19.2911 66.7648 19.1908C66.76 19.1992 66.7557 19.2079 66.7518 19.2168C66.7471 19.2277 66.7853 19.2516 66.7945 19.2442C66.8417 19.2067 66.8574 19.1941 66.7945 19.2442C66.8169 19.2264 66.891 19.1969 66.9196 19.1945C66.9387 19.1929 66.963 19.1908 66.9939 19.1882L67.1706 19.1662C67.193 19.1634 67.2155 19.1625 67.238 19.1633C67.277 19.1647 67.3154 19.1723 67.3533 19.1813C67.3899 19.19 67.427 19.1958 67.4645 19.1988C67.5712 19.2077 67.6768 19.2269 67.7797 19.2561C67.7703 19.24 67.7834 19.2158 67.8017 19.2199C67.9017 19.2424 67.9963 19.2849 68.0798 19.345C68.0825 19.3469 68.0849 19.3492 68.087 19.3518C68.0882 19.3534 68.09 19.3556 68.0925 19.3587C68.1074 19.3775 68.1158 19.401 68.1307 19.4198C68.1458 19.4387 68.1699 19.4485 68.1855 19.467C68.1952 19.4784 68.2031 19.4913 68.209 19.5052C68.2228 19.5419 68.2855 19.6013 68.3099 19.632C68.3159 19.6395 68.322 19.6472 68.3279 19.6545C68.3364 19.6653 68.345 19.6761 68.3529 19.686C68.3721 19.7102 68.4088 19.7562 68.428 19.7804C68.457 19.8168 68.477 19.86 68.5058 19.8966C68.5088 19.9004 68.5118 19.904 68.515 19.9076C68.541 19.9365 68.5716 19.9608 68.5958 19.9912C68.5999 19.9963 68.6044 20.002 68.6094 20.0084C68.6171 20.0181 68.7117 20.1503 68.7197 20.1597C68.7372 20.1804 68.756 20.2 68.776 20.2185C68.7775 20.2199 68.779 20.2215 68.7804 20.2232C68.7858 20.23 68.8056 20.2549 68.8785 20.3465L69.0536 20.5667C69.1037 20.6296 69.1162 20.6453 69.0912 20.6138C69.1955 20.7449 69.208 20.7606 69.1287 20.661L69.2226 20.779C69.2809 20.8776 69.3487 20.9702 69.425 21.0554C69.4835 21.1208 69.5559 21.1978 69.6105 21.2665C69.6981 21.3765 69.6105 21.2665 69.648 21.3136C69.6856 21.3608 69.6918 21.3687 69.6793 21.353C69.8044 21.5102 69.8107 21.5181 69.6793 21.353C69.7126 21.4076 69.7506 21.4591 69.7929 21.507C69.8158 21.533 69.8767 21.601 69.8983 21.6282C69.9483 21.6911 69.9921 21.7461 69.9358 21.6753C69.9535 21.6975 69.9711 21.7197 69.9859 21.7383C70.0051 21.7624 70.0417 21.8084 70.061 21.8326C70.0711 21.8453 70.1426 21.944 70.1553 21.9541C70.1569 21.9553 70.1584 21.9564 70.1599 21.9576C70.1607 21.9581 70.1615 21.9586 70.1623 21.959C70.1728 21.9643 70.182 21.9717 70.1893 21.9809C70.2039 21.9993 70.215 22.0215 70.2344 22.0347C70.3107 22.0868 70.3961 22.1243 70.4862 22.1451C70.4888 22.1457 70.4911 22.1469 70.4931 22.1485C70.5067 22.1602 70.4909 22.1762 70.4744 22.1692C70.4594 22.1628 70.4438 22.1577 70.4278 22.1541C70.4214 22.1527 70.4156 22.1493 70.4116 22.1442L70.3803 22.1049C70.4051 22.1361 70.402 22.181 70.3729 22.2081C70.1646 22.4012 69.9423 22.5787 69.7079 22.7389C69.6617 22.7704 69.6178 22.8051 69.5765 22.8427C69.3491 23.0495 69.1071 23.2396 68.8523 23.4116L68.875 23.3935C68.8885 23.3827 68.8907 23.3631 68.88 23.3496C68.8675 23.3339 68.8438 23.3041 68.8313 23.2884C68.8275 23.2836 68.8232 23.2781 68.8181 23.2718C68.7493 23.1853 68.7806 23.2246 68.8181 23.2718C68.8181 23.2718 68.7743 23.2168 68.7681 23.2089C68.7618 23.201 68.7681 23.2089 68.718 23.146C68.6367 23.0438 68.668 23.0831 68.718 23.146C68.718 23.146 68.718 23.146 68.6805 23.0988C68.6449 23.0541 68.5784 22.9706 68.5428 22.9258C68.474 22.8393 68.4177 22.7686 68.4803 22.8472L68.4105 22.7596C68.3661 22.7038 68.3191 22.6447 68.2747 22.5889C68.2668 22.579 68.2581 22.568 68.2483 22.5557C68.2445 22.5509 68.2413 22.5455 68.2387 22.5401C68.2311 22.5243 68.2215 22.5095 68.2103 22.4962C68.1949 22.4778 68.1901 22.4825 68.205 22.5012C67.9672 22.2024 67.9234 22.1474 68.1299 22.4069C68.0486 22.3047 67.9797 22.2182 67.9109 22.1317C67.9422 22.171 67.9109 22.1317 67.8108 22.0059C67.6294 21.7778 67.5981 21.7385 67.7545 21.9351C67.7173 21.8883 67.6823 21.8443 67.6481 21.8014C67.6125 21.7567 67.5461 21.6732 67.5105 21.6284C67.4417 21.5419 67.3666 21.4476 67.4667 21.5734C67.4137 21.5067 67.3659 21.4468 67.3066 21.4035C67.2727 21.3788 67.2446 21.4144 67.274 21.4442L67.3366 21.5228C67.2908 21.4653 67.2409 21.4109 67.183 21.3654C66.9854 21.2101 66.757 21.0976 66.5125 21.0358C66.3568 21.0059 65.9698 21.0717 65.821 21.1263C65.8192 21.1269 65.8175 21.1276 65.8157 21.1282C65.7293 21.1971 65.69 21.2284 65.7293 21.1971L64.684 22.0294C64.9948 21.8185 65.2891 21.5842 65.5643 21.3285L65.2656 21.5663C65.3904 21.4814 65.5086 21.3873 65.6193 21.2847L64.2046 22.4111C63.8133 22.6813 63.7741 23.2255 64.0702 23.5976C64.2605 23.8368 64.4879 24.1225 64.7269 24.4229C65.5152 25.4137 65.803 25.7754 65.8781 25.8697C65.9532 25.9641 65.5245 26.1513 65.0922 26.4955C64.6582 26.8411 64.0262 26.7693 63.6807 26.3352L61.2906 23.3313C59.6267 21.2402 58.263 19.5264 58.2562 19.5178C58.2562 19.5178 58.2562 19.5178 58.2562 19.5177L62.5149 16.1267L62.5159 16.1259L62.6731 16.0008C62.7595 15.9319 62.7988 15.9006 62.7753 15.9194C62.7517 15.9382 62.8931 15.8255 62.8617 15.8506C63.0804 15.6764 63.3227 15.5243 63.5984 15.4773C63.7848 15.4455 63.9752 15.4379 64.1648 15.4552L64.3687 15.4855L64.3888 15.4872C64.4185 15.4896 64.4221 15.4678 64.3923 15.4668L64.2459 15.4606C64.2277 15.4599 64.2201 15.4368 64.2345 15.4254C64.2382 15.4225 64.2428 15.421 64.2475 15.4211L64.3327 15.4242L64.3924 15.431C64.4371 15.4361 64.4801 15.4504 64.5241 15.4596C64.555 15.466 64.5864 15.4699 64.6168 15.4783L64.6266 15.481C64.6771 15.495 64.7255 15.516 64.7688 15.5455C64.9284 15.6543 65.0749 15.7813 65.2054 15.9239L65.4013 16.0249C65.4128 16.0328 65.4233 16.042 65.4325 16.0524C65.459 16.0823 65.4765 16.1194 65.5013 16.1507C65.5014 16.1507 65.5014 16.1507 65.5014 16.1507C65.5016 16.151 65.539 16.198 65.5702 16.2372L65.5827 16.2529C65.6108 16.2883 65.6547 16.3434 65.6828 16.3787C65.7328 16.4416 65.7641 16.4809 65.7641 16.4809C65.7641 16.4809 65.7641 16.4809 65.7641 16.4809C65.7828 16.5044 65.804 16.5311 65.8204 16.5517C65.858 16.5989 65.8705 16.6146 65.9268 16.6854L66.127 16.937C66.1708 16.992 66.2084 17.0392 66.2209 17.0549C66.23 17.0647 66.2389 17.0745 66.2477 17.0846C66.3094 17.1552 66.3731 17.226 66.4211 17.3066C66.4524 17.3459 66.4836 17.3852 66.5024 17.4088C66.5212 17.4324 66.5712 17.4953 66.5775 17.5031C66.5838 17.511 66.5775 17.5031 66.6275 17.566C66.6776 17.6289 66.6713 17.6211 66.6776 17.6289C66.6838 17.6368 66.7151 17.6761 67.2889 17.2193L66.7073 17.6824L66.7781 17.6184ZM66.7226 19.0583C66.7228 19.0576 66.7229 19.0569 66.7232 19.0563C66.7676 18.9343 66.8055 18.81 66.8367 18.684C66.8149 18.8128 66.7833 18.9396 66.7424 19.0635C66.738 19.0769 66.7202 19.0722 66.7226 19.0583ZM72.1312 19.6037C72.1303 19.572 72.101 19.549 72.0693 19.5474C72.0599 19.5469 72.0506 19.5459 72.0413 19.5444C72.0211 19.541 72.0091 19.5369 72.0295 19.5388C72.0714 19.5428 72.0883 19.5624 72.0546 19.5875C72.045 19.5947 72.0356 19.6022 72.0265 19.61C72.0126 19.622 71.9951 19.6294 71.9767 19.6297L71.8685 19.6315C71.8499 19.6318 71.8314 19.6307 71.813 19.628L71.6085 19.5985C71.41 19.5608 71.2153 19.5051 71.0268 19.4322C71.2104 19.4963 71.3979 19.5486 71.5881 19.589C71.6791 19.6065 71.701 19.6018 71.5881 19.589L71.6869 19.6002L71.7196 19.6017C71.7687 19.604 71.8171 19.6152 71.8661 19.6194C71.9023 19.6225 71.9388 19.6217 71.9749 19.6258L72.0195 19.6309L72.1402 19.6375L72.1511 19.638C72.1696 19.6388 72.1748 19.6705 72.1586 19.6794C72.1475 19.6855 72.1334 19.6779 72.133 19.6652L72.1312 19.6037ZM75.5324 10.9822C75.5151 10.9874 75.5093 11.009 75.5216 11.0223C75.5443 11.0468 75.5668 11.0716 75.589 11.0966C75.6565 11.1726 75.7015 11.1449 75.6331 11.0697C75.6061 11.0401 75.5804 11.0129 75.5568 10.9885C75.5505 10.982 75.5411 10.9796 75.5324 10.9822ZM75.3733 10.7925C75.3229 10.8341 75.3177 10.8839 75.3584 10.9351C75.4673 11.0719 75.5731 11.2048 75.6896 11.3187C75.7874 11.4142 75.8961 11.514 75.9812 11.6209C76.1126 11.7861 76.1564 11.8411 76.0938 11.7625C76.2377 11.9433 76.2815 11.9984 76.2565 11.9669C76.3124 12.0293 76.3647 12.0949 76.4129 12.1635C76.3253 12.0534 76.3253 12.0534 76.4129 12.1635C76.5005 12.2736 76.513 12.2893 76.5443 12.3286C76.5756 12.3679 76.6006 12.3994 76.5443 12.3286L76.6566 12.4698C76.6629 12.4777 76.6643 12.4769 76.6569 12.4701C76.5943 12.3915 76.6006 12.3994 76.6569 12.4701C76.6909 12.5027 76.7204 12.5397 76.7445 12.5802C76.7535 12.5998 76.7649 12.6181 76.7784 12.6347C76.8026 12.6642 76.8432 12.7042 76.8669 12.7341C76.893 12.7669 76.9005 12.7908 76.9286 12.8218C76.9372 12.8313 76.9468 12.8399 76.9572 12.8476C76.9603 12.8497 76.9633 12.852 76.9662 12.8544C76.975 12.8616 77.0565 12.9723 77.0636 12.9812C77.0716 12.9913 77.0818 13.0042 77.091 13.0157C77.1059 13.0344 77.1143 13.058 77.1292 13.0767C77.1304 13.0782 77.1316 13.0797 77.1329 13.0811C77.1467 13.0961 77.1665 13.1043 77.181 13.1186C77.1828 13.1204 77.1846 13.1223 77.1863 13.1241C77.2149 13.1551 77.2348 13.1935 77.2611 13.2265C77.2887 13.2611 77.3067 13.3021 77.3172 13.3451L77.3264 13.3827C77.3324 13.4073 77.3417 13.4312 77.3571 13.4512C77.3781 13.4787 77.3986 13.5071 77.4097 13.5399C77.4372 13.6216 77.4557 13.7062 77.4648 13.7921C77.4671 13.8206 77.4709 13.849 77.4761 13.8772C77.4839 13.9192 77.491 14.0023 77.4862 14.0448C77.4766 14.1295 77.5237 14.092 77.5237 14.092C77.5237 14.092 77.5237 14.092 77.5675 14.147C77.6113 14.2021 77.53 14.0999 77.5237 14.092C77.5175 14.0841 77.5237 14.092 77.5141 14.1767C77.5107 14.2069 77.5152 14.2225 77.5225 14.2302C77.5377 14.2461 77.5679 14.2443 77.5816 14.2615C77.5903 14.2725 77.5932 14.2869 77.5905 14.3007C77.5832 14.3382 77.5814 14.3766 77.5852 14.4147C77.5875 14.4383 77.5895 14.462 77.5879 14.4856L77.5692 14.7623C77.5503 14.8553 77.5396 14.9498 77.5371 15.0447L77.5129 15.3209L77.5274 15.1938C77.526 15.2184 77.5246 15.241 77.5233 15.2612C77.5206 15.303 77.5047 15.4555 77.4923 15.4954C77.4911 15.4992 77.4899 15.503 77.4887 15.5067C77.4852 15.5177 77.4905 15.5185 77.4815 15.5257C77.4642 15.5395 77.4174 15.5958 77.4097 15.6166C77.4044 15.6308 77.3974 15.6492 77.3885 15.6732C77.3872 15.6766 77.3862 15.6802 77.3856 15.6837L77.3675 15.7835L77.3841 15.7315C77.3861 15.7254 77.4001 15.7239 77.4022 15.73C77.4041 15.7359 77.4069 15.7393 77.402 15.7431L77.3871 15.755C77.3856 15.7562 77.3844 15.7578 77.3836 15.7595C77.3797 15.7684 77.3626 15.8071 77.2886 15.9747L77.235 16.149C77.2256 16.1795 77.2072 16.2065 77.1822 16.2264C77.1661 16.2393 77.1525 16.2552 77.1425 16.2733L77.0679 16.4074C77.0001 16.5641 76.9779 16.6331 77.0047 16.5861L76.9212 16.7554L76.695 17.2182C76.6778 17.2535 76.7184 17.2088 76.6837 17.2273C76.6806 17.229 76.6805 17.2303 76.6785 17.2332L76.5619 17.4011C76.5441 17.4297 76.5282 17.4555 76.5141 17.4785C76.5024 17.4977 76.3238 17.7063 76.3063 17.7203C76.3047 17.7216 76.3029 17.7226 76.301 17.7233C76.2875 17.7285 76.275 17.7357 76.2638 17.7445C76.24 17.7635 76.221 17.7882 76.1971 17.8072L75.1014 18.6797C75.0464 18.7235 75.0307 18.736 75.0542 18.7172L74.4965 19.1613C74.4807 19.1739 74.4623 19.183 74.4456 19.1943C74.4178 19.2131 74.3941 19.2385 74.3639 19.2531C74.2665 19.3002 74.1665 19.3416 74.0643 19.3771C74.1594 19.3455 74.2506 19.3031 74.336 19.2506C74.3033 19.2736 74.2699 19.2956 74.2328 19.3104L74.0643 19.3771C74.0538 19.3809 74.0439 19.3845 74.0346 19.3879C73.952 19.4183 73.83 19.5166 73.7454 19.5411L73.5115 19.586L73.4243 19.6009C73.4037 19.6044 73.4042 19.6122 73.4236 19.6046L73.2865 19.6367C73.2414 19.6473 73.1992 19.6677 73.163 19.6965C73.163 19.6965 73.163 19.6965 73.163 19.6965C73.1283 19.7242 73.0689 19.7245 73.0246 19.7261C72.9987 19.727 72.965 19.7328 72.9213 19.7477C72.78 19.796 72.7549 19.7646 72.7612 19.7724C72.7674 19.7803 72.7612 19.7724 72.8679 19.7774L72.7674 19.7803L72.6247 19.7784L72.518 19.7734L72.4129 19.7543C72.3464 19.7467 72.2232 19.7302 72.1607 19.7059L72.0385 19.6585C72.029 19.6547 72.0189 19.6523 72.0087 19.651C71.995 19.6493 71.9828 19.6476 71.972 19.6461C71.9315 19.6403 71.872 19.6456 71.8311 19.6447L71.8284 19.6446C71.8261 19.6445 71.819 19.6434 71.8167 19.643C71.7748 19.6355 71.6194 19.6179 71.578 19.608L71.5301 19.5967C71.253 19.5342 70.983 19.4436 70.7243 19.3263L70.4704 19.233L70.3734 19.1831C70.3091 19.1499 70.261 19.0923 70.2057 19.0456C70.1819 19.0219 70.1609 18.9955 70.1431 18.967C70.1141 18.9305 70.0734 18.9011 70.0559 18.8579C70.0558 18.8576 70.0557 18.8572 70.0555 18.8569C70.043 18.825 70.0212 18.7976 69.993 18.7783C69.9482 18.7552 69.9056 18.7283 69.8656 18.6977C69.8397 18.678 69.8244 18.6476 69.8023 18.6238C69.7876 18.608 69.77 18.5949 69.7566 18.5781C69.7443 18.5625 69.7302 18.5448 69.7268 18.5406C69.7213 18.5337 69.7255 18.5389 69.6927 18.4977C69.6821 18.4844 69.6689 18.4735 69.6584 18.4603C69.6574 18.4591 69.6565 18.4579 69.6556 18.4567C69.6475 18.4454 69.6411 18.4329 69.6325 18.422C69.626 18.4139 69.6199 18.4062 69.6142 18.3991C69.5877 18.3658 69.5531 18.3223 69.5266 18.289C69.4828 18.234 69.4578 18.2025 69.4891 18.2418C69.4739 18.2227 69.4591 18.2041 69.4453 18.1868C69.3917 18.1194 69.3362 18.0497 69.2826 17.9823C69.2013 17.8801 69.1763 17.8487 69.195 17.8723L68.657 17.196C68.6447 17.1807 68.494 16.9913 68.4818 16.9759C68.4173 16.8948 68.3969 16.8692 68.3906 16.8613C68.3888 16.859 68.387 16.8568 68.3853 16.8546C68.3751 16.8418 68.3377 16.7948 68.3003 16.7478C68.268 16.7072 68.2076 16.6313 68.1752 16.5906C68.1732 16.588 68.1711 16.5854 68.169 16.5827C68.1596 16.5735 68.1506 16.564 68.1419 16.5542C68.097 16.5035 67.9766 16.341 68.0188 16.394C67.997 16.3601 67.9718 16.3285 67.9437 16.2997C67.975 16.339 67.975 16.339 67.9437 16.2997C67.9374 16.2918 67.8638 16.1919 67.8565 16.185C67.8526 16.1814 67.8486 16.1779 67.8445 16.1746C67.8439 16.1741 67.8434 16.1736 67.8429 16.173C67.8402 16.1695 67.83 16.1567 67.8186 16.1425C67.7938 16.1112 67.7777 16.0722 67.7482 16.0453C67.7429 16.0405 67.7371 16.0362 67.731 16.0323C67.7252 16.0281 67.7198 16.0236 67.7148 16.0187C67.6861 15.9909 67.6683 15.9536 67.6435 15.9223C67.6103 15.8807 67.5848 15.8334 67.5692 15.7825C67.4466 15.3825 67.3729 14.9691 67.3497 14.5513C67.3479 14.5187 67.3362 14.4874 67.3159 14.4618C67.3471 14.5011 67.3172 14.5764 67.3659 14.5247C67.3842 14.5054 67.3895 14.4675 67.3882 14.4284C67.3865 14.3763 67.3605 14.2189 67.3636 14.1669C67.3723 14.0907 67.3765 14.0531 67.3736 14.0405C67.3719 14.0333 67.3677 14.0429 67.3723 14.0486C67.38 14.0584 67.3958 14.0531 67.3961 14.0406L67.3986 13.9257C67.3987 13.9223 67.3991 13.9189 67.3998 13.9155L67.4448 13.7041C67.4591 13.6231 67.4698 13.5585 67.4767 13.5095C67.4879 13.4316 67.472 13.436 67.4575 13.5133L67.4318 13.6498C67.4281 13.669 67.4154 13.6853 67.3975 13.6935C67.3578 13.7116 67.3126 13.6827 67.3123 13.639L67.3118 13.5623C67.3118 13.5562 67.3123 13.55 67.3132 13.544L67.3357 13.4056L67.3291 13.5265L67.3498 13.4072C67.3749 13.3263 67.3796 13.239 67.4093 13.1596L67.4258 13.1155C67.4051 13.2347 67.4051 13.2347 67.4258 13.1155C67.4559 13.0252 67.4701 12.9301 67.4982 12.8392L67.535 12.7203C67.6503 12.4173 67.7911 12.1247 67.9559 11.8456L68.2115 11.499C68.2385 11.4624 68.3279 11.3696 68.3635 11.3412L68.4185 11.2974C68.46 11.2644 68.5028 11.2303 68.5443 11.1973L69.8096 10.1898C69.8646 10.1459 69.8882 10.1272 69.8725 10.1397L70.0375 10.0083C70.0847 9.97072 70.0925 9.96446 70.0375 10.0083L70.1633 9.90814C70.1756 9.89831 70.2918 9.83407 70.3066 9.82865L70.4648 9.77078C70.7041 9.68019 70.9514 9.61268 71.2034 9.56915C71.2522 9.56071 71.3068 9.53706 71.3456 9.50619C71.3867 9.47346 71.436 9.45243 71.4883 9.4471C71.5911 9.43663 71.6943 9.43054 71.7976 9.42886L71.9404 9.43079L72.0674 9.44523L72.1882 9.45182L72.069 9.43111C72.2039 9.4393 72.218 9.4409 72.069 9.43111C72.3975 9.44344 72.7229 9.49969 73.0366 9.59834L73.1744 9.63588C73.202 9.64339 73.2265 9.65952 73.2443 9.6819C73.2591 9.70053 73.2786 9.7149 73.3008 9.72352L73.332 9.73562C73.3746 9.75218 73.4124 9.78018 73.4408 9.81594C73.4457 9.82203 73.7327 9.95033 73.9026 10.0291C73.9747 10.0625 74.0368 10.1132 74.0863 10.1754C74.0863 10.1754 74.0863 10.1754 74.0863 10.1754C74.0864 10.1754 74.1118 10.2074 74.1494 10.2329C74.1985 10.2662 74.2593 10.2821 74.3111 10.311C74.3522 10.334 74.3895 10.3636 74.4239 10.3959C74.453 10.4231 74.4941 10.4567 74.5443 10.4854C74.5782 10.5048 74.6058 10.5337 74.6308 10.5637C74.6519 10.5892 74.6852 10.5996 74.7183 10.6006L75.1019 10.6127C75.1224 10.6475 75.1477 10.6793 75.177 10.7071C75.177 10.7071 75.177 10.7071 75.1457 10.6677L75.1019 10.6127C75.1984 10.7214 75.3608 10.7524 75.4801 10.6693C76.1817 10.1804 76.8477 9.6422 77.473 9.05862L75.3733 10.7925Z" fill="white"/>
<path d="M71.7525 17.4696C71.7574 17.4807 71.7654 17.4902 71.772 17.5004C71.7834 17.5179 71.7966 17.5341 71.8116 17.5487C71.8163 17.5532 71.8224 17.5559 71.8289 17.5567L71.8302 17.5568C71.8573 17.5599 71.8746 17.5287 71.8576 17.5074C71.8549 17.504 71.8515 17.5012 71.8478 17.4993C71.7781 17.4632 71.7441 17.4505 71.7525 17.4696Z" fill="white"/>
<path d="M72.5424 17.6745C72.5022 17.6701 72.4982 17.7003 72.5387 17.7018C72.6085 17.7097 72.6699 17.7167 72.7112 17.719C72.7437 17.7208 72.7424 17.7075 72.7105 17.701C72.6549 17.6895 72.5988 17.6807 72.5424 17.6745Z" fill="white"/>
<path d="M76.8225 12.775C76.8367 12.7886 76.8501 12.803 76.8623 12.8184C76.8685 12.8261 76.876 12.8221 76.8698 12.8144C76.8569 12.7981 76.8408 12.7847 76.8225 12.775C76.7849 12.7278 76.7849 12.7278 76.8225 12.775Z" fill="white"/>
<path d="M74.5313 16.9628C74.7199 16.8127 74.6964 16.8314 74.3112 17.1381C73.9261 17.4447 73.9026 17.4635 74.1069 17.3008C74.2604 17.2042 74.4028 17.0909 74.5313 16.9628Z" fill="white"/>
<path d="M76.9239 13.0154C76.9356 13.0266 76.9466 13.0385 76.9568 13.0512C76.963 13.0589 76.9707 13.0549 76.9646 13.0472C76.9537 13.0335 76.9398 13.0226 76.9239 13.0154C76.9239 13.0154 76.8942 12.962 76.9239 13.0154Z" fill="white"/>
<path d="M74.5831 13.5078C74.625 13.4332 74.622 13.3413 74.5731 13.271C74.4271 13.0613 74.2672 12.8616 74.0943 12.6734C74.0632 12.6397 73.9916 12.5573 73.963 12.5214C73.9005 12.4428 73.8567 12.3878 73.8817 12.4192C73.8264 12.3307 73.7262 12.2403 73.6494 12.1697C73.6252 12.1474 73.5963 12.1208 73.5618 12.0891C73.5446 12.0733 73.5285 12.056 73.5139 12.0377C73.4959 12.0151 73.4774 11.9918 73.5046 12.0259L73.4482 11.9551C73.4377 11.9418 73.3453 11.8675 73.3304 11.8592C73.3059 11.8456 73.2809 11.8328 73.2554 11.8209C73.2514 11.819 73.2479 11.8163 73.2451 11.8128L73.1868 11.7395L73.2368 11.8024C73.2681 11.8417 73.2806 11.8574 73.2368 11.8024C73.2345 11.7922 73.2299 11.7827 73.2234 11.7745C73.2181 11.7679 73.2116 11.7623 73.2043 11.7579C73.201 11.756 73.1977 11.7541 73.1947 11.7517C73.1872 11.7457 73.1806 11.7388 73.1749 11.7312C73.1656 11.7186 73.1646 11.7092 73.1502 11.7031C73.1178 11.6892 72.9105 11.6169 72.878 11.6034C72.5133 11.4524 72.1193 11.3832 71.7238 11.4015C71.4559 11.4195 71.1938 11.486 70.9503 11.5972C70.8533 11.6416 70.6213 11.817 70.7048 11.7505C70.4253 11.936 70.1623 12.1454 69.9189 12.3763C69.966 12.3387 69.966 12.3387 69.9189 12.3763C69.8882 12.3908 69.8613 12.4122 69.8403 12.4389C69.7774 12.4889 69.7853 12.4827 69.8403 12.4389C69.7725 12.4929 69.711 12.5549 69.6637 12.6275C69.4086 13.0192 69.2798 13.4811 69.297 13.9504C69.2957 14.0455 69.3002 14.1408 69.3168 14.2344C69.327 14.2924 69.3389 14.35 69.3524 14.4073C69.4248 14.7131 69.5249 15.0118 69.6515 15.2995C69.6658 15.3176 69.6806 15.3392 69.6956 15.3626C69.787 15.5061 70.0148 15.7561 70.1207 15.8892C70.1459 15.9289 70.1753 15.9658 70.2083 15.9993C69.9303 15.6499 69.9043 15.6172 70.0955 15.8576C70.1236 15.8929 70.1676 15.9482 70.1958 15.9836C70.2458 16.0465 70.2521 16.0544 70.2396 16.0386C70.4617 16.3384 70.7098 16.6179 70.9812 16.8739C71.0817 16.9677 71.189 17.054 71.3022 17.1321C71.3022 17.1321 71.3022 17.1321 71.2584 17.077L71.1333 16.9198C71.0895 16.8647 71.0144 16.7704 70.9581 16.6996C70.891 16.6291 70.8303 16.5528 70.7767 16.4716C70.9616 16.7764 71.1844 17.0564 71.4398 17.3051C71.4108 17.2726 71.3836 17.2385 71.3585 17.2028C71.3147 17.1478 71.2897 17.1163 71.3022 17.1321C71.3406 17.1637 71.3809 17.1928 71.4229 17.2193C71.4694 17.2486 71.5115 17.2859 71.5586 17.3143C71.6164 17.3492 71.6859 17.3696 71.7135 17.3783C71.716 17.3791 71.718 17.3808 71.7192 17.3831C71.7213 17.3872 71.7236 17.3911 71.7261 17.3949C71.7306 17.4017 71.7523 17.4234 71.7472 17.417C71.7423 17.4108 71.7305 17.3781 71.7375 17.3818C71.7993 17.4149 71.8632 17.4437 71.9289 17.4679L72.0919 17.5437C72.0919 17.5437 72.0919 17.5437 72.1312 17.5124C72.1705 17.4811 72.1312 17.5124 72.0919 17.5437C72.0526 17.575 72.0919 17.5437 72.142 17.6066C72.1638 17.634 72.3558 17.5902 72.3905 17.5949C72.6012 17.6236 72.8142 17.6325 73.0268 17.6214C72.9241 17.6322 72.8478 17.6461 72.8369 17.6569C72.831 17.6629 72.8474 17.6649 72.8558 17.6649C72.9851 17.665 73.1139 17.6483 73.2389 17.6153C73.246 17.6134 73.2508 17.6228 73.245 17.6274C73.2396 17.6318 73.2435 17.6405 73.2504 17.6393L73.3484 17.6222C73.4788 17.5933 73.6055 17.5501 73.7261 17.4932C73.773 17.4711 73.8757 17.3949 73.8352 17.4272C74.1688 17.2193 74.4773 16.9736 74.7547 16.695L74.9068 16.4933C74.913 16.485 74.9024 16.4747 74.8943 16.4811C74.8936 16.4817 74.893 16.4823 74.8926 16.483L74.8309 16.5717C74.793 16.6265 74.7472 16.6754 74.6951 16.7169C74.7526 16.6711 74.8064 16.6206 74.8514 16.5624C74.9789 16.3975 75.0807 16.2139 75.1533 16.018L75.1913 15.8722L75.1202 16.0572C75.1751 15.921 75.2171 15.7802 75.2457 15.6365C75.2523 15.6037 75.2451 15.6018 75.2468 15.6353C75.2665 15.6601 75.2737 15.6927 75.2662 15.7235L75.2242 15.8974C75.1626 16.062 75.164 16.1122 75.2224 15.9758C75.2808 15.8394 75.2939 15.5978 75.2468 15.6353C75.2774 15.3537 75.2713 15.0693 75.2284 14.7893C75.1533 14.695 75.1596 14.7028 75.2284 14.7893L75.1974 14.6213C75.2349 14.6685 75.2412 14.6764 75.1974 14.6213C75.1537 14.5664 75.1053 14.4628 75.0872 14.395L75.0797 14.3668C75.0781 14.3605 75.076 14.3543 75.0732 14.3485C75.0596 14.3209 75.0396 14.2969 75.0147 14.2787C74.9757 14.2519 74.9559 14.2049 74.9264 14.1678C74.9184 14.1577 74.91 14.1472 74.9021 14.1372C74.9396 14.1844 74.9396 14.1844 74.9021 14.1372C74.8948 14.1281 74.888 14.1196 74.8819 14.1118C74.8757 14.1041 74.8209 14.0217 74.8148 14.014C74.8086 14.0063 74.8026 14.0121 74.8087 14.0198L74.8145 14.0271L74.7519 13.9485C74.7102 13.8961 74.6744 13.8392 74.6324 13.7872C74.6133 13.7636 74.5926 13.7413 74.5705 13.7204C74.6143 13.7755 74.6268 13.7912 74.5705 13.7204C74.5326 13.6729 74.5273 13.6072 74.5571 13.5542L74.5831 13.5078ZM69.7974 15.2974C69.7869 15.3058 69.7938 15.3146 69.8044 15.3062C69.815 15.2977 69.808 15.289 69.7974 15.2974ZM73.3784 17.5983C73.3793 17.5975 73.3802 17.5966 73.3809 17.5956C73.3881 17.5849 73.3904 17.5887 73.3803 17.5968L73.3327 17.6347L73.3784 17.5983ZM73.5856 17.5493C73.5821 17.5448 73.5756 17.544 73.5711 17.5476L73.5242 17.585L73.5927 17.5304C73.6109 17.5159 73.6257 17.5305 73.6075 17.545C73.6049 17.5471 73.6023 17.5492 73.5996 17.5512C73.5952 17.5544 73.5891 17.5535 73.5856 17.5493ZM75.273 14.8293C75.2735 14.8299 75.2739 14.8307 75.274 14.8314C75.2912 14.9263 75.2993 15.0227 75.2982 15.1191C75.2915 15.0233 75.2802 14.9279 75.2644 14.8331C75.2636 14.8282 75.2699 14.8254 75.273 14.8293ZM75.2851 15.3286C75.2875 15.3315 75.2852 15.3337 75.2828 15.3308C75.2827 15.3306 75.2826 15.3305 75.2825 15.3304C75.2802 15.3274 75.2828 15.3256 75.2851 15.3286Z" fill="white"/>
<path d="M74.5374 13.1303C74.4452 12.9983 74.3449 12.8722 74.237 12.7528L74.5374 13.1303Z" fill="white"/>
<path d="M64.5694 20.1147C64.5485 20.1268 64.5979 20.0942 64.6168 20.0791C64.6343 20.0652 64.6343 20.0651 64.6168 20.0791C64.6112 20.0836 64.6044 20.089 64.5961 20.0956C64.5833 20.1058 64.5746 20.1117 64.5694 20.1147Z" fill="white"/>
<path d="M44.2903 22.7092C44.3351 22.6729 44.3307 22.6679 44.2857 22.7038C44.2822 22.7066 44.2786 22.7095 44.2747 22.7125C44.2266 22.7509 44.2403 22.7492 44.2883 22.7108C44.289 22.7102 44.2896 22.7097 44.2903 22.7092Z" fill="white"/>
<path d="M66.347 21.1654C66.324 21.1604 66.3227 21.1776 66.3459 21.1814L66.509 21.1927L66.3616 21.1688C66.3567 21.1676 66.3519 21.1665 66.347 21.1654Z" fill="white"/>
<path d="M67.8076 22.1631C67.8173 22.1754 67.8265 22.1765 67.8138 22.1673C67.8134 22.1669 67.8129 22.1666 67.8125 22.1663C67.8092 22.164 67.8051 22.16 67.8076 22.1631Z" fill="white"/>
<path d="M54.0373 22.8642L52.8585 23.8029C52.8434 23.8149 52.8484 23.8217 52.8634 23.8098C53.2198 23.5247 53.6152 23.2067 54.0373 22.8642Z" fill="white"/>
<path d="M74.3457 17.1491C74.2436 17.2305 74.2043 17.2618 74.2514 17.2242L74.3054 17.1813C74.3898 17.1141 74.4301 17.082 74.3457 17.1491Z" fill="white"/>
<path d="M68.8895 20.312C68.8829 20.296 68.8742 20.281 68.8638 20.2673C68.8395 20.2354 68.8332 20.2413 68.8582 20.2727C68.8958 20.3199 68.9004 20.3418 68.8895 20.312Z" fill="white"/>
<path d="M44.0802 23.3555L44.1735 23.0372C44.1414 23.1085 44.114 23.1818 44.0914 23.2567C44.0801 23.2873 44.0696 23.3182 44.0598 23.3494C44.0437 23.4002 44.0722 23.4083 44.0802 23.3555Z" fill="white"/>
<path d="M44.5299 26.1958C44.4173 26.0543 44.361 25.9835 44.4486 26.0936C44.4562 26.1049 44.464 26.116 44.472 26.1271C44.5303 26.2075 44.5852 26.2784 44.5299 26.1958Z" fill="white"/>
<path d="M69.4669 20.9569C69.4186 20.8801 69.3619 20.8089 69.298 20.7446C69.2542 20.6896 69.298 20.7446 69.3918 20.8626C69.4857 20.9805 69.5169 21.0198 69.4669 20.9569Z" fill="white"/>
<path d="M75.9571 18.136C75.9557 18.1382 75.9578 18.1391 75.9599 18.1374C75.9645 18.1337 75.9618 18.1302 75.9581 18.1348C75.9577 18.1353 75.9574 18.1357 75.9571 18.136Z" fill="white"/>
<path d="M56.1026 23.6728C56.1131 23.6729 56.1232 23.6692 56.1321 23.6637C56.1684 23.6414 56.2116 23.6362 56.2256 23.622C56.2407 23.6069 56.2083 23.5922 56.187 23.5942C56.1553 23.5971 56.1239 23.6016 56.0928 23.6078C56.0453 23.6171 56.0543 23.6719 56.1026 23.6728Z" fill="white"/>
<path d="M84.0567 12.6535C83.2684 11.6628 81.9858 10.0509 81.1975 9.06014L84.0567 12.6535Z" fill="white"/>
<path d="M72.7208 0.601429C73.0609 0.603941 73.3992 0.649616 73.7277 0.737362C74.0663 0.840229 74.1635 0.865587 74.0413 0.808779C73.6095 0.662408 73.1563 0.589132 72.7005 0.591962C72.6001 0.594848 72.6001 0.594847 72.7208 0.601429Z" fill="white"/>
<path d="M56.0668 21.7023C56.0597 21.705 56.0599 21.706 56.0675 21.7054C56.0802 21.7043 56.1072 21.702 56.1644 21.6972L56.3847 21.6731C56.3874 21.6728 56.3867 21.6743 56.3888 21.6726C56.4009 21.663 56.3975 21.6412 56.382 21.6417C56.2744 21.6449 56.168 21.6653 56.0668 21.7023Z" fill="white"/>
<path d="M74.8395 19.0293C74.8399 19.0291 74.8403 19.0289 74.8406 19.0286C74.8443 19.0257 74.8416 19.022 74.8381 19.0253C74.8335 19.0296 74.833 19.0315 74.8395 19.0293Z" fill="white"/>
<path d="M64.6644 26.926L65.4504 26.3002C65.6704 26.125 65.4504 26.3002 65.0417 26.6257C64.633 26.9511 64.4381 27.0934 64.6644 26.926Z" fill="white"/>
<path d="M57.3805 24.2098C57.5119 24.3749 57.5369 24.4064 57.4743 24.3278C57.4662 24.3151 57.4579 24.3026 57.4494 24.2902C57.3566 24.1548 57.2783 24.0814 57.3805 24.2098Z" fill="white"/>
<path d="M55.706 23.7834L55.6375 23.838C55.636 23.8392 55.6344 23.8402 55.6327 23.8411C55.6015 23.8574 55.6069 23.8623 55.6345 23.8403L55.706 23.7834Z" fill="white"/>
<path d="M72.4902 0.618108L72.5922 0.601101L72.5059 0.605593C72.4367 0.607862 72.3681 0.619299 72.3019 0.639608L72.4902 0.618108Z" fill="white"/>
<path d="M59.788 25.1731C59.8088 25.0331 59.7927 25.0425 59.7722 25.1826L59.7623 25.396L59.7863 25.1842C59.7869 25.1805 59.7874 25.1768 59.788 25.1731Z" fill="white"/>
<path d="M75.3905 10.8845C75.3997 10.8992 75.3814 10.8671 75.3706 10.8536L75.3493 10.8268C75.3217 10.7921 75.3217 10.7921 75.3493 10.8268C75.3707 10.8537 75.3843 10.8746 75.3905 10.8845Z" fill="white"/>
<path d="M56.3937 23.6416C56.3987 23.6411 56.4034 23.6391 56.4073 23.636C56.427 23.6203 56.4168 23.5885 56.3916 23.5873L56.3697 23.5863C56.3619 23.5859 56.3541 23.5884 56.3479 23.5934C56.3265 23.6104 56.3349 23.6432 56.3622 23.6432C56.3727 23.6432 56.3832 23.6427 56.3937 23.6416Z" fill="white"/>
<path d="M63.1563 17.8549C63.2036 17.8272 63.1359 17.8544 63.093 17.8886C63.0374 17.9328 62.9678 17.9882 62.9774 17.9806L63.065 17.9109C63.0851 17.8948 63.134 17.8679 63.1563 17.8549Z" fill="white"/>
<path d="M75.7765 11.283C75.7698 11.267 75.7612 11.252 75.7508 11.2383C75.7382 11.2218 75.7323 11.2274 75.7452 11.2437C75.7827 11.2908 75.8061 11.3364 75.7765 11.283Z" fill="white"/>
<path d="M77.2722 14.2922L77.3285 14.363L77.2847 14.308C77.2742 14.2947 77.2685 14.2786 77.2645 14.2633C77.2516 14.2134 77.2362 14.2555 77.2722 14.2922Z" fill="white"/>
<path d="M76.3567 12.0284C76.3619 12.0348 76.3666 12.0408 76.371 12.0463C76.3962 12.078 76.3879 12.0553 76.3627 12.0236C76.3375 11.9919 76.3315 11.9967 76.3567 12.0284Z" fill="white"/>
<path d="M72.6716 11.6159C72.6428 11.6105 72.6629 11.6335 72.6908 11.6424C72.6948 11.6437 72.6987 11.6449 72.7025 11.6461C72.7617 11.6643 72.7507 11.6404 72.6917 11.6215L72.6903 11.621C72.6826 11.6186 72.6796 11.6174 72.6716 11.6159Z" fill="white"/>
<path d="M71.639 11.4562C71.6521 11.4554 71.6526 11.4363 71.6395 11.4348L71.6343 11.4342C71.6165 11.4336 71.5971 11.4341 71.5782 11.4354C71.4821 11.4421 71.543 11.4643 71.639 11.4562Z" fill="white"/>
<path d="M85.1257 18.9698C85.1267 18.969 85.1279 18.9683 85.129 18.9678C85.1444 18.961 85.1589 18.9524 85.1721 18.9422C85.1795 18.9366 85.1743 18.9311 85.1671 18.9369C85.1667 18.9372 85.1663 18.9374 85.166 18.9376C85.1143 18.9665 85.1042 18.9864 85.1257 18.9698Z" fill="white"/>
<path d="M69.1392 18.2378C69.1768 18.285 69.1893 18.3007 69.1392 18.2378V18.2378Z" fill="white"/>
<path d="M72.1563 29.3226L59.2513 39.5983L72.1563 29.3226C79.2217 23.6966 85.0376 19.0657 85.069 19.0406L72.1563 29.3226Z" fill="white"/>
<path d="M85.5769 14.6286C85.6207 14.6836 85.6332 14.6994 85.6145 14.6758L85.541 14.5835C85.5399 14.5821 85.5393 14.5813 85.5404 14.5827C85.5433 14.5864 85.552 14.5973 85.5769 14.6286Z" fill="white"/>
<path d="M70.4456 11.8926C70.5399 11.8175 70.4456 11.8926 70.257 12.0428C70.0684 12.193 69.9819 12.2619 70.0841 12.1805L70.4456 11.8926Z" fill="white"/>
<path d="M74.6029 19.1351C74.5727 19.1505 74.5174 19.1833 74.4908 19.2044C74.4697 19.2212 74.4673 19.2231 74.4836 19.2102L74.4899 19.2052C74.5429 19.163 74.6633 19.1044 74.6029 19.1351Z" fill="white"/>
<path d="M72.6159 19.6923C72.5519 19.68 72.3884 19.6667 72.4365 19.7107C72.44 19.7139 72.4452 19.718 72.4522 19.723C72.4858 19.7469 72.5632 19.7441 72.6221 19.7343C72.6747 19.7255 72.6683 19.7024 72.6159 19.6923Z" fill="white"/>
<path d="M86.1203 17.0439C86.1319 16.9719 86.1064 16.9808 86.1053 17.0538C86.105 17.0742 86.1049 17.0948 86.1025 17.1152L86.09 17.2258L86.1123 17.0924C86.1153 17.0744 86.118 17.0582 86.1203 17.0439Z" fill="white"/>
<path d="M72.0212 11.4706C72.0226 11.471 72.0241 11.4714 72.0256 11.4715C72.0489 11.4735 72.0513 11.4551 72.0281 11.4527C71.9868 11.4484 71.9429 11.4448 71.8979 11.4427C71.6858 11.4328 71.897 11.4287 72.0212 11.4706Z" fill="white"/>
<path d="M86.1403 16.0398C86.1267 16.0692 86.1216 16.102 86.1261 16.1341C86.1439 16.2623 86.1514 16.2697 86.1882 16.1713C86.2129 16.1054 86.2024 16.0536 86.1867 16.0254C86.1738 16.0022 86.1514 16.0158 86.1403 16.0398Z" fill="white"/>
<path d="M68.0568 16.8775C68.0944 16.9247 68.1069 16.9404 68.0881 16.9168L68.0568 16.8775C68.0349 16.8499 68.0349 16.8499 68.0568 16.8775Z" fill="white"/>
<path d="M69.4047 13.1338C69.4115 13.1424 69.4175 13.1354 69.4249 13.1272C69.4518 13.0972 69.4594 13.0586 69.4569 13.0348C69.4546 13.0131 69.4348 13.0262 69.4272 13.0467L69.4018 13.1146C69.3993 13.1211 69.4003 13.1283 69.4047 13.1338Z" fill="white"/>
<path d="M72.5169 17.7013C72.4736 17.7003 72.4724 17.7134 72.5151 17.7205L72.5358 17.722C72.6104 17.7272 72.6118 17.7176 72.5387 17.7018L72.5169 17.7013Z" fill="white"/>
<path d="M70.2296 16.252C70.2862 16.3311 70.3468 16.4072 70.4111 16.4801C70.4799 16.5666 70.4486 16.5273 70.3297 16.3779C70.2109 16.2285 70.0654 16.0617 70.2296 16.252Z" fill="white"/>
<path d="M69.5566 14.9383C69.5446 14.9181 69.5298 14.8995 69.5128 14.8832L69.5566 14.9383Z" fill="white"/>
<path d="M68.5681 17.6007C68.7308 17.8052 68.7996 17.8917 68.7183 17.7894L68.418 17.412C68.3241 17.2941 68.4055 17.3963 68.5681 17.6007Z" fill="white"/>
<path d="M76.2582 17.81C76.211 17.8475 76.211 17.8475 76.2582 17.81C76.2968 17.7792 76.289 17.7639 76.2615 17.805C76.2604 17.8066 76.2593 17.8083 76.2582 17.81Z" fill="white"/>
<path d="M59.0878 39.7028C59.0889 39.702 59.0902 39.7012 59.0915 39.7007C59.107 39.694 59.1215 39.6855 59.1347 39.6754C59.1424 39.6695 59.1369 39.6637 59.1293 39.6698C59.129 39.6701 59.1286 39.6703 59.1282 39.6706C59.0766 39.6993 59.0665 39.7192 59.0878 39.7028Z" fill="white"/>
<path d="M54.7798 39.0613C54.8268 39.1203 54.8407 39.1378 54.8216 39.1138C54.8188 39.1103 54.8164 39.1064 54.8144 39.1024C54.8062 39.086 54.7965 39.0705 54.7854 39.0561C54.7685 39.0341 54.7625 39.0396 54.7798 39.0613Z" fill="white"/>
<path d="M57.1219 26.2904C57.1225 26.2904 57.1232 26.2901 57.1237 26.2897C57.1278 26.2864 57.125 26.2828 57.1215 26.2868C57.1192 26.2894 57.119 26.2908 57.1219 26.2904Z" fill="white"/>
<path d="M73.6327 0.692108C73.6575 0.699491 73.6646 0.6725 73.6411 0.661787C73.6084 0.646966 73.5806 0.633123 73.5758 0.627119C73.5637 0.611869 73.5751 0.626195 73.6214 0.684438C73.6243 0.688074 73.6282 0.690783 73.6327 0.692108Z" fill="white"/>
<path d="M74.9121 1.2739C74.9114 1.27297 74.9107 1.27182 74.9102 1.27073C74.9039 1.25645 74.9008 1.25971 74.9106 1.27192C74.9202 1.28399 74.9236 1.28829 74.9121 1.2739Z" fill="white"/>
<path d="M55.3139 39.5712C55.3147 39.5721 55.3154 39.5733 55.3159 39.5744C55.3222 39.5887 55.3252 39.5854 55.3155 39.5732C55.3037 39.5583 55.299 39.5525 55.3139 39.5712Z" fill="white"/>
<path d="M85.2798 18.8214C85.2169 18.8715 85.2169 18.8715 85.2798 18.8214C85.3137 18.8081 85.3219 18.7739 85.2976 18.8011C85.2921 18.8072 85.2862 18.814 85.2798 18.8214Z" fill="white"/>
<path d="M57.2354 40.2273C57.4023 40.2031 57.1088 40.1555 56.9405 40.1436C56.9395 40.1435 56.9385 40.1434 56.9375 40.1434L56.6536 40.1254L56.914 40.1622C56.7298 40.1481 56.9513 40.2208 57.136 40.226C57.1691 40.227 57.2023 40.2274 57.2354 40.2273Z" fill="white"/>
<path d="M85.9349 17.7731C85.8876 17.875 85.908 17.8845 85.9349 17.7731C85.9675 17.7472 85.9546 17.7188 85.94 17.7577C85.9382 17.7623 85.9366 17.7675 85.9349 17.7731Z" fill="white"/>
<path d="M85.4528 18.6194C85.4057 18.657 85.4057 18.657 85.4528 18.6194C85.4915 18.5886 85.4837 18.5734 85.4561 18.6144C85.4551 18.616 85.454 18.6177 85.4528 18.6194Z" fill="white"/>
<path d="M55.4849 21.9053C55.4837 21.9056 55.4824 21.9061 55.4813 21.9066C55.459 21.917 55.4704 21.932 55.4901 21.9172C55.5054 21.9057 55.5094 21.8989 55.4849 21.9053Z" fill="white"/>
<path d="M43.9451 23.8613C43.9475 23.8594 43.951 23.8614 43.9505 23.8645C43.9401 23.93 43.9338 23.9962 43.9317 24.0625C43.9309 24.0884 43.9346 24.0889 43.9398 24.0635C43.9491 24.0188 43.9637 23.9411 43.9739 23.8512C43.9803 23.8008 43.9363 23.7958 43.931 23.8463C43.93 23.8557 43.9291 23.8652 43.9284 23.8746L43.9074 24.1226L43.9439 23.8634C43.944 23.8626 43.9445 23.8618 43.9451 23.8613Z" fill="white"/>
<path d="M44.1301 25.4352C44.1164 25.412 44.0996 25.3908 44.0801 25.3723C44.0175 25.2936 44.03 25.3094 44.0801 25.3723L44.1301 25.4352Z" fill="white"/>
<path d="M59.2164 23.1315C59.2137 23.1263 59.2105 23.1213 59.2069 23.1168L59.1686 23.0686C59.1476 23.0423 59.1476 23.0423 59.1686 23.0686C59.2095 23.12 59.2326 23.1632 59.2164 23.1315Z" fill="white"/>
<path d="M85.6911 14.756C85.7272 14.7913 85.7587 14.8309 85.785 14.874L85.8225 14.9211L85.7787 14.8661C85.754 14.8261 85.7246 14.7891 85.6911 14.756Z" fill="white"/>
<path d="M46.7259 29.0201C47.9772 30.5927 48.4777 31.2217 47.852 30.4354L45.5934 27.5969C44.9678 26.8106 45.4808 27.4553 46.7259 29.0201Z" fill="white"/>
<path d="M54.9175 39.2343C54.955 39.2815 54.9675 39.2972 54.9175 39.2343C54.9173 39.2338 54.9171 39.2334 54.9169 39.2329C54.9104 39.2168 54.9067 39.2207 54.9175 39.2343Z" fill="white"/>
<path d="M44.4323 26.0401C44.4223 26.0175 44.4177 26.0224 44.433 26.0418C44.4328 26.0412 44.4326 26.0406 44.4323 26.0401Z" fill="white"/>
<path d="M53.3689 37.3204C52.568 36.3139 51.2667 34.6784 50.4658 33.6719L53.3689 37.3204Z" fill="white"/>
<path d="M44.5873 22.2489C44.5993 22.2368 44.5862 22.2213 44.5728 22.232C44.5701 22.2341 44.5675 22.2364 44.565 22.2389C44.5533 22.2506 44.563 22.2667 44.5768 22.2576C44.5802 22.2554 44.5837 22.2525 44.5873 22.2489Z" fill="white"/>
<path d="M59.4129 23.4441C59.4084 23.436 59.4033 23.4281 59.3975 23.4208L59.3937 23.416C59.3661 23.3813 59.3661 23.3813 59.3937 23.416C59.4355 23.4686 59.4573 23.5254 59.4129 23.4441Z" fill="white"/>
<path d="M55.1734 39.4756C55.127 39.4198 55.1653 39.4827 55.2183 39.5321C55.2191 39.5329 55.2192 39.5328 55.2185 39.532C55.2162 39.529 55.2083 39.5191 55.182 39.4861C55.1792 39.4826 55.1763 39.4791 55.1734 39.4756Z" fill="white"/>
<path d="M58.9557 39.7668C58.8881 39.7984 58.957 39.8105 58.9984 39.7484C58.9828 39.7546 58.9685 39.7608 58.9557 39.7668Z" fill="white"/>
<path d="M86.1573 16.6327L86.1442 16.8744L86.1538 16.7896C86.1312 17.0517 86.1342 17.0878 86.1535 16.9183C86.1676 16.824 86.1766 16.7291 86.1807 16.634C86.1815 16.6143 86.1595 16.6131 86.1573 16.6327Z" fill="white"/>
<path d="M57.274 26.0929L57.3133 26.0616C57.3152 26.0601 57.3152 26.0601 57.3133 26.0616C57.274 26.0929 57.2583 26.1054 57.274 26.0929Z" fill="white"/>
<path d="M85.8489 15.0672C85.8594 15.0804 85.8685 15.0918 85.8754 15.1006C85.8879 15.1162 85.8845 15.1038 85.8743 15.0867C85.8537 15.0523 85.8099 14.9973 85.8289 15.0326C85.8337 15.0415 85.8402 15.053 85.8489 15.0672Z" fill="white"/>
<path d="M58.6135 22.4197C58.6192 22.4296 58.6205 22.4282 58.6133 22.4192C58.5995 22.4018 58.5861 22.385 58.5756 22.3719C58.5383 22.3249 58.5753 22.3715 58.6127 22.4185C58.613 22.4188 58.6133 22.4192 58.6135 22.4197Z" fill="white"/>
<path d="M73.5036 0.633214L73.4833 0.629516C73.287 0.593843 73.0882 0.574093 72.8888 0.57046L73.1852 0.604164L73.5036 0.633214Z" fill="white"/>
<path d="M69.9808 15.8753C69.98 15.874 69.9793 15.8724 69.9787 15.8709C69.974 15.8585 69.9676 15.847 69.9598 15.8365C69.9516 15.8255 69.946 15.831 69.9545 15.8417C69.9855 15.8806 70.021 15.9411 69.9808 15.8753Z" fill="white"/>
<path d="M69.6515 15.2995C69.6461 15.2909 69.6404 15.2825 69.6344 15.2744C69.611 15.2425 69.608 15.2449 69.6327 15.2759C69.6702 15.3231 69.6827 15.3388 69.689 15.3467C69.6952 15.3545 69.6624 15.3293 69.6515 15.2995Z" fill="white"/>
<path d="M67.6124 12.515C67.6158 12.5059 67.6212 12.4975 67.6288 12.4914C67.6539 12.4714 67.654 12.4714 67.6289 12.4914C67.623 12.496 67.6165 12.5012 67.6092 12.507C67.5429 12.5598 67.587 12.5812 67.6124 12.515Z" fill="white"/>
<path d="M73.0516 17.7172C73.0955 17.721 73.1398 17.7163 73.1819 17.7034C73.138 17.6995 73.0938 17.7042 73.0516 17.7172Z" fill="white"/>
<path d="M70.4111 16.4801C70.4193 16.4905 70.4267 16.4997 70.4331 16.5077C70.4583 16.5394 70.4423 16.507 70.4171 16.4753C70.3919 16.4436 70.3859 16.4484 70.4111 16.4801Z" fill="white"/>
<path d="M72.8351 17.7281C72.8221 17.7265 72.8092 17.7311 72.7976 17.7371C72.7526 17.7604 72.7089 17.7427 72.7381 17.7658C72.7469 17.7728 72.7577 17.7769 72.7688 17.7783C72.7885 17.7807 72.8083 17.7823 72.828 17.7833C72.8788 17.7859 72.8855 17.7343 72.8351 17.7281Z" fill="white"/>
<path d="M70.119 16.0969C70.1146 16.0913 70.1108 16.0853 70.1075 16.0791C70.0995 16.0641 70.0904 16.0498 70.0803 16.0363C70.0561 16.0041 70.0497 16.0098 70.0748 16.0413C70.1196 16.0976 70.1344 16.1162 70.119 16.0969Z" fill="white"/>
<path d="M70.7112 11.694C70.7741 11.6439 70.782 11.6377 70.7112 11.694C70.7101 11.6949 70.7089 11.6958 70.7077 11.6968C70.6184 11.7679 70.634 11.778 70.7112 11.694Z" fill="white"/>
<path d="M70.3718 11.9129C70.4426 11.8565 70.3718 11.9129 70.2539 12.0067C70.136 12.1006 70.0575 12.1632 70.1282 12.1069L70.3718 11.9129Z" fill="white"/>
<path d="M69.582 10.2425C69.6181 10.2138 69.6181 10.2138 69.582 10.2425C69.527 10.2863 69.4877 10.3176 69.5191 10.2926L69.582 10.2425Z" fill="white"/>
<path d="M69.3391 13.3903C69.354 13.3154 69.3465 13.3135 69.3255 13.3869C69.3253 13.3875 69.3252 13.3881 69.325 13.3887L69.2995 13.5502L69.3391 13.3903Z" fill="white"/>
<path d="M69.2967 14.0791C69.289 14.0185 69.2855 13.9573 69.2861 13.8962C69.2865 13.8613 69.2707 13.8087 69.2741 13.774C69.2779 13.7363 69.2763 13.755 69.272 13.7927L69.2627 13.875C69.2581 13.9442 69.2607 14.0135 69.2703 14.0819C69.2732 14.1021 69.2966 14.0995 69.2967 14.0791Z" fill="white"/>
<path d="M75.0382 18.8585C74.9753 18.9085 74.9518 18.9273 74.9832 18.9023L75.0382 18.8585C75.0561 18.8442 75.0561 18.8442 75.0382 18.8585Z" fill="white"/>
<path d="M73.231 9.64905C73.1929 9.64243 73.1907 9.65172 73.2278 9.6627L73.2294 9.66317L73.3345 9.68227L73.231 9.64905Z" fill="white"/>
<path d="M76.0439 11.6352C76.1815 11.8082 76.2379 11.879 76.1628 11.7846C76.1445 11.7578 76.1258 11.7313 76.1067 11.7052C75.9865 11.5416 75.9175 11.4763 76.0439 11.6352Z" fill="white"/>
<path d="M73.9896 17.4032C73.9442 17.429 74.0149 17.3997 74.0558 17.3672C74.1136 17.3211 74.1777 17.2701 74.1666 17.279L74.0776 17.3498C74.0584 17.3651 74.0109 17.3911 73.9896 17.4032Z" fill="white"/>
<path d="M76.5044 12.2949C76.5049 12.2953 76.5053 12.2958 76.5057 12.2963C76.5098 12.3014 76.5138 12.3065 76.5178 12.3115C76.5252 12.3207 76.5273 12.3195 76.5184 12.3119C76.5179 12.3115 76.5174 12.311 76.5171 12.3105C76.513 12.3054 76.5089 12.3003 76.5049 12.2953C76.4976 12.2861 76.4955 12.2873 76.5044 12.2949Z" fill="white"/>
<path d="M77.059 3.82599C76.8974 3.62249 76.8971 3.62326 77.0588 3.82658C78.0912 5.12398 79.1235 6.42138 79.3738 6.7359C79.624 7.05042 78.7982 6.0125 77.5468 4.4399C77.3795 4.22954 77.2163 4.02413 77.059 3.82599Z" fill="white"/>
<path d="M85.5317 14.5233C85.5378 14.531 85.5433 14.5379 85.5482 14.5441C85.5734 14.5757 85.5629 14.5502 85.5377 14.5186C85.5125 14.4869 85.5065 14.4917 85.5317 14.5233Z" fill="white"/>
<path d="M75.4022 10.9901C75.4286 11.029 75.4579 11.0658 75.4898 11.1002C75.5336 11.1552 75.5336 11.1552 75.4898 11.1002C75.483 11.0865 75.4753 11.0734 75.4666 11.061C75.436 11.0169 75.3688 10.9482 75.4022 10.9901Z" fill="white"/>
<path d="M75.177 10.7071C75.2208 10.7621 75.2896 10.8486 75.2521 10.8014C75.2385 10.779 75.223 10.7579 75.2057 10.7384C75.1913 10.7222 75.1635 10.6901 75.177 10.7071Z" fill="white"/>
<path d="M75.3086 15.342L75.3037 15.4487L75.3165 15.3357C75.3171 15.333 75.3178 15.3304 75.3184 15.3278C75.3373 15.2482 75.3179 15.2606 75.3086 15.342Z" fill="white"/>
<path d="M75.8477 18.2139C75.7848 18.2639 75.7534 18.289 75.7927 18.2577L75.902 18.1706C75.9025 18.1703 75.9029 18.1699 75.9034 18.1695C75.9088 18.1652 75.9424 18.1385 75.8477 18.2139Z" fill="white"/>
<path d="M72.8075 9.55072C72.8065 9.55068 72.8064 9.55104 72.807 9.5518C72.8092 9.55456 72.8167 9.56405 72.8427 9.59669C72.8474 9.60262 72.8534 9.6075 72.8603 9.61073C72.9092 9.63376 72.9264 9.58727 72.8759 9.56801C72.8501 9.55815 72.8261 9.55143 72.8075 9.55072Z" fill="white"/>
<path d="M74.5674 16.9598C74.4967 17.0161 74.4967 17.0161 74.5674 16.9598C74.6454 16.8977 74.6795 16.8333 74.6126 16.9072C74.5985 16.9228 74.5833 16.9405 74.5674 16.9598Z" fill="white"/>
<path d="M77.3362 15.1776C77.342 15.1255 77.3278 15.1254 77.3219 15.1775L77.3137 15.3125L77.336 15.1792C77.336 15.1786 77.3361 15.1781 77.3362 15.1776Z" fill="white"/>
<path d="M74.7376 13.3819C74.7639 13.4149 74.773 13.4084 74.7431 13.3785C74.7399 13.3753 74.7366 13.3722 74.7332 13.3693C74.724 13.3615 74.7176 13.3568 74.7251 13.3662C74.7282 13.3701 74.7322 13.3752 74.7376 13.3819Z" fill="white"/>
<path d="M57.5744 24.4536C57.5641 24.4406 57.591 24.4648 57.5774 24.4555C57.5771 24.4553 57.5768 24.4551 57.5765 24.4549C57.5751 24.454 57.5754 24.4548 57.5744 24.4536Z" fill="white"/>
<path d="M71.8807 11.405C71.9874 11.41 72.0454 11.4023 72.0031 11.3975C71.9627 11.3906 71.9219 11.3857 71.8811 11.3829C71.8557 11.3811 71.8554 11.403 71.8807 11.405Z" fill="white"/>
<path d="M64.6821 18.2674C64.7571 18.3618 64.7884 18.4011 64.7509 18.3539L64.607 18.173C64.5694 18.1259 64.6007 18.1652 64.6821 18.2674Z" fill="white"/>
<path d="M66.4761 21.1676L66.357 21.1468C66.3527 21.1464 66.3486 21.1459 66.3446 21.1454C66.2632 21.1362 66.274 21.1517 66.3554 21.161L66.4761 21.1676Z" fill="white"/>
<path d="M64.4286 17.9811C64.4115 17.9521 64.3904 17.9257 64.366 17.9025C64.3375 17.8667 64.3077 17.8428 64.2853 17.8287C64.2191 17.7869 64.3422 17.8862 64.3973 17.9418C64.4063 17.9518 64.3919 17.965 64.3815 17.9565C64.2381 17.8394 64.068 17.7581 63.8855 17.7203C63.877 17.7185 63.8693 17.7139 63.8638 17.707L63.8548 17.6957C63.8472 17.6861 63.8488 17.6721 63.8584 17.6645C63.8732 17.6526 63.8673 17.6293 63.8485 17.6272C63.8211 17.6241 63.7935 17.623 63.766 17.6238C63.7536 17.6242 63.7418 17.6288 63.7321 17.6366L63.7248 17.6424C63.7086 17.6552 63.6886 17.662 63.6679 17.6625C63.3497 17.6705 63.1178 17.8427 62.0391 18.6892L60.8916 19.6029C61.0019 19.5265 61.1069 19.4429 61.206 19.3526C61.028 19.4943 60.9986 19.7534 61.1402 19.9314C61.2617 20.0841 61.4157 20.2777 61.5783 20.4819L61.691 20.6237C62.1608 21.2141 63.0204 21.3117 63.6106 20.8417C63.9657 20.5893 64.3076 20.3188 64.635 20.0314C64.6464 20.0213 64.7462 19.9376 64.7581 19.9281C64.8052 19.8905 64.821 19.878 64.7581 19.9281L64.7817 19.9093C64.8231 19.8763 64.8659 19.8422 64.9074 19.8092C64.9076 19.809 64.9078 19.8088 64.9081 19.8087C64.9081 19.8086 65.0174 19.7216 65.0174 19.7216C65.0174 19.7216 65.0174 19.7216 65.0174 19.7216C65.0175 19.7215 65.1063 19.3168 65.0658 19.1692C64.9988 18.9482 64.8942 18.7403 64.7567 18.5548L64.8755 18.7042C64.8983 18.7328 64.9404 18.7857 64.9631 18.8143C65.0069 18.8693 65.0507 18.9244 64.9631 18.8143C64.8755 18.7042 64.9068 18.7435 64.9006 18.7356L64.6065 18.3661C64.548 18.2714 64.4812 18.1822 64.4069 18.0995C64.3755 18.0645 64.4579 18.018 64.4286 17.9811ZM65.0189 19.1103C65.0275 19.1211 65.0256 19.1367 65.0142 19.1444C65.0114 19.1463 65.0083 19.1484 65.0049 19.1506C64.9734 19.1711 64.9491 19.1337 64.9785 19.1103C64.9803 19.1089 64.982 19.1075 64.9836 19.1062C64.9945 19.0976 65.0103 19.0994 65.0189 19.1103Z" fill="white"/>
<path d="M68.4833 22.8833C68.5174 22.9262 68.5705 22.9929 68.5902 22.9795C68.6094 22.9665 68.5934 22.9351 68.5806 22.9156C68.5772 22.9105 68.5737 22.9055 68.5699 22.9007C68.547 22.8714 68.4602 22.8543 68.4833 22.8833Z" fill="white"/>
<path d="M68.2549 22.6285C68.3112 22.6992 68.3299 22.7228 68.3049 22.6914L68.2549 22.6285C68.2148 22.5782 68.2148 22.5782 68.2549 22.6285Z" fill="white"/>
<path d="M62.9495 15.9014C62.9848 15.8816 62.9189 15.9078 62.8872 15.933C62.8432 15.9681 62.7869 16.0128 62.8017 16.0011L62.8675 15.9487C62.8864 15.9336 62.9284 15.9133 62.9495 15.9014Z" fill="white"/>
<path d="M59.0922 26.7131C59.0913 26.7139 59.0903 26.7145 59.0892 26.715C59.0863 26.7163 59.0834 26.7176 59.0806 26.719C59.068 26.7253 59.0719 26.7293 59.0829 26.7205C59.083 26.7205 59.105 26.7029 59.0922 26.7131Z" fill="white"/>
<path d="M57.4917 24.3011C57.4978 24.3088 57.5032 24.3157 57.5081 24.3218C57.5333 24.3535 57.5228 24.328 57.4976 24.2963C57.4725 24.2647 57.4665 24.2695 57.4917 24.3011Z" fill="white"/>
<path d="M57.3227 24.0888C57.3288 24.0965 57.3343 24.1034 57.3392 24.1095C57.3644 24.1412 57.3539 24.1157 57.3287 24.084C57.3035 24.0524 57.2975 24.0572 57.3227 24.0888Z" fill="white"/>
<path d="M70.017 21.5473C70.0376 21.5709 70.0419 21.5667 70.0224 21.5422C69.9946 21.5072 69.9372 21.4351 69.9642 21.469C69.9737 21.481 69.9815 21.4944 69.989 21.5076C69.997 21.5218 70.0064 21.5351 70.017 21.5473Z" fill="white"/>
<path d="M63.0902 21.3332L64.1119 20.5197C64.3869 20.3007 64.159 20.4821 63.5932 20.9327C63.0273 21.3833 62.7853 21.5632 63.0902 21.3332Z" fill="white"/>
<path d="M64.088 17.7469C64.0855 17.7435 64.0818 17.7412 64.0778 17.7404L63.9992 17.7242C63.9897 17.7222 63.9681 17.7573 63.9741 17.765C64.017 17.8189 64.1474 17.8278 64.088 17.7469Z" fill="white"/>
<path d="M65.9668 16.4617C65.9667 16.4613 65.9664 16.4609 65.9662 16.4606C65.9632 16.4568 65.9596 16.4596 65.9628 16.4631C65.9671 16.4677 65.9691 16.4682 65.9668 16.4617Z" fill="white"/>
<path d="M66.3779 16.9941C66.4154 17.0413 66.428 17.057 66.3779 16.9941C66.3559 16.9665 66.3559 16.9665 66.3779 16.9941Z" fill="white"/>
<path d="M68.0561 22.4271C68.0872 22.4661 68.0997 22.4819 68.0877 22.4668C68.0875 22.4665 68.0873 22.4663 68.0872 22.466C68.0809 22.45 68.0722 22.4351 68.0615 22.4218C68.0604 22.4204 68.055 22.4257 68.0561 22.4271Z" fill="white"/>
<path d="M67.4581 15.5215C67.4588 15.5267 67.4605 15.5318 67.4631 15.5364C67.473 15.5538 67.4839 15.5706 67.4958 15.5866C67.5356 15.6405 67.5569 15.6275 67.541 15.5624C67.5386 15.5528 67.536 15.5422 67.5332 15.5305C67.532 15.5258 67.5302 15.5212 67.5277 15.5169C67.5249 15.5121 67.522 15.5073 67.5191 15.5025C67.4983 15.4683 67.4529 15.4818 67.4581 15.5215Z" fill="white"/>
<path d="M74.08 12.5555C74.0763 12.5508 74.0733 12.5455 74.0708 12.5401C74.0649 12.527 74.0574 12.5149 74.0485 12.5038C74.0338 12.4854 74.0284 12.4906 74.0431 12.5091C74.0701 12.543 74.0878 12.5653 74.08 12.5555Z" fill="white"/>
<path d="M69.6452 18.6532C69.6413 18.6705 69.6803 18.6919 69.6913 18.7058C69.7021 18.7193 69.7108 18.7302 69.7173 18.7384C69.7442 18.7722 69.702 18.6999 69.6708 18.6701C69.6696 18.669 69.6684 18.6678 69.6672 18.6667C69.6563 18.657 69.6483 18.6388 69.6452 18.6532Z" fill="white"/>
<path d="M71.2631 9.57772C71.2697 9.57701 71.276 9.57442 71.2813 9.57026L71.3251 9.53538C71.3428 9.52124 71.3403 9.51476 71.3177 9.51616C71.3009 9.51719 71.276 9.51873 71.2388 9.52102C71.2327 9.52139 71.2269 9.52362 71.2222 9.52738C71.1991 9.54576 71.2143 9.58288 71.2437 9.57977L71.2631 9.57772Z" fill="white"/>
<path d="M72.5343 11.5866C72.5589 11.5894 72.5683 11.5577 72.5458 11.5474C72.5133 11.5325 72.4837 11.5208 72.475 11.5226C72.4539 11.5271 72.4733 11.523 72.5192 11.5783C72.523 11.5829 72.5284 11.5859 72.5343 11.5866Z" fill="white"/>
<path d="M67.9335 16.6418C67.9412 16.6515 67.9478 16.6598 67.9534 16.6668C67.9724 16.6906 67.9614 16.6649 67.9425 16.6411C67.9416 16.64 67.9407 16.6389 67.9398 16.6378C67.9219 16.6167 67.9162 16.6201 67.9335 16.6418Z" fill="white"/>
<path d="M73.5609 12.1128C73.5599 12.1116 73.559 12.11 73.5584 12.1085C73.5525 12.0928 73.5484 12.0971 73.5588 12.1102C73.571 12.1255 73.5762 12.1321 73.5609 12.1128Z" fill="white"/>
<path d="M69.6487 21.1855C69.6574 21.1964 69.6336 21.1624 69.6269 21.1501C69.6237 21.1441 69.62 21.1382 69.616 21.1326C69.5944 21.1022 69.5876 21.1086 69.6108 21.1378C69.6339 21.1668 69.6475 21.1839 69.6487 21.1855Z" fill="white"/>
<path d="M63.6551 15.6743C63.6495 15.6749 63.6442 15.6771 63.6398 15.6806C63.6166 15.6991 63.6319 15.7364 63.6614 15.7333L63.6818 15.7311C63.6874 15.7305 63.6927 15.7284 63.6971 15.7248C63.7203 15.7064 63.705 15.669 63.6755 15.6721L63.6551 15.6743Z" fill="white"/>
<path d="M64.7051 15.7306C64.6865 15.7206 64.6608 15.7398 64.674 15.7562C64.6769 15.76 64.689 15.7725 64.6936 15.7736L64.7007 15.7752C64.7267 15.7811 64.7403 15.7504 64.7171 15.7372C64.7131 15.7349 64.7091 15.7327 64.7051 15.7306Z" fill="white"/>
<path d="M68.2026 17.0449C68.2024 17.0445 68.2022 17.0441 68.202 17.0438C68.199 17.04 68.1954 17.0428 68.1986 17.0463C68.2029 17.0509 68.2049 17.0514 68.2026 17.0449Z" fill="white"/>
<path d="M68.9755 20.4362C69.0002 20.4673 69.017 20.4883 69.0224 20.4951C69.0311 20.506 69.0104 20.4768 69.0037 20.4646C68.9971 20.4527 68.9895 20.4415 68.9811 20.4309C68.958 20.402 68.9525 20.4072 68.9755 20.4362Z" fill="white"/>
<path d="M74.9639 10.5522C74.965 10.5536 74.9659 10.5551 74.9666 10.5567C74.9695 10.5631 74.9727 10.5694 74.9763 10.5755C74.9848 10.59 74.9923 10.5834 74.9808 10.5712C74.9757 10.5659 74.9685 10.5579 74.9639 10.5522C74.9611 10.5487 74.9597 10.5469 74.9639 10.5522Z" fill="white"/>
</svg>
