<svg width="22" height="23" viewBox="0 0 22 23" fill="none" xmlns="http://www.w3.org/2000/svg">
<g clip-path="url(#clip0_688_13624)">
<path d="M9.53879 17.6713L3.66602 11.4997L9.53879 5.328C9.59183 5.25518 9.65922 5.19513 9.73639 5.1519C9.81355 5.10868 9.89871 5.0833 9.98607 5.07747C10.0734 5.07164 10.161 5.08551 10.2428 5.11813C10.3246 5.15075 10.3987 5.20136 10.4602 5.26654C10.5216 5.33172 10.569 5.40994 10.599 5.49591C10.629 5.58188 10.6411 5.6736 10.6342 5.76484C10.6274 5.85609 10.6019 5.94474 10.5595 6.02479C10.517 6.10484 10.4586 6.17443 10.3882 6.22883L5.99435 10.8608H17.6849C17.847 10.8608 18.0024 10.9281 18.117 11.0479C18.2316 11.1677 18.296 11.3302 18.296 11.4997C18.296 11.6691 18.2316 11.8316 18.117 11.9514C18.0024 12.0712 17.847 12.1386 17.6849 12.1386H5.99435L10.3882 16.7705C10.5025 16.8908 10.5664 17.0536 10.5658 17.2232C10.5652 17.3927 10.5003 17.5551 10.3852 17.6745C10.2701 17.794 10.1144 17.8608 9.95219 17.8602C9.79002 17.8596 9.63472 17.7916 9.52046 17.6713H9.53879Z" fill="white"/>
</g>
<defs>
<clipPath id="clip0_688_13624">
<rect width="23" height="22" fill="white" transform="matrix(0 1 1 0 0 0)"/>
</clipPath>
</defs>
</svg>
