<svg width="30" height="23" viewBox="0 0 30 23" fill="none" xmlns="http://www.w3.org/2000/svg">
<g clip-path="url(#clip0_684_13550)">
<path d="M16.9917 17.6713L25 11.4997L16.9917 5.328C16.9193 5.25518 16.8275 5.19513 16.7222 5.1519C16.617 5.10868 16.5009 5.0833 16.3817 5.07747C16.2626 5.07164 16.1432 5.08551 16.0317 5.11813C15.9201 5.15075 15.819 5.20136 15.7352 5.26654C15.6514 5.33172 15.5869 5.40994 15.5459 5.49591C15.505 5.58188 15.4886 5.6736 15.4979 5.76484C15.5072 5.85609 15.5419 5.94474 15.5998 6.02479C15.6577 6.10484 15.7373 6.17443 15.8333 6.22883L21.825 10.8608H5.88333C5.66232 10.8608 5.45036 10.9281 5.29408 11.0479C5.1378 11.1677 5.05 11.3302 5.05 11.4997C5.05 11.6691 5.1378 11.8316 5.29408 11.9514C5.45036 12.0712 5.66232 12.1386 5.88333 12.1386H21.825L15.8333 16.7705C15.6775 16.8908 15.5904 17.0536 15.5912 17.2232C15.592 17.3927 15.6806 17.5551 15.8375 17.6745C15.9944 17.794 16.2068 17.8608 16.4279 17.8602C16.6491 17.8596 16.8609 17.7916 17.0167 17.6713H16.9917Z" fill="white"/>
</g>
<defs>
<clipPath id="clip0_684_13550">
<rect width="23" height="30" fill="white" transform="matrix(0 1 -1 0 30 0)"/>
</clipPath>
</defs>
</svg>
