<svg width="23" height="24" viewBox="0 0 23 24" fill="none" xmlns="http://www.w3.org/2000/svg">
<path d="M12.0521 17.7617L16.5032 20.5818C17.0722 20.9422 17.7786 20.4061 17.6098 19.742L16.3237 14.683C16.2875 14.5421 16.2918 14.3939 16.3361 14.2553C16.3804 14.1167 16.4629 13.9935 16.5742 13.8997L20.5657 10.5775C21.0901 10.141 20.8194 9.27057 20.1456 9.22683L14.933 8.88853C14.7926 8.8785 14.6579 8.82879 14.5447 8.74519C14.4314 8.66159 14.3443 8.54754 14.2933 8.41632L12.3492 3.5206C12.2964 3.38132 12.2024 3.26142 12.0798 3.1768C11.9572 3.09219 11.8118 3.04687 11.6628 3.04688C11.5138 3.04688 11.3684 3.09219 11.2458 3.1768C11.1232 3.26142 11.0292 3.38132 10.9764 3.5206L9.03229 8.41632C8.98135 8.54754 8.89418 8.66159 8.78094 8.74519C8.66769 8.82879 8.53303 8.8785 8.39263 8.88853L3.18 9.22683C2.50617 9.27057 2.23547 10.141 2.75994 10.5775L6.75143 13.8997C6.86267 13.9935 6.94518 14.1167 6.98948 14.2553C7.03378 14.3939 7.03807 14.5421 7.00186 14.683L5.80921 19.3746C5.60661 20.1716 6.4543 20.815 7.13706 20.3824L11.2735 17.7617C11.3898 17.6877 11.5249 17.6483 11.6628 17.6483C11.8007 17.6483 11.9358 17.6877 12.0521 17.7617Z" fill="#FD8E1F"/>
</svg>
