<svg width="40" height="33" viewBox="0 0 40 33" fill="none" xmlns="http://www.w3.org/2000/svg">
<mask id="path-1-outside-1_4086_10820" maskUnits="userSpaceOnUse" x="-1" y="-2" width="42" height="36" fill="black">
<rect fill="white" x="-1" y="-2" width="42" height="36"/>
<path d="M0.288032 32.0226V21.5551C0.288032 17.5254 0.926892 13.7905 2.20461 10.3505C3.58062 6.91052 5.89034 3.51965 9.13378 0.177922L14.8835 4.45336C12.7212 6.81223 11.1486 9.02366 10.1658 11.0877C9.18292 13.0534 8.5932 15.0191 8.39663 16.9848H15.3258V32.0226H0.288032ZM24.7613 32.0226V21.5551C24.7613 17.5254 25.4001 13.7905 26.6778 10.3505C28.0538 6.91052 30.3636 3.51965 33.607 0.177922L39.3567 4.45336C37.1944 6.81223 35.6219 9.02366 34.639 11.0877C33.6561 13.0534 33.0664 15.0191 32.8699 16.9848H39.799V32.0226H24.7613Z"/>
</mask>
<path d="M0.288032 32.0226H-0.711968V33.0226H0.288032V32.0226ZM2.20461 10.3505L1.27613 9.97914L1.27151 9.99068L1.26719 10.0023L2.20461 10.3505ZM9.13378 0.177921L9.73048 -0.624538L9.02687 -1.14774L8.4162 -0.518555L9.13378 0.177921ZM14.8835 4.45336L15.6207 5.12909L16.3695 4.31217L15.4802 3.6509L14.8835 4.45336ZM10.1658 11.0877L11.0602 11.5349L11.0645 11.5263L11.0686 11.5176L10.1658 11.0877ZM8.39663 16.9848L7.40159 16.8853L7.29165 17.9848H8.39663V16.9848ZM15.3258 16.9848H16.3258V15.9848H15.3258V16.9848ZM15.3258 32.0226V33.0226H16.3258V32.0226H15.3258ZM24.7613 32.0226H23.7613V33.0226H24.7613V32.0226ZM26.6778 10.3505L25.7494 9.97914L25.7447 9.99068L25.7404 10.0023L26.6778 10.3505ZM33.607 0.177921L34.2037 -0.624538L33.5001 -1.14774L32.8894 -0.518555L33.607 0.177921ZM39.3567 4.45336L40.0939 5.12909L40.8427 4.31217L39.9534 3.6509L39.3567 4.45336ZM34.639 11.0877L35.5334 11.5349L35.5377 11.5263L35.5419 11.5176L34.639 11.0877ZM32.8699 16.9848L31.8748 16.8853L31.7649 17.9848H32.8699V16.9848ZM39.799 16.9848H40.799V15.9848H39.799V16.9848ZM39.799 32.0226V33.0226H40.799V32.0226H39.799ZM1.28803 32.0226V21.5551H-0.711968V32.0226H1.28803ZM1.28803 21.5551C1.28803 17.6326 1.90957 14.0169 3.14204 10.6987L1.26719 10.0023C-0.0557909 13.5642 -0.711968 17.4182 -0.711968 21.5551H1.28803ZM3.13309 10.7219C4.44996 7.42973 6.67625 4.14571 9.85136 0.874397L8.4162 -0.518555C5.10442 2.89358 2.71127 6.3913 1.27613 9.97914L3.13309 10.7219ZM8.53708 0.980385L14.2868 5.25583L15.4802 3.6509L9.73048 -0.624538L8.53708 0.980385ZM14.1464 3.77764C11.9416 6.18288 10.3018 8.47617 9.26292 10.6577L11.0686 11.5176C11.9955 9.57116 13.5009 7.44158 15.6207 5.12909L14.1464 3.77764ZM9.27135 10.6405C8.24018 12.7028 7.61156 14.7857 7.40159 16.8853L9.39167 17.0843C9.57485 15.2525 10.1257 13.404 11.0602 11.5349L9.27135 10.6405ZM8.39663 17.9848H15.3258V15.9848H8.39663V17.9848ZM14.3258 16.9848V32.0226H16.3258V16.9848H14.3258ZM15.3258 31.0226H0.288032V33.0226H15.3258V31.0226ZM25.7613 32.0226V21.5551H23.7613V32.0226H25.7613ZM25.7613 21.5551C25.7613 17.6326 26.3828 14.0169 27.6153 10.6987L25.7404 10.0023C24.4174 13.5642 23.7613 17.4182 23.7613 21.5551H25.7613ZM27.6063 10.7219C28.9232 7.42973 31.1495 4.14571 34.3246 0.874397L32.8894 -0.518555C29.5776 2.89358 27.1845 6.3913 25.7494 9.97914L27.6063 10.7219ZM33.0103 0.980385L38.76 5.25583L39.9534 3.6509L34.2037 -0.624538L33.0103 0.980385ZM38.6196 3.77764C36.4148 6.18288 34.775 8.47617 33.7361 10.6577L35.5419 11.5176C36.4688 9.57116 37.9741 7.44158 40.0939 5.12909L38.6196 3.77764ZM33.7446 10.6405C32.7134 12.7028 32.0848 14.7857 31.8748 16.8853L33.8649 17.0843C34.0481 15.2525 34.5989 13.404 35.5334 11.5349L33.7446 10.6405ZM32.8699 17.9848H39.799V15.9848H32.8699V17.9848ZM38.799 16.9848V32.0226H40.799V16.9848H38.799ZM39.799 31.0226H24.7613V33.0226H39.799V31.0226Z" fill="white" mask="url(#path-1-outside-1_4086_10820)"/>
</svg>
