<svg width="90" height="43" viewBox="0 0 90 43" fill="none" xmlns="http://www.w3.org/2000/svg">
<path d="M81.227 29.8405C79.9444 29.4923 79.1551 28.0864 79.8724 26.9677C80.595 25.8408 81.4181 25.4275 82.3877 25.6907C83.3684 25.957 83.8447 26.748 83.8501 28.1032C83.8553 29.4075 82.4858 30.1822 81.227 29.8405ZM89.0046 33.7636C88.9968 33.7615 88.9922 33.7534 88.9943 33.7456C89.849 30.5888 89.8165 27.9168 88.9664 25.7786C88.115 23.6372 86.2551 22.1393 83.6287 21.4263C78.2419 19.9639 73.8214 23.0393 72.0907 29.4146C71.1209 32.987 71.2822 35.9114 72.5763 38.0971C73.7507 40.0634 75.807 41.4429 78.7453 42.2355C80.6125 42.8098 82.5773 42.9634 84.4997 42.6933C85.4028 42.5663 86.0489 41.7958 86.1435 40.8887C86.2985 39.4022 84.9315 38.1968 83.4382 38.1363C82.5141 38.0988 81.5941 37.9513 80.6982 37.6943C79.7174 37.513 78.8397 36.9719 78.2371 36.1772C77.3529 34.6467 79.2109 33.4549 80.9167 33.9179L87.3336 35.66C87.9022 35.8143 88.468 35.5398 88.6501 34.9795C88.7987 34.5221 88.9477 34.0272 89.015 33.781C89.0172 33.7732 89.0124 33.7657 89.0046 33.7636ZM62.5447 31.1819C62.2349 31.5611 61.8237 31.8444 61.359 31.9987C60.8943 32.1531 60.3953 32.1722 59.9202 32.0537C58.8297 31.778 58.495 30.5184 58.7897 29.4328L60.4931 23.1579C60.7372 22.2587 61.2691 21.3867 62.1793 21.1881C62.6502 21.0853 63.1369 21.0789 63.6103 21.1693C65.22 21.6063 65.5393 23.5578 64.6193 26.9466C64.2943 28.5102 63.5809 29.9667 62.5447 31.1819ZM71.1087 20.3547C70.7567 19.4955 70.2019 18.7343 69.4916 18.1362C68.7814 17.5382 67.9369 17.121 67.0304 16.9203C66.0799 16.6804 65.0889 16.6483 64.1249 16.8262C63.6568 16.9125 63.2004 17.0474 62.7629 17.2278C62.2169 17.4529 61.5357 17.0391 61.5946 16.4515C61.6283 16.1158 61.4144 15.8051 61.0888 15.7167L59.1047 15.1781C57.4434 14.7271 55.731 15.7082 55.28 17.3696L49.7289 37.8179C49.1963 39.7797 50.5515 41.7506 52.574 41.9556L52.8442 41.983C54.2907 42.1296 55.6309 41.2081 56.0118 39.805L56.297 38.7545C56.6828 37.3334 58.3605 36.7027 59.776 37.1086C60.8222 37.4185 61.9216 37.5065 63.0038 37.3669C64.086 37.2273 65.1271 36.8632 66.0604 36.2979C68.275 34.8979 69.9273 32.246 70.9584 28.4477C71.8996 25.0646 71.958 22.3363 71.1087 20.3547ZM46.3737 15.1332C46.85 13.3785 48.6586 12.3423 50.4132 12.8186C52.1678 13.2949 53.2041 15.1035 52.7278 16.8581L49.0632 30.3571C48.5869 32.1118 46.7783 33.148 45.0237 32.6717C43.269 32.1954 42.2327 30.3868 42.7091 28.6321L46.3737 15.1332ZM50.946 10.8559C51.6078 11.037 52.3085 11.0178 52.9593 10.8006C53.6102 10.5833 54.182 10.1779 54.6023 9.63561C55.0227 9.0933 55.2727 8.43847 55.3207 7.75401C55.3687 7.06955 55.2126 6.38623 54.8721 5.79053C54.5316 5.19483 54.0221 4.71353 53.4079 4.40755C52.7938 4.10157 52.1027 3.98467 51.4221 4.07164C50.7415 4.1586 50.1019 4.44553 49.5845 4.8961C49.067 5.34667 48.6948 5.94063 48.5151 6.60281C48.3939 7.0417 48.3608 7.50021 48.4175 7.95197C48.4743 8.40372 48.6198 8.83979 48.8457 9.23508C49.0717 9.63037 49.3736 9.97707 49.734 10.2552C50.0945 10.5334 50.5064 10.7375 50.946 10.8559ZM44.5716 10.9371C43.7514 10.671 42.8662 10.6837 42.054 10.9733C41.8925 11.0309 41.7357 11.0988 41.5845 11.1763C41.1242 11.4122 40.2367 11.0115 40.2891 10.4969C40.3135 10.2574 40.1609 10.0354 39.9285 9.97231L37.8037 9.39548C36.1583 8.9488 34.4623 9.92057 34.0156 11.566L30.2974 25.2627C29.821 27.0174 30.8573 28.8259 32.6119 29.3023C34.3666 29.7786 36.1752 28.7423 36.6515 26.9877L38.3663 20.671C38.9616 18.4782 40.4345 16.2987 42.6535 16.7873C42.7964 16.8187 42.942 16.8547 43.0906 16.8951C43.6847 17.0402 44.3378 16.7408 44.498 16.1505L45.444 12.6657C45.6409 11.9407 45.3229 11.1485 44.5998 10.9448L44.5716 10.9371ZM29.5941 12.1914C30.4603 12.4185 31.3641 11.9884 31.7343 11.173L32.2026 10.1411C32.6891 9.06922 32.0997 7.81669 30.9638 7.50831C29.9457 7.23194 29.3445 6.18262 29.6209 5.16458L29.8269 4.40545C30.263 2.79907 29.154 1.18509 27.498 1.01624L27.1263 0.978326C25.8428 0.847448 24.6183 1.54804 24.0808 2.72087L23.296 4.43324C23.0466 4.97741 22.4779 5.30187 21.8825 5.23966C21.2846 5.17717 20.7139 5.50468 20.4661 6.05244L19.5888 7.99229C19.272 8.6927 19.6574 9.51026 20.3992 9.71166C21.0647 9.89231 21.4577 10.5782 21.277 11.2436L19.0934 19.2875C18.4436 21.6809 18.6074 23.5068 19.5792 24.8697C20.396 25.9936 21.7886 26.8113 23.9067 27.3863C24.4238 27.5289 24.9491 27.6374 25.4791 27.7113C26.579 27.8647 27.55 27.0895 27.841 26.0179L28.186 24.7471C28.4408 23.8084 27.7276 22.8846 26.7789 22.6702C25.5292 22.3309 25.1651 21.5499 25.5676 20.0672L27.3537 13.488C27.6181 12.5142 28.618 11.9355 29.5941 12.1914ZM12.2412 10.476C12.2333 10.4787 12.2244 10.4772 12.2176 10.4723C10.5595 9.26669 9.6801 8.47501 9.90959 7.62964C10.1013 6.92363 10.8003 6.66616 11.8452 6.94982C12.6288 7.20161 13.3844 7.52653 14.1024 7.91901C15.4846 8.67457 17.3655 8.30346 18.0173 6.86938C18.4473 5.92317 18.202 4.79035 17.3331 4.22C15.9468 3.31002 14.4185 2.62921 12.8066 2.20772C10.9611 1.61349 8.96584 1.68323 7.1663 2.40488C6.35058 2.78575 5.6325 3.3477 5.06671 4.04795C4.50092 4.7482 4.10234 5.56829 3.9013 6.44581C2.95832 9.9194 4.6777 11.9629 7.78189 14.1549C9.78411 15.5475 10.3721 16.3135 10.1363 17.1819C9.9006 18.0503 9.07001 18.3176 7.76388 17.963C6.74414 17.6098 5.77021 17.1453 4.85888 16.5801C3.49148 15.732 1.54872 16.086 0.887134 17.5527C0.476906 18.4622 0.689692 19.5462 1.49347 20.1373C3.09465 21.3147 4.90344 22.1895 6.83074 22.7128C8.73516 23.3406 10.7949 23.3126 12.6816 22.6334C13.571 22.2391 14.3537 21.6387 14.9651 20.882C15.5765 20.1253 15.999 19.234 16.1978 18.2816C17.155 14.7556 15.392 12.6693 12.2644 10.4794C12.2576 10.4747 12.249 10.4734 12.2412 10.476Z" fill="white"/>
</svg>
