<svg width="32" height="23" viewBox="0 0 32 23" fill="none" xmlns="http://www.w3.org/2000/svg">
<path d="M31.0756 4.73988C30.7349 2.85718 29.5843 1.64862 27.7853 1.31958C27.043 1.1833 26.2871 1.084 25.5332 1.04993C22.3358 0.905371 19.137 0.791961 15.9386 0.66687C15.9376 0.699968 15.9367 0.733066 15.9357 0.766164C15.2002 0.766164 14.4643 0.755456 13.7293 0.768111C10.6799 0.819219 7.63002 0.852803 4.59668 1.23148C2.71009 1.46658 1.40321 2.58851 1.01041 4.45368C0.790891 5.49529 0.671154 6.56319 0.584515 7.62574C0.399069 9.89831 0.353316 12.1782 0.514912 14.4542C0.61518 15.8618 0.743678 17.2738 0.977798 18.6644C1.28493 20.4858 2.54022 21.69 4.30756 21.9523C5.35404 22.1076 6.41075 22.24 7.46697 22.2746C10.7091 22.3797 13.9532 22.477 17.1968 22.4931C20.4302 22.5097 23.6651 22.4327 26.8858 22.0945C27.7162 22.0069 28.5344 21.8745 29.2601 21.4096C30.4604 20.6411 31.0065 19.486 31.1374 18.1295C31.3141 16.294 31.4932 14.4542 31.5536 12.6128C31.6407 9.97814 31.5463 7.34441 31.0756 4.73988ZM12.9174 16.2814V6.97741C15.6179 8.52961 18.29 10.0657 21.0094 11.6291C18.2939 13.1906 15.6222 14.7262 12.9174 16.2814Z" fill="#555555"/>
</svg>
