<svg width="73" height="73" viewBox="0 0 73 73" fill="none" xmlns="http://www.w3.org/2000/svg">
<path opacity="0.1" d="M61.5717 13.6282C54.8626 6.91904 45.7631 3.1499 36.275 3.1499C26.7869 3.1499 17.6874 6.91904 10.9783 13.6282C4.26914 20.3373 0.5 29.4368 0.5 38.9249C0.5 48.413 4.26914 57.5125 10.9783 64.2216L36.275 38.9249L61.5717 13.6282Z" fill="#1DBF73"/>
<path d="M13.5695 32.3251C13.5695 27.1294 14.4405 23.0749 16.1824 20.1616C17.9544 17.2184 20.9877 15.7467 25.2825 15.7467C29.5773 15.7467 32.5956 17.2184 34.3376 20.1616C36.1095 23.0749 36.9955 27.1294 36.9955 32.3251C36.9955 37.581 36.1095 41.6955 34.3376 44.6688C32.5956 47.6121 29.5773 49.0837 25.2825 49.0837C20.9877 49.0837 17.9544 47.6121 16.1824 44.6688C14.4405 41.6955 13.5695 37.581 13.5695 32.3251ZM31.9499 32.3251C31.9499 29.8924 31.7847 27.8351 31.4544 26.1533C31.154 24.4714 30.5233 23.1049 29.5623 22.0537C28.6012 20.9725 27.1746 20.4319 25.2825 20.4319C23.3904 20.4319 21.9638 20.9725 21.0028 22.0537C20.0417 23.1049 19.396 24.4714 19.0656 26.1533C18.7653 27.8351 18.6151 29.8924 18.6151 32.3251C18.6151 34.8479 18.7653 36.9653 19.0656 38.6772C19.3659 40.3891 19.9966 41.7706 20.9577 42.8218C21.9488 43.8729 23.3904 44.3985 25.2825 44.3985C27.1746 44.3985 28.6012 43.8729 29.5623 42.8218C30.5534 41.7706 31.1991 40.3891 31.4994 38.6772C31.7997 36.9653 31.9499 34.8479 31.9499 32.3251ZM41.7539 21.0176V16.3324H51.1243V49.1738H45.9436V21.0176H41.7539Z" fill="#1DBF73"/>
</svg>
