<svg width="72" height="73" viewBox="0 0 72 73" fill="none" xmlns="http://www.w3.org/2000/svg">
<path opacity="0.1" d="M61.3725 13.6282C54.6634 6.91904 45.5639 3.1499 36.0758 3.1499C26.5877 3.1499 17.4881 6.91904 10.779 13.6282C4.06992 20.3373 0.300781 29.4368 0.300781 38.9249C0.300782 48.413 4.06992 57.5125 10.779 64.2216L36.0758 38.9249L61.3725 13.6282Z" fill="#1DBF73"/>
<path d="M4.62874 32.5504C4.62874 27.3846 5.46968 23.3602 7.15154 20.477C8.83341 17.5637 11.7767 16.1071 15.9813 16.1071C20.156 16.1071 23.0842 17.5637 24.7661 20.477C26.448 23.3602 27.2889 27.3846 27.2889 32.5504C27.2889 37.8062 26.448 41.8907 24.7661 44.804C23.0842 47.7172 20.156 49.1738 15.9813 49.1738C11.7767 49.1738 8.83341 47.7172 7.15154 44.804C5.46968 41.8907 4.62874 37.8062 4.62874 32.5504ZM23.2344 32.5504C23.2344 29.9375 23.0542 27.73 22.6938 25.928C22.3634 24.096 21.6576 22.6244 20.5764 21.5131C19.5253 20.4019 17.9936 19.8463 15.9813 19.8463C13.9391 19.8463 12.3773 20.4019 11.2961 21.5131C10.245 22.6244 9.53919 24.096 9.17879 25.928C8.84843 27.73 8.68324 29.9375 8.68324 32.5504C8.68324 35.2534 8.84843 37.5209 9.17879 39.3529C9.53919 41.185 10.245 42.6566 11.2961 43.7678C12.3773 44.8791 13.9391 45.4347 15.9813 45.4347C17.9936 45.4347 19.5253 44.8791 20.5764 43.7678C21.6576 42.6566 22.3634 41.185 22.6938 39.3529C23.0542 37.5209 23.2344 35.2534 23.2344 32.5504ZM32.8269 24.8018C33.0371 22.0387 34.1033 19.8763 36.0254 18.3146C37.9476 16.7528 40.4403 15.972 43.5037 15.972C45.546 15.972 47.3029 16.3474 48.7746 17.0982C50.2762 17.819 51.4025 18.8101 52.1533 20.0715C52.9342 21.3329 53.3246 22.7595 53.3246 24.3513C53.3246 26.2133 52.784 27.8201 51.7028 29.1716C50.6517 30.5231 49.2701 31.3941 47.5582 31.7845V32.0098C49.5104 32.4903 51.0571 33.4364 52.1984 34.8479C53.3396 36.2595 53.9103 38.1065 53.9103 40.3891C53.9103 42.101 53.5198 43.6477 52.739 45.0292C51.9581 46.3807 50.7868 47.4469 49.2251 48.2278C47.6633 49.0086 45.7863 49.3991 43.5938 49.3991C40.4103 49.3991 37.7974 48.5732 35.7551 46.9213C33.7129 45.2395 32.5716 42.8668 32.3313 39.8034H36.2957C36.506 41.6054 37.2418 43.0771 38.5032 44.2183C39.7646 45.3596 41.4464 45.9302 43.5488 45.9302C45.6511 45.9302 47.2429 45.3896 48.3241 44.3084C49.4353 43.1972 49.9909 41.7706 49.9909 40.0287C49.9909 37.7762 49.2401 36.1544 47.7384 35.1633C46.2368 34.1722 43.9692 33.6766 40.9359 33.6766H39.8997V30.2528H40.9809C43.744 30.2228 45.8313 29.7723 47.2429 28.9013C48.6544 28.0003 49.3602 26.6188 49.3602 24.7567C49.3602 23.165 48.8346 21.8885 47.7835 20.9275C46.7623 19.9664 45.2907 19.4859 43.3686 19.4859C41.5065 19.4859 40.0048 19.9664 38.8636 20.9275C37.7223 21.8885 37.0466 23.18 36.8363 24.8018H32.8269Z" fill="#1DBF73"/>
</svg>
