<svg width="73" height="73" viewBox="0 0 73 73" fill="none" xmlns="http://www.w3.org/2000/svg">
<path opacity="0.1" d="M10.9751 13.8265C17.6842 7.1174 26.7838 3.34827 36.2719 3.34827C45.76 3.34827 54.8595 7.11741 61.5686 13.8265C68.2777 20.5356 72.0469 29.6351 72.0469 39.1233C72.0469 48.6114 68.2777 57.7109 61.5686 64.42L36.2719 39.1233L10.9751 13.8265Z" fill="#1DBF73"/>
<path d="M0.198167 32.5235C0.198167 27.3277 1.06913 23.2732 2.81107 20.36C4.58303 17.4167 7.6164 15.9451 11.9112 15.9451C16.2059 15.9451 19.2243 17.4167 20.9662 20.36C22.7382 23.2732 23.6242 27.3277 23.6242 32.5235C23.6242 37.7793 22.7382 41.8939 20.9662 44.8672C19.2243 47.8105 16.2059 49.2821 11.9112 49.2821C7.6164 49.2821 4.58303 47.8105 2.81107 44.8672C1.06913 41.8939 0.198167 37.7793 0.198167 32.5235ZM18.5786 32.5235C18.5786 30.0908 18.4134 28.0335 18.083 26.3516C17.7827 24.6698 17.152 23.3033 16.1909 22.2521C15.2299 21.1709 13.8033 20.6303 11.9112 20.6303C10.0191 20.6303 8.59248 21.1709 7.63142 22.2521C6.67035 23.3033 6.02463 24.6698 5.69427 26.3516C5.39393 28.0335 5.24377 30.0908 5.24377 32.5235C5.24377 35.0463 5.39393 37.1636 5.69427 38.8755C5.9946 40.5874 6.6253 41.969 7.58637 43.0201C8.57747 44.0713 10.0191 44.5969 11.9112 44.5969C13.8033 44.5969 15.2299 44.0713 16.1909 43.0201C17.182 41.969 17.8277 40.5874 18.1281 38.8755C18.4284 37.1636 18.5786 35.0463 18.5786 32.5235ZM28.4276 42.5246V38.6503L43.5644 16.9362H49.7813V38.0646H53.971V42.5246H49.7813V49.3722H44.7357V42.5246H28.4276ZM44.961 22.162L34.3292 38.0646H44.961V22.162Z" fill="#1DBF73"/>
</svg>
