<svg width="73" height="73" viewBox="0 0 73 73" fill="none" xmlns="http://www.w3.org/2000/svg">
<path opacity="0.1" d="M61.9702 13.8265C55.2611 7.1174 46.1615 3.34827 36.6734 3.34827C27.1853 3.34827 18.0858 7.11741 11.3767 13.8265C4.66758 20.5356 0.898437 29.6351 0.898438 39.1233C0.898438 48.6114 4.66758 57.7109 11.3767 64.42L36.6734 39.1233L61.9702 13.8265Z" fill="#1DBF73"/>
<path d="M1.32068 32.5235C1.32068 27.3277 2.19164 23.2732 3.93358 20.36C5.70554 17.4167 8.73891 15.9451 13.0337 15.9451C17.3284 15.9451 20.3468 17.4167 22.0887 20.36C23.8607 23.2732 24.7467 27.3277 24.7467 32.5235C24.7467 37.7793 23.8607 41.8939 22.0887 44.8672C20.3468 47.8105 17.3284 49.2821 13.0337 49.2821C8.73891 49.2821 5.70554 47.8105 3.93358 44.8672C2.19164 41.8939 1.32068 37.7793 1.32068 32.5235ZM19.7011 32.5235C19.7011 30.0908 19.5359 28.0335 19.2055 26.3516C18.9052 24.6698 18.2745 23.3033 17.3134 22.2521C16.3524 21.1709 14.9258 20.6303 13.0337 20.6303C11.1416 20.6303 9.71499 21.1709 8.75393 22.2521C7.79286 23.3033 7.14714 24.6698 6.81678 26.3516C6.51644 28.0335 6.36628 30.0908 6.36628 32.5235C6.36628 35.0463 6.51644 37.1636 6.81678 38.8755C7.11711 40.5874 7.74781 41.969 8.70888 43.0201C9.69998 44.0713 11.1416 44.5969 13.0337 44.5969C14.9258 44.5969 16.3524 44.0713 17.3134 43.0201C18.3045 41.969 18.9502 40.5874 19.2506 38.8755C19.5509 37.1636 19.7011 35.0463 19.7011 32.5235ZM51.3543 20.9456H36.2626V29.9106C36.8933 29.0697 37.8243 28.3639 39.0557 27.7932C40.3171 27.2226 41.6536 26.9373 43.0651 26.9373C45.5879 26.9373 47.6302 27.4779 49.1919 28.5591C50.7837 29.6403 51.9099 31.0068 52.5707 32.6586C53.2614 34.3105 53.6068 36.0524 53.6068 37.8844C53.6068 40.1069 53.1713 42.0891 52.3004 43.831C51.4594 45.5429 50.183 46.8944 48.4711 47.8855C46.7893 48.8766 44.717 49.3722 42.2542 49.3722C38.9806 49.3722 36.3527 48.5613 34.3705 46.9395C32.3883 45.3177 31.202 43.1703 30.8115 40.4973H35.8121C36.1424 41.9089 36.8783 43.0352 38.0195 43.8761C39.1608 44.687 40.5874 45.0924 42.2993 45.0924C44.4316 45.0924 46.0234 44.4467 47.0746 43.1553C48.1558 41.8639 48.6964 40.152 48.6964 38.0196C48.6964 35.8572 48.1558 34.2054 47.0746 33.0641C45.9934 31.8928 44.4016 31.3071 42.2993 31.3071C40.8276 31.3071 39.5813 31.6826 38.5601 32.4334C37.569 33.1542 36.8482 34.1453 36.3977 35.4067H31.5323V16.4406H51.3543V20.9456Z" fill="#1DBF73"/>
</svg>
