<svg width="72" height="73" viewBox="0 0 72 73" fill="none" xmlns="http://www.w3.org/2000/svg">
<path opacity="0.1" d="M10.7798 13.8265C17.4889 7.1174 26.5885 3.34827 36.0766 3.34827C45.5647 3.34827 54.6642 7.11741 61.3733 13.8265C68.0824 20.5356 71.8516 29.6351 71.8516 39.1233C71.8516 48.6114 68.0824 57.7109 61.3733 64.42L36.0766 39.1233L10.7798 13.8265Z" fill="#1DBF73"/>
<path d="M0.591039 32.5235C0.591039 27.3277 1.46201 23.2732 3.20394 20.36C4.97591 17.4167 8.00927 15.9451 12.304 15.9451C16.5988 15.9451 19.6172 17.4167 21.3591 20.36C23.1311 23.2732 24.017 27.3277 24.017 32.5235C24.017 37.7793 23.1311 41.8939 21.3591 44.8672C19.6172 47.8105 16.5988 49.2821 12.304 49.2821C8.00927 49.2821 4.97591 47.8105 3.20394 44.8672C1.46201 41.8939 0.591039 37.7793 0.591039 32.5235ZM18.9714 32.5235C18.9714 30.0908 18.8063 28.0335 18.4759 26.3516C18.1756 24.6698 17.5449 23.3033 16.5838 22.2521C15.6227 21.1709 14.1961 20.6303 12.304 20.6303C10.4119 20.6303 8.98536 21.1709 8.02429 22.2521C7.06322 23.3033 6.41751 24.6698 6.08714 26.3516C5.78681 28.0335 5.63664 30.0908 5.63664 32.5235C5.63664 35.0463 5.78681 37.1636 6.08714 38.8755C6.38747 40.5874 7.01817 41.969 7.97924 43.0201C8.97034 44.0713 10.4119 44.5969 12.304 44.5969C14.1961 44.5969 15.6227 44.0713 16.5838 43.0201C17.5749 41.969 18.2206 40.5874 18.5209 38.8755C18.8213 37.1636 18.9714 35.0463 18.9714 32.5235ZM47.1108 24.1442C46.7804 22.7627 46.1798 21.7265 45.3088 21.0357C44.4378 20.345 43.2215 19.9996 41.6597 19.9996C39.2871 19.9996 37.5151 20.9156 36.3438 22.7476C35.1725 24.5496 34.5569 27.553 34.4968 31.7576C35.2777 30.4362 36.4189 29.415 37.9206 28.6942C39.4223 27.9734 41.0441 27.613 42.786 27.613C44.7682 27.613 46.5101 28.0485 48.0118 28.9195C49.5435 29.7604 50.7298 30.9918 51.5707 32.6136C52.4417 34.2354 52.8772 36.1725 52.8772 38.425C52.8772 40.5274 52.4567 42.4045 51.6158 44.0563C50.8049 45.7081 49.5885 47.0146 47.9667 47.9756C46.3449 48.9067 44.3928 49.3722 42.1102 49.3722C39.0168 49.3722 36.5841 48.6964 34.8121 47.3449C33.0702 45.9634 31.8388 44.0263 31.118 41.5335C30.4273 39.0407 30.0819 35.9323 30.0819 32.2081C30.0819 21.2159 33.9562 15.7198 41.7048 15.7198C44.7081 15.7198 47.0657 16.5307 48.7776 18.1525C50.5196 19.7743 51.5407 21.7716 51.841 24.1442H47.1108ZM41.6597 31.9378C39.8277 31.9378 38.266 32.4935 36.9745 33.6047C35.7131 34.6859 35.0824 36.2626 35.0824 38.3349C35.0824 40.4072 35.6681 42.0591 36.8394 43.2904C38.0407 44.4918 39.7076 45.0924 41.8399 45.0924C43.732 45.0924 45.2187 44.5068 46.2999 43.3355C47.4111 42.1642 47.9667 40.6025 47.9667 38.6503C47.9667 36.608 47.4261 34.9862 46.3449 33.7849C45.2938 32.5535 43.732 31.9378 41.6597 31.9378Z" fill="#1DBF73"/>
</svg>
