<svg width="16" height="12" viewBox="0 0 16 12" fill="none" xmlns="http://www.w3.org/2000/svg">
<path d="M9.38435 11.8227L15.1602 6.02956L9.38435 0.236381C9.33219 0.16803 9.26592 0.11166 9.19002 0.0710875C9.11413 0.0305151 9.03039 0.00668731 8.94446 0.00121698C8.85853 -0.00425336 8.77243 0.00876185 8.69199 0.0393811C8.61154 0.0700003 8.53863 0.117509 8.47818 0.17869C8.41773 0.239872 8.37117 0.313298 8.34163 0.393998C8.3121 0.474699 8.30029 0.560788 8.307 0.646439C8.31371 0.732091 8.33878 0.815304 8.38052 0.890445C8.42226 0.965586 8.4797 1.0309 8.54894 1.08197L12.8703 5.42986L1.37276 5.42986C1.21336 5.42986 1.06048 5.49304 0.947772 5.60551C0.835058 5.71797 0.771736 5.87051 0.771736 6.02956C0.771736 6.18862 0.835058 6.34116 0.947772 6.45362C1.06048 6.56609 1.21336 6.62927 1.37276 6.62927L12.8703 6.62927L8.54894 10.9772C8.43656 11.0901 8.37374 11.2429 8.37431 11.4021C8.37487 11.5612 8.43877 11.7136 8.55194 11.8257C8.66511 11.9379 8.8183 12.0006 8.97778 12C9.13727 11.9994 9.29001 11.9357 9.40238 11.8227H9.38435Z" fill="white"/>
</svg>
