<svg width="22" height="28" viewBox="0 0 22 28" fill="none" xmlns="http://www.w3.org/2000/svg">
<path d="M16.5 12C16.5 12.5523 16.0383 13 15.4688 13H6.53125C5.96171 13 5.5 12.5523 5.5 12C5.5 11.4477 5.96171 11 6.53125 11H15.4688C16.0383 11 16.5 11.4477 16.5 12Z" fill="white"/>
<path d="M13.75 17.334C13.75 17.8863 13.2883 18.334 12.7187 18.334H6.53125C5.96171 18.334 5.5 17.8863 5.5 17.334C5.5 16.7817 5.96171 16.334 6.53125 16.334H12.7187C13.2883 16.334 13.75 16.7817 13.75 17.334Z" fill="white"/>
<path fill-rule="evenodd" clip-rule="evenodd" d="M8.25 0C6.73122 0 5.5 1.19391 5.5 2.66667H2.75C1.23122 2.66667 0 3.86057 0 5.33333V25.3333C0 26.8061 1.23122 28 2.75 28H19.25C20.7688 28 22 26.8061 22 25.3333V5.33333C22 3.86057 20.7688 2.66667 19.25 2.66667H16.5C16.5 1.19391 15.2688 0 13.75 0H8.25ZM14.4375 2.66667C14.4375 2.29848 14.1296 2 13.75 2H8.25C7.87031 2 7.5625 2.29848 7.5625 2.66667V4.66667C7.5625 5.03485 7.87031 5.33333 8.25 5.33333H13.75C14.1296 5.33333 14.4375 5.03485 14.4375 4.66667V2.66667ZM16.5 4.66667C16.5 6.13943 15.2688 7.33333 13.75 7.33333H8.25C6.73122 7.33333 5.5 6.13943 5.5 4.66667H2.75C2.37031 4.66667 2.0625 4.96515 2.0625 5.33333V25.3333C2.0625 25.7015 2.37031 26 2.75 26H19.25C19.6296 26 19.9375 25.7015 19.9375 25.3333V5.33333C19.9375 4.96515 19.6296 4.66667 19.25 4.66667H16.5Z" fill="white"/>
</svg>
