<svg width="28" height="32" viewBox="0 0 28 32" fill="none" xmlns="http://www.w3.org/2000/svg">
<path fill-rule="evenodd" clip-rule="evenodd" d="M18.4271 25.6667V16.76H21.4253L21.8739 13.2893H18.426V11.0732C18.426 10.0681 18.7062 9.38275 20.1522 9.38275H21.995V6.27775C21.1026 6.18304 20.2056 6.13697 19.3081 6.13975C16.6513 6.13975 14.8327 7.7578 14.8327 10.7282V13.2893H11.8253V16.76H14.8316V25.6667H3.87318C3.16976 25.6667 2.6001 25.0986 2.6001 24.3971V3.93635C2.6001 3.23485 3.16976 2.66675 3.87318 2.66675H24.3901C25.0935 2.66675 25.6632 3.23485 25.6632 3.93635V24.3971C25.6632 25.0986 25.0935 25.6667 24.3901 25.6667H18.4271Z" fill="black"/>
</svg>
