<svg width="28" height="27" viewBox="0 0 28 27" fill="none" xmlns="http://www.w3.org/2000/svg">
<g clip-path="url(#clip0_114_1710)">
<path d="M9.96463 1.22363C7.3043 2.14653 5.01002 3.89821 3.41881 6.2214C1.8276 8.54458 1.02331 11.3168 1.1241 14.1309C1.22488 16.9449 2.22542 19.6525 3.97876 21.8559C5.73209 24.0593 8.14579 25.6424 10.8653 26.3726C13.0701 26.9415 15.3801 26.9665 17.5967 26.4454C19.6047 25.9944 21.4611 25.0296 22.9843 23.6455C24.5695 22.161 25.7202 20.2725 26.3125 18.1831C26.9561 15.9108 27.0707 13.5213 26.6474 11.1979H14.2664V16.3338H21.4366C21.2933 17.153 20.9862 17.9348 20.5338 18.6324C20.0813 19.3301 19.4927 19.9294 18.8032 20.3943C17.9277 20.9737 16.9407 21.3634 15.9055 21.5383C14.8674 21.7314 13.8026 21.7314 12.7645 21.5383C11.7123 21.321 10.7169 20.8868 9.8419 20.2632C8.43603 19.268 7.38042 17.8542 6.82569 16.2236C6.26174 14.5623 6.26174 12.7614 6.82569 11.1002C7.22056 9.93573 7.87332 8.87552 8.73527 7.99867C9.72165 6.97679 10.9705 6.24635 12.3446 5.88748C13.7188 5.52861 15.1653 5.55518 16.5254 5.96429C17.588 6.29029 18.5596 6.86016 19.3627 7.6284C20.1712 6.82408 20.9783 6.01768 21.784 5.20919C22.2001 4.77444 22.6535 4.36049 23.0633 3.91534C21.8371 2.77442 20.3979 1.88658 18.8281 1.30268C15.9694 0.264663 12.8414 0.236768 9.96463 1.22363Z" fill="white"/>
<path d="M9.9647 1.22357C12.8413 0.23604 15.9692 0.263201 18.8282 1.30054C20.3983 1.88841 21.8368 2.78052 23.0613 3.92569C22.6453 4.37084 22.2064 4.78687 21.782 5.21954C20.9749 6.02525 20.1685 6.82818 19.3628 7.62835C18.5596 6.8601 17.588 6.29024 16.5255 5.96423C15.1658 5.55369 13.7194 5.52558 12.3448 5.88298C10.9703 6.24038 9.72072 6.96948 8.73325 7.99029C7.87131 8.86715 7.21855 9.92736 6.82368 11.0918L2.51154 7.75315C4.05502 4.69235 6.72747 2.35106 9.9647 1.22357Z" fill="#E33629"/>
<path d="M1.36737 11.0601C1.59897 9.91143 1.98377 8.79901 2.51145 7.75271L6.82359 11.0997C6.25964 12.7609 6.25964 14.5618 6.82359 16.2231C5.3869 17.3325 3.94952 18.4474 2.51145 19.5679C1.19087 16.9393 0.788115 13.9443 1.36737 11.0601Z" fill="#F8BD00"/>
<path d="M14.2664 11.1955H26.6475C27.0707 13.5189 26.9562 15.9084 26.3126 18.1806C25.7202 20.2701 24.5696 22.1586 22.9843 23.6431C21.5927 22.5572 20.1948 21.4797 18.8032 20.3939C19.4932 19.9285 20.082 19.3286 20.5346 18.6302C20.9871 17.9318 21.2939 17.1492 21.4367 16.3293H14.2664C14.2643 14.6194 14.2664 12.9074 14.2664 11.1955Z" fill="#587DBD"/>
<path d="M2.50946 19.5685C3.94753 18.4591 5.38492 17.3441 6.8216 16.2236C7.37743 17.8549 8.43456 19.2687 9.84197 20.2633C10.7197 20.8839 11.7172 21.3147 12.7708 21.528C13.8089 21.7211 14.8737 21.7211 15.9118 21.528C16.947 21.353 17.934 20.9633 18.8095 20.3839C20.2011 21.4698 21.599 22.5473 22.9906 23.6331C21.4677 25.0179 19.6112 25.9834 17.603 26.4351C15.3864 26.9562 13.0764 26.9312 10.8716 26.3623C9.12786 25.8967 7.49906 25.0759 6.08731 23.9514C4.5932 22.7649 3.37279 21.2699 2.50946 19.5685Z" fill="#319F43"/>
</g>
<defs>
<clipPath id="clip0_114_1710">
<rect width="26.6259" height="26.6259" fill="white" transform="translate(0.689331 0.347862)"/>
</clipPath>
</defs>
</svg>
