<svg width="32" height="32" viewBox="0 0 32 32" fill="none" xmlns="http://www.w3.org/2000/svg">
<path d="M0 16C0 24.8366 7.16344 32 16 32C24.8366 32 32 24.8366 32 16C32 7.16344 24.8366 0 16 0C7.16344 0 0 7.16344 0 16Z" fill="#1DBF73"/>
<path d="M15.9992 9.2002C18.1992 9.2002 18.4992 9.2002 19.3992 9.2002C20.1992 9.2002 20.5992 9.4002 20.8992 9.5002C21.2992 9.7002 21.5992 9.8002 21.8992 10.1002C22.1992 10.4002 22.3992 10.7002 22.4992 11.1002C22.5992 11.4002 22.6992 11.8002 22.7992 12.6002C22.7992 13.5002 22.7992 13.7002 22.7992 16.0002C22.7992 18.3002 22.7992 18.5002 22.7992 19.4002C22.7992 20.2002 22.5992 20.6002 22.4992 20.9002C22.2992 21.3002 22.1992 21.6002 21.8992 21.9002C21.5992 22.2002 21.2992 22.4002 20.8992 22.5002C20.5992 22.6002 20.1992 22.7002 19.3992 22.8002C18.4992 22.8002 18.2992 22.8002 15.9992 22.8002C13.6992 22.8002 13.4992 22.8002 12.5992 22.8002C11.7992 22.8002 11.3992 22.6002 11.0992 22.5002C10.6992 22.3002 10.3992 22.2002 10.0992 21.9002C9.79922 21.6002 9.59922 21.3002 9.49922 20.9002C9.39922 20.6002 9.29922 20.2002 9.19922 19.4002C9.19922 18.5002 9.19922 18.3002 9.19922 16.0002C9.19922 13.7002 9.19922 13.5002 9.19922 12.6002C9.19922 11.8002 9.39922 11.4002 9.49922 11.1002C9.69922 10.7002 9.79922 10.4002 10.0992 10.1002C10.3992 9.8002 10.6992 9.6002 11.0992 9.5002C11.3992 9.4002 11.7992 9.3002 12.5992 9.2002C13.4992 9.2002 13.7992 9.2002 15.9992 9.2002ZM15.9992 7.7002C13.6992 7.7002 13.4992 7.7002 12.5992 7.7002C11.6992 7.7002 11.0992 7.9002 10.5992 8.1002C10.0992 8.3002 9.59922 8.6002 9.09922 9.1002C8.59922 9.6002 8.39922 10.0002 8.09922 10.6002C7.89922 11.1002 7.79922 11.7002 7.69922 12.6002C7.69922 13.5002 7.69922 13.8002 7.69922 16.0002C7.69922 18.3002 7.69922 18.5002 7.69922 19.4002C7.69922 20.3002 7.89922 20.9002 8.09922 21.4002C8.29922 21.9002 8.59922 22.4002 9.09922 22.9002C9.59922 23.4002 9.99922 23.6002 10.5992 23.9002C11.0992 24.1002 11.6992 24.2002 12.5992 24.3002C13.4992 24.3002 13.7992 24.3002 15.9992 24.3002C18.1992 24.3002 18.4992 24.3002 19.3992 24.3002C20.2992 24.3002 20.8992 24.1002 21.3992 23.9002C21.8992 23.7002 22.3992 23.4002 22.8992 22.9002C23.3992 22.4002 23.5992 22.0002 23.8992 21.4002C24.0992 20.9002 24.1992 20.3002 24.2992 19.4002C24.2992 18.5002 24.2992 18.2002 24.2992 16.0002C24.2992 13.8002 24.2992 13.5002 24.2992 12.6002C24.2992 11.7002 24.0992 11.1002 23.8992 10.6002C23.6992 10.1002 23.3992 9.6002 22.8992 9.1002C22.3992 8.6002 21.9992 8.4002 21.3992 8.1002C20.8992 7.9002 20.2992 7.8002 19.3992 7.7002C18.4992 7.7002 18.2992 7.7002 15.9992 7.7002Z" fill="white"/>
<path d="M15.9992 11.7002C13.5992 11.7002 11.6992 13.6002 11.6992 16.0002C11.6992 18.4002 13.5992 20.3002 15.9992 20.3002C18.3992 20.3002 20.2992 18.4002 20.2992 16.0002C20.2992 13.6002 18.3992 11.7002 15.9992 11.7002ZM15.9992 18.8002C14.4992 18.8002 13.1992 17.6002 13.1992 16.0002C13.1992 14.5002 14.3992 13.2002 15.9992 13.2002C17.4992 13.2002 18.7992 14.4002 18.7992 16.0002C18.7992 17.5002 17.4992 18.8002 15.9992 18.8002Z" fill="white"/>
<path d="M20.3992 12.6002C20.9515 12.6002 21.3992 12.1525 21.3992 11.6002C21.3992 11.0479 20.9515 10.6002 20.3992 10.6002C19.8469 10.6002 19.3992 11.0479 19.3992 11.6002C19.3992 12.1525 19.8469 12.6002 20.3992 12.6002Z" fill="white"/>
</svg>
