<svg width="29" height="28" viewBox="0 0 29 28" fill="none" xmlns="http://www.w3.org/2000/svg">
<path d="M15.8711 2.33325C17.1836 2.33675 17.8497 2.34375 18.4249 2.36009L18.6512 2.36825C18.9126 2.37759 19.1704 2.38925 19.4819 2.40325C20.7232 2.46159 21.5702 2.65759 22.3134 2.94575C23.0834 3.24209 23.7321 3.64342 24.3807 4.29092C24.974 4.87413 25.433 5.57961 25.7259 6.35825C26.0141 7.10142 26.2101 7.94842 26.2684 9.19092C26.2824 9.50125 26.2941 9.75909 26.3034 10.0216L26.3104 10.2479C26.3279 10.8219 26.3349 11.4881 26.3372 12.8006L26.3384 13.6709V15.1993C26.3413 16.0502 26.3323 16.9012 26.3116 17.7519L26.3046 17.9783C26.2952 18.2408 26.2836 18.4986 26.2696 18.8089C26.2112 20.0514 26.0129 20.8973 25.7259 21.6416C25.4339 22.4207 24.9747 23.1263 24.3807 23.7089C23.7974 24.302 23.0919 24.761 22.3134 25.0541C21.5702 25.3423 20.7232 25.5383 19.4819 25.5966C19.2051 25.6096 18.9282 25.6213 18.6512 25.6316L18.4249 25.6386C17.8497 25.6549 17.1836 25.6631 15.8711 25.6654L15.0007 25.6666H13.4736C12.6222 25.6695 11.7708 25.6606 10.9197 25.6397L10.6934 25.6328C10.4164 25.6223 10.1396 25.6102 9.86273 25.5966C8.6214 25.5383 7.7744 25.3423 7.03007 25.0541C6.25151 24.7617 5.54632 24.3026 4.9639 23.7089C4.37012 23.1259 3.91066 22.4204 3.61757 21.6416C3.3294 20.8984 3.1334 20.0514 3.07507 18.8089C3.06207 18.5321 3.0504 18.2552 3.04007 17.9783L3.03423 17.7519C3.01274 16.9012 3.00301 16.0502 3.00507 15.1993V12.8006C3.00181 11.9496 3.01037 11.0986 3.03073 10.2479L3.0389 10.0216C3.04823 9.75909 3.0599 9.50125 3.0739 9.19092C3.13223 7.94842 3.32823 7.10258 3.6164 6.35825C3.90937 5.57881 4.36974 4.87311 4.96507 4.29092C5.54734 3.69764 6.25207 3.23857 7.03007 2.94575C7.7744 2.65759 8.62023 2.46159 9.86273 2.40325C10.1731 2.38925 10.4321 2.37759 10.6934 2.36825L10.9197 2.36125C11.7705 2.34052 12.6214 2.33158 13.4724 2.33442L15.8711 2.33325ZM14.6717 8.16658C13.1246 8.16658 11.6409 8.78117 10.5469 9.87513C9.45298 10.9691 8.8384 12.4528 8.8384 13.9999C8.8384 15.547 9.45298 17.0307 10.5469 18.1247C11.6409 19.2187 13.1246 19.8333 14.6717 19.8333C16.2188 19.8333 17.7026 19.2187 18.7965 18.1247C19.8905 17.0307 20.5051 15.547 20.5051 13.9999C20.5051 12.4528 19.8905 10.9691 18.7965 9.87513C17.7026 8.78117 16.2188 8.16658 14.6717 8.16658ZM14.6717 10.4999C15.1314 10.4998 15.5865 10.5903 16.0112 10.7661C16.4358 10.9419 16.8217 11.1997 17.1468 11.5246C17.4718 11.8496 17.7297 12.2354 17.9057 12.66C18.0816 13.0846 18.1722 13.5397 18.1723 13.9993C18.1724 14.459 18.0819 14.9141 17.9061 15.3388C17.7303 15.7634 17.4726 16.1493 17.1476 16.4744C16.8227 16.7994 16.4369 17.0573 16.0122 17.2333C15.5876 17.4092 15.1325 17.4998 14.6729 17.4999C13.7446 17.4999 12.8544 17.1312 12.198 16.4748C11.5416 15.8184 11.1729 14.9282 11.1729 13.9999C11.1729 13.0717 11.5416 12.1814 12.198 11.525C12.8544 10.8687 13.7446 10.4999 14.6729 10.4999M20.7979 6.41658C20.4111 6.41658 20.0402 6.57023 19.7667 6.84372C19.4932 7.11721 19.3396 7.48814 19.3396 7.87492C19.3396 8.26169 19.4932 8.63263 19.7667 8.90612C20.0402 9.17961 20.4111 9.33325 20.7979 9.33325C21.1847 9.33325 21.5556 9.17961 21.8291 8.90612C22.1026 8.63263 22.2562 8.26169 22.2562 7.87492C22.2562 7.48814 22.1026 7.11721 21.8291 6.84372C21.5556 6.57023 21.1847 6.41658 20.7979 6.41658Z" fill="white"/>
</svg>
