<svg width="32" height="31" viewBox="0 0 32 31" fill="none" xmlns="http://www.w3.org/2000/svg">
<path d="M2.66669 15.5L15.523 21.7273C15.6979 21.812 15.7854 21.8544 15.8771 21.871C15.9583 21.8858 16.0417 21.8858 16.123 21.871C16.2147 21.8544 16.3021 21.812 16.477 21.7273L29.3334 15.5M2.66669 21.9583L15.523 28.1856C15.6979 28.2703 15.7854 28.3127 15.8771 28.3294C15.9583 28.3441 16.0417 28.3441 16.123 28.3294C16.2147 28.3127 16.3021 28.2703 16.477 28.1856L29.3334 21.9583M2.66669 9.04168L15.523 2.81441C15.6979 2.72968 15.7854 2.68732 15.8771 2.67065C15.9583 2.65588 16.0417 2.65588 16.123 2.67065C16.2147 2.68732 16.3021 2.72968 16.477 2.81441L29.3334 9.04168L16.477 15.269C16.3021 15.3537 16.2147 15.396 16.123 15.4127C16.0417 15.4275 15.9583 15.4275 15.8771 15.4127C15.7854 15.396 15.6979 15.3537 15.523 15.269L2.66669 9.04168Z" stroke="white" stroke-width="2" stroke-linecap="round" stroke-linejoin="round"/>
</svg>
