<svg width="29" height="29" viewBox="0 0 29 29" fill="none" xmlns="http://www.w3.org/2000/svg">
<path d="M1.58398 14.4996L14.0385 20.7269C14.208 20.8116 14.2927 20.854 14.3816 20.8706C14.4603 20.8854 14.541 20.8854 14.6197 20.8706C14.7086 20.854 14.7933 20.8116 14.9628 20.7269L27.4173 14.4996M1.58398 20.9579L14.0385 27.1852C14.208 27.2699 14.2927 27.3123 14.3816 27.329C14.4603 27.3437 14.541 27.3437 14.6197 27.329C14.7086 27.3123 14.7933 27.2699 14.9628 27.1852L27.4173 20.9579M1.58398 8.04128L14.0385 1.81401C14.208 1.72929 14.2927 1.68693 14.3816 1.67025C14.4603 1.65549 14.541 1.65549 14.6197 1.67025C14.7086 1.68693 14.7933 1.72929 14.9628 1.81401L27.4173 8.04128L14.9628 14.2686C14.7933 14.3533 14.7086 14.3956 14.6197 14.4123C14.541 14.4271 14.4603 14.4271 14.3816 14.4123C14.2927 14.3956 14.208 14.3533 14.0385 14.2686L1.58398 8.04128Z" stroke="white" stroke-width="2" stroke-linecap="round" stroke-linejoin="round"/>
</svg>
