<svg width="73" height="72" viewBox="0 0 73 72" fill="none" xmlns="http://www.w3.org/2000/svg">
<path opacity="0.1" d="M10.979 13.1277C17.6882 6.41855 26.7877 2.64941 36.2758 2.64941C45.7639 2.64942 54.8634 6.41856 61.5725 13.1277C68.2816 19.8368 72.0508 28.9363 72.0508 38.4244C72.0508 47.9125 68.2816 57.012 61.5725 63.7212L36.2758 38.4244L10.979 13.1277Z" fill="#1DBF73"/>
<path d="M4.01809 31.8246C4.01809 26.6289 4.88906 22.5744 6.63099 19.6611C8.40296 16.7179 11.4363 15.2462 15.7311 15.2462C20.0259 15.2462 23.0442 16.7179 24.7861 19.6611C26.5581 22.5744 27.4441 26.6289 27.4441 31.8246C27.4441 37.0805 26.5581 41.195 24.7861 44.1683C23.0442 47.1116 20.0259 48.5832 15.7311 48.5832C11.4363 48.5832 8.40296 47.1116 6.63099 44.1683C4.88906 41.195 4.01809 37.0805 4.01809 31.8246ZM22.3985 31.8246C22.3985 29.3919 22.2333 27.3347 21.9029 25.6528C21.6026 23.9709 20.9719 22.6044 20.0108 21.5532C19.0498 20.472 17.6232 19.9314 15.7311 19.9314C13.839 19.9314 12.4124 20.472 11.4513 21.5532C10.4903 22.6044 9.84456 23.9709 9.51419 25.6528C9.21386 27.3347 9.06369 29.3919 9.06369 31.8246C9.06369 34.3474 9.21386 36.4648 9.51419 38.1767C9.81452 39.8886 10.4452 41.2701 11.4063 42.3213C12.3974 43.3725 13.839 43.898 15.7311 43.898C17.6232 43.898 19.0498 43.3725 20.0108 42.3213C21.0019 41.2701 21.6477 39.8886 21.948 38.1767C22.2483 36.4648 22.3985 34.3474 22.3985 31.8246ZM35.7164 41.6906C38.5996 39.1978 40.8671 37.1556 42.5189 35.5638C44.2008 33.942 45.5974 32.2601 46.7086 30.5182C47.8198 28.7763 48.3754 27.0343 48.3754 25.2924C48.3754 23.4904 47.94 22.0788 47.069 21.0577C46.2281 20.0366 44.8916 19.526 43.0595 19.526C41.2876 19.526 39.906 20.0966 38.9149 21.2379C37.9539 22.3491 37.4433 23.8508 37.3832 25.7429H32.4277C32.5178 22.3191 33.539 19.7062 35.4911 17.9042C37.4733 16.0722 39.9811 15.1561 43.0145 15.1561C46.2881 15.1561 48.841 16.0571 50.673 17.8591C52.5351 19.6611 53.4661 22.0638 53.4661 25.0671C53.4661 27.2295 52.9105 29.3169 51.7992 31.3291C50.718 33.3113 49.4116 35.0983 47.8799 36.69C46.3782 38.2518 44.4561 40.0688 42.1135 42.1411L40.0862 43.9431H54.3671V48.2228H32.4728V44.4837L35.7164 41.6906Z" fill="#1DBF73"/>
</svg>
