<svg width="32" height="30" viewBox="0 0 32 30" fill="none" xmlns="http://www.w3.org/2000/svg">
<path fill-rule="evenodd" clip-rule="evenodd" d="M15.7941 5C16.8985 5 18.0313 5.0275 19.1292 5.0725L20.426 5.1325L21.6673 5.20375L22.8298 5.28L23.8916 5.36C25.0438 5.44535 26.128 5.92118 26.9535 6.7038C27.779 7.48641 28.2928 8.52567 28.4047 9.63875L28.4563 10.17L28.5532 11.3075C28.6436 12.4862 28.7108 13.7712 28.7108 15C28.7108 16.2287 28.6436 17.5137 28.5532 18.6925L28.4563 19.83C28.4395 20.0125 28.4227 20.1887 28.4047 20.3612C28.2928 21.4745 27.7787 22.5139 26.953 23.2966C26.1273 24.0792 25.0427 24.5549 23.8903 24.64L22.8311 24.7187L21.6686 24.7962L20.426 24.8675L19.1292 24.9275C18.0181 24.9742 16.9062 24.9984 15.7941 25C14.682 24.9984 13.5701 24.9742 12.459 24.9275L11.1622 24.8675L9.9209 24.7962L8.7584 24.7187L7.69665 24.64C6.54442 24.5546 5.4602 24.0788 4.63472 23.2962C3.80924 22.5136 3.29539 21.4743 3.18357 20.3612L3.1319 19.83L3.03502 18.6925C2.93626 17.4639 2.8837 16.2323 2.87744 15C2.87744 13.7712 2.94461 12.4862 3.03502 11.3075L3.1319 10.17C3.14869 9.9875 3.16548 9.81125 3.18357 9.63875C3.29535 8.52587 3.80901 7.48677 4.63423 6.70418C5.45944 5.92159 6.54336 5.44563 7.69536 5.36L8.75582 5.28L9.91832 5.20375L11.1609 5.1325L12.4577 5.0725C13.5692 5.02579 14.6816 5.00162 15.7941 5ZM13.2108 11.9687V18.0312C13.2108 18.6087 13.8566 18.9687 14.3733 18.6812L19.7983 15.65C19.9163 15.5842 20.0144 15.4895 20.0826 15.3754C20.1507 15.2613 20.1866 15.1318 20.1866 15C20.1866 14.8682 20.1507 14.7387 20.0826 14.6246C20.0144 14.5105 19.9163 14.4158 19.7983 14.35L14.3733 11.32C14.2554 11.2542 14.1217 11.2195 13.9857 11.2195C13.8496 11.2195 13.7159 11.2542 13.5981 11.3201C13.4802 11.386 13.3824 11.4807 13.3144 11.5948C13.2464 11.7089 13.2107 11.8383 13.2108 11.97V11.9687Z" fill="black"/>
</svg>
