<svg width="24" height="12" viewBox="0 0 24 12" fill="none" xmlns="http://www.w3.org/2000/svg">
<path d="M5.32875 1.62604V0.167708H23.3333V1.62604H5.32875ZM5.32875 6.5625V5.10417H23.3333V6.5625H5.32875ZM5.32875 11.499V10.0406H23.3333V11.499H5.32875ZM0.896875 1.79375C0.643125 1.79375 0.430208 1.70479 0.258125 1.52687C0.0860417 1.34896 0 1.12972 0 0.869166C0 0.623194 0.0860417 0.416597 0.258125 0.249374C0.430208 0.0831243 0.643125 0 0.896875 0C1.1516 0 1.365 0.0831243 1.53708 0.249374C1.70917 0.416597 1.79521 0.623194 1.79521 0.869166C1.79521 1.13167 1.70917 1.35139 1.53708 1.52833C1.365 1.70528 1.1516 1.79424 0.896875 1.79521M0.896875 6.7025C0.643125 6.7025 0.430208 6.61938 0.258125 6.45313C0.0860417 6.2859 0 6.07931 0 5.83333C0 5.55139 0.0860417 5.32681 0.258125 5.15958C0.430208 4.99236 0.643125 4.90826 0.896875 4.90729C1.1516 4.90729 1.365 4.99139 1.53708 5.15958C1.70917 5.32681 1.79521 5.55139 1.79521 5.83333C1.79521 6.07931 1.70917 6.2859 1.53708 6.45313C1.365 6.61938 1.1516 6.7025 0.896875 6.7025ZM0.896875 11.6667C0.643125 11.6667 0.430208 11.5782 0.258125 11.4012C0.0860417 11.2243 0 11.0041 0 10.7406C0 10.4947 0.0860417 10.2885 0.258125 10.1223C0.430208 9.95604 0.643125 9.87243 0.896875 9.87146C1.1516 9.87146 1.365 9.95507 1.53708 10.1223C1.70917 10.2885 1.79521 10.4947 1.79521 10.7406C1.79521 11.0031 1.70917 11.2233 1.53708 11.4012C1.365 11.5782 1.1516 11.6667 0.896875 11.6667Z" fill="white"/>
</svg>
