<svg width="30" height="30" viewBox="0 0 30 30" fill="none" xmlns="http://www.w3.org/2000/svg">
<circle cx="15" cy="15" r="15" fill="#58B310"/>
<g clip-path="url(#clip0_630_6888)">
<path d="M16.1431 6.21758C16.1431 6.57334 15.996 6.89306 15.7621 7.11341V8.62142H19.573C20.1795 8.62142 20.7611 8.87468 21.1899 9.32549C21.6187 9.7763 21.8596 10.3877 21.8596 11.0253V19.0381C21.8596 19.6756 21.6187 20.2871 21.1899 20.7379C20.7611 21.1887 20.1795 21.4419 19.573 21.4419H10.4267C9.82025 21.4419 9.23864 21.1887 8.80983 20.7379C8.38101 20.2871 8.1401 19.6756 8.1401 19.0381V11.0253C8.1401 10.3877 8.38101 9.7763 8.80983 9.32549C9.23864 8.87468 9.82025 8.62142 10.4267 8.62142H14.2377V7.11341C14.0955 6.97975 13.9874 6.81083 13.9233 6.62204C13.8591 6.43324 13.8408 6.23057 13.8702 6.03247C13.8996 5.83437 13.9756 5.64714 14.0914 5.48783C14.2072 5.32852 14.359 5.20219 14.5331 5.12034C14.7072 5.03849 14.898 5.00373 15.0882 5.01922C15.2783 5.0347 15.4617 5.09994 15.6218 5.209C15.7818 5.31806 15.9133 5.46747 16.0044 5.64362C16.0955 5.81978 16.1432 6.01709 16.1431 6.21758ZM10.4267 10.224C10.2245 10.224 10.0307 10.3084 9.88773 10.4587C9.74479 10.6089 9.66449 10.8128 9.66449 11.0253V19.0381C9.66449 19.2506 9.74479 19.4544 9.88773 19.6047C10.0307 19.755 10.2245 19.8394 10.4267 19.8394H19.573C19.7752 19.8394 19.969 19.755 20.112 19.6047C20.2549 19.4544 20.3352 19.2506 20.3352 19.0381V11.0253C20.3352 10.8128 20.2549 10.6089 20.112 10.4587C19.969 10.3084 19.7752 10.224 19.573 10.224H14.2377H10.4267ZM7.37791 12.6278H5.85352V17.4355H7.37791V12.6278ZM22.6218 12.6278H24.1462V17.4355H22.6218V12.6278ZM12.7133 16.2336C13.0165 16.2336 13.3073 16.107 13.5217 15.8816C13.7361 15.6562 13.8566 15.3504 13.8566 15.0317C13.8566 14.7129 13.7361 14.4072 13.5217 14.1818C13.3073 13.9564 13.0165 13.8298 12.7133 13.8298C12.4101 13.8298 12.1193 13.9564 11.9048 14.1818C11.6904 14.4072 11.57 14.7129 11.57 15.0317C11.57 15.3504 11.6904 15.6562 11.9048 15.8816C12.1193 16.107 12.4101 16.2336 12.7133 16.2336ZM17.2864 16.2336C17.5897 16.2336 17.8805 16.107 18.0949 15.8816C18.3093 15.6562 18.4297 15.3504 18.4297 15.0317C18.4297 14.7129 18.3093 14.4072 18.0949 14.1818C17.8805 13.9564 17.5897 13.8298 17.2864 13.8298C16.9832 13.8298 16.6924 13.9564 16.478 14.1818C16.2636 14.4072 16.1431 14.7129 16.1431 15.0317C16.1431 15.3504 16.2636 15.6562 16.478 15.8816C16.6924 16.107 16.9832 16.2336 17.2864 16.2336Z" fill="white"/>
</g>
<defs>
<clipPath id="clip0_630_6888">
<rect width="18.2927" height="19.2308" fill="white" transform="translate(5.85352 4.61523)"/>
</clipPath>
</defs>
</svg>
